<svg width="103" height="103" viewBox="0 0 103 103" fill="none" xmlns="http://www.w3.org/2000/svg">
<path d="M50.4726 98.7997C76.0767 98.7997 96.8329 86.8164 96.8329 72.0341C96.8329 57.2519 76.0767 45.2686 50.4726 45.2686C24.8685 45.2686 4.1123 57.2519 4.1123 72.0341C4.1123 86.8164 24.8685 98.7997 50.4726 98.7997Z" fill="#F5F5F5"/>
<path d="M58.4164 86.756C63.1242 86.756 66.9407 84.5526 66.9407 81.8347C66.9407 79.1167 63.1242 76.9133 58.4164 76.9133C53.7085 76.9133 49.8921 79.1167 49.8921 81.8347C49.8921 84.5526 53.7085 86.756 58.4164 86.756Z" fill="#E0E0E0"/>
<path d="M80.5931 83.839C85.301 83.839 89.1174 81.6357 89.1174 78.9177C89.1174 76.1997 85.301 73.9963 80.5931 73.9963C75.8853 73.9963 72.0688 76.1997 72.0688 78.9177C72.0688 81.6357 75.8853 83.839 80.5931 83.839Z" fill="#E0E0E0"/>
<path d="M33.9608 94.1337C38.6686 94.1337 42.4851 91.9303 42.4851 89.2124C42.4851 86.4944 38.6686 84.291 33.9608 84.291C29.253 84.291 25.4365 86.4944 25.4365 89.2124C25.4365 91.9303 29.253 94.1337 33.9608 94.1337Z" fill="#E0E0E0"/>
<path d="M19.9956 73.0247C19.9956 73.0247 19.7731 67.8211 17.5916 64.9248C15.41 62.0284 12.7362 61.6123 11.4116 62.428C10.4434 63.0213 10.5732 64.7847 12.2479 65.93C13.9227 67.0754 17.1507 70.0109 17.6554 71.9246L19.9956 73.0247Z" fill="#37474F"/>
<path d="M18.5468 72.2676C18.5115 72.2649 18.4786 72.2486 18.4551 72.222C18.4316 72.1955 18.4194 72.1608 18.4211 72.1254C18.6457 67.4039 14.5071 64.4602 13.3803 63.9308C13.348 63.9155 13.3229 63.8882 13.3106 63.8547C13.2983 63.8211 13.2996 63.7841 13.3144 63.7515C13.33 63.7191 13.3577 63.694 13.3916 63.6816C13.4255 63.6693 13.4628 63.6708 13.4957 63.6856C14.6513 64.2336 18.9217 67.268 18.691 72.1316C18.6889 72.1673 18.6728 72.2008 18.6462 72.2247C18.6195 72.2486 18.5846 72.261 18.5489 72.2593L18.5468 72.2676Z" fill="white"/>
<path d="M18.958 71.3805C18.6606 71.3765 18.3746 71.2653 18.1526 71.0674C17.8992 70.7893 17.9198 70.3629 17.8024 70.0045C17.6108 69.4153 17.0299 69.0157 16.4242 68.89C15.8101 68.7942 15.1824 68.8364 14.5867 69.0136C13.3713 69.3123 12.2033 68.5645 10.9858 68.6531C10.5465 68.6672 10.1193 68.8003 9.74983 69.0383C9.56757 69.1589 9.41826 69.323 9.31539 69.5158C9.21252 69.7086 9.15934 69.924 9.16067 70.1425C9.20243 70.5042 9.38256 70.8356 9.66331 71.0674C9.94482 71.2986 10.255 71.4925 10.5862 71.6442L11.6553 72.1901C11.8402 72.2722 12.0106 72.3835 12.16 72.5197C12.3013 72.6711 12.4078 72.8514 12.4722 73.0481C12.5366 73.2449 12.5573 73.4533 12.5329 73.6589C12.4505 74.0709 12.1209 74.384 12.0158 74.7878C11.886 75.3172 12.2095 75.8837 12.675 76.17C13.1586 76.4318 13.7106 76.5396 14.2571 76.479C14.803 76.4481 15.3427 76.339 15.8886 76.3287C16.258 76.3022 16.6271 76.3831 16.9516 76.5614C17.318 76.8268 17.5821 77.2101 17.6994 77.6471C17.7701 77.9273 17.8826 78.1954 18.0331 78.4422C18.2186 78.6767 18.4684 78.8521 18.752 78.9469C19.3005 79.1488 19.903 79.1488 20.4515 78.9469C20.9027 78.7739 21.1231 78.2651 21.292 77.8242C21.4608 77.3627 21.5412 76.8735 21.5289 76.3822C21.503 75.1195 21.2176 73.8756 20.6905 72.7278C20.4371 72.2004 20.0725 71.6731 19.5122 71.4918C19.3307 71.44 19.1454 71.4028 18.958 71.3805Z" fill="#455A64"/>
<path d="M20.1229 77.0402C20.098 77.0403 20.0737 77.0326 20.0534 77.0182C20.0331 77.0038 20.0177 76.9834 20.0096 76.9598C18.7386 73.3157 12.7254 70.1454 10.5336 69.7807C10.518 69.7782 10.5031 69.7726 10.4898 69.7642C10.4764 69.7559 10.4647 69.745 10.4556 69.7322C10.4464 69.7194 10.4398 69.7049 10.4362 69.6895C10.4327 69.6742 10.4321 69.6583 10.4347 69.6427C10.4373 69.6272 10.4429 69.6123 10.4512 69.5989C10.4595 69.5855 10.4704 69.5739 10.4832 69.5647C10.4961 69.5555 10.5106 69.5489 10.5259 69.5454C10.5413 69.5418 10.5572 69.5413 10.5727 69.5438C12.814 69.9146 18.9466 73.155 20.2547 76.8795C20.2602 76.8945 20.2627 76.9105 20.2619 76.9264C20.2612 76.9424 20.2572 76.958 20.2503 76.9724C20.2434 76.9868 20.2337 76.9997 20.2217 77.0103C20.2097 77.0209 20.1957 77.0289 20.1806 77.034C20.1621 77.0404 20.1423 77.0425 20.1229 77.0402Z" fill="white"/>
<path d="M14.7195 75.0417C14.6965 75.0398 14.6745 75.0313 14.6562 75.0171C14.638 75.003 14.6242 74.9839 14.6166 74.9621C14.6089 74.9403 14.6078 74.9168 14.6133 74.8944C14.6187 74.8719 14.6306 74.8515 14.6474 74.8357C15.6306 74.1556 16.7933 73.7821 17.9887 73.7625C18.0179 73.7663 18.0448 73.7806 18.0643 73.8028C18.0837 73.825 18.0944 73.8535 18.0944 73.883C18.0944 73.9125 18.0837 73.941 18.0643 73.9631C18.0448 73.9853 18.0179 73.9996 17.9887 74.0035C16.8453 74.0311 15.7343 74.3888 14.7895 75.0335C14.7675 75.043 14.7431 75.0458 14.7195 75.0417Z" fill="white"/>
<path d="M20.1721 79.8636C20.0425 79.7755 19.9355 79.6582 19.8596 79.5212C19.7838 79.3841 19.7412 79.2311 19.7354 79.0746V36.1463C19.7443 35.9849 19.7911 35.8279 19.872 35.688C19.9529 35.548 20.0656 35.4291 20.2009 35.3408L70.7039 6.1815C70.8381 6.09704 70.9928 6.0508 71.1513 6.04777C71.3099 6.04473 71.4662 6.08502 71.6036 6.16429C71.7409 6.24355 71.854 6.35879 71.9307 6.49759C72.0074 6.63639 72.0447 6.79348 72.0387 6.95194V49.8823C72.0298 50.0437 71.983 50.2007 71.9021 50.3406C71.8212 50.4805 71.7085 50.5995 71.5732 50.6878L21.0702 79.8471C20.9322 79.9198 20.7791 79.9591 20.6231 79.962C20.4671 79.9648 20.3127 79.9311 20.1721 79.8636Z" fill="#455A64"/>
<path d="M20.9817 79.8862H20.9631C20.949 79.8946 20.9337 79.9008 20.9178 79.9047H20.8828C20.8621 79.9119 20.8407 79.9167 20.8189 79.9191C20.8051 79.9247 20.7905 79.9282 20.7757 79.9294L20.7056 79.9397C20.5218 79.9646 20.3348 79.9322 20.17 79.847C20.0407 79.7594 19.9338 79.6425 19.8583 79.5057C19.7828 79.3689 19.7406 79.2163 19.7354 79.0601V41.6484L20.6088 42.1531V79.5772C20.6088 79.7832 20.7139 79.9109 20.8663 79.9109C20.8868 79.914 20.9076 79.914 20.9281 79.9109C20.9471 79.9054 20.9652 79.8971 20.9817 79.8862Z" fill="url(#paint0_linear_3723_40305)"/>
<path opacity="0.81" d="M20.9817 79.8862H20.9631C20.949 79.8946 20.9337 79.9008 20.9178 79.9047H20.8828C20.8621 79.9119 20.8407 79.9167 20.8189 79.9191C20.8051 79.9247 20.7905 79.9282 20.7757 79.9294L20.7056 79.9397C20.5218 79.9646 20.3348 79.9322 20.17 79.847C20.0407 79.7594 19.9338 79.6425 19.8583 79.5057C19.7828 79.3689 19.7406 79.2163 19.7354 79.0601V41.6484L20.6088 42.1531V79.5772C20.6088 79.7832 20.7139 79.9109 20.8663 79.9109C20.8868 79.914 20.9076 79.914 20.9281 79.9109C20.9471 79.9054 20.9652 79.8971 20.9817 79.8862Z" fill="#E0E0E0"/>
<path d="M20.6088 42.1531L19.7354 41.6484V49.9605L20.6088 50.4694V42.1531Z" fill="url(#paint1_linear_3723_40305)"/>
<path opacity="0.15" d="M20.6088 42.1531L19.7354 41.6484V49.9605L20.6088 50.4694V42.1531Z" fill="black"/>
<path d="M20.7435 36.1902C20.661 36.329 20.615 36.4863 20.6096 36.6476V42.1519L19.7361 41.6472V36.1449C19.7351 36.1264 19.7351 36.1078 19.7361 36.0893C19.7401 36.0505 19.7463 36.012 19.7547 35.9739C19.7803 35.8732 19.8191 35.7762 19.87 35.6855L20.7435 36.1902Z" fill="#263238"/>
<path d="M72.0375 6.95209V9.43645L35.0172 30.809C34.7618 30.9573 34.5537 30.8357 34.5537 30.5412V29.5997C34.5537 29.3052 34.3477 29.1877 34.0882 29.3319L22.8138 35.8436C22.6784 35.9319 22.5658 36.0508 22.4849 36.1908C22.404 36.3307 22.3572 36.4877 22.3482 36.6491V37.5884C22.3395 37.7496 22.293 37.9065 22.2125 38.0464C22.132 38.1863 22.0197 38.3053 21.8847 38.3939L20.6055 39.1396V36.6676C20.6142 36.5064 20.6607 36.3495 20.7412 36.2096C20.8217 36.0697 20.934 35.9507 21.069 35.8621L71.574 6.68429C71.8294 6.53597 72.0375 6.65545 72.0375 6.95209Z" fill="#37474F"/>
<path d="M72.0396 49.8831C72.0303 50.0441 71.9833 50.2006 71.9024 50.3402C71.8216 50.4797 71.7091 50.5983 71.574 50.6865L21.069 79.8458C20.8135 79.992 20.6055 79.8725 20.6055 79.5759V39.1402L21.8847 38.4027C22.1402 38.2544 22.5563 36.0007 22.8138 35.8524L33.8986 29.452C34.1561 29.3037 34.7618 30.9681 35.0172 30.8198L72.0375 9.43701V49.8831H72.0396Z" fill="url(#paint2_linear_3723_40305)"/>
<path opacity="0.9" d="M72.0396 49.8831C72.0303 50.0441 71.9833 50.2006 71.9024 50.3402C71.8216 50.4797 71.7091 50.5983 71.574 50.6865L21.069 79.8458C20.8135 79.992 20.6055 79.8725 20.6055 79.5759V39.1402L21.8847 38.4027C22.1402 38.2544 22.5563 36.0007 22.8138 35.8524L33.8986 29.452C34.1561 29.3037 34.7618 30.9681 35.0172 30.8198L72.0375 9.43701V49.8831H72.0396Z" fill="white"/>
<g opacity="0.4">
<path d="M71.8388 9.79339V49.8831C71.8288 50.0067 71.791 50.1265 71.7282 50.2335C71.6654 50.3405 71.5793 50.432 71.4763 50.5011L20.9733 79.6665C20.9421 79.6876 20.9058 79.6997 20.8682 79.7016C20.8209 79.7016 20.8188 79.5986 20.8188 79.5759V39.2493L21.9951 38.5695C22.1763 38.4645 22.2917 38.104 22.5513 37.177C22.6455 36.7776 22.7751 36.3874 22.9385 36.011L33.9328 29.6642C34.0643 29.8435 34.1827 30.0321 34.2871 30.2286C34.5858 30.7518 34.7506 31.0238 34.9895 31.0238C35.0377 31.0236 35.0851 31.0116 35.1276 30.9887L71.8388 9.79339ZM72.0448 9.43701L35.0246 30.8095C35.0131 30.8124 35.001 30.8124 34.9895 30.8095C34.73 30.8095 34.2026 29.4231 33.941 29.4231C33.9295 29.4202 33.9175 29.4202 33.906 29.4231L22.8211 35.8442C22.5636 35.9925 22.1475 38.2461 21.8921 38.3944L20.6128 39.1402V79.5759C20.6128 79.7819 20.7179 79.9076 20.8682 79.9076C20.941 79.9045 21.0118 79.8833 21.0742 79.8458L71.5813 50.6865C71.7164 50.5983 71.8289 50.4797 71.9098 50.3402C71.9906 50.2007 72.0376 50.0441 72.0469 49.8831V9.43701H72.0448Z" fill="url(#paint3_linear_3723_40305)"/>
</g>
<path d="M20.6055 42.1518V50.468L72.0375 20.7773V12.459L20.6055 42.1518Z" fill="url(#paint4_linear_3723_40305)"/>
<path d="M72.0375 9.43701V12.459L20.6055 42.1519V39.1402L21.5592 38.5881C21.8147 38.4398 21.9012 38.2132 22.0227 37.7826L22.3482 36.6579C22.4492 36.2665 22.5542 36.0007 22.8138 35.8524L33.8986 29.452C34.1561 29.3037 34.358 29.2872 34.5537 29.6106L34.9513 30.3316C35.0955 30.585 35.1697 30.7333 35.4251 30.585L72.0375 9.43701Z" fill="#F0F0F0"/>
<path d="M69.855 8.5105C70.1784 8.3251 70.44 8.47548 70.44 8.84834C70.429 9.05136 70.3703 9.24894 70.2686 9.42503C70.167 9.60112 70.0253 9.75078 69.855 9.86186C69.5336 10.0473 69.272 9.89688 69.272 9.52402C69.2831 9.32125 69.3416 9.12391 69.4429 8.94788C69.5441 8.77186 69.6853 8.62204 69.855 8.5105Z" fill="url(#paint5_linear_3723_40305)"/>
<path d="M67.7574 9.72607C68.0788 9.54067 68.3404 9.69105 68.3404 10.0639C68.3293 10.2667 68.2707 10.464 68.1695 10.64C68.0682 10.8161 67.9271 10.9659 67.7574 11.0774C67.434 11.2628 67.1724 11.1125 67.1724 10.7396C67.1834 10.5366 67.2421 10.339 67.3437 10.1629C67.4454 9.9868 67.5871 9.83715 67.7574 9.72607Z" fill="url(#paint6_linear_3723_40305)"/>
<path d="M65.6627 10.9375C65.984 10.7521 66.2477 10.9025 66.2477 11.2753C66.2362 11.4783 66.1773 11.6756 66.0757 11.8517C65.9741 12.0277 65.8326 12.1774 65.6627 12.2889C65.3393 12.4763 65.0776 12.3239 65.0776 11.951C65.0886 11.748 65.1474 11.5504 65.249 11.3743C65.3507 11.1982 65.4924 11.0486 65.6627 10.9375Z" fill="url(#paint7_linear_3723_40305)"/>
<path opacity="0.5" d="M22.7381 39.349L22.0089 39.761L22.287 39.2274C22.298 39.2072 22.3037 39.1845 22.3037 39.1615C22.3037 39.1385 22.298 39.1158 22.287 39.0956C22.2664 39.0709 22.2293 39.0956 22.2046 39.1347L21.8091 39.8969C21.8082 39.9065 21.8082 39.9162 21.8091 39.9258C21.8081 39.9388 21.8081 39.9519 21.8091 39.9649C21.8078 39.9766 21.8078 39.9883 21.8091 39.9999C21.808 40.0054 21.808 40.011 21.8091 40.0164L22.2046 40.3213C22.2104 40.3249 22.2172 40.3269 22.2241 40.3269C22.2311 40.3269 22.2378 40.3249 22.2437 40.3213C22.2626 40.3059 22.2774 40.2861 22.287 40.2636C22.3076 40.2142 22.3055 40.1586 22.287 40.14L22.0089 39.934L22.7381 39.522C22.7572 39.5072 22.7726 39.4881 22.7829 39.4663C22.7933 39.4445 22.7984 39.4205 22.7978 39.3964C22.7978 39.349 22.7711 39.3325 22.7381 39.349Z" fill="#455A64"/>
<path opacity="0.5" d="M23.3489 38.9966L24.0782 38.5846L23.8001 38.3786C23.7753 38.36 23.7733 38.3044 23.8001 38.255C23.8268 38.2055 23.8577 38.1788 23.8825 38.1973L24.278 38.5022C24.2832 38.506 24.2874 38.5109 24.2903 38.5166C24.2925 38.5275 24.2925 38.5387 24.2903 38.5496C24.2925 38.5625 24.2925 38.5757 24.2903 38.5887C24.2903 38.5887 24.2903 38.5887 24.2903 38.599C24.2871 38.609 24.283 38.6186 24.278 38.6278L23.8825 39.3818C23.8739 39.4003 23.8603 39.416 23.8433 39.4271C23.8375 39.4328 23.8298 39.436 23.8217 39.436C23.8136 39.436 23.8058 39.4328 23.8001 39.4271C23.7885 39.4071 23.7824 39.3843 23.7824 39.3612C23.7824 39.3381 23.7885 39.3153 23.8001 39.2953L24.0782 38.7597L23.3489 39.182C23.316 39.2005 23.2912 39.182 23.2912 39.1243C23.2899 39.1 23.2945 39.0756 23.3045 39.0534C23.3146 39.0312 23.3298 39.0117 23.3489 38.9966Z" fill="#455A64"/>
<path opacity="0.5" d="M25.7405 36.8953C25.7405 36.8521 25.6972 36.8582 25.6787 36.9056L25.5777 37.1508C25.4068 37.1322 25.2008 37.297 25.0607 37.5937C24.8815 37.9748 24.8815 38.4177 25.0607 38.601C25.1047 38.6422 25.1616 38.6667 25.2218 38.6705C25.2819 38.6742 25.3415 38.657 25.3903 38.6216C25.5359 38.5239 25.6498 38.3857 25.7178 38.224C25.7292 38.2047 25.7353 38.1826 25.7353 38.1602C25.7353 38.1377 25.7292 38.1157 25.7178 38.0963C25.6931 38.0736 25.656 38.0963 25.6334 38.1437C25.4995 38.428 25.279 38.5557 25.1451 38.4259C25.0112 38.2961 25.0092 37.9583 25.1451 37.6719C25.2399 37.4659 25.3779 37.3485 25.4995 37.3424L25.4232 37.5257C25.4047 37.5731 25.4232 37.6184 25.4521 37.5978L25.7508 37.4042C25.7622 37.3938 25.7711 37.381 25.7768 37.3668C25.7825 37.3525 25.7849 37.3371 25.7837 37.3218L25.7405 36.8953Z" fill="#455A64"/>
<path opacity="0.5" d="M33.5792 30.823L33.845 30.2585C33.8605 30.232 33.8687 30.2018 33.8687 30.171C33.8687 30.1402 33.8605 30.11 33.845 30.0834C33.8141 30.0546 33.7626 30.0834 33.7317 30.1493L33.4659 30.7117L33.1981 30.4563C33.1672 30.4254 33.1157 30.4563 33.0848 30.5222C33.0692 30.5488 33.061 30.579 33.061 30.6098C33.061 30.6405 33.0692 30.6708 33.0848 30.6973L33.3506 30.9527L33.0848 31.5192C33.0692 31.5458 33.061 31.576 33.061 31.6068C33.061 31.6376 33.0692 31.6678 33.0848 31.6943C33.0929 31.701 33.1031 31.7047 33.1137 31.7047C33.1242 31.7047 33.1344 31.701 33.1425 31.6943C33.168 31.6785 33.1876 31.6546 33.1981 31.6264L33.4659 31.0619L33.7317 31.3194C33.7394 31.326 33.7493 31.3296 33.7595 31.3296C33.7696 31.3296 33.7795 31.326 33.7873 31.3194C33.8129 31.3031 33.833 31.2794 33.845 31.2514C33.8605 31.2249 33.8687 31.1947 33.8687 31.1639C33.8687 31.1331 33.8605 31.1029 33.845 31.0763L33.5792 30.823Z" fill="#455A64"/>
<path d="M26.7109 37.5889V36.6495C26.7205 36.4883 26.7677 36.3316 26.849 36.1921C26.9302 36.0525 27.0431 35.934 27.1786 35.8461L68.9657 11.7441C69.2232 11.5958 69.4312 11.7153 69.4312 12.0119V12.9389C69.4222 13.1003 69.3754 13.2573 69.2946 13.3972C69.2137 13.5371 69.101 13.656 68.9657 13.7444L27.1786 37.8587C26.919 38.007 26.7109 37.8855 26.7109 37.5889Z" fill="white"/>
<path d="M68.3323 13.8037C68.3214 13.8058 68.3102 13.8058 68.2994 13.8037C68.2776 13.7928 68.26 13.7749 68.2496 13.7528C68.2391 13.7308 68.2363 13.7059 68.2417 13.6821L68.287 13.2928L68.0975 13.1568C68.084 13.1469 68.0731 13.1339 68.066 13.1188C68.0588 13.1037 68.0554 13.087 68.0563 13.0703C68.0564 13.042 68.0627 13.014 68.0748 12.9884C68.0869 12.9627 68.1045 12.9401 68.1263 12.922L68.3982 12.716C68.4073 12.7078 68.4138 12.697 68.4168 12.6851L68.5383 12.2854C68.5452 12.2563 68.5603 12.2297 68.5819 12.2089C68.6034 12.1881 68.6305 12.1739 68.6599 12.168C68.6782 12.1674 68.6964 12.1721 68.7121 12.1816C68.7278 12.1911 68.7405 12.205 68.7484 12.2216L68.8576 12.4564L69.1048 12.3617C69.1222 12.3542 69.1415 12.3524 69.16 12.3565C69.1784 12.3605 69.1952 12.3703 69.2078 12.3843C69.224 12.4091 69.2327 12.4381 69.2327 12.4678C69.2327 12.4974 69.224 12.5264 69.2078 12.5512L69.0018 12.922C68.9997 12.9329 68.9997 12.9441 69.0018 12.9549L69.0492 13.2907C69.052 13.3182 69.0487 13.346 69.0394 13.372C69.0302 13.398 69.0152 13.4216 68.9956 13.4411C68.9847 13.4542 68.9707 13.4644 68.9549 13.4708C68.9391 13.4773 68.922 13.4798 68.905 13.4782L68.6599 13.4473L68.423 13.7645C68.4115 13.7771 68.3975 13.7871 68.3819 13.7939C68.3662 13.8006 68.3493 13.804 68.3323 13.8037ZM68.1758 13.0476L68.3653 13.1836C68.3812 13.1969 68.3932 13.2143 68.4001 13.2338C68.407 13.2534 68.4085 13.2745 68.4044 13.2948L68.3818 13.6162L68.5878 13.3566C68.5995 13.3399 68.6153 13.3264 68.6337 13.3174C68.652 13.3084 68.6724 13.3042 68.6928 13.3051L68.938 13.336C68.938 13.336 68.9483 13.3031 68.938 13.2866L68.8906 12.9508C68.8873 12.9137 68.8952 12.8764 68.9132 12.8437L69.1192 12.4729L68.8926 12.5594C68.8818 12.5642 68.8702 12.5667 68.8584 12.5669C68.8466 12.567 68.8349 12.5648 68.824 12.5604C68.813 12.556 68.8031 12.5495 68.7947 12.5412C68.7863 12.5328 68.7797 12.5229 68.7752 12.512L68.6743 12.306L68.5527 12.7057C68.5426 12.7424 68.521 12.7749 68.4909 12.7984L68.219 13.0044C68.1998 13.0131 68.1844 13.0284 68.1758 13.0476Z" fill="#E0E0E0"/>
<g opacity="0.5">
<path d="M69.9753 11.6188C69.9396 11.6191 69.9049 11.6076 69.8765 11.586C69.848 11.5645 69.8276 11.534 69.8184 11.4996C69.8092 11.4651 69.8117 11.4286 69.8256 11.3957C69.8395 11.3628 69.8639 11.3355 69.895 11.318L71.201 10.5641C71.2193 10.5534 71.2395 10.5464 71.2604 10.5435C71.2814 10.5406 71.3027 10.5419 71.3232 10.5472C71.3436 10.5526 71.3628 10.5619 71.3797 10.5747C71.3966 10.5875 71.4107 10.6035 71.4214 10.6217C71.4321 10.64 71.4391 10.6602 71.442 10.6811C71.4449 10.7021 71.4436 10.7234 71.4382 10.7439C71.4329 10.7644 71.4235 10.7836 71.4108 10.8004C71.398 10.8173 71.382 10.8315 71.3637 10.8422L70.0557 11.5982C70.0311 11.6119 70.0034 11.6191 69.9753 11.6188Z" fill="#455A64"/>
<path d="M69.9748 12.3746C69.9464 12.3746 69.9186 12.3671 69.8941 12.3531C69.8695 12.339 69.849 12.3187 69.8347 12.2943C69.824 12.2759 69.8171 12.2556 69.8144 12.2346C69.8116 12.2135 69.813 12.1921 69.8186 12.1716C69.8241 12.1511 69.8337 12.1319 69.8467 12.1151C69.8597 12.0984 69.8759 12.0843 69.8944 12.0739L71.2005 11.3178C71.2372 11.3009 71.279 11.2984 71.3176 11.3106C71.3562 11.3228 71.3888 11.349 71.4091 11.384C71.4295 11.419 71.436 11.4603 71.4275 11.4999C71.419 11.5394 71.3961 11.5744 71.3632 11.598L70.0551 12.352C70.0308 12.3664 70.0031 12.3742 69.9748 12.3746Z" fill="#455A64"/>
<path d="M69.9746 13.1298C69.9463 13.1297 69.9185 13.1223 69.8939 13.1082C69.8694 13.0941 69.8489 13.0738 69.8346 13.0494C69.8239 13.0312 69.8171 13.0111 69.8143 12.9902C69.8116 12.9693 69.813 12.948 69.8186 12.9277C69.8242 12.9074 69.8337 12.8884 69.8467 12.8718C69.8597 12.8552 69.8759 12.8413 69.8943 12.8311L71.2003 12.075C71.2186 12.0644 71.2388 12.0574 71.2597 12.0545C71.2807 12.0516 71.302 12.0529 71.3225 12.0582C71.343 12.0636 71.3622 12.0729 71.379 12.0857C71.3959 12.0985 71.4101 12.1145 71.4208 12.1327C71.4314 12.151 71.4384 12.1712 71.4413 12.1921C71.4442 12.2131 71.4429 12.2344 71.4376 12.2549C71.4322 12.2753 71.4229 12.2946 71.4101 12.3114C71.3973 12.3283 71.3813 12.3425 71.3631 12.3531L70.055 13.1092C70.0305 13.1229 70.0028 13.13 69.9746 13.1298Z" fill="#455A64"/>
</g>
<path d="M20.6088 39.1291V42.1511L19.7354 41.6464V38.6265L20.6088 39.1291Z" fill="#E0E0E0"/>
<path d="M56.2179 26.6876L55.8717 26.89L56.873 23.1461L57.2138 22.9468L58.2151 25.5201L57.8689 25.7224L57.0541 23.5399L57.0327 23.5524L56.2179 26.6876ZM56.3457 25.3791L57.7411 24.5634V24.9027L56.3457 25.7184V25.3791ZM58.6398 25.2718V22.1132L58.954 21.9295V23.0955L58.9806 23.0799C59.0037 23.0253 59.0357 22.9542 59.0765 22.8665C59.1182 22.7774 59.1777 22.685 59.2549 22.5895C59.333 22.4924 59.4386 22.405 59.5718 22.3271C59.744 22.2265 59.8958 22.1876 60.0271 22.2105C60.1585 22.2335 60.261 22.3149 60.3347 22.4549C60.4084 22.5948 60.4452 22.7892 60.4452 23.038C60.4452 23.2889 60.4084 23.5279 60.3347 23.755C60.261 23.9811 60.1589 24.1826 60.0285 24.3597C59.898 24.5357 59.7475 24.6735 59.5771 24.7731C59.4457 24.8499 59.3406 24.8862 59.2616 24.882C59.1826 24.8768 59.1218 24.8543 59.0792 24.8144C59.0366 24.7735 59.0037 24.7382 58.9806 24.7085L58.9434 24.7303V25.0943L58.6398 25.2718ZM58.9487 23.9067C58.9487 24.0856 58.9713 24.2302 59.0166 24.3405C59.0618 24.4498 59.128 24.5175 59.215 24.5438C59.3019 24.569 59.4085 24.5448 59.5345 24.4711C59.6659 24.3943 59.7755 24.2901 59.8634 24.1585C59.9521 24.0254 60.0187 23.8775 60.0631 23.7148C60.1084 23.5506 60.131 23.3841 60.131 23.2155C60.131 23.049 60.1088 22.9118 60.0644 22.8041C60.0209 22.6948 59.9548 22.6271 59.866 22.6008C59.7782 22.573 59.6676 22.5981 59.5345 22.6759C59.4067 22.7506 59.2993 22.8509 59.2123 22.9768C59.1253 23.1017 59.0596 23.244 59.0152 23.4036C58.9709 23.5622 58.9487 23.7299 58.9487 23.9067ZM61.7567 23.4989C61.572 23.6069 61.41 23.6507 61.2707 23.6304C61.1322 23.6095 61.0239 23.5304 60.9458 23.3931C60.8686 23.2552 60.83 23.0639 60.83 22.8192C60.83 22.5725 60.8686 22.3345 60.9458 22.1053C61.0239 21.8756 61.1322 21.6694 61.2707 21.4866C61.41 21.3034 61.572 21.1578 61.7567 21.0498C61.9413 20.9419 62.1028 20.8983 62.2413 20.9192C62.3807 20.9395 62.4889 21.0191 62.5662 21.158C62.6443 21.2964 62.6833 21.489 62.6833 21.7357C62.6833 21.9804 62.6443 22.2171 62.5662 22.4458C62.4889 22.674 62.3807 22.8797 62.2413 23.0629C62.1028 23.2457 61.9413 23.391 61.7567 23.4989ZM61.7567 23.172C61.8969 23.09 62.0123 22.9809 62.1028 22.8447C62.1934 22.7085 62.2604 22.5598 62.3039 22.3986C62.3474 22.2375 62.3691 22.0778 62.3691 21.9194C62.3691 21.7611 62.3474 21.6262 62.3039 21.5149C62.2604 21.4036 62.1934 21.3323 62.1028 21.3009C62.0123 21.2695 61.8969 21.2948 61.7567 21.3768C61.6164 21.4588 61.501 21.5684 61.4105 21.7056C61.32 21.8429 61.2529 21.9926 61.2094 22.1548C61.166 22.3169 61.1442 22.4772 61.1442 22.6355C61.1442 22.7939 61.166 22.9282 61.2094 23.0385C61.2529 23.1488 61.32 23.2191 61.4105 23.2494C61.501 23.2798 61.6164 23.254 61.7567 23.172ZM64.4518 20.9054V19.505L64.766 19.3214V21.6903L64.4518 21.874V21.473L64.4305 21.4854C64.3826 21.6337 64.308 21.7796 64.2068 21.9231C64.1056 22.0655 63.9778 22.1819 63.8234 22.2722C63.6956 22.3469 63.5819 22.381 63.4825 22.3743C63.3831 22.3666 63.305 22.3136 63.2482 22.2152C63.1914 22.1158 63.163 21.9653 63.163 21.7638V20.2585L63.4772 20.0748V21.5554C63.4772 21.7281 63.5189 21.8415 63.6024 21.8955C63.6867 21.9491 63.7941 21.9377 63.9246 21.8614C64.0027 21.8157 64.0821 21.7462 64.1629 21.6527C64.2445 21.5587 64.3129 21.4478 64.3679 21.32C64.4238 21.1917 64.4518 21.0535 64.4518 20.9054ZM66.2309 18.4649V18.7734L65.1711 19.393V19.0845L66.2309 18.4649ZM65.48 18.3364L65.7942 18.1527V20.4106C65.7942 20.5134 65.8071 20.583 65.8328 20.6193C65.8595 20.6542 65.8932 20.6684 65.934 20.662C65.9757 20.654 66.0197 20.6366 66.0658 20.6096C66.1005 20.5894 66.1289 20.5707 66.151 20.5536C66.1732 20.5355 66.191 20.521 66.2043 20.5101L66.2682 20.7997C66.2469 20.8214 66.2172 20.8481 66.179 20.8796C66.1408 20.9122 66.0925 20.9457 66.0339 20.9799C65.9451 21.0318 65.8581 21.0605 65.7729 21.0661C65.6886 21.0712 65.6185 21.0449 65.5626 20.9871C65.5075 20.9288 65.48 20.8307 65.48 20.693V18.3364ZM69.0469 18.2191V16.8187L69.3611 16.635V19.0039L69.0469 19.1876V18.7866L69.0256 18.7991C68.9777 18.9474 68.9031 19.0933 68.8019 19.2367C68.7007 19.3792 68.5729 19.4955 68.4185 19.5858C68.2907 19.6606 68.177 19.6946 68.0776 19.6879C67.9782 19.6803 67.9001 19.6272 67.8433 19.5288C67.7865 19.4294 67.7581 19.2789 67.7581 19.0774V17.5722L68.0723 17.3885V18.869C68.0723 19.0418 68.114 19.1551 68.1975 19.2092C68.2818 19.2627 68.3892 19.2513 68.5197 19.175C68.5978 19.1294 68.6772 19.0598 68.758 18.9663C68.8396 18.8723 68.908 18.7614 68.963 18.6336C69.0189 18.5053 69.0469 18.3671 69.0469 18.2191ZM71.3852 15.9822L71.103 16.2398C71.0852 16.1956 71.059 16.158 71.0244 16.1268C70.9907 16.0941 70.9445 16.0779 70.8859 16.0782C70.8274 16.0785 70.7524 16.1054 70.6609 16.1589C70.5358 16.232 70.4315 16.3264 70.348 16.442C70.2655 16.5561 70.2242 16.664 70.2242 16.7658C70.2242 16.8563 70.2526 16.9112 70.3094 16.9304C70.3662 16.9496 70.455 16.9414 70.5757 16.9058L70.8793 16.8147C71.0621 16.7592 71.1984 16.7582 71.288 16.8117C71.3777 16.8642 71.4225 16.9732 71.4225 17.1387C71.4225 17.2744 71.3888 17.4155 71.3213 17.5618C71.2547 17.7077 71.1615 17.8465 71.0417 17.9782C70.9219 18.11 70.7825 18.2223 70.6237 18.3152C70.4151 18.4371 70.2424 18.4856 70.1057 18.4606C69.969 18.4357 69.8825 18.3331 69.8461 18.1528L70.1443 17.8921C70.1727 18.003 70.2264 18.0672 70.3054 18.0848C70.3853 18.1018 70.4896 18.0727 70.6183 17.9975C70.7648 17.9119 70.8811 17.8079 70.9672 17.6856C71.0541 17.5617 71.0976 17.4489 71.0976 17.3471C71.0976 17.2649 71.0728 17.2105 71.0231 17.1841C70.9734 17.1566 70.897 17.159 70.7941 17.1915L70.4532 17.2982C70.2659 17.3563 70.1284 17.357 70.0405 17.3004C69.9535 17.2423 69.91 17.1315 69.91 16.968C69.91 16.8344 69.9424 16.6972 70.0072 16.5565C70.0729 16.4153 70.1621 16.2824 70.2748 16.1579C70.3884 16.0329 70.5171 15.9283 70.6609 15.8443C70.8633 15.7259 71.0222 15.6845 71.1376 15.7198C71.2539 15.7547 71.3364 15.8421 71.3852 15.9822Z" fill="white"/>
<path opacity="0.1" d="M22.8464 52.431L37.0707 44.2178V67.4072L22.8052 75.5978L22.8464 52.431Z" fill="url(#paint8_linear_3723_40305)"/>
<path opacity="0.15" d="M40.1928 42.836L57.3526 32.9295C57.6987 32.7235 57.9706 32.8801 57.9706 33.2653C57.9577 33.4784 57.8951 33.6855 57.7878 33.8701C57.6805 34.0547 57.5314 34.2116 57.3526 34.3282L40.1908 44.346C39.8467 44.552 39.5728 44.3872 39.5728 43.9896V43.9175C39.5843 43.7013 39.6465 43.4909 39.7542 43.303C39.8618 43.1152 40.0121 42.9553 40.1928 42.836Z" fill="url(#paint9_linear_3723_40305)"/>
<path opacity="0.1" d="M40.0177 45.8349L68.4128 29.4414C68.66 29.2993 68.8598 29.4002 68.8598 29.6659C68.8489 29.816 68.8027 29.9614 68.7251 30.0903C68.6474 30.2191 68.5404 30.3278 68.4128 30.4075L40.0177 46.801C39.7726 46.9432 39.5728 46.8422 39.5728 46.5765C39.5836 46.4266 39.6295 46.2814 39.7068 46.1526C39.7841 46.0238 39.8906 45.9149 40.0177 45.8349Z" fill="url(#paint10_linear_3723_40305)"/>
<path opacity="0.1" d="M40.0177 47.7787L68.4128 31.3852C68.66 31.2431 68.8598 31.344 68.8598 31.6098C68.8489 31.7599 68.8027 31.9052 68.7251 32.0341C68.6474 32.163 68.5404 32.2717 68.4128 32.3514L40.0177 48.7449C39.7726 48.887 39.5728 48.7861 39.5728 48.5183C39.5839 48.3688 39.6299 48.224 39.7072 48.0955C39.7845 47.9671 39.8909 47.8586 40.0177 47.7787Z" fill="url(#paint11_linear_3723_40305)"/>
<path opacity="0.1" d="M40.0177 49.7118L68.4128 33.3183C68.66 33.1762 68.8598 33.2771 68.8598 33.5449C68.8486 33.6946 68.8023 33.8396 68.7246 33.9681C68.6469 34.0965 68.5401 34.2049 68.4128 34.2844L40.0177 50.6738C39.7726 50.8159 39.5728 50.715 39.5728 50.4472C39.5848 50.2985 39.6313 50.1547 39.7085 50.027C39.7858 49.8994 39.8916 49.7915 40.0177 49.7118Z" fill="url(#paint12_linear_3723_40305)"/>
<path opacity="0.1" d="M40.0177 51.6557L68.4128 35.2622C68.66 35.1201 68.8598 35.221 68.8598 35.4867C68.8489 35.6368 68.8027 35.7822 68.7251 35.9111C68.6474 36.0399 68.5404 36.1486 68.4128 36.2283L40.0177 52.6218C39.7726 52.764 39.5728 52.663 39.5728 52.3973C39.5836 52.2474 39.6295 52.1022 39.7068 51.9734C39.7841 51.8446 39.8906 51.7357 40.0177 51.6557Z" fill="url(#paint13_linear_3723_40305)"/>
<path opacity="0.1" d="M40.0177 53.5965L59.8308 42.0605C60.0759 41.9183 60.2758 42.0193 60.2758 42.2871C60.2646 42.4366 60.2186 42.5814 60.1413 42.7098C60.064 42.8382 59.9577 42.9468 59.8308 43.0266L40.0177 54.5626C39.7726 54.7048 39.5728 54.6038 39.5728 54.336C39.5839 54.1865 39.6299 54.0417 39.7072 53.9133C39.7845 53.7849 39.8909 53.6763 40.0177 53.5965Z" fill="url(#paint14_linear_3723_40305)"/>
<path opacity="0.1" d="M40.0177 57.4745L68.4128 41.081C68.66 40.9389 68.8598 41.0398 68.8598 41.3056C68.8489 41.4557 68.8027 41.601 68.7251 41.7299C68.6474 41.8588 68.5404 41.9675 68.4128 42.0472L40.0177 58.4407C39.7726 58.5828 39.5728 58.4819 39.5728 58.2161C39.5836 58.0663 39.6295 57.9211 39.7068 57.7923C39.7841 57.6634 39.8906 57.5546 40.0177 57.4745Z" fill="url(#paint15_linear_3723_40305)"/>
<path opacity="0.1" d="M40.0177 59.414L68.4128 43.0205C68.66 42.8784 68.8598 42.9793 68.8598 43.245C68.8489 43.3951 68.8027 43.5405 68.7251 43.6694C68.6474 43.7982 68.5404 43.9069 68.4128 43.9866L40.0177 60.3801C39.7726 60.5223 39.5728 60.4213 39.5728 60.1535C39.5839 60.004 39.6299 59.8592 39.7072 59.7308C39.7845 59.6024 39.8909 59.4938 40.0177 59.414Z" fill="url(#paint16_linear_3723_40305)"/>
<path opacity="0.1" d="M40.0177 61.3536L68.4128 44.9601C68.66 44.818 68.8598 44.9189 68.8598 45.1867C68.8486 45.3365 68.8023 45.4814 68.7246 45.6099C68.6469 45.7384 68.5401 45.8468 68.4128 45.9263L40.0177 62.3218C39.7726 62.464 39.5728 62.363 39.5728 62.0952C39.5839 61.9455 39.6299 61.8004 39.7072 61.6716C39.7845 61.5428 39.8908 61.4339 40.0177 61.3536Z" fill="url(#paint17_linear_3723_40305)"/>
<path opacity="0.1" d="M40.0157 63.2946L50.4516 57.2053C50.6968 57.0631 50.8966 57.1641 50.8966 57.4319C50.8854 57.5813 50.8394 57.7261 50.7621 57.8546C50.6848 57.983 50.5785 58.0915 50.4516 58.1714L40.0177 64.2608C39.7726 64.4029 39.5728 64.302 39.5728 64.0362C39.5833 63.8866 39.6289 63.7415 39.7059 63.6127C39.7828 63.4838 39.8889 63.3749 40.0157 63.2946Z" fill="url(#paint18_linear_3723_40305)"/>
<path d="M77.978 52.1568C79.488 47.2581 80.9568 44.0301 79.4592 43.031C78.0666 43.2906 77.4424 43.9807 77.1458 45.8182C76.8347 47.7443 76.1879 50.4305 75.8109 51.9796C75.4851 53.2742 75.0188 54.5293 74.4204 55.7227C74.3302 55.8879 74.1842 56.0157 74.0084 56.0832C73.5429 56.2665 73.3204 56.4952 72.9413 56.7753C72.6426 56.9813 72.4243 57.0102 72.4387 57.0987C72.4632 57.1982 72.5256 57.284 72.6126 57.3379C72.6997 57.3918 72.8044 57.4095 72.9043 57.3871C73.1281 57.3449 73.3459 57.2757 73.5532 57.1811C73.375 57.6325 73.0976 58.038 72.7415 58.3677C72.0102 58.9857 72.1235 59.5893 73.2957 59.6593C73.7077 59.684 74.6903 59.3009 75.5946 57.7621C75.9004 57.1885 76.1694 56.5961 76.4001 55.9884C77.0304 54.4104 77.6752 53.1456 77.978 52.1568Z" fill="#FFA8A7"/>
<path d="M79.7233 42.973C79.7233 42.973 78.5614 42.9132 77.8569 43.6899C77.1524 44.4665 76.3325 49.1056 76.3325 49.1056C76.3325 49.1056 77.103 50.1644 79.1341 49.7236L79.7233 42.973Z" fill="url(#paint19_linear_3723_40305)"/>
<path opacity="0.3" d="M79.7233 42.973C79.7233 42.973 78.5614 42.9132 77.8569 43.6899C77.1524 44.4665 76.3325 49.1056 76.3325 49.1056C76.3325 49.1056 77.103 50.1644 79.1341 49.7236L79.7233 42.973Z" fill="black"/>
<path d="M85.1561 75.8833H83.5967V78.6643H85.1561V75.8833Z" fill="#FFA8A7"/>
<path d="M79.75 75.7351L78.1906 75.7928L78.1123 72.8491L79.75 72.7935V75.7351Z" fill="#FFA8A7"/>
<path d="M85.3868 51.8071C85.3868 53.3583 85.1582 65.8419 85.1582 65.8419C85.1932 66.2889 85.5949 67.1129 85.5084 68.8268C85.391 71.1546 85.2323 77.2728 85.2323 77.2728C84.9648 77.4106 84.6693 77.4856 84.3683 77.492C84.0674 77.4984 83.769 77.4362 83.4958 77.3099C83.4958 77.3099 82.0208 68.833 81.7427 66.5238C81.4976 64.5111 81.0835 57.7296 81.0835 57.7296L80.2389 65.6132C80.4189 66.4618 80.484 67.3306 80.4325 68.1965C80.3584 69.2636 79.8578 74.8235 79.8578 74.8235C79.5882 74.9824 79.286 75.0778 78.974 75.1024C78.662 75.127 78.3486 75.0803 78.0574 74.9656C78.0574 74.9656 77.1695 66.5938 77.151 65.6132C77.1304 64.4967 77.6701 51.7886 77.6701 51.7886L85.3868 51.8071Z" fill="#37474F"/>
<path d="M83.6014 77.8649V77.6321C83.451 77.7001 83.1049 79.0741 82.4869 79.6674C81.9946 80.1329 81.323 80.6727 81.1521 81.1938C80.9811 81.715 82.0873 82.0364 82.5467 81.9519C83.0802 81.853 84.0072 81.4616 84.2379 81.097C84.4687 80.7324 84.5799 80.1989 84.7694 79.9331C84.9589 79.6674 85.3874 79.3707 85.4945 79.0617C85.5522 78.8928 85.4945 78.522 85.406 78.2089C85.3174 77.8958 85.2556 77.6053 85.1608 77.6321V77.8093C84.9422 77.9906 84.6662 78.0884 84.3821 78.0853C84.1535 78.0915 83.5993 78.0441 83.6014 77.8649Z" fill="#263238"/>
<path d="M78.1775 75.2898C78.0971 75.2898 78.0312 75.4113 77.852 75.6132C77.5873 75.8924 77.2774 76.125 76.9353 76.3012C76.3503 76.6061 75.2152 77.0737 74.7002 77.3147C74.3809 77.4651 74.3953 77.8689 74.727 78.0996C75.0586 78.3303 75.86 78.4951 76.822 78.2706C77.3452 78.149 78.0292 77.6526 78.4597 77.6711C78.8902 77.6897 79.6957 77.6938 80.0191 77.4651C80.3425 77.2365 80.2107 76.7482 80.1201 76.328C80.0212 75.8707 79.8996 75.1559 79.7534 75.1868V75.3454C79.5659 75.64 78.5977 75.7574 78.1857 75.5514L78.1775 75.2898Z" fill="#263238"/>
<path d="M81.0838 57.7307C80.2723 57.4656 79.5304 57.0222 78.9126 56.4329C78.9126 56.4329 79.3246 57.2569 80.5771 58.0108L80.3113 65.0519L81.0838 57.7307Z" fill="#263238"/>
<path d="M84.5739 43.3426C84.5739 43.3426 85.7934 43.4559 85.7069 45.7795L85.437 49.4875V55.0495C84.2896 56.3494 79.2055 56.2526 77.4648 54.9445C77.4648 54.9445 77.6605 48.3669 77.778 45.8352C77.8624 44.0368 78.2765 43.1304 80.044 42.9326L82.2173 43.0274L84.5739 43.3426Z" fill="url(#paint20_linear_3723_40305)"/>
<path opacity="0.3" d="M81.0991 44.5637L80.8189 46.5166L80.168 46.5042L80.9034 46.6217L81.0991 44.5637Z" fill="black"/>
<path d="M82.7287 38.1067C82.7414 38.7354 82.504 39.3435 82.0687 39.7973C81.6334 40.2511 81.0358 40.5137 80.4071 40.5272C79.1237 40.5272 78.1411 39.4416 78.0834 38.1087C77.9824 35.7459 79.1237 35.6882 80.4071 35.6882C81.0354 35.7018 81.6327 35.964 82.068 36.4174C82.5032 36.8708 82.7408 37.4783 82.7287 38.1067Z" fill="#263238"/>
<path d="M84.0417 39.3071C84.0417 39.3071 83.6853 41.0499 83.5432 41.3362C83.4512 41.5109 83.2944 41.6426 83.1064 41.7029L83.1312 40.4772L84.0417 39.3071Z" fill="#263238"/>
<path d="M83.6004 36.8091C83.6004 36.8091 83.8559 36.7452 84.1278 37.1696C84.3606 37.5321 84.4141 38.3479 84.0474 39.3058L83.3779 39.3861L83.6004 36.8091Z" fill="#263238"/>
<path d="M83.1857 39.3853C83.3196 39.4697 83.5111 39.1999 83.678 39.0186C83.8449 38.8373 84.3846 38.5922 84.6565 39.1834C84.9284 39.7746 84.4175 40.5863 83.9911 40.7263C83.2557 40.9674 83.1465 40.475 83.1465 40.475L83.0888 43.2354C82.1145 44.7454 79.9041 44.6898 80.6992 43.1633V42.3228C80.372 42.3772 80.0396 42.3952 79.7084 42.3764C79.1687 42.2878 78.8288 41.8449 78.664 41.2351C78.4003 40.2566 78.3014 39.4677 78.5239 37.5416C78.7711 35.4301 81.1277 35.4115 82.4029 36.2541C83.678 37.0966 83.1857 39.3853 83.1857 39.3853Z" fill="#FFA8A7"/>
<path d="M83.0992 42.6194C82.8725 43.0833 82.547 43.4918 82.1454 43.8163C81.8042 44.0684 81.4082 44.2364 80.9897 44.3066C81.335 44.5405 81.6178 44.8552 81.8137 45.2233C82.0589 45.7589 83.7749 44.2819 83.7584 43.2333C83.7584 43.2333 83.4906 42.1807 83.1198 42.1147L83.0992 42.6194Z" fill="#263238"/>
<path d="M80.9852 44.3064C80.9852 44.3064 80.4558 44.0448 80.6927 43.1652V42.3247L80.4599 42.3556C80.1887 42.6199 79.9961 42.9544 79.9037 43.3217C79.8502 43.5628 79.7183 44.7823 79.9511 45.0233C80.1839 45.2643 80.5094 44.3723 80.9852 44.3064Z" fill="#263238"/>
<path d="M82.2746 37.0775C82.3349 37.0643 82.3975 37.0679 82.4559 37.0878C82.6619 37.1784 82.699 37.8006 82.734 37.9798C82.8514 38.5834 82.9503 39.6072 83.1769 39.6113C83.2449 39.6113 83.5024 39.1684 83.6692 39.0098C83.902 38.7894 83.6013 36.7994 83.6013 36.7994C83.6626 36.6276 83.6743 36.4419 83.635 36.2637C83.5956 36.0855 83.5068 35.9221 83.3788 35.7921C82.9668 35.3141 82.3035 35.207 81.704 35.1741C80.9974 35.1349 80.2805 35.1885 79.5843 35.034C79.3655 34.9732 79.1433 34.9257 78.9189 34.8918C78.9094 34.8878 78.8993 34.8857 78.889 34.8857C78.8787 34.8857 78.8686 34.8878 78.8591 34.8918C78.8365 34.9104 78.8406 34.9454 78.8468 34.9742C78.8904 35.1829 78.964 35.3841 79.0651 35.5716C78.6507 35.5389 78.2414 35.458 77.8456 35.3306C77.8228 35.3235 77.7984 35.3235 77.7756 35.3306C77.7282 35.345 77.72 35.4068 77.7241 35.4563C77.7509 35.9548 77.9878 36.7088 78.3936 37.0013C78.7533 37.2368 79.171 37.3687 79.6007 37.3824C80.6925 37.4236 81.3641 37.1929 82.2746 37.0775Z" fill="#263238"/>
<path d="M83.6025 36.9106L84.4162 36.4554C84.3913 36.3993 84.355 36.3491 84.3097 36.3079C84.2643 36.2667 84.2108 36.2354 84.1526 36.216C84.0945 36.1966 84.0329 36.1896 83.9719 36.1953C83.9109 36.2011 83.8517 36.2195 83.7982 36.2494C83.6899 36.3162 83.6101 36.4206 83.574 36.5426C83.5379 36.6646 83.548 36.7956 83.6025 36.9106Z" fill="#263238"/>
<path d="M80.6924 42.3235C80.6924 42.3235 81.8975 42.0701 82.3198 41.8374C82.57 41.6998 82.7731 41.4902 82.9028 41.2358C82.8399 41.4916 82.7272 41.7324 82.5711 41.9445C82.2642 42.3565 80.6924 42.6572 80.6924 42.6572V42.3235Z" fill="#F28F8F"/>
<path d="M80.9902 39.0723C80.9946 39.1187 81.0123 39.1629 81.0413 39.1995C81.0703 39.236 81.1093 39.2633 81.1536 39.2782C81.1978 39.293 81.2454 39.2946 81.2906 39.2829C81.3357 39.2712 81.3765 39.2467 81.408 39.2122C81.4395 39.1778 81.4603 39.135 81.4679 39.0889C81.4755 39.0429 81.4696 38.9956 81.4509 38.9529C81.4322 38.9102 81.4014 38.8738 81.3624 38.8482C81.3234 38.8225 81.2779 38.8088 81.2312 38.8086C81.1979 38.8096 81.1652 38.8173 81.1349 38.8312C81.1047 38.8452 81.0775 38.865 81.055 38.8896C81.0326 38.9141 81.0152 38.943 81.0041 38.9744C80.993 39.0057 80.9882 39.039 80.9902 39.0723Z" fill="#263238"/>
<path d="M81.3662 38.0274L81.8833 38.3241C81.9206 38.2527 81.9306 38.1702 81.9112 38.092C81.8919 38.0138 81.8445 37.9454 81.7782 37.8997C81.7436 37.8776 81.7046 37.8633 81.6639 37.8578C81.6232 37.8523 81.5818 37.8557 81.5425 37.8679C81.5033 37.88 81.4672 37.9006 81.4368 37.9282C81.4063 37.9557 81.3822 37.9896 81.3662 38.0274Z" fill="#263238"/>
<path d="M80.8031 40.8115L80.251 41.0175C80.2619 41.0555 80.2805 41.0907 80.3056 41.1212C80.3307 41.1517 80.3618 41.1766 80.3969 41.1946C80.432 41.2126 80.4705 41.2231 80.5099 41.2256C80.5493 41.2281 80.5888 41.2225 80.6259 41.2091C80.6993 41.1764 80.758 41.1177 80.7907 41.0443C80.8234 40.9709 80.8278 40.888 80.8031 40.8115Z" fill="#F28F8F"/>
<path d="M78.774 38.2486L79.2458 37.8696C79.2245 37.8364 79.1964 37.8081 79.1634 37.7866C79.1304 37.765 79.0931 37.7508 79.0542 37.7447C79.0152 37.7387 78.9754 37.741 78.9374 37.7515C78.8994 37.762 78.8641 37.7805 78.8338 37.8057C78.7708 37.8591 78.7298 37.9339 78.7188 38.0157C78.7078 38.0975 78.7275 38.1805 78.774 38.2486Z" fill="#263238"/>
<path d="M78.9782 39C78.9769 39.0329 78.982 39.0658 78.9934 39.0967C79.0048 39.1276 79.0222 39.1559 79.0446 39.18C79.067 39.2042 79.094 39.2236 79.124 39.2373C79.154 39.2509 79.1863 39.2585 79.2193 39.2596C79.2886 39.2596 79.3552 39.232 79.4043 39.1829C79.4533 39.1339 79.4809 39.0673 79.4809 38.9979C79.4809 38.9286 79.4533 38.862 79.4043 38.813C79.3552 38.7639 79.2886 38.7363 79.2193 38.7363C79.1526 38.7401 79.09 38.7697 79.045 38.819C78.9999 38.8683 78.976 38.9333 78.9782 39Z" fill="#263238"/>
<path d="M80.2721 38.7976L80.2432 40.3241L79.376 40.1242L80.2721 38.7976Z" fill="#F28F8F"/>
<path d="M86.9446 40.3323C87.2927 39.8708 87.9972 40.8946 88.3227 41.6012C88.6482 42.3078 88.6544 42.7074 88.3866 42.9876C88.1188 43.2678 87.6141 43.0988 87.1094 42.4293C86.6047 41.7598 86.7448 40.6722 86.9446 40.3323Z" fill="url(#paint21_linear_3723_40305)"/>
<path opacity="0.5" d="M86.9446 40.3323C87.2927 39.8708 87.9972 40.8946 88.3227 41.6012C88.6482 42.3078 88.6544 42.7074 88.3866 42.9876C88.1188 43.2678 87.6141 43.0988 87.1094 42.4293C86.6047 41.7598 86.7448 40.6722 86.9446 40.3323Z" fill="black"/>
<path d="M89.4012 40.4684C88.1652 43.3524 86.4451 44.9777 85.6726 46.8338C84.6611 46.7658 83.8721 44.3206 84.6261 43.2762C84.6261 43.2762 87.5884 40.0687 87.8562 38.808C88.0951 37.6894 88.4144 35.8437 88.3877 34.894C88.3771 34.7394 88.3121 34.5934 88.2043 34.482C87.8933 34.1462 87.8933 33.8784 87.6934 33.5097C87.5389 33.2213 87.368 33.1142 87.4174 33.0483C87.4814 32.9797 87.569 32.9379 87.6625 32.931C87.756 32.9241 87.8487 32.9527 87.9221 33.0112C88.065 33.1157 88.1932 33.239 88.3032 33.3779C88.3413 33.0075 88.2809 32.6338 88.1281 32.2943C87.7841 31.5156 87.8685 31.1201 88.9171 31.3961C89.5763 31.5712 89.9883 32.1192 90.0872 33.6992C90.1329 34.3568 90.1371 35.0166 90.0995 35.6748C89.9842 36.8922 89.9121 38.1612 89.7617 39.1768C89.6968 39.6208 89.5757 40.0549 89.4012 40.4684Z" fill="#FFA8A7"/>
<path d="M84.3215 43.3132L86.9335 40.3262C86.9335 40.3262 86.6225 41.0534 87.3023 42.1143C87.9821 43.1752 88.3858 42.9898 88.3858 42.9898C88.3858 42.9898 86.8429 45.2413 86.4309 45.9953C86.0189 46.7493 85.5884 47.3858 85.5884 47.3858C85.5428 47.4737 85.4719 47.546 85.3849 47.5934C85.2979 47.6408 85.1987 47.661 85.1001 47.6515C84.717 47.6515 83.7014 45.95 84.3215 43.3132Z" fill="url(#paint22_linear_3723_40305)"/>
<path opacity="0.3" d="M84.3215 43.3132L86.9335 40.3262C86.9335 40.3262 86.6225 41.0534 87.3023 42.1143C87.9821 43.1752 88.3858 42.9898 88.3858 42.9898C88.3858 42.9898 86.8429 45.2413 86.4309 45.9953C86.0189 46.7493 85.5884 47.3858 85.5884 47.3858C85.5428 47.4737 85.4719 47.546 85.3849 47.5934C85.2979 47.6408 85.1987 47.661 85.1001 47.6515C84.717 47.6515 83.7014 45.95 84.3215 43.3132Z" fill="black"/>
<path d="M63.1161 50.0259L64.346 51.6636L63.0234 53.1777L61.3198 51.1857L63.1161 50.0259Z" fill="#F28F8F"/>
<path d="M59.0894 46.302C60.1626 46.3514 60.6735 46.508 61.2359 47.1796C61.7983 47.8511 64.6081 51.9114 64.6081 51.9114C64.6081 51.9114 64.1116 53.3039 63.024 53.1845L61.0484 51.1471L59.0894 46.302Z" fill="#455A64"/>
<path d="M53.8253 80.3176C53.7489 80.7448 53.7076 81.1774 53.7017 81.6113C53.6873 82.3941 53.5431 82.6743 53.5245 83.317C53.5019 84.0524 53.6296 84.3284 53.9365 84.7404C54.2435 85.1524 55.018 85.5294 55.3497 84.8311C55.6813 84.1327 55.6381 83.6754 55.531 82.9524C55.4238 82.2293 55.4074 81.7946 55.3456 81.2261C55.2879 80.7234 55.222 80.3423 55.222 80.3423L53.8253 80.3176Z" fill="#263238"/>
<path d="M56.0462 74.1592L53.4609 74.1118C53.5001 75.8381 53.7741 78.7097 53.8194 80.3268C53.8194 80.6317 53.8194 82.6938 53.9265 83.3221C54.0995 84.2635 55.2161 84.1358 55.2758 83.5734C55.3355 83.011 55.2037 80.6008 55.2078 80.3516C55.1975 79.3216 55.6837 76.6065 55.9391 74.7422C55.9515 74.6412 56.0339 74.2375 56.0462 74.1592Z" fill="#FFBDA7"/>
<path d="M59.8532 78.9771C59.8532 78.9771 59.7214 78.9771 59.6987 79.0924C59.6761 79.2078 59.6678 79.4261 59.6143 79.6404C59.5264 79.9762 59.4958 80.3244 59.5236 80.6704C59.5669 80.9114 60.1169 81.2698 60.4939 81.3337C60.8709 81.3976 61.4003 81.7683 61.6949 82.0464C62.1679 82.4369 62.7532 82.6664 63.3655 82.7015C63.9835 82.7015 64.4306 82.4955 64.6366 82.1577C64.8426 81.8199 64.4491 81.7807 63.7322 81.3152L63.174 80.9526C62.0389 80.211 61.6228 79.8134 61.3014 79.0718L59.8532 78.9771Z" fill="#263238"/>
<path d="M61.2994 78.5732C61.2809 78.0376 61.5528 74.103 61.5528 74.103L59.3301 74.3543C59.8574 77.4897 59.8986 78.5588 59.8389 79.0161C59.8277 79.0584 59.8229 79.1022 59.8245 79.1459C59.8245 79.7639 60.5146 80.0853 61.0605 80.4911C61.2665 80.6518 61.8165 81.1462 62.4551 81.3625C62.8671 81.5046 63.6314 81.5685 63.7282 81.3068C63.0772 80.8083 62.1873 80.1574 61.6682 79.5867C61.4127 79.3107 61.318 79.1047 61.2994 78.5732Z" fill="#FFBDA7"/>
<path d="M54.0631 56.3128C52.8518 58.962 54.1084 68.2897 54.1084 68.2897C54.0714 68.7202 53.579 69.5648 53.3977 71.4579C53.1814 73.691 53.7953 79.6753 53.7953 79.6753C54.0118 79.8066 54.259 79.8785 54.5122 79.884C54.7653 79.8894 55.0154 79.8281 55.2373 79.7062C55.2373 79.7062 56.8009 70.9141 57.0913 68.6934C57.3365 66.7529 57.8061 62.4887 57.8061 62.4887L59.141 68.6811C58.9453 69.3064 58.8033 69.9473 58.7167 70.5969C58.591 71.9029 59.8641 78.464 59.8641 78.464C60.0935 78.5587 60.3399 78.6051 60.5881 78.6001C60.8362 78.5951 61.0807 78.539 61.3061 78.4352C61.3061 78.4352 61.8685 69.9603 61.9879 68.3865C62.1939 65.7414 61.4832 57.4911 60.9991 55.9255L54.0631 56.3128Z" fill="url(#paint23_linear_3723_40305)"/>
<path opacity="0.5" d="M54.0631 56.3128C52.8518 58.962 54.1084 68.2897 54.1084 68.2897C54.0714 68.7202 53.579 69.5648 53.3977 71.4579C53.1814 73.691 53.7953 79.6753 53.7953 79.6753C54.0118 79.8066 54.259 79.8785 54.5122 79.884C54.7653 79.8894 55.0154 79.8281 55.2373 79.7062C55.2373 79.7062 56.8009 70.9141 57.0913 68.6934C57.3365 66.7529 57.8061 62.4887 57.8061 62.4887L59.141 68.6811C58.9453 69.3064 58.8033 69.9473 58.7167 70.5969C58.591 71.9029 59.8641 78.464 59.8641 78.464C60.0935 78.5587 60.3399 78.6051 60.5881 78.6001C60.8362 78.5951 61.0807 78.539 61.3061 78.4352C61.3061 78.4352 61.8685 69.9603 61.9879 68.3865C62.1939 65.7414 61.4832 57.4911 60.9991 55.9255L54.0631 56.3128Z" fill="black"/>
<path opacity="0.2" d="M57.8037 62.488L58.1972 60.0284C58.1972 60.0284 59.8617 59.6843 60.6177 58.9736C60.0963 59.5851 59.4141 60.0382 58.6483 60.2817L58.2054 62.1769L58.98 67.9099L57.8037 62.488Z" fill="black"/>
<path d="M54.6899 48.0864L56.3379 48.5149V45.0273C55.4274 44.7904 54.6899 45.3157 54.6899 46.2015V48.0864Z" fill="url(#paint24_linear_3723_40305)"/>
<path opacity="0.6" d="M54.6899 48.0864L56.3379 48.5149V45.0273C55.4274 44.7904 54.6899 45.3157 54.6899 46.2015V48.0864Z" fill="black"/>
<path d="M57.9433 45.526L57.3521 45.5137C55.5475 45.4704 54.1179 43.9151 54.157 42.0364C54.157 39.9888 55.7432 38.3284 57.7085 38.3099C59.6737 38.2996 61.2764 39.9579 61.2867 41.9973V42.2033C61.2373 44.084 59.7438 45.5652 57.9433 45.526Z" fill="url(#paint25_linear_3723_40305)"/>
<path opacity="0.6" d="M57.9433 45.526L57.3521 45.5137C55.5475 45.4704 54.1179 43.9151 54.157 42.0364C54.157 39.9888 55.7432 38.3284 57.7085 38.3099C59.6737 38.2996 61.2764 39.9579 61.2867 41.9973V42.2033C61.2373 44.084 59.7438 45.5652 57.9433 45.526Z" fill="black"/>
<path d="M55.192 39.1663C55.1776 39.1065 55.1511 39.0504 55.114 39.0013C55.077 38.9523 55.0302 38.9114 54.9767 38.8812C54.9231 38.8511 54.8639 38.8323 54.8028 38.826C54.7417 38.8198 54.6799 38.8262 54.6213 38.8449L54.78 39.4629C54.7471 39.4212 54.7066 39.3862 54.6605 39.3599C54.607 39.3297 54.5478 39.311 54.4867 39.3051C54.4256 39.2992 54.3639 39.3061 54.3057 39.3256C54.2474 39.345 54.1939 39.3764 54.1486 39.4178C54.1032 39.4592 54.0671 39.5097 54.0425 39.5659L54.8459 40.0377C54.8877 39.9571 54.9062 39.8665 54.8994 39.776C55.0144 39.7279 55.1077 39.6392 55.1617 39.5268C55.2156 39.4144 55.2264 39.2861 55.192 39.1663Z" fill="url(#paint26_linear_3723_40305)"/>
<path opacity="0.6" d="M55.192 39.1663C55.1776 39.1065 55.1511 39.0504 55.114 39.0013C55.077 38.9523 55.0302 38.9114 54.9767 38.8812C54.9231 38.8511 54.8639 38.8323 54.8028 38.826C54.7417 38.8198 54.6799 38.8262 54.6213 38.8449L54.78 39.4629C54.7471 39.4212 54.7066 39.3862 54.6605 39.3599C54.607 39.3297 54.5478 39.311 54.4867 39.3051C54.4256 39.2992 54.3639 39.3061 54.3057 39.3256C54.2474 39.345 54.1939 39.3764 54.1486 39.4178C54.1032 39.4592 54.0671 39.5097 54.0425 39.5659L54.8459 40.0377C54.8877 39.9571 54.9062 39.8665 54.8994 39.776C55.0144 39.7279 55.1077 39.6392 55.1617 39.5268C55.2156 39.4144 55.2264 39.2861 55.192 39.1663Z" fill="black"/>
<path d="M56.1623 46.4445C55.6075 46.5198 55.0573 46.6257 54.5143 46.7618C55.1529 48.3274 54.1517 50.7458 54.1517 50.7458L55.0972 53.6566C54.4442 54.9935 53.9066 55.6568 53.6841 56.7466C54.2856 57.9208 58.5313 59.0414 61.2958 56.9011C61.2958 56.9011 61.2072 53.9285 60.8549 52.196C61.7593 50.4306 61.613 49.9115 61.4276 49.2956C60.9971 47.8639 60.1278 47.3138 59.0916 46.3044L58.4736 46.2385L56.1623 46.4445Z" fill="#37474F"/>
<path d="M55.2044 54.822C55.7173 54.2967 56.805 54.1464 56.805 54.1464L55.8059 53.5778L54.6894 50.8813C55.1579 49.9634 55.3894 48.943 55.363 47.9128L54.7203 47.7583C54.7985 49.1859 54.1517 50.7474 54.1517 50.7474L55.0972 53.6581C54.4442 54.9951 53.9066 55.6584 53.6841 56.7481C54.0961 57.5515 56.2158 58.3302 58.3994 58.0542C55.4742 57.8564 54.712 55.3309 55.2044 54.822Z" fill="#263238"/>
<path d="M58.1621 58.0763L58.2816 58.064C58.2415 58.0647 58.2015 58.0688 58.1621 58.0763Z" fill="#E6E6E6"/>
<path d="M59.9701 40.1357C60.3244 40.4612 60.7673 41.1657 60.7323 43.2257C60.7014 44.9767 60.1596 45.4114 59.8856 45.5371C59.6116 45.6627 59.0863 45.5906 58.5734 45.5041V46.2292C58.5734 46.2292 59.2491 46.9791 59.2079 47.4652C59.1667 47.9514 58.2438 48.1471 57.5784 47.6712C57.1096 47.3162 56.6935 46.8966 56.3424 46.4249V44.2228C56.3424 44.2228 56.0417 44.5297 55.5184 44.0683C55.1064 43.6851 54.9499 43.0383 55.2774 42.6881C55.3615 42.6052 55.4647 42.5442 55.5778 42.5105C55.691 42.4767 55.8107 42.4713 55.9265 42.4947C56.0422 42.5181 56.1505 42.5696 56.2417 42.6446C56.3329 42.7196 56.4043 42.8159 56.4495 42.925C57.2346 42.8429 57.999 42.6225 58.7073 42.274C59.1056 42.0824 59.4382 41.777 59.663 41.3964C59.8878 41.0158 59.9946 40.5771 59.9701 40.1357Z" fill="#FFBDA7"/>
<path d="M58.5741 42.8323C58.574 42.8723 58.5622 42.9114 58.5402 42.9448C58.5182 42.9782 58.487 43.0045 58.4503 43.0205C58.4136 43.0365 58.373 43.0414 58.3336 43.0347C58.2942 43.028 58.2575 43.0099 58.2282 42.9828C58.1988 42.9556 58.178 42.9204 58.1683 42.8816C58.1586 42.8428 58.1604 42.802 58.1735 42.7642C58.1866 42.7264 58.2104 42.6932 58.242 42.6687C58.2737 42.6442 58.3117 42.6295 58.3516 42.6263C58.4082 42.6251 58.463 42.6459 58.5045 42.6844C58.546 42.7228 58.5709 42.7758 58.5741 42.8323Z" fill="#263238"/>
<path d="M58.6511 44.2903L59.2012 44.4695C59.1924 44.5071 59.176 44.5424 59.153 44.5734C59.1301 44.6044 59.101 44.6304 59.0676 44.6497C59.0342 44.669 58.9972 44.6812 58.9589 44.6857C58.9205 44.6901 58.8817 44.6866 58.8448 44.6755C58.7699 44.6475 58.7084 44.5923 58.6725 44.5208C58.6366 44.4494 58.629 44.3671 58.6511 44.2903Z" fill="#F79776"/>
<path d="M60.565 42.0414L60.0645 41.8704C60.0723 41.837 60.0872 41.8056 60.108 41.7783C60.1288 41.751 60.155 41.7283 60.1851 41.7118C60.2153 41.6953 60.2485 41.6853 60.2827 41.6825C60.3169 41.6796 60.3513 41.684 60.3838 41.6953C60.4513 41.7205 60.5072 41.7698 60.5406 41.8337C60.5741 41.8975 60.5828 41.9715 60.565 42.0414Z" fill="#263238"/>
<path d="M56.4478 42.7268V43.4663C56.4952 43.4683 56.5425 43.4606 56.5869 43.4436C56.6312 43.4266 56.6716 43.4007 56.7056 43.3675C56.7395 43.3343 56.7663 43.2945 56.7843 43.2506C56.8024 43.2067 56.8112 43.1595 56.8103 43.112C56.811 43.0135 56.7737 42.9185 56.7062 42.8468C56.6387 42.7751 56.5461 42.7321 56.4478 42.7268Z" fill="url(#paint27_linear_3723_40305)"/>
<path opacity="0.6" d="M56.4478 42.7268V43.4663C56.4952 43.4683 56.5425 43.4606 56.5869 43.4436C56.6312 43.4266 56.6716 43.4007 56.7056 43.3675C56.7395 43.3343 56.7663 43.2945 56.7843 43.2506C56.8024 43.2067 56.8112 43.1595 56.8103 43.112C56.811 43.0135 56.7737 42.9185 56.7062 42.8468C56.6387 42.7751 56.5461 42.7321 56.4478 42.7268Z" fill="black"/>
<path d="M60.3861 42.7606C60.3907 42.8199 60.3715 42.8785 60.3329 42.9237C60.2943 42.9689 60.2394 42.9969 60.1801 43.0016C60.1347 43.0061 60.0891 42.9969 60.049 42.9751C60.0089 42.9534 59.9762 42.9202 59.9551 42.8798C59.934 42.8393 59.9255 42.7935 59.9307 42.7482C59.9358 42.7029 59.9544 42.6602 59.984 42.6255C60.0137 42.5908 60.053 42.5658 60.0969 42.5537C60.1409 42.5415 60.1875 42.5428 60.2307 42.5573C60.2739 42.5718 60.3118 42.599 60.3395 42.6352C60.3672 42.6714 60.3834 42.7151 60.3861 42.7606Z" fill="#263238"/>
<path d="M59.2116 42.46L59.2075 43.8937L59.875 43.6733L59.2116 42.46Z" fill="#F79776"/>
<path d="M58.5677 45.5104C58.0259 45.4404 56.9197 45.1128 56.7363 44.6555C56.806 44.8849 56.9431 45.088 57.1298 45.2385C57.4635 45.5331 58.5718 45.8565 58.5718 45.8565L58.5677 45.5104Z" fill="#F79776"/>
<path d="M51.9789 53.7651C51.9789 53.7651 53.3014 55.6439 53.528 55.889C53.7546 56.1341 53.9112 56.0517 54.1564 55.9426C54.4553 55.8218 54.7623 55.722 55.0751 55.6439C55.4871 55.5429 55.5654 55.9158 55.1657 56.1815C54.8773 56.3752 54.5477 56.4576 54.6837 56.6162C54.9656 56.8714 55.2925 57.0719 55.6478 57.2074C56.6242 57.5926 56.548 57.7863 56.3688 58.1014C56.2122 58.3775 55.7508 58.9708 54.0121 58.2704C53.2911 57.9799 52.2776 57.158 51.7997 56.6224C51.1096 55.8581 50.0322 54.4882 50.0322 54.4882L51.9789 53.7651Z" fill="#FFBDA7"/>
<path d="M54.7681 46.6934C54.2902 46.7243 53.39 46.8396 52.2611 48.7142C51.2703 50.3622 49.7356 52.5891 49.4513 53.3863C49.3359 53.7097 49.785 54.3792 50.3639 55.0652C51.1528 55.0302 51.8718 54.4843 52.2446 54.0476C52.1468 53.8153 52.0253 53.5937 51.8821 53.3863L54.1975 50.7454C54.1975 50.7454 55.0771 49.9399 55.2605 48.8914C55.4582 47.7543 55.3964 46.8602 54.7681 46.6934Z" fill="#455A64"/>
<path d="M67.7254 50.249L62.0171 51.7528L60.4453 58.2109L65.8734 56.635L67.7254 50.249Z" fill="url(#paint28_linear_3723_40305)"/>
<path opacity="0.25" d="M67.7254 50.249L62.0171 51.7528L60.4453 58.2109L65.8734 56.635L67.7254 50.249Z" fill="black"/>
<g opacity="0.1">
<path d="M65.1621 54.823C65.2577 55.0224 65.4098 55.1893 65.5996 55.3028C65.7893 55.4164 66.0083 55.4716 66.2292 55.4616L66.2704 55.3195L65.1621 54.823Z" fill="black"/>
</g>
<g opacity="0.1">
<path d="M66.0172 51.2737L66.0646 51.0553C66.0914 50.9358 65.7556 50.9297 65.3168 51.0553L64.4743 51.2613C64.0355 51.3767 63.6503 51.5662 63.6317 51.6857L63.5864 51.904L66.0172 51.2737Z" fill="black"/>
</g>
<path d="M66.4482 50.4581C66.4646 50.3819 66.3287 50.3613 66.1453 50.4128L65.8116 50.5055C65.8116 50.5055 65.9105 50.0337 65.173 50.1985C64.975 50.2277 64.788 50.3075 64.6299 50.4302C64.4718 50.5529 64.3481 50.7143 64.2707 50.8989L63.9164 50.9999C63.7104 51.0555 63.5415 51.1605 63.5188 51.2347L63.4756 51.3707L66.4173 50.5961L66.4482 50.4581Z" fill="#37474F"/>
<path d="M66.0437 50.6873C65.7759 50.7532 65.6626 50.7883 65.6317 50.9737C65.6008 51.1591 65.5657 51.3403 65.5657 51.3403L64.2659 51.6844C64.2659 51.6844 64.3297 51.4166 64.3503 51.3136C64.3709 51.2106 64.3256 51.1446 64.1176 51.2003L64.1011 51.1179L66.1405 50.5967L66.0437 50.6873Z" fill="#37474F"/>
<path d="M66.0905 51.2939L66.1378 51.0756C66.1646 50.9561 65.8289 50.9499 65.3901 51.0756L64.5475 51.2816C64.1087 51.3969 63.7235 51.5865 63.705 51.7059L63.6597 51.9243L66.0905 51.2939Z" fill="#37474F"/>
<path d="M67.1349 52.3246C67.1349 52.3246 66.9289 53.0559 66.8733 53.229C66.8176 53.402 66.1832 53.7172 65.765 53.8326C65.3468 53.9479 64.8854 54.0839 65.0852 54.671C65.2665 55.2128 65.9586 55.3364 66.3088 55.3199C66.659 55.3034 67.1431 54.9697 67.3388 54.4279C67.5798 53.7357 67.4501 52.9983 67.5448 52.5945C67.6396 52.1907 67.345 52.0836 67.1349 52.3246Z" fill="#FFBDA7"/>
<path d="M45.5077 52.4967C44.7249 51.7077 44.4448 52.0146 44.3459 52.8798C44.3093 53.2427 44.2212 53.5985 44.0843 53.9366C44.0599 53.7569 44.0107 53.5815 43.938 53.4154C43.9036 53.3256 43.8365 53.2521 43.7501 53.2097C43.6638 53.1672 43.5646 53.1591 43.4725 53.1867C43.3962 53.2176 43.491 53.3928 43.4725 53.7368C43.458 54.1653 43.318 54.4022 43.4189 54.8574C43.454 55.0287 43.427 55.2069 43.3427 55.3601C42.9307 56.1429 41.5731 57.589 40.6214 58.6313L37.0061 55.3662C35.7701 54.2538 35.3705 53.7533 34.1777 53.8336C34.5509 53.9751 34.8946 54.1847 35.1913 54.4516C35.7454 54.9192 35.6136 57.5951 35.6136 57.5951C35.6136 57.5951 39.7171 60.5368 40.1456 60.817C40.2074 60.8582 40.2712 60.8953 40.333 60.9303C40.5356 61.0359 40.7679 61.0699 40.9922 61.0269C41.2166 60.9839 41.4198 60.8664 41.569 60.6934C42.4445 59.6922 43.7217 57.7208 44.453 56.697C44.7874 56.2014 45.0855 55.6823 45.345 55.1437C46.0784 53.6873 45.998 52.9911 45.5077 52.4967Z" fill="#914F4E"/>
<path d="M34.313 53.7696C34.6012 53.7172 34.8972 53.7268 35.1814 53.7978C35.4656 53.8689 35.7314 53.9997 35.961 54.1816C36.6655 54.7172 39.669 57.4776 39.669 57.4776C39.669 57.4776 39.7514 58.9382 38.227 59.8075L34.5458 57.2119L34.313 53.7696Z" fill="url(#paint29_linear_3723_40305)"/>
<path opacity="0.3" d="M34.313 53.7696C34.6012 53.7172 34.8972 53.7268 35.1814 53.7978C35.4656 53.8689 35.7314 53.9997 35.961 54.1816C36.6655 54.7172 39.669 57.4776 39.669 57.4776C39.669 57.4776 39.7514 58.9382 38.227 59.8075L34.5458 57.2119L34.313 53.7696Z" fill="black"/>
<path d="M30.7513 86.7197H29.1919V89.5007H30.7513V86.7197Z" fill="#914F4E"/>
<path d="M34.5972 86.5736L36.1566 86.6292L36.2349 83.6855L34.5972 83.6299V86.5736Z" fill="#914F4E"/>
<path d="M28.9716 62.6412C28.9716 64.1924 29.2003 76.678 29.2003 76.678C29.1652 77.123 28.7635 77.947 28.8501 79.6609C28.9675 81.9908 29.1261 88.1069 29.1261 88.1069C29.394 88.2441 29.6895 88.3185 29.9904 88.3246C30.2912 88.3307 30.5895 88.2682 30.8627 88.1419C30.8627 88.1419 32.3376 79.665 32.6178 77.3578C32.8609 75.3432 33.2749 68.5616 33.2749 68.5616L34.1195 76.4473C33.9396 77.2951 33.8744 78.1633 33.9259 79.0285C34.0001 80.0956 34.5006 85.6555 34.5006 85.6555C34.7703 85.8151 35.0729 85.911 35.3852 85.936C35.6976 85.961 36.0115 85.9144 36.3031 85.7997C36.3031 85.7997 37.1889 77.4258 37.2075 76.4473C37.2281 75.3308 36.6884 62.6206 36.6884 62.6206L28.9716 62.6412Z" fill="#37474F"/>
<path d="M30.7553 88.6969V88.4662C30.9057 88.5342 31.2518 89.9082 31.8698 90.4994C32.3621 90.967 33.0337 91.5068 33.2047 92.0279C33.3756 92.5491 32.2694 92.8684 31.81 92.784C31.2765 92.6851 30.3495 92.2937 30.1188 91.9311C29.8881 91.5686 29.7768 91.0309 29.5873 90.7652C29.3978 90.4994 28.9693 90.2028 28.8622 89.8938C28.8316 89.6064 28.8617 89.3159 28.9508 89.0409C29.0229 88.7546 29.1011 88.4394 29.1959 88.4662V88.6434C29.4159 88.8235 29.6923 88.9205 29.9766 88.9173C30.2032 88.9256 30.7574 88.8782 30.7553 88.6969Z" fill="#263238"/>
<path d="M36.1829 86.1282C36.2632 86.1282 36.3292 86.2498 36.5084 86.4517C36.7732 86.7302 37.0831 86.9621 37.4251 87.1376C38.0101 87.4425 39.1452 87.9122 39.6602 88.1532C39.9815 88.3036 39.9651 88.7074 39.6334 88.936C39.3017 89.1647 38.5004 89.3315 37.5384 89.1091C37.0151 88.9855 36.3312 88.4911 35.8904 88.5096C35.4495 88.5281 34.6544 88.5302 34.331 88.3036C34.0075 88.077 34.1394 87.5847 34.23 87.1665C34.3289 86.7071 34.4525 85.9923 34.5967 86.0232V86.1818C34.7842 86.4784 35.7524 86.5938 36.1644 86.3878L36.1829 86.1282Z" fill="#263238"/>
<path d="M33.2852 68.5651C34.0967 68.3001 34.8386 67.8566 35.4564 67.2673C35.4564 67.2673 35.0444 68.0913 33.7919 68.8453L34.0577 75.8884L33.2852 68.5651Z" fill="#263238"/>
<path d="M29.7829 54.1812C29.7829 54.1812 28.5634 54.2924 28.6499 56.6182L28.9198 60.3262L28.895 65.8882C30.0404 67.188 35.1265 67.0933 36.8672 65.7831C36.8672 65.7831 36.688 59.2055 36.5706 56.6738C36.4861 54.8754 36.0721 53.969 34.3046 53.7712L32.1292 53.866L29.7829 54.1812Z" fill="url(#paint30_linear_3723_40305)"/>
<path opacity="0.3" d="M33.2593 55.4004L33.5394 57.3533L34.1925 57.3409L33.455 57.4563L33.2593 55.4004Z" fill="black"/>
<path d="M25.9153 62.1648C26.5478 57.0766 28.0042 54.5428 29.7778 54.2502L29.6522 57.505C28.9137 59.2409 28.3479 61.0452 27.963 62.8919C27.7302 64.1444 27.4603 66.3218 27.5304 67.391C27.5444 67.5794 27.6247 67.7567 27.757 67.8916C28.1072 68.2479 28.2122 68.5569 28.4471 68.9586C28.6325 69.2738 28.822 69.3851 28.7726 69.4613C28.7088 69.5414 28.6164 69.5936 28.5148 69.6066C28.4133 69.6197 28.3107 69.5927 28.2287 69.5313C28.0428 69.3996 27.8728 69.2468 27.722 69.0761C27.6994 69.561 27.7867 70.0448 27.9774 70.4913C28.3894 71.3482 28.3235 71.7994 27.174 71.546C26.453 71.3894 25.938 70.6293 25.732 68.8556C25.6778 68.1938 25.6661 67.5291 25.697 66.8657C25.7753 65.1703 25.7897 63.1824 25.9153 62.1648Z" fill="#914F4E"/>
<path d="M29.8736 54.1648C28.9528 54.1648 28.1123 54.3234 27.4428 55.6068C26.8021 56.8428 26.3098 59.4569 26.0605 60.3118C26.0605 60.3118 27.4057 61.107 28.6438 61.0864L29.5152 58.0623C29.5152 58.0623 30.1043 56.6512 29.8736 54.1648Z" fill="url(#paint31_linear_3723_40305)"/>
<path opacity="0.3" d="M29.8736 54.1648C28.9528 54.1648 28.1123 54.3234 27.4428 55.6068C26.8021 56.8428 26.3098 59.4569 26.0605 60.3118C26.0605 60.3118 27.4057 61.107 28.6438 61.0864L29.5152 58.0623C29.5152 58.0623 30.1043 56.6512 29.8736 54.1648Z" fill="black"/>
<path d="M31.7768 48.9277C31.7954 49.3829 31.9473 49.8226 32.2138 50.1921C32.4802 50.5616 32.8494 50.8446 33.2754 51.006C33.7014 51.1673 34.1655 51.1999 34.6099 51.0997C35.0543 50.9994 35.4594 50.7708 35.7749 50.4421C36.0903 50.1135 36.3023 49.6994 36.3843 49.2513C36.4663 48.8032 36.4148 48.3409 36.2361 47.9218C36.0575 47.5027 35.7596 47.1454 35.3796 46.8943C34.9995 46.6431 34.554 46.5093 34.0984 46.5093C33.4701 46.5228 32.8728 46.785 32.4375 47.2384C32.0023 47.6918 31.7647 48.2993 31.7768 48.9277Z" fill="#263238"/>
<path d="M30.3115 50.1392C30.3115 50.1392 30.6679 51.8819 30.81 52.1683C30.9028 52.3436 31.0602 52.4759 31.2488 52.537L31.222 51.301L30.3115 50.1392Z" fill="#263238"/>
<path d="M30.7519 47.6444C30.7519 47.6444 30.4882 47.5908 30.2245 48.0028C29.9917 48.3654 29.9402 49.1811 30.3049 50.139L30.9744 50.2194L30.7519 47.6444Z" fill="#263238"/>
<path d="M31.1694 50.2198C31.0355 50.3042 30.8439 50.0344 30.6771 49.8552C30.5102 49.6759 29.9705 49.4267 29.7006 50.02C29.4308 50.6132 29.9375 51.4228 30.3639 51.5608C31.0994 51.8019 31.2085 51.3095 31.2085 51.3095L31.2662 54.072C32.2406 55.5799 34.451 55.5263 33.6558 53.9978V53.1512C33.9831 53.2056 34.3154 53.2236 34.6467 53.2047C35.1864 53.1182 35.5263 52.6732 35.6911 52.0635C35.9548 51.085 36.0537 50.296 35.8312 48.372C35.586 46.2625 33.2315 46.2399 31.9584 47.0742C30.6853 47.9085 31.1694 50.2198 31.1694 50.2198Z" fill="#914F4E"/>
<path d="M31.255 53.4515C31.4817 53.9153 31.8072 54.3239 32.2088 54.6483C32.5504 54.9002 32.9462 55.0688 33.3645 55.1407C33.0197 55.3742 32.7369 55.6881 32.5405 56.0553C32.2974 56.593 30.5793 55.116 30.5958 54.0674C30.5958 54.0674 30.8657 53.0148 31.2344 52.9468L31.255 53.4515Z" fill="#263238"/>
<path d="M33.3643 55.1423C33.3643 55.1423 33.8937 54.8786 33.6568 53.999V53.1523L33.8896 53.1832C34.1608 53.4476 34.3534 53.7821 34.4458 54.1494C34.4993 54.3904 34.6312 55.6099 34.3984 55.8509C34.1656 56.092 33.8381 55.2123 33.3643 55.1423Z" fill="#263238"/>
<path d="M31.172 50.4553C31.104 50.4553 30.8465 50.0124 30.6797 49.8538C30.4469 49.6333 30.7477 47.6413 30.7477 47.6413C30.687 47.4694 30.6757 47.2839 30.715 47.1059C30.7543 46.9278 30.8427 46.7644 30.9701 46.634C31.2894 46.2693 31.8209 46.222 32.7273 46.0819C33.0892 46.0374 33.4483 45.972 33.8026 45.8862C34.1768 45.7462 34.5369 45.571 34.878 45.363C34.9852 45.2934 35.1137 45.2642 35.2405 45.2806C35.299 45.3003 35.3513 45.335 35.3922 45.3813C35.433 45.4275 35.461 45.4837 35.4733 45.5442C35.4939 45.6649 35.4939 45.7882 35.4733 45.9089C35.5879 45.8023 35.74 45.7455 35.8964 45.7509C36.0528 45.7563 36.2007 45.8235 36.3076 45.9377C36.4088 46.0582 36.4746 46.2043 36.4979 46.3599C36.5212 46.5155 36.5009 46.6745 36.4394 46.8194C36.3078 47.1076 36.0925 47.3495 35.8214 47.5136C34.6823 48.284 33.3371 48.0698 32.0599 47.9256C31.9995 47.9121 31.9365 47.9164 31.8786 47.938C31.6726 48.0286 31.6355 48.6487 31.6005 48.8279C31.4975 49.4253 31.3986 50.4512 31.172 50.4553Z" fill="#263238"/>
<path d="M30.7472 47.7479L29.9355 47.2926C29.9602 47.2364 29.9963 47.1859 30.0417 47.1445C30.087 47.1031 30.1405 47.0717 30.1988 47.0523C30.257 47.0329 30.3187 47.0259 30.3798 47.0318C30.4409 47.0377 30.5001 47.0564 30.5535 47.0866C30.6615 47.1538 30.7408 47.2584 30.7766 47.3803C30.8123 47.5023 30.8018 47.6332 30.7472 47.7479Z" fill="#263238"/>
<path d="M33.6591 53.1512C33.6591 53.1512 32.454 52.8978 32.0317 52.665C31.7811 52.528 31.5778 52.3183 31.4487 52.0635C31.5116 52.3192 31.6243 52.56 31.7804 52.7721C32.0873 53.1841 33.6591 53.4869 33.6591 53.4869V53.1512Z" fill="#783736"/>
<path d="M33.221 49.8334C33.2223 49.8664 33.2172 49.8994 33.2058 49.9304C33.1945 49.9614 33.1771 49.9899 33.1547 50.0142C33.1323 50.0385 33.1054 50.0581 33.0754 50.072C33.0454 50.0859 33.0129 50.0937 32.9799 50.095C32.9133 50.0913 32.8507 50.0616 32.8057 50.0123C32.7606 49.963 32.7367 49.8981 32.7389 49.8314C32.7389 49.7674 32.7643 49.7061 32.8095 49.6609C32.8547 49.6157 32.916 49.5903 32.9799 49.5903C33.0439 49.5903 33.1052 49.6157 33.1504 49.6609C33.1956 49.7061 33.221 49.7674 33.221 49.8314V49.8334Z" fill="#263238"/>
<path d="M32.806 48.7852L32.289 49.0818C32.2518 49.0084 32.2434 48.9237 32.2655 48.8444C32.2876 48.7651 32.3386 48.6969 32.4085 48.6533C32.4429 48.6342 32.4809 48.6224 32.5201 48.6187C32.5593 48.615 32.5988 48.6195 32.6362 48.6319C32.6736 48.6443 32.708 48.6643 32.7372 48.6907C32.7665 48.7171 32.7899 48.7493 32.806 48.7852Z" fill="#263238"/>
<path d="M33.5485 51.6436L34.1006 51.8599C34.0897 51.8978 34.0711 51.933 34.046 51.9634C34.0209 51.9938 33.9897 52.0187 33.9545 52.0365C33.9193 52.0543 33.8808 52.0646 33.8415 52.0668C33.8021 52.069 33.7627 52.0631 33.7257 52.0494C33.6504 52.0166 33.5903 51.9565 33.5575 51.8812C33.5246 51.806 33.5214 51.7211 33.5485 51.6436Z" fill="#783736"/>
<path d="M35.6395 49.0732L35.0957 48.8095C35.109 48.7726 35.13 48.739 35.1572 48.7108C35.1845 48.6827 35.2173 48.6606 35.2537 48.646C35.2901 48.6314 35.3291 48.6246 35.3683 48.6262C35.4074 48.6278 35.4458 48.6376 35.4809 48.655C35.5544 48.6927 35.6114 48.7563 35.6407 48.8336C35.67 48.9108 35.6696 48.9962 35.6395 49.0732Z" fill="#263238"/>
<path d="M35.2747 49.8304C35.2778 49.864 35.2738 49.898 35.2631 49.93C35.2523 49.9621 35.235 49.9915 35.2122 50.0165C35.1895 50.0415 35.1617 50.0614 35.1308 50.0751C35.0999 50.0887 35.0664 50.0958 35.0326 50.0958C34.9988 50.0958 34.9654 50.0887 34.9345 50.0751C34.9035 50.0614 34.8758 50.0415 34.853 50.0165C34.8302 49.9915 34.8129 49.9621 34.8022 49.93C34.7914 49.898 34.7875 49.864 34.7906 49.8304C34.7892 49.7975 34.7944 49.7646 34.8058 49.7337C34.8171 49.7028 34.8346 49.6745 34.857 49.6503C34.8794 49.6262 34.9064 49.6067 34.9363 49.5931C34.9663 49.5794 34.9987 49.5719 35.0316 49.5708C35.0981 49.5735 35.1608 49.6022 35.2063 49.6508C35.2518 49.6993 35.2764 49.7638 35.2747 49.8304Z" fill="#263238"/>
<path d="M33.9106 49.6472L33.9374 51.1737L34.8047 50.9759L33.9106 49.6472Z" fill="#783736"/>
<path d="M32.8545 49.2022C32.6944 49.2022 32.5409 49.2658 32.4277 49.379C32.3145 49.4922 32.2509 49.6457 32.2509 49.8058C32.2509 49.9659 32.3145 50.1194 32.4277 50.2326C32.5409 50.3458 32.6944 50.4094 32.8545 50.4094H32.9637C33.1238 50.4094 33.2773 50.3458 33.3905 50.2326C33.5037 50.1194 33.5673 49.9659 33.5673 49.8058C33.5673 49.6457 33.5037 49.4922 33.3905 49.379C33.2773 49.2658 33.1238 49.2022 32.9637 49.2022H32.8545ZM32.1397 49.8058C32.138 49.6149 32.2121 49.4312 32.3457 49.2949C32.4794 49.1586 32.6616 49.0808 32.8524 49.0786H32.9637C33.1386 49.1016 33.2993 49.1874 33.4157 49.32C33.5321 49.4527 33.5963 49.6231 33.5963 49.7996C33.5963 49.9761 33.5321 50.1465 33.4157 50.2792C33.2993 50.4118 33.1386 50.4977 32.9637 50.5206H32.8545C32.6652 50.5195 32.4841 50.4439 32.3502 50.3101C32.2164 50.1762 32.1408 49.995 32.1397 49.8058Z" fill="#263238"/>
<path d="M35.017 49.2022C34.8569 49.2022 34.7034 49.2658 34.5902 49.379C34.477 49.4922 34.4134 49.6457 34.4134 49.8058C34.4134 49.9659 34.477 50.1194 34.5902 50.2326C34.7034 50.3458 34.8569 50.4094 35.017 50.4094H35.1262C35.2862 50.4094 35.4398 50.3458 35.553 50.2326C35.6662 50.1194 35.7297 49.9659 35.7297 49.8058C35.7297 49.6457 35.6662 49.4922 35.553 49.379C35.4398 49.2658 35.2862 49.2022 35.1262 49.2022H35.017ZM34.3042 49.8058C34.3026 49.6149 34.3767 49.4312 34.5103 49.2949C34.6439 49.1586 34.8261 49.0808 35.017 49.0786H35.1262C35.3011 49.1016 35.4618 49.1874 35.5782 49.32C35.6946 49.4527 35.7587 49.6231 35.7587 49.7996C35.7587 49.9761 35.6946 50.1465 35.5782 50.2792C35.4618 50.4118 35.3011 50.4977 35.1262 50.5206H35.017C34.8288 50.5179 34.6492 50.4416 34.5167 50.3079C34.3842 50.1743 34.3094 49.994 34.3083 49.8058H34.3042Z" fill="#263238"/>
<path d="M33.6596 49.6636C33.7028 49.6037 33.7594 49.5549 33.8249 49.5209C33.8903 49.4869 33.9629 49.4687 34.0366 49.4679C34.0975 49.4613 34.159 49.4695 34.216 49.4917C34.273 49.5139 34.3238 49.5496 34.3642 49.5956L34.461 49.5214C34.4095 49.4586 34.3432 49.4097 34.268 49.3791C34.1928 49.3485 34.1111 49.3372 34.0304 49.3463C33.9369 49.3473 33.845 49.3708 33.7625 49.4149C33.68 49.4591 33.6094 49.5224 33.5566 49.5997L33.6596 49.6636Z" fill="#263238"/>
<path d="M32.1994 49.656H30.9717V49.7775H32.1994V49.656Z" fill="#263238"/>
<defs>
<linearGradient id="paint0_linear_3723_40305" x1="20.3585" y1="41.6484" x2="20.3585" y2="79.9479" gradientUnits="userSpaceOnUse">
<stop stop-color="#5B26CF"/>
<stop offset="1" stop-color="#D72595"/>
</linearGradient>
<linearGradient id="paint1_linear_3723_40305" x1="20.1721" y1="41.6484" x2="20.1721" y2="50.4694" gradientUnits="userSpaceOnUse">
<stop stop-color="#5B26CF"/>
<stop offset="1" stop-color="#D72595"/>
</linearGradient>
<linearGradient id="paint2_linear_3723_40305" x1="46.3225" y1="9.43701" x2="46.3225" y2="79.9081" gradientUnits="userSpaceOnUse">
<stop stop-color="#5B26CF"/>
<stop offset="1" stop-color="#D72595"/>
</linearGradient>
<linearGradient id="paint3_linear_3723_40305" x1="46.3298" y1="9.43701" x2="46.3298" y2="79.9076" gradientUnits="userSpaceOnUse">
<stop stop-color="#5B26CF"/>
<stop offset="1" stop-color="#D72595"/>
</linearGradient>
<linearGradient id="paint4_linear_3723_40305" x1="46.3215" y1="12.459" x2="46.3215" y2="50.468" gradientUnits="userSpaceOnUse">
<stop stop-color="#5B26CF"/>
<stop offset="1" stop-color="#D72595"/>
</linearGradient>
<linearGradient id="paint5_linear_3723_40305" x1="69.856" y1="8.43115" x2="69.856" y2="9.9412" gradientUnits="userSpaceOnUse">
<stop stop-color="#5B26CF"/>
<stop offset="1" stop-color="#D72595"/>
</linearGradient>
<linearGradient id="paint6_linear_3723_40305" x1="67.7564" y1="9.64673" x2="67.7564" y2="11.1568" gradientUnits="userSpaceOnUse">
<stop stop-color="#5B26CF"/>
<stop offset="1" stop-color="#D72595"/>
</linearGradient>
<linearGradient id="paint7_linear_3723_40305" x1="65.6627" y1="10.8582" x2="65.6627" y2="12.3691" gradientUnits="userSpaceOnUse">
<stop stop-color="#5B26CF"/>
<stop offset="1" stop-color="#D72595"/>
</linearGradient>
<linearGradient id="paint8_linear_3723_40305" x1="29.9379" y1="44.2178" x2="29.9379" y2="75.5978" gradientUnits="userSpaceOnUse">
<stop stop-color="#5B26CF"/>
<stop offset="1" stop-color="#D72595"/>
</linearGradient>
<linearGradient id="paint9_linear_3723_40305" x1="48.7717" y1="32.8384" x2="48.7717" y2="44.4351" gradientUnits="userSpaceOnUse">
<stop stop-color="#5B26CF"/>
<stop offset="1" stop-color="#D72595"/>
</linearGradient>
<linearGradient id="paint10_linear_3723_40305" x1="54.2163" y1="29.377" x2="54.2163" y2="46.8655" gradientUnits="userSpaceOnUse">
<stop stop-color="#5B26CF"/>
<stop offset="1" stop-color="#D72595"/>
</linearGradient>
<linearGradient id="paint11_linear_3723_40305" x1="54.2163" y1="31.3208" x2="54.2163" y2="48.8093" gradientUnits="userSpaceOnUse">
<stop stop-color="#5B26CF"/>
<stop offset="1" stop-color="#D72595"/>
</linearGradient>
<linearGradient id="paint12_linear_3723_40305" x1="54.2163" y1="33.2539" x2="54.2163" y2="50.7382" gradientUnits="userSpaceOnUse">
<stop stop-color="#5B26CF"/>
<stop offset="1" stop-color="#D72595"/>
</linearGradient>
<linearGradient id="paint13_linear_3723_40305" x1="54.2163" y1="35.1978" x2="54.2163" y2="52.6863" gradientUnits="userSpaceOnUse">
<stop stop-color="#5B26CF"/>
<stop offset="1" stop-color="#D72595"/>
</linearGradient>
<linearGradient id="paint14_linear_3723_40305" x1="49.9243" y1="41.9961" x2="49.9243" y2="54.627" gradientUnits="userSpaceOnUse">
<stop stop-color="#5B26CF"/>
<stop offset="1" stop-color="#D72595"/>
</linearGradient>
<linearGradient id="paint15_linear_3723_40305" x1="54.2163" y1="41.0166" x2="54.2163" y2="58.5051" gradientUnits="userSpaceOnUse">
<stop stop-color="#5B26CF"/>
<stop offset="1" stop-color="#D72595"/>
</linearGradient>
<linearGradient id="paint16_linear_3723_40305" x1="54.2163" y1="42.9561" x2="54.2163" y2="60.4445" gradientUnits="userSpaceOnUse">
<stop stop-color="#5B26CF"/>
<stop offset="1" stop-color="#D72595"/>
</linearGradient>
<linearGradient id="paint17_linear_3723_40305" x1="54.2163" y1="44.8958" x2="54.2163" y2="62.3862" gradientUnits="userSpaceOnUse">
<stop stop-color="#5B26CF"/>
<stop offset="1" stop-color="#D72595"/>
</linearGradient>
<linearGradient id="paint18_linear_3723_40305" x1="45.2347" y1="57.1409" x2="45.2347" y2="64.3252" gradientUnits="userSpaceOnUse">
<stop stop-color="#5B26CF"/>
<stop offset="1" stop-color="#D72595"/>
</linearGradient>
<linearGradient id="paint19_linear_3723_40305" x1="78.0279" y1="42.9719" x2="78.0279" y2="49.831" gradientUnits="userSpaceOnUse">
<stop stop-color="#5B26CF"/>
<stop offset="1" stop-color="#D72595"/>
</linearGradient>
<linearGradient id="paint20_linear_3723_40305" x1="81.5881" y1="42.9326" x2="81.5881" y2="55.9765" gradientUnits="userSpaceOnUse">
<stop stop-color="#5B26CF"/>
<stop offset="1" stop-color="#D72595"/>
</linearGradient>
<linearGradient id="paint21_linear_3723_40305" x1="87.6703" y1="40.2168" x2="87.6703" y2="43.1172" gradientUnits="userSpaceOnUse">
<stop stop-color="#5B26CF"/>
<stop offset="1" stop-color="#D72595"/>
</linearGradient>
<linearGradient id="paint22_linear_3723_40305" x1="86.2557" y1="40.3262" x2="86.2557" y2="47.6538" gradientUnits="userSpaceOnUse">
<stop stop-color="#5B26CF"/>
<stop offset="1" stop-color="#D72595"/>
</linearGradient>
<linearGradient id="paint23_linear_3723_40305" x1="57.688" y1="55.9255" x2="57.688" y2="79.8843" gradientUnits="userSpaceOnUse">
<stop stop-color="#5B26CF"/>
<stop offset="1" stop-color="#D72595"/>
</linearGradient>
<linearGradient id="paint24_linear_3723_40305" x1="55.5139" y1="44.9705" x2="55.5139" y2="48.5149" gradientUnits="userSpaceOnUse">
<stop stop-color="#5B26CF"/>
<stop offset="1" stop-color="#D72595"/>
</linearGradient>
<linearGradient id="paint25_linear_3723_40305" x1="57.7215" y1="38.3098" x2="57.7215" y2="45.5268" gradientUnits="userSpaceOnUse">
<stop stop-color="#5B26CF"/>
<stop offset="1" stop-color="#D72595"/>
</linearGradient>
<linearGradient id="paint26_linear_3723_40305" x1="54.6271" y1="38.8237" x2="54.6271" y2="40.0377" gradientUnits="userSpaceOnUse">
<stop stop-color="#5B26CF"/>
<stop offset="1" stop-color="#D72595"/>
</linearGradient>
<linearGradient id="paint27_linear_3723_40305" x1="56.6291" y1="42.7268" x2="56.6291" y2="43.4666" gradientUnits="userSpaceOnUse">
<stop stop-color="#5B26CF"/>
<stop offset="1" stop-color="#D72595"/>
</linearGradient>
<linearGradient id="paint28_linear_3723_40305" x1="64.0853" y1="50.249" x2="64.0853" y2="58.2109" gradientUnits="userSpaceOnUse">
<stop stop-color="#5B26CF"/>
<stop offset="1" stop-color="#D72595"/>
</linearGradient>
<linearGradient id="paint29_linear_3723_40305" x1="36.9914" y1="53.7363" x2="36.9914" y2="59.8075" gradientUnits="userSpaceOnUse">
<stop stop-color="#5B26CF"/>
<stop offset="1" stop-color="#D72595"/>
</linearGradient>
<linearGradient id="paint30_linear_3723_40305" x1="32.7564" y1="53.7712" x2="32.7564" y2="66.8158" gradientUnits="userSpaceOnUse">
<stop stop-color="#5B26CF"/>
<stop offset="1" stop-color="#D72595"/>
</linearGradient>
<linearGradient id="paint31_linear_3723_40305" x1="27.9939" y1="54.1648" x2="27.9939" y2="61.0868" gradientUnits="userSpaceOnUse">
<stop stop-color="#5B26CF"/>
<stop offset="1" stop-color="#D72595"/>
</linearGradient>
</defs>
</svg>
