<svg width="103" height="103" viewBox="0 0 103 103" fill="none" xmlns="http://www.w3.org/2000/svg">
<path d="M48.7804 99.316C72.0215 99.316 90.8621 91.3981 90.8621 81.6309C90.8621 71.8637 72.0215 63.9458 48.7804 63.9458C25.5393 63.9458 6.69873 71.8637 6.69873 81.6309C6.69873 91.3981 25.5393 99.316 48.7804 99.316Z" fill="#F7F3FF"/>
<path d="M52.2199 78.2352C57.4192 78.2352 61.6341 76.0447 61.6341 73.3427C61.6341 70.6406 57.4192 68.4502 52.2199 68.4502C47.0205 68.4502 42.8057 70.6406 42.8057 73.3427C42.8057 76.0447 47.0205 78.2352 52.2199 78.2352Z" fill="#E0E0E0"/>
<path d="M11.5913 86.9291L16.3622 89.6936C16.5005 89.7636 16.6533 89.8001 16.8082 89.8001C16.9632 89.8001 17.116 89.7636 17.2542 89.6936L46.4856 72.816C46.5394 72.7977 46.5862 72.7631 46.6193 72.7169C46.6524 72.6707 46.6702 72.6153 46.6702 72.5585C46.6702 72.5017 46.6524 72.4463 46.6193 72.4001C46.5862 72.3539 46.5394 72.3193 46.4856 72.301L41.7147 69.5365C41.5764 69.4664 41.4236 69.4299 41.2687 69.4299C41.1137 69.4299 40.9609 69.4664 40.8227 69.5365L11.5913 86.4141C11.5375 86.4323 11.4907 86.467 11.4576 86.5131C11.4245 86.5593 11.4067 86.6147 11.4067 86.6716C11.4067 86.7284 11.4245 86.7838 11.4576 86.83C11.4907 86.8761 11.5375 86.9108 11.5913 86.9291Z" fill="#E0E0E0"/>
<path d="M44.0524 9.59295L17.1776 25.1068C16.8935 25.2933 16.6572 25.5438 16.4876 25.8383C16.318 26.1327 16.2199 26.4629 16.2012 26.8022V87.4074C16.2012 88.0254 16.64 88.285 17.1776 87.9718L44.0524 72.458C44.3363 72.2718 44.5725 72.0216 44.7421 71.7275C44.9117 71.4334 45.0099 71.1036 45.0288 70.7646V10.1574C45.0288 9.53527 44.59 9.28189 44.0524 9.59295ZM43.6218 65.18C43.6218 65.7135 43.249 66.0534 42.7834 66.3192L18.3539 80.426C17.8924 80.6938 17.5155 80.4775 17.5155 79.9419V32.4672C17.5309 32.1759 17.6149 31.8924 17.7606 31.6397C17.9063 31.387 18.1096 31.1722 18.3539 31.0128L42.7834 16.908C43.249 16.6402 43.6218 16.8565 43.6218 17.39V65.18Z" fill="#37474F"/>
<path d="M17.0517 88.0361C16.7599 88.1593 16.4449 88.2177 16.1284 88.2074C15.8119 88.1971 15.5014 88.1183 15.2183 87.9763L14.0997 87.3295C13.8143 87.1445 13.5768 86.8947 13.4063 86.6004C13.2359 86.3061 13.1375 85.9757 13.1191 85.6362V25.033C13.1256 24.7802 13.1838 24.5313 13.2901 24.3017C13.324 24.2213 13.3625 24.1429 13.4055 24.0669L16.4811 25.8426C16.4153 25.9574 16.3588 26.0772 16.3121 26.2011C16.2379 26.3946 16.1974 26.5995 16.1927 26.8067V87.4119C16.1968 87.9846 16.5696 88.2462 17.0517 88.0361Z" fill="#263238"/>
<path d="M30.8486 74.8907C31.7014 74.3984 32.3915 74.798 32.3915 75.7827C32.3635 76.3191 32.2091 76.8412 31.941 77.3066C31.6728 77.772 31.2985 78.1674 30.8486 78.4607C29.9958 78.953 29.3057 78.5534 29.3057 77.5687C29.3337 77.0323 29.4881 76.5102 29.7562 76.0448C30.0244 75.5794 30.3987 75.184 30.8486 74.8907Z" fill="#263238"/>
<path d="M30.6082 18.655C30.9708 18.449 31.2633 18.6159 31.2633 19.034C31.2515 19.2615 31.186 19.483 31.0721 19.6803C30.9583 19.8776 30.7993 20.0451 30.6082 20.1691C30.2456 20.3751 29.9531 20.2082 29.9531 19.7901C29.9649 19.5626 30.0304 19.3411 30.1443 19.1438C30.2581 18.9465 30.4171 18.779 30.6082 18.655Z" fill="black"/>
<path d="M28.0772 22.6446L33.1365 19.7235C33.4373 19.5505 33.6824 19.6741 33.6824 19.9995C33.6688 20.1831 33.6124 20.361 33.5176 20.5187C33.4228 20.6765 33.2922 20.8099 33.1365 20.908L28.0772 23.8291C27.7764 24.0021 27.5312 23.8785 27.5312 23.551C27.5448 23.3677 27.6013 23.1901 27.6961 23.0327C27.7909 22.8752 27.9215 22.7423 28.0772 22.6446Z" fill="black"/>
<path d="M43.623 65.1313C43.623 65.6628 43.2501 66.0027 42.7846 66.2705L18.355 80.3773C17.8936 80.6431 17.5166 80.4288 17.5166 79.8932V32.4164C17.5324 32.1255 17.6166 31.8424 17.7622 31.5901C17.9079 31.3377 18.111 31.1233 18.355 30.9641L42.7846 16.8593C43.2501 16.5915 43.623 16.8078 43.623 17.3413V65.1313Z" fill="url(#paint0_linear_3723_40469)"/>
<path opacity="0.5" d="M43.623 65.1313C43.623 65.6628 43.2501 66.0027 42.7846 66.2705L18.355 80.3773C17.8936 80.6431 17.5166 80.4288 17.5166 79.8932V32.4164C17.5324 32.1255 17.6166 31.8424 17.7622 31.5901C17.9079 31.3377 18.111 31.1233 18.355 30.9641L42.7846 16.8593C43.2501 16.5915 43.623 16.8078 43.623 17.3413V65.1313Z" fill="black"/>
<path d="M45.0134 10.0036C44.9434 9.49483 44.5376 9.31149 44.0493 9.59165L17.1725 25.1076C16.8841 25.2887 16.6466 25.5404 16.4824 25.8389L13.4048 24.0632C13.5698 23.7663 13.8081 23.5167 14.0969 23.338L40.9717 7.82623C41.2747 7.67291 41.6096 7.59302 41.9492 7.59302C42.2888 7.59302 42.6236 7.67291 42.9266 7.82623L44.0493 8.47101C44.3102 8.64276 44.5313 8.86842 44.6976 9.1328C44.8639 9.39718 44.9716 9.69413 45.0134 10.0036Z" fill="#455A64"/>
<path d="M48.9327 16.9652L25.1954 30.6807C24.9527 30.8389 24.7504 31.0517 24.6048 31.3021C24.4592 31.5525 24.3743 31.8336 24.3569 32.1227V79.6099C24.3569 80.1455 24.7339 80.3597 25.1954 80.094L48.9327 66.3744C49.3962 66.1086 49.7712 65.7687 49.7712 65.2352V17.4432C49.7712 16.9137 49.3962 16.6871 48.9327 16.9652ZM46.4237 58.6143C46.4153 58.7692 46.3704 58.9199 46.2927 59.0541C46.215 59.1884 46.1067 59.3024 45.9766 59.3868L27.484 70.0782C27.2389 70.2204 27.0391 70.105 27.0391 69.8207V45.7332C27.0476 45.5785 27.0922 45.4281 27.1695 45.2939C27.2468 45.1597 27.3545 45.0456 27.484 44.9606L45.9766 34.2693C46.2238 34.1271 46.4237 34.2425 46.4237 34.5268V58.6143Z" fill="#FAFAFA"/>
<path d="M24.8201 80.3098C24.7255 80.3113 24.6322 80.2871 24.5503 80.2398C24.4483 80.1713 24.3668 80.0766 24.3142 79.9657C24.2616 79.8547 24.24 79.7316 24.2516 79.6094V32.1367C24.2658 31.8276 24.3533 31.5262 24.507 31.2576C24.6606 30.9889 24.876 30.7607 25.1353 30.5917L48.8789 16.8762C48.9757 16.8005 49.093 16.7554 49.2157 16.7467C49.3383 16.738 49.4608 16.766 49.5674 16.8273C49.674 16.8886 49.76 16.9803 49.8142 17.0906C49.8684 17.201 49.8885 17.325 49.8718 17.4469V65.2389C49.8718 65.8836 49.363 66.2483 48.9819 66.4749L25.2445 80.1821C25.1164 80.2605 24.9702 80.3045 24.8201 80.3098ZM49.3053 16.9525C49.1905 16.9573 49.079 16.9921 48.9819 17.0534L25.2445 30.7689C25.0162 30.9192 24.8262 31.1208 24.6895 31.3575C24.5529 31.5943 24.4735 31.8597 24.4576 32.1326V79.6094C24.4488 79.6964 24.4632 79.7842 24.4994 79.8638C24.5356 79.9435 24.5922 80.012 24.6636 80.0626C24.743 80.0968 24.83 80.1092 24.9158 80.0987C25.0015 80.0882 25.083 80.0551 25.1518 80.0029L48.8892 66.2853C49.433 65.9722 49.6761 65.6488 49.6761 65.2347V17.4427C49.6861 17.3569 49.6734 17.2699 49.6395 17.1904C49.6055 17.1109 49.5514 17.0417 49.4825 16.9895C49.4281 16.9606 49.3667 16.9477 49.3053 16.9525ZM27.2839 70.2467C27.2245 70.2476 27.166 70.2319 27.115 70.2014C27.0539 70.1605 27.0048 70.1039 26.9729 70.0376C26.9411 69.9713 26.9275 69.8977 26.9337 69.8244V45.7327C26.9419 45.5597 26.9912 45.3912 27.0776 45.2411C27.1639 45.091 27.2848 44.9637 27.4302 44.8696L45.9228 34.1802C45.9813 34.1335 46.0525 34.1055 46.1272 34.0998C46.2019 34.0941 46.2765 34.111 46.3414 34.1484C46.4063 34.1857 46.4585 34.2418 46.4911 34.3092C46.5237 34.3766 46.5353 34.4522 46.5243 34.5263V58.6139C46.5162 58.7871 46.4667 58.9559 46.3799 59.1061C46.2932 59.2562 46.1718 59.3834 46.0258 59.477L27.5332 70.1664C27.4585 70.2144 27.3725 70.242 27.2839 70.2467ZM46.1741 34.3121C46.1213 34.3143 46.0701 34.3306 46.0258 34.3595L27.5332 45.0488C27.4195 45.125 27.3249 45.2263 27.2567 45.3449C27.1885 45.4635 27.1484 45.5962 27.1397 45.7327V69.8347C27.1288 69.8718 27.1307 69.9115 27.145 69.9475C27.1594 69.9834 27.1853 70.0135 27.2188 70.0329C27.2522 70.0524 27.2912 70.0601 27.3295 70.0548C27.3678 70.0494 27.4033 70.0314 27.4302 70.0036L45.9228 59.3122C46.037 59.2365 46.1322 59.1353 46.2008 59.0167C46.2694 58.898 46.3096 58.7651 46.3183 58.6283V34.5222C46.3242 34.4838 46.3199 34.4446 46.3058 34.4084C46.2917 34.3722 46.2683 34.3404 46.238 34.3162C46.2178 34.3078 46.1957 34.3049 46.1741 34.308V34.3121Z" fill="#E6E6E6"/>
<path d="M25.4562 33.3164V32.96C25.4537 32.9277 25.4583 32.8953 25.4697 32.8651C25.4811 32.8348 25.499 32.8074 25.5222 32.7849L25.5407 32.7746C25.5757 32.7519 25.6066 32.7952 25.6066 32.8714V33.2195C25.6087 33.2517 25.6039 33.284 25.5926 33.3142C25.5812 33.3444 25.5635 33.3718 25.5407 33.3946H25.5222C25.4851 33.4358 25.4562 33.3905 25.4562 33.3164Z" fill="#455A64"/>
<path d="M25.75 33.1427V32.5494C25.7478 32.517 25.7527 32.4845 25.7645 32.4543C25.7762 32.424 25.7945 32.3967 25.818 32.3743L25.8366 32.364C25.8716 32.3414 25.9025 32.3867 25.9025 32.4608V33.0624C25.9046 33.0946 25.8998 33.1268 25.8884 33.157C25.8771 33.1872 25.8594 33.2146 25.8366 33.2375H25.818C25.7892 33.2622 25.75 33.2169 25.75 33.1427Z" fill="#455A64"/>
<path d="M26.0674 32.961V32.1061C26.0652 32.0737 26.0701 32.0412 26.0818 32.0109C26.0936 31.9806 26.1119 31.9533 26.1354 31.931L26.1519 31.9207C26.189 31.9001 26.2199 31.9433 26.2199 32.0175V32.8744C26.222 32.9065 26.217 32.9386 26.2052 32.9686C26.1935 32.9985 26.1753 33.0254 26.1519 33.0475L26.1354 33.0598C26.0983 33.0866 26.0674 33.0434 26.0674 32.961Z" fill="#455A64"/>
<path d="M26.369 32.7946V31.3155C26.3672 31.2837 26.3721 31.2518 26.3835 31.222C26.3949 31.1921 26.4124 31.1651 26.4349 31.1425L26.4535 31.1301C26.4906 31.1095 26.5215 31.1528 26.5215 31.229V32.706C26.5238 32.7379 26.5191 32.77 26.5077 32.7999C26.4964 32.8298 26.4785 32.8568 26.4555 32.8791L26.437 32.8914C26.3958 32.9141 26.369 32.8708 26.369 32.7946Z" fill="#455A64"/>
<path d="M27.1857 32.4216C27.1776 32.4079 27.174 32.3921 27.1754 32.3763V32.1703L26.8375 32.366C26.819 32.3763 26.8087 32.366 26.8087 32.3351V32.2589C26.8073 32.2445 26.8073 32.23 26.8087 32.2156C26.8087 32.2053 26.8087 32.1909 26.8087 32.1744L27.1692 31.1897C27.1742 31.1761 27.1804 31.1631 27.1877 31.1506C27.1932 31.1417 27.2011 31.1346 27.2104 31.13L27.2578 31.1032C27.2722 31.1032 27.2825 31.0929 27.2887 31.1032C27.2967 31.1177 27.3002 31.1341 27.299 31.1506V31.9087L27.3731 31.8654C27.3876 31.8654 27.3979 31.8654 27.404 31.8654C27.4074 31.881 27.4074 31.8972 27.404 31.9128V31.9643C27.4068 31.9827 27.4068 32.0015 27.404 32.0199C27.3972 32.0337 27.3864 32.0452 27.3731 32.0529L27.299 32.0961V32.3124C27.2996 32.3308 27.2961 32.3491 27.2887 32.366C27.282 32.3804 27.2712 32.3926 27.2578 32.401L27.2001 32.4319C27.1857 32.4278 27.1857 32.4278 27.1857 32.4216ZM27.198 31.9622V31.4225L26.9529 32.1044L27.198 31.9622Z" fill="#455A64"/>
<path d="M27.586 32.0595C27.506 31.9265 27.4713 31.771 27.4872 31.6166C27.4823 31.4264 27.516 31.2373 27.586 31.0604C27.6398 30.9194 27.7391 30.8005 27.8683 30.7226C27.9095 30.6958 27.9558 30.6776 28.0042 30.669C28.0401 30.6622 28.0772 30.6681 28.1093 30.6855C28.1107 30.6884 28.1115 30.6915 28.1115 30.6948C28.1115 30.698 28.1107 30.7011 28.1093 30.704C28.1109 30.7122 28.1109 30.7206 28.1093 30.7287L28.0784 30.842C28.0784 30.8571 28.0743 30.8654 28.066 30.8668C28.066 30.8668 28.066 30.8668 28.0516 30.8668C28.0227 30.8572 27.9919 30.8546 27.9618 30.8592C27.9317 30.8639 27.9032 30.8756 27.8786 30.8935C27.7917 30.949 27.7247 31.0305 27.687 31.1263C27.6371 31.2578 27.6133 31.3977 27.6169 31.5383C27.6043 31.6539 27.628 31.7706 27.6849 31.872C27.7302 31.9277 27.792 31.9318 27.8703 31.8885C27.9 31.8711 27.9277 31.8504 27.9527 31.8267C27.9785 31.8059 28.0014 31.7816 28.0207 31.7546V31.4024L27.8786 31.4827C27.8641 31.4827 27.8538 31.4827 27.8497 31.4827C27.8415 31.4683 27.8379 31.4518 27.8394 31.4353V31.3859C27.8386 31.3668 27.8422 31.3478 27.8497 31.3303C27.8552 31.3168 27.8655 31.3058 27.8786 31.2994L28.1052 31.1675C28.1196 31.1675 28.1319 31.1675 28.1381 31.1675C28.1432 31.1857 28.1432 31.205 28.1381 31.2231V31.7278C28.1395 31.7422 28.1395 31.7567 28.1381 31.7711C28.1355 31.7833 28.1314 31.795 28.1258 31.8061C28.061 31.9158 27.9687 32.0067 27.858 32.0698C27.7467 32.1398 27.652 32.1398 27.586 32.0595Z" fill="#455A64"/>
<path d="M48.4916 18.806C48.4525 18.7504 48.4051 18.7339 48.3557 18.7627L47.3401 19.3478C47.2855 19.4009 47.2432 19.4652 47.2161 19.5364C47.1891 19.6076 47.1779 19.6838 47.1835 19.7598V20.5199C47.1791 20.6051 47.1998 20.6896 47.2433 20.763C47.2567 20.7837 47.2751 20.8007 47.2968 20.8124C47.3094 20.8185 47.3231 20.8216 47.337 20.8216C47.3509 20.8216 47.3646 20.8185 47.3772 20.8124L48.3928 20.2253C48.4479 20.1727 48.4907 20.1084 48.5177 20.0371C48.5448 19.9658 48.5556 19.8894 48.5493 19.8133V19.047C48.5531 18.9629 48.5331 18.8793 48.4916 18.806ZM47.2804 20.66C47.2625 20.6258 47.2547 20.5872 47.2577 20.5488V19.7927C47.2546 19.7351 47.2636 19.6774 47.2842 19.6235C47.3047 19.5696 47.3364 19.5205 47.3772 19.4796L48.3928 18.8925C48.3994 18.8891 48.4069 18.8873 48.4144 18.8873C48.4219 18.8873 48.4293 18.8891 48.436 18.8925C48.4431 18.896 48.4494 18.9009 48.4546 18.9069C48.4701 18.9419 48.4772 18.98 48.4752 19.0182V19.7783C48.4783 19.836 48.4693 19.8936 48.4487 19.9476C48.4281 20.0015 48.3964 20.0505 48.3557 20.0914L47.3401 20.6765C47.3353 20.6798 47.3299 20.682 47.3242 20.6831C47.3185 20.6842 47.3126 20.684 47.307 20.6827C47.3014 20.6813 47.2961 20.6788 47.2915 20.6752C47.2869 20.6717 47.2831 20.6672 47.2804 20.6621V20.66Z" fill="#455A64"/>
<path d="M47.9197 19.302V20.2022L47.3738 20.5174C47.3635 20.5174 47.3594 20.5174 47.3553 20.5174C47.3564 20.5071 47.3564 20.4968 47.3553 20.4865V19.8108C47.3534 19.768 47.3602 19.7253 47.3755 19.6852C47.3907 19.6452 47.414 19.6087 47.4439 19.578L47.9197 19.302Z" fill="#455A64"/>
<path d="M48.5959 19.0194C48.633 18.9967 48.6639 19.1038 48.6639 19.2604V19.4025C48.6755 19.5164 48.651 19.6309 48.5939 19.7301L48.5259 19.7775V19.0585L48.5959 19.0194Z" fill="#455A64"/>
<path d="M29.5248 30.8277C29.5245 30.9076 29.5057 30.9863 29.47 31.0578C29.4343 31.1292 29.3825 31.1915 29.3188 31.2397C29.2096 31.3015 29.1128 31.217 29.1128 31.0502C29.113 30.9702 29.1316 30.8914 29.1674 30.8199C29.2031 30.7485 29.255 30.6862 29.3188 30.6382C29.4383 30.5764 29.5248 30.6608 29.5248 30.8277Z" fill="#455A64"/>
<path d="M29.3337 30.1451C29.1033 30.3113 28.9403 30.5548 28.8744 30.8311C28.8579 30.8929 28.8744 30.9506 28.897 30.9691C28.9341 30.9939 28.9897 30.9444 29.0103 30.8682C29.0562 30.6725 29.171 30.5 29.3337 30.382C29.3608 30.3621 29.3923 30.3491 29.4255 30.3441C29.4588 30.3392 29.4927 30.3424 29.5244 30.3536C29.5561 30.3648 29.5846 30.3835 29.6074 30.4082C29.6301 30.4329 29.6465 30.4628 29.6551 30.4953C29.6778 30.5489 29.7334 30.5324 29.7705 30.4665C29.7846 30.4425 29.7937 30.4159 29.7972 30.3883C29.8008 30.3606 29.7987 30.3326 29.7911 30.3058C29.7785 30.2598 29.755 30.2176 29.7225 30.1827C29.69 30.1478 29.6495 30.1213 29.6045 30.1055C29.5596 30.0897 29.5114 30.0851 29.4643 30.092C29.4171 30.0989 29.3723 30.1171 29.3337 30.1451Z" fill="#455A64"/>
<path d="M29.3259 29.6633C28.9853 29.908 28.7377 30.2609 28.6235 30.6645C28.6008 30.7283 28.607 30.7943 28.6379 30.8149C28.6729 30.8375 28.7265 30.7943 28.7491 30.7201C28.8403 30.3875 29.0433 30.0965 29.3239 29.8961C29.3698 29.8623 29.4227 29.8392 29.4787 29.8287C29.5347 29.8182 29.5924 29.8204 29.6475 29.8353C29.7025 29.8501 29.7535 29.8772 29.7966 29.9145C29.8397 29.9518 29.8739 29.9983 29.8966 30.0506C29.9213 30.0959 29.9728 30.0815 30.0099 30.0176C30.0247 29.992 30.0339 29.9635 30.0368 29.9339C30.0396 29.9044 30.0361 29.8747 30.0263 29.8467C29.9975 29.7837 29.955 29.7279 29.902 29.6833C29.8489 29.6387 29.7866 29.6065 29.7196 29.589C29.6526 29.5714 29.5825 29.569 29.5144 29.5819C29.4463 29.5947 29.3819 29.6225 29.3259 29.6633Z" fill="#455A64"/>
<path d="M36.1559 27.2032C36.1589 27.2174 36.1589 27.2322 36.1559 27.2464C36.1559 27.2588 36.1415 27.2691 36.1312 27.2732L36.0818 27.302C36.0787 27.3049 36.0747 27.3066 36.0704 27.3066C36.0662 27.3066 36.0622 27.3049 36.0591 27.302C36.0518 27.2935 36.0481 27.2824 36.0488 27.2711V26.2411L35.8511 26.5728C35.8463 26.5839 35.8374 26.5927 35.8263 26.5975C35.8229 26.5995 35.819 26.6006 35.815 26.6006C35.811 26.6006 35.8071 26.5995 35.8037 26.5975L35.7748 26.5563C35.7704 26.5451 35.7704 26.5325 35.7748 26.5213C35.777 26.5071 35.7812 26.4932 35.7872 26.4801L36.0488 26.0207C36.0541 26.0125 36.0603 26.0048 36.0674 25.9981L36.088 25.9836L36.1374 25.9548C36.141 25.9521 36.1453 25.9507 36.1498 25.9507C36.1542 25.9507 36.1586 25.9521 36.1621 25.9548C36.1656 25.9641 36.1656 25.9743 36.1621 25.9836L36.1559 27.2032Z" fill="#455A64"/>
<path d="M36.4436 26.2047C36.4467 26.2018 36.4507 26.2002 36.4549 26.2002C36.4592 26.2002 36.4632 26.2018 36.4663 26.2047C36.4701 26.2147 36.4701 26.2257 36.4663 26.2356V26.3695C36.4692 26.3831 36.4692 26.3971 36.4663 26.4107C36.461 26.4219 36.4532 26.4318 36.4436 26.4395L36.3612 26.4869C36.3509 26.4869 36.3427 26.4869 36.3386 26.4869C36.3362 26.4821 36.335 26.4768 36.335 26.4715C36.335 26.4661 36.3362 26.4608 36.3386 26.456V26.3304C36.3345 26.3169 36.3345 26.3026 36.3386 26.2892C36.3402 26.2831 36.3431 26.2774 36.347 26.2725C36.3509 26.2675 36.3557 26.2634 36.3612 26.2603L36.4436 26.2047ZM36.4436 26.8639C36.4467 26.861 36.4507 26.8594 36.4549 26.8594C36.4592 26.8594 36.4632 26.861 36.4663 26.8639C36.4699 26.8739 36.4699 26.8848 36.4663 26.8948V27.0225C36.469 27.0354 36.469 27.0488 36.4663 27.0617C36.4622 27.0736 36.4542 27.0837 36.4436 27.0905L36.3612 27.1379C36.3509 27.1379 36.3427 27.1379 36.3386 27.1379C36.3364 27.1334 36.3352 27.1285 36.3352 27.1235C36.3352 27.1185 36.3364 27.1135 36.3386 27.109V26.9875C36.3348 26.9733 36.3348 26.9584 36.3386 26.9442C36.3403 26.9384 36.3431 26.9331 36.347 26.9285C36.3509 26.9238 36.3558 26.9201 36.3612 26.9175L36.4436 26.8639Z" fill="#455A64"/>
<path d="M37.0461 26.7447C37.0429 26.7472 37.0389 26.7485 37.0348 26.7485C37.0307 26.7485 37.0267 26.7472 37.0235 26.7447C37.0161 26.7361 37.0124 26.725 37.0132 26.7138V26.4521L36.63 26.6746C36.6268 26.6771 36.6228 26.6785 36.6187 26.6785C36.6146 26.6785 36.6106 26.6771 36.6073 26.6746C36.6035 26.6647 36.6035 26.6537 36.6073 26.6437V26.5757C36.6066 26.5641 36.6066 26.5524 36.6073 26.5407L36.6197 26.5016L37.007 25.4984C37.0126 25.4827 37.0195 25.4676 37.0276 25.453C37.0343 25.4422 37.0435 25.433 37.0544 25.4263L37.1038 25.3974C37.1071 25.3949 37.111 25.3936 37.1151 25.3936C37.1192 25.3936 37.1232 25.3949 37.1265 25.3974C37.1338 25.406 37.1375 25.4171 37.1368 25.4283V26.2132L37.2418 26.1534C37.2451 26.1509 37.2491 26.1496 37.2532 26.1496C37.2573 26.1496 37.2612 26.1509 37.2645 26.1534C37.268 26.1627 37.268 26.173 37.2645 26.1823V26.2503C37.2673 26.2645 37.2673 26.2792 37.2645 26.2935C37.2598 26.3045 37.2519 26.3138 37.2418 26.3203L37.1368 26.3821V26.6417C37.1361 26.6559 37.1326 26.6699 37.1265 26.6829C37.1217 26.6944 37.1139 26.7043 37.1038 26.7117L37.0461 26.7447ZM37.0132 26.2832V25.7517L36.7474 26.4336L37.0132 26.2832Z" fill="#455A64"/>
<path d="M37.468 26.1792C37.4712 26.197 37.4767 26.2143 37.4845 26.2307C37.4921 26.2451 37.5035 26.2572 37.5174 26.2657C37.5363 26.2713 37.5563 26.2713 37.5751 26.2657C37.6379 26.2502 37.695 26.2174 37.7399 26.171C37.7643 26.1474 37.7852 26.1203 37.8017 26.0906C37.8184 26.06 37.8316 26.0275 37.8409 25.9938C37.8528 25.9565 37.8584 25.9175 37.8573 25.8784C37.8589 25.8469 37.854 25.8153 37.8429 25.7857C37.8399 25.7759 37.8349 25.7668 37.8281 25.759C37.8214 25.7511 37.8131 25.7448 37.8038 25.7404C37.7845 25.7331 37.7633 25.7331 37.744 25.7404C37.7179 25.747 37.6929 25.7574 37.6699 25.7713L37.5669 25.8311C37.5636 25.8336 37.5596 25.8349 37.5555 25.8349C37.5514 25.8349 37.5475 25.8336 37.5442 25.8311C37.5369 25.8225 37.5332 25.8114 37.5339 25.8002V25.7322C37.5322 25.7206 37.5322 25.7088 37.5339 25.6972L37.5463 25.6663L37.7667 25.1739L37.4144 25.3799C37.4114 25.3828 37.4073 25.3844 37.4031 25.3844C37.3989 25.3844 37.3948 25.3828 37.3918 25.3799C37.3896 25.3754 37.3885 25.3705 37.3885 25.3655C37.3885 25.3605 37.3896 25.3556 37.3918 25.3511V25.2831C37.3878 25.2697 37.3878 25.2553 37.3918 25.2419C37.3934 25.2358 37.3963 25.2301 37.4002 25.2252C37.4041 25.2202 37.4089 25.2161 37.4144 25.2131L37.9068 24.9267C37.91 24.9242 37.914 24.9229 37.9181 24.9229C37.9222 24.9229 37.9262 24.9242 37.9294 24.9267C37.9332 24.9367 37.9332 24.9477 37.9294 24.9576V25.0235C37.9324 25.0357 37.9324 25.0484 37.9294 25.0606C37.9255 25.074 37.9207 25.0871 37.915 25.0998L37.709 25.5839C37.7431 25.5646 37.7812 25.5533 37.8203 25.5509C37.8512 25.548 37.8821 25.5568 37.9068 25.5756C37.9335 25.5991 37.9528 25.6299 37.9624 25.6642C37.9777 25.7121 37.9847 25.7623 37.983 25.8125C37.9832 25.8751 37.9748 25.9375 37.9583 25.9979C37.9442 26.0554 37.9227 26.1108 37.8944 26.1627C37.8686 26.2123 37.836 26.2581 37.7976 26.2987C37.7641 26.3373 37.7244 26.37 37.6802 26.3955C37.6371 26.4227 37.5886 26.4403 37.538 26.447C37.5043 26.4527 37.4697 26.4454 37.4412 26.4264C37.4146 26.4093 37.3943 26.384 37.3835 26.3543C37.37 26.3188 37.363 26.2811 37.3629 26.2431C37.3601 26.2322 37.3601 26.2209 37.3629 26.2101C37.3661 26.2005 37.3727 26.1925 37.3815 26.1874L37.4371 26.1545C37.4403 26.152 37.4443 26.1506 37.4484 26.1506C37.4525 26.1506 37.4565 26.152 37.4598 26.1545C37.4648 26.1618 37.4676 26.1703 37.468 26.1792Z" fill="#455A64"/>
<path d="M27.8685 38.9316C28.7935 38.3981 29.5433 38.8307 29.5433 39.8978C29.5433 40.9649 28.7935 42.2627 27.8685 42.7962C26.9436 43.3297 26.1958 42.8971 26.1958 41.8301C26.1958 40.763 26.9436 39.4631 27.8685 38.9316Z" fill="url(#paint1_linear_3723_40469)"/>
<path d="M27.8499 39.5686C28.0991 39.4265 28.2989 39.5418 28.2989 39.8282C28.2909 39.9839 28.246 40.1356 28.168 40.2706C28.0899 40.4056 27.9809 40.5202 27.8499 40.6048C27.6027 40.749 27.4028 40.6336 27.4028 40.3473C27.4111 40.1916 27.4559 40.0399 27.5335 39.9047C27.6112 39.7694 27.7195 39.6543 27.8499 39.5686Z" fill="white"/>
<path d="M28.7309 41.2001C28.7309 40.7304 28.3992 40.5203 27.9934 40.7551L27.738 40.9034C27.5237 41.0433 27.3452 41.2315 27.2171 41.453C27.089 41.6746 27.0148 41.9231 27.0005 42.1786V42.3063C27.0005 42.3063 27.1756 42.6627 27.8657 42.2548C28.2531 42.047 28.5582 41.7135 28.7309 41.3093V41.2001Z" fill="white"/>
<path d="M31.3784 38.4528L39.3341 33.859C39.6802 33.653 39.9521 33.8198 39.9521 34.2133C39.9406 34.4287 39.8787 34.6384 39.7713 34.8256C39.664 35.0127 39.5142 35.172 39.3341 35.2907L31.3763 39.901C31.0323 40.107 30.7583 39.9401 30.7583 39.5405C30.7689 39.3232 30.8306 39.1115 30.9383 38.9225C31.0461 38.7335 31.1968 38.5726 31.3784 38.4528Z" fill="#455A64"/>
<path d="M28.1758 73.0422L27.8071 72.9433C27.4548 72.8506 27.0366 72.6467 27.0366 72.1955C27.0546 72.011 27.1156 71.8333 27.2147 71.6766C27.3138 71.5199 27.4483 71.3886 27.6072 71.2932C27.6595 71.2559 27.7208 71.2332 27.7848 71.2276C27.8487 71.2221 27.913 71.2338 27.9709 71.2616C28.0288 71.2894 28.0782 71.3322 28.1139 71.3856C28.1496 71.439 28.1702 71.501 28.1737 71.5652C28.2332 71.1936 28.4368 70.8606 28.7402 70.6382C29.0575 70.4569 29.3129 70.566 29.3129 70.8812C29.3129 71.3324 28.9009 72.0204 28.5445 72.5189L28.1758 73.0422Z" fill="url(#paint2_linear_3723_40469)"/>
<path d="M31.2264 71.2973C31.126 71.2982 31.0273 71.2726 30.94 71.2231C30.8322 71.1491 30.7461 71.0477 30.6907 70.9292C30.6353 70.8108 30.6125 70.6797 30.6248 70.5495C30.6436 70.2137 30.7409 69.887 30.9091 69.5957C31.0773 69.3044 31.3116 69.0568 31.593 68.8727C31.6958 68.787 31.8225 68.7352 31.9559 68.7241C32.0892 68.7131 32.2227 68.7434 32.3382 68.811C32.4537 68.8785 32.5456 68.98 32.6013 69.1016C32.6571 69.2232 32.674 69.3591 32.6498 69.4907C32.6492 69.6342 32.6291 69.7769 32.5901 69.915L32.9032 70.3456C32.9117 70.3599 32.9162 70.3763 32.9162 70.3929C32.9162 70.4096 32.9117 70.426 32.9032 70.4403C32.8953 70.4549 32.8837 70.4671 32.8696 70.4757C32.8555 70.4844 32.8394 70.4893 32.8229 70.4898H32.3388C32.1793 70.7661 31.9535 70.9984 31.6816 71.1654C31.544 71.2485 31.387 71.294 31.2264 71.2973ZM32.0504 68.9159C31.9202 68.9218 31.7938 68.9615 31.6837 69.0313C31.4284 69.1976 31.2159 69.4217 31.0634 69.6855C30.9109 69.9493 30.8228 70.2453 30.8061 70.5495C30.7826 70.6488 30.7917 70.753 30.8322 70.8467C30.8726 70.9403 30.9423 71.0184 31.0307 71.0694C31.1191 71.1203 31.2216 71.1413 31.3229 71.1293C31.4242 71.1173 31.519 71.0729 31.593 71.0027C31.8513 70.8404 32.064 70.6149 32.211 70.3476C32.219 70.3339 32.2304 70.3225 32.2441 70.3145C32.2578 70.3065 32.2734 70.3023 32.2893 70.3023H32.6519L32.4273 69.9954C32.4149 69.9842 32.406 69.9698 32.4016 69.9537C32.3972 69.9376 32.3976 69.9206 32.4026 69.9047C32.4434 69.7711 32.4656 69.6324 32.4685 69.4927C32.4803 69.3941 32.4657 69.2941 32.4263 69.2029C32.3868 69.1117 32.3239 69.0326 32.244 68.9736C32.1857 68.9376 32.1189 68.9177 32.0504 68.9159Z" fill="#455A64"/>
<path d="M34.4017 69.5759C34.3809 69.5731 34.3617 69.5631 34.3474 69.5477C34.3332 69.5323 34.3247 69.5124 34.3234 69.4914L34.2431 68.1854L33.4685 67.9794C33.4514 67.975 33.436 67.9656 33.4242 67.9524C33.4125 67.9392 33.4049 67.9228 33.4026 67.9053C33.4003 67.8873 33.4034 67.8692 33.4114 67.853C33.4195 67.8369 33.4322 67.8235 33.4479 67.8146L35.2916 66.7496C35.307 66.7397 35.3249 66.7344 35.3431 66.7344C35.3614 66.7344 35.3793 66.7397 35.3946 66.7496C35.4087 66.7618 35.4188 66.7779 35.4236 66.7959C35.4284 66.8139 35.4276 66.833 35.4214 66.8505L34.5006 69.51C34.4948 69.531 34.4816 69.5493 34.4635 69.5614C34.4453 69.5735 34.4234 69.5787 34.4017 69.5759ZM33.7157 67.8579L34.3337 68.0268C34.352 68.0319 34.3681 68.0426 34.3799 68.0574C34.3917 68.0722 34.3986 68.0903 34.3997 68.1092L34.4573 69.0259L35.1495 67.0256L33.7157 67.8579Z" fill="#455A64"/>
<path d="M34.3247 68.2051C34.3042 68.2052 34.2845 68.1979 34.269 68.1845C34.2597 68.1773 34.252 68.1683 34.2462 68.158C34.2404 68.1477 34.2368 68.1364 34.2354 68.1247C34.2341 68.113 34.2351 68.1012 34.2384 68.0898C34.2417 68.0785 34.2472 68.068 34.2546 68.0588L35.2599 66.7672C35.2749 66.7485 35.2966 66.7363 35.3204 66.7332C35.3443 66.7301 35.3683 66.7364 35.3876 66.7507C35.397 66.7582 35.4048 66.7674 35.4106 66.7778C35.4164 66.7883 35.42 66.7997 35.4214 66.8116C35.4227 66.8235 35.4217 66.8355 35.4184 66.847C35.4151 66.8584 35.4095 66.8691 35.402 66.8785L34.405 68.1701C34.3954 68.182 34.3831 68.1913 34.3691 68.1974C34.3551 68.2035 34.3399 68.2062 34.3247 68.2051Z" fill="#455A64"/>
<path d="M44.9754 64.2291H44.9569C44.9363 64.2253 44.9178 64.2142 44.9046 64.198C44.8915 64.1818 44.8844 64.1615 44.8848 64.1406V62.0043C44.8846 61.9884 44.8887 61.9728 44.8967 61.959C44.9047 61.9452 44.9162 61.9338 44.9301 61.9261L46.2773 61.1453C46.2912 61.1378 46.3068 61.1338 46.3227 61.1338C46.3385 61.1338 46.3541 61.1378 46.368 61.1453C46.3816 61.1539 46.3929 61.1657 46.4008 61.1798C46.4087 61.1938 46.413 61.2096 46.4133 61.2257V63.3536C46.4132 63.3716 46.4079 63.3891 46.398 63.4041C46.3881 63.4191 46.3741 63.4309 46.3577 63.4381C46.341 63.4446 46.3227 63.4461 46.3052 63.4425C46.2876 63.4388 46.2715 63.4301 46.2588 63.4175L45.6738 62.8366L45.0558 64.1735C45.0493 64.1897 45.0382 64.2035 45.024 64.2134C45.0097 64.2233 44.9928 64.2288 44.9754 64.2291ZM45.0661 62.062V63.7244L45.5625 62.6471C45.5681 62.6335 45.5771 62.6216 45.5887 62.6126C45.6002 62.6036 45.6139 62.5977 45.6284 62.5956C45.6428 62.5927 45.6577 62.5935 45.6717 62.5978C45.6857 62.6021 45.6985 62.6098 45.7088 62.6203L46.232 63.1394V61.3863L45.0661 62.062Z" fill="#455A64"/>
<path d="M31.6592 74.3173C31.658 74.3339 31.6531 74.3501 31.6448 74.3646C31.6365 74.3798 31.6245 74.3926 31.6098 74.4017L31.4759 74.4779C31.4615 74.4779 31.4512 74.4882 31.4409 74.4779C31.4359 74.4746 31.4319 74.4699 31.4294 74.4645C31.4268 74.459 31.4258 74.453 31.4265 74.447V73.0957C31.4267 73.0788 31.4317 73.0624 31.4409 73.0483C31.4492 73.0331 31.4612 73.0204 31.4759 73.0112L31.6098 72.935C31.6242 72.935 31.6345 72.9247 31.6448 72.935C31.6495 72.9386 31.6533 72.9433 31.6558 72.9487C31.6583 72.9541 31.6595 72.96 31.6592 72.9659V74.3173Z" fill="#455A64"/>
<path d="M32.1028 72.6572C32.1078 72.6544 32.1135 72.6528 32.1192 72.6528C32.125 72.6528 32.1307 72.6544 32.1357 72.6572C32.1409 72.6609 32.1449 72.6659 32.1475 72.6717C32.15 72.6775 32.1509 72.6839 32.1501 72.6902V72.8488C32.1494 72.8656 32.1448 72.882 32.1365 72.8967C32.1283 72.9114 32.1167 72.9239 32.1028 72.9333L31.9483 73.0219C31.9434 73.0252 31.9377 73.027 31.9318 73.027C31.9259 73.027 31.9201 73.0252 31.9153 73.0219C31.9153 73.0219 31.9009 73.0074 31.9009 72.993V72.8303C31.9009 72.814 31.9059 72.7982 31.9153 72.785C31.9229 72.77 31.9342 72.7572 31.9483 72.7479L32.1028 72.6572ZM32.1419 74.0416C32.1406 74.0582 32.1357 74.0744 32.1275 74.0889C32.1192 74.1041 32.1071 74.1169 32.0925 74.126L31.9586 74.2022C31.9441 74.2022 31.9338 74.2125 31.9235 74.2022C31.9188 74.1986 31.9151 74.1939 31.9126 74.1886C31.9101 74.1832 31.9089 74.1773 31.9091 74.1713V73.2114C31.9104 73.1947 31.9153 73.1785 31.9235 73.164C31.9313 73.149 31.9436 73.1368 31.9586 73.129L32.0925 73.0486C32.0978 73.0456 32.1038 73.044 32.11 73.044C32.1161 73.044 32.1222 73.0456 32.1275 73.0486C32.1322 73.0523 32.1359 73.057 32.1385 73.0623C32.141 73.0677 32.1421 73.0736 32.1419 73.0795V74.0416Z" fill="#455A64"/>
<path d="M32.621 73.4151V73.7695C32.6208 73.7863 32.6158 73.8027 32.6066 73.8168C32.5983 73.832 32.5862 73.8448 32.5716 73.8539L32.4377 73.9301C32.4232 73.9301 32.4129 73.9404 32.4026 73.9301C32.3979 73.9265 32.3942 73.9218 32.3917 73.9165C32.3892 73.9111 32.388 73.9052 32.3882 73.8992V72.5479C32.3895 72.5312 32.3944 72.515 32.4026 72.5005C32.4104 72.4855 32.4227 72.4733 32.4377 72.4655L32.5716 72.3872C32.586 72.3872 32.5963 72.3872 32.6066 72.3872C32.6116 72.3906 32.6155 72.3952 32.6181 72.4006C32.6206 72.4061 32.6216 72.4121 32.621 72.4181V73.067L32.9197 72.6159C32.9275 72.6028 32.9365 72.5904 32.9465 72.5788C32.9577 72.5639 32.9717 72.5513 32.9877 72.5417L33.171 72.4366C33.1752 72.4336 33.1803 72.432 33.1854 72.432C33.1906 72.432 33.1956 72.4336 33.1999 72.4366C33.1999 72.4366 33.2122 72.449 33.2122 72.4634C33.2132 72.4703 33.2132 72.4772 33.2122 72.484C33.208 72.4956 33.2025 72.5067 33.1957 72.517L32.7837 73.135L33.239 73.3781C33.2446 73.3811 33.2495 73.3853 33.2534 73.3904C33.2551 73.3958 33.2551 73.4015 33.2534 73.4069C33.2529 73.4215 33.2487 73.4357 33.2411 73.4481C33.2341 73.4613 33.2233 73.472 33.2102 73.479L33.0371 73.5799C33.0235 73.5885 33.0079 73.5935 32.9918 73.5944H32.963L32.621 73.4151Z" fill="#455A64"/>
<path d="M30.0398 74.8125V75.1668C30.0396 75.1834 30.0354 75.1997 30.0274 75.2142C30.0185 75.2289 30.0066 75.2415 29.9924 75.2513L29.8565 75.3295C29.8515 75.3324 29.8458 75.334 29.84 75.334C29.8342 75.334 29.8285 75.3324 29.8235 75.3295C29.8132 75.3295 29.8091 75.3151 29.8091 75.2987V73.9535C29.8093 73.9366 29.8143 73.9202 29.8235 73.9061C29.8305 73.8912 29.8421 73.879 29.8565 73.8711L29.9924 73.7928C29.9976 73.7892 30.0037 73.7874 30.0099 73.7874C30.0162 73.7874 30.0223 73.7892 30.0274 73.7928C30.0318 73.7966 30.0351 73.8014 30.0373 73.8068C30.0394 73.8121 30.0403 73.8179 30.0398 73.8237V74.4726L30.3385 74.0235C30.3473 74.0099 30.3569 73.9968 30.3673 73.9844C30.3785 73.9695 30.3925 73.9569 30.4085 73.9473L30.5898 73.8422C30.6022 73.8422 30.6125 73.8422 30.6207 73.8422C30.625 73.8452 30.6284 73.8492 30.6306 73.8539C30.6328 73.8586 30.6336 73.8638 30.6331 73.869C30.6331 73.869 30.6331 73.8834 30.6331 73.8896C30.6288 73.9016 30.6226 73.9127 30.6145 73.9226L30.2025 74.5406L30.6578 74.7837L30.6702 74.796C30.6702 74.796 30.6702 74.796 30.6702 74.8125C30.6697 74.8271 30.6654 74.8413 30.6578 74.8537C30.6503 74.867 30.6397 74.8783 30.6269 74.8867L30.4539 74.9855C30.4404 74.9944 30.4247 74.9994 30.4085 74.9999C30.3997 75.0016 30.3906 75.0016 30.3818 74.9999L30.0398 74.8125Z" fill="#455A64"/>
<path d="M33.2936 72.9035C33.294 72.8243 33.3044 72.7454 33.3245 72.6687C33.3447 72.5901 33.3737 72.5141 33.411 72.4421C33.4487 72.3682 33.495 72.299 33.549 72.2361C33.6015 72.1782 33.6627 72.1289 33.7303 72.0898C33.7852 72.0553 33.8472 72.0335 33.9116 72.026C33.9602 72.0217 34.0089 72.0341 34.0496 72.061C34.0907 72.089 34.1217 72.1294 34.1382 72.1763C34.16 72.2342 34.1705 72.2958 34.1691 72.3576V72.4524C34.1691 72.4686 34.1641 72.4845 34.1547 72.4977C34.1471 72.5127 34.1357 72.5255 34.1217 72.5348L33.5264 72.8788C33.5245 72.9046 33.5302 72.9304 33.5428 72.953C33.5534 72.9696 33.5694 72.9819 33.5882 72.988C33.6098 72.9931 33.6324 72.9931 33.6541 72.988C33.6808 72.9813 33.7065 72.9709 33.7303 72.9571C33.764 72.9385 33.7951 72.9156 33.823 72.8891C33.8452 72.8685 33.8652 72.8458 33.8827 72.8211C33.8918 72.8065 33.9022 72.7927 33.9136 72.7799L33.9487 72.7531L34.0908 72.6707C34.0961 72.6677 34.1022 72.666 34.1083 72.666C34.1145 72.666 34.1205 72.6677 34.1258 72.6707C34.1361 72.6707 34.1402 72.6852 34.1402 72.7016C34.1354 72.7332 34.1256 72.7637 34.1114 72.7923C34.0901 72.8395 34.0639 72.8844 34.0331 72.9262C33.9956 72.9785 33.9535 73.0274 33.9075 73.0724C33.8546 73.1241 33.795 73.1685 33.7303 73.2043C33.6757 73.2399 33.6137 73.2624 33.549 73.2702C33.5003 73.2753 33.4514 73.2629 33.411 73.2352C33.3704 73.2027 33.3403 73.159 33.3245 73.1095C33.3026 73.0431 33.2922 72.9734 33.2936 72.9035ZM33.7303 72.3432C33.6971 72.3606 33.6671 72.3836 33.6417 72.4112C33.6183 72.4351 33.5982 72.4622 33.582 72.4915C33.5648 72.5175 33.5516 72.546 33.5428 72.576C33.5349 72.6001 33.5293 72.6249 33.5264 72.6501L33.9281 72.4174C33.9257 72.3978 33.9216 72.3785 33.9157 72.3597C33.9104 72.3417 33.8987 72.3263 33.8827 72.3164C33.8654 72.3062 33.8449 72.3026 33.8251 72.3061C33.7912 72.3117 33.759 72.3243 33.7303 72.3432Z" fill="#455A64"/>
<path d="M34.8599 72.2235C34.8599 72.2071 34.8558 72.1968 34.8475 72.1926C34.8335 72.1881 34.8183 72.1881 34.8043 72.1926L34.7198 72.2153L34.588 72.2606C34.5461 72.2748 34.5023 72.2825 34.4582 72.2833C34.4287 72.2848 34.3996 72.2761 34.3758 72.2586C34.353 72.2421 34.3369 72.2179 34.3305 72.1906C34.3217 72.1556 34.3175 72.1196 34.3181 72.0835C34.3188 72.0369 34.3278 71.9908 34.3449 71.9475C34.3622 71.8951 34.3864 71.8452 34.417 71.7992C34.4499 71.7488 34.4879 71.7018 34.5303 71.6591C34.5764 71.612 34.6292 71.5717 34.6868 71.5396C34.7358 71.5102 34.7885 71.4874 34.8434 71.4716C34.8815 71.4639 34.9207 71.4639 34.9588 71.4716C34.9883 71.4771 35.0151 71.4923 35.035 71.5149C35.052 71.5384 35.062 71.5663 35.0638 71.5952C35.0653 71.612 35.061 71.6288 35.0515 71.6426C35.0431 71.6572 35.031 71.6693 35.0164 71.6776L34.8784 71.758C34.8672 71.7666 34.8534 71.771 34.8393 71.7703L34.8104 71.76H34.7672C34.7385 71.7667 34.7112 71.7785 34.6868 71.7951C34.6515 71.8146 34.6195 71.8396 34.5921 71.8692C34.5671 71.8921 34.5523 71.924 34.5509 71.9578C34.5469 71.9684 34.5469 71.9801 34.5509 71.9908C34.5567 71.9934 34.563 71.9947 34.5694 71.9947C34.5758 71.9947 34.5821 71.9934 34.588 71.9908C34.6139 71.9869 34.6394 71.9807 34.6642 71.9722L34.7919 71.929C34.897 71.896 34.9732 71.8919 35.0164 71.929C35.04 71.9498 35.0581 71.9761 35.0693 72.0055C35.0804 72.035 35.0842 72.0667 35.0803 72.0979C35.0793 72.1451 35.0703 72.1918 35.0535 72.2359C35.0347 72.2885 35.0091 72.3384 34.9773 72.3842C34.9407 72.4373 34.8986 72.4863 34.8516 72.5305C34.8014 72.5785 34.7453 72.62 34.6848 72.6541C34.6333 72.6867 34.577 72.7111 34.5179 72.7262C34.4778 72.7342 34.4365 72.7342 34.3964 72.7262C34.3664 72.7188 34.3398 72.7016 34.3207 72.6774C34.3017 72.6531 34.2913 72.6231 34.2913 72.5923C34.2898 72.5755 34.2942 72.5588 34.3037 72.5449C34.3126 72.5302 34.3245 72.5176 34.3387 72.5078L34.4767 72.4295C34.4828 72.4265 34.4895 72.4249 34.4963 72.4249C34.5031 72.4249 34.5098 72.4265 34.5159 72.4295L34.5468 72.444C34.5622 72.4486 34.5787 72.4486 34.5941 72.444C34.6267 72.4371 34.6575 72.4238 34.6848 72.4048C34.7046 72.3954 34.7233 72.3837 34.7404 72.3698L34.794 72.3265L34.8331 72.2792C34.8476 72.2639 34.857 72.2444 34.8599 72.2235Z" fill="#455A64"/>
<path d="M27.0691 75.9366C27.0664 75.9308 27.0649 75.9245 27.0649 75.9181C27.0649 75.9117 27.0664 75.9053 27.0691 75.8996C27.0701 75.8828 27.075 75.8666 27.0835 75.8522L27.3802 75.3207L27.4028 75.2836C27.409 75.2723 27.4183 75.2629 27.4296 75.2568L27.5367 75.195C27.5383 75.1933 27.5402 75.1919 27.5423 75.1909C27.5444 75.1899 27.5468 75.1895 27.5491 75.1895C27.5514 75.1895 27.5537 75.1899 27.5559 75.1909C27.558 75.1919 27.5599 75.1933 27.5615 75.195C27.5656 75.1994 27.5687 75.2046 27.5704 75.2103C27.5722 75.216 27.5727 75.2221 27.5718 75.228V76.5917C27.5723 76.6081 27.5688 76.6244 27.5615 76.6391C27.556 76.6513 27.5475 76.662 27.5367 76.67L27.4255 76.7338C27.4218 76.737 27.417 76.7388 27.4121 76.7388C27.4072 76.7388 27.4024 76.737 27.3987 76.7338C27.3947 76.729 27.3917 76.7235 27.3899 76.7174C27.3881 76.7114 27.3876 76.7051 27.3884 76.6988V75.6565L27.1927 76.0149C27.1927 76.0293 27.1762 76.0396 27.1659 76.0417C27.1625 76.0447 27.1581 76.0464 27.1536 76.0464C27.149 76.0464 27.1446 76.0447 27.1412 76.0417L27.0691 75.9366Z" fill="#455A64"/>
<path d="M27.7893 75.0946C27.7895 75.078 27.7937 75.0618 27.8017 75.0472C27.8059 75.0342 27.8147 75.0232 27.8264 75.0163L28.3435 74.7176C28.3469 74.7146 28.3513 74.7129 28.3558 74.7129C28.3604 74.7129 28.3648 74.7146 28.3682 74.7176C28.3725 74.7219 28.3759 74.727 28.3781 74.7327C28.3802 74.7384 28.381 74.7445 28.3805 74.7506V74.9009C28.3804 74.9175 28.3761 74.9338 28.3682 74.9483C28.3627 74.9606 28.3542 74.9712 28.3435 74.9792L27.9582 75.2017L27.9418 75.4819C27.9627 75.4548 27.9877 75.4312 28.0159 75.4118C28.0352 75.3978 28.0551 75.3847 28.0757 75.3727C28.1191 75.346 28.1674 75.3285 28.2178 75.3212C28.2578 75.3164 28.2982 75.3267 28.3311 75.35C28.3671 75.3778 28.3937 75.4159 28.4073 75.4592C28.4274 75.5217 28.4364 75.5872 28.4341 75.6529C28.4357 75.7362 28.426 75.8193 28.4053 75.9C28.389 75.9718 28.3634 76.041 28.329 76.106C28.2988 76.1639 28.2606 76.2173 28.2157 76.2647C28.1735 76.3064 28.1265 76.3431 28.0757 76.3739C28.0259 76.4043 27.9706 76.4246 27.9129 76.4336C27.8732 76.4384 27.833 76.4289 27.7996 76.4068C27.7691 76.3822 27.7462 76.3493 27.7337 76.312C27.7167 76.2665 27.7077 76.2185 27.7069 76.1699C27.7038 76.1543 27.7038 76.1382 27.7069 76.1225C27.7125 76.1097 27.7218 76.0989 27.7337 76.0916L27.8449 76.0278C27.8486 76.0254 27.8529 76.0241 27.8573 76.0241C27.8617 76.0241 27.866 76.0254 27.8697 76.0278C27.8783 76.0352 27.8841 76.0454 27.8861 76.0566C27.8877 76.0799 27.8963 76.1022 27.9109 76.1205C27.9211 76.1335 27.9358 76.1422 27.9521 76.1452C27.9687 76.1512 27.9869 76.1512 28.0036 76.1452C28.0249 76.138 28.0455 76.1291 28.0654 76.1184C28.1202 76.0852 28.1639 76.0364 28.191 75.9783C28.2228 75.9144 28.2391 75.8438 28.2384 75.7723C28.241 75.7482 28.238 75.7238 28.2298 75.701C28.2216 75.6781 28.2084 75.6575 28.191 75.6405C28.1724 75.6281 28.1506 75.6215 28.1282 75.6215C28.1058 75.6215 28.084 75.6281 28.0654 75.6405C28.0414 75.6533 28.0192 75.6692 27.9994 75.6879C27.9847 75.7014 27.9715 75.7166 27.9603 75.7332L27.9335 75.7703C27.9248 75.7814 27.9143 75.7911 27.9026 75.7991L27.7749 75.8712C27.7715 75.8743 27.7671 75.8759 27.7625 75.8759C27.758 75.8759 27.7536 75.8743 27.7502 75.8712C27.7458 75.867 27.7424 75.8618 27.7403 75.8561C27.7382 75.8504 27.7373 75.8443 27.7378 75.8383L27.7893 75.0946Z" fill="#455A64"/>
<path d="M28.7387 75.6512C28.7424 75.648 28.7472 75.6462 28.7521 75.6462C28.757 75.6462 28.7617 75.648 28.7655 75.6512C28.7726 75.6607 28.7762 75.6723 28.7758 75.6841V75.8901C28.7751 75.9064 28.7716 75.9225 28.7655 75.9375C28.7594 75.95 28.7501 75.9606 28.7387 75.9684L28.611 76.0426C28.6076 76.0456 28.6032 76.0473 28.5986 76.0473C28.594 76.0473 28.5896 76.0456 28.5862 76.0426C28.5818 76.038 28.5784 76.0324 28.5763 76.0264C28.5742 76.0204 28.5734 76.0139 28.5739 76.0076V75.8016C28.5741 75.785 28.5783 75.7687 28.5862 75.7542C28.591 75.7415 28.5997 75.7307 28.611 75.7233L28.7387 75.6512Z" fill="#455A64"/>
<path d="M28.9116 75.3714C28.9112 75.2956 28.9209 75.2201 28.9405 75.1469C28.957 75.081 28.9796 75.0151 29.0023 74.9409L29.2639 74.224C29.2673 74.2118 29.2721 74.2001 29.2783 74.189C29.2803 74.1822 29.2837 74.176 29.2884 74.1707C29.293 74.1653 29.2987 74.161 29.3051 74.1581L29.4287 74.086C29.4324 74.0828 29.4372 74.0811 29.4421 74.0811C29.447 74.0811 29.4517 74.0828 29.4555 74.086C29.4629 74.0953 29.4666 74.1071 29.4658 74.119C29.4671 74.1251 29.4671 74.1314 29.4658 74.1375C29.466 74.1423 29.466 74.1471 29.4658 74.1519L29.2948 74.6257C29.3397 74.5982 29.3906 74.5819 29.4431 74.5783C29.4857 74.577 29.5273 74.5909 29.5605 74.6175C29.5967 74.6493 29.6231 74.6907 29.6368 74.737C29.6553 74.7998 29.6643 74.8651 29.6635 74.9306C29.6611 75.0821 29.6252 75.2312 29.5585 75.3673C29.5266 75.4302 29.4872 75.489 29.4411 75.5424C29.398 75.5915 29.3472 75.6333 29.2907 75.666C29.2453 75.696 29.1926 75.7131 29.1382 75.7155C29.0958 75.7185 29.0538 75.7053 29.0208 75.6784C28.9847 75.6457 28.9583 75.6036 28.9446 75.5568C28.9242 75.4971 28.9131 75.4346 28.9116 75.3714ZM29.4699 75.048C29.4723 75.0206 29.4691 74.993 29.4606 74.9668C29.4521 74.9406 29.4385 74.9164 29.4205 74.8956C29.3896 74.8667 29.3422 74.8688 29.2845 74.8956C29.2239 74.931 29.1758 74.9842 29.1465 75.048C29.1147 75.1121 29.0978 75.1825 29.097 75.254C29.0944 75.2818 29.0974 75.3098 29.1059 75.3363C29.1144 75.3629 29.1282 75.3875 29.1465 75.4085C29.1774 75.4394 29.2248 75.4374 29.2845 75.4085C29.3453 75.3731 29.393 75.3189 29.4205 75.254C29.4522 75.1899 29.4691 75.1195 29.4699 75.048Z" fill="#455A64"/>
<path d="M27.9009 36.4596C27.8415 36.4602 27.7831 36.4445 27.732 36.4143C27.6605 36.3629 27.6038 36.2935 27.5676 36.2133C27.5314 36.133 27.5171 36.0445 27.526 35.9569C27.5279 35.7681 27.5748 35.5825 27.663 35.4155C27.7511 35.2485 27.8779 35.105 28.0328 34.997C28.0914 34.9573 28.1596 34.9341 28.2302 34.9297C28.3009 34.9254 28.3714 34.94 28.4345 34.9723C28.506 35.0236 28.5627 35.093 28.5989 35.1733C28.6351 35.2535 28.6494 35.342 28.6405 35.4296C28.6384 35.6189 28.5911 35.8049 28.5026 35.9722C28.4141 36.1396 28.2869 36.2833 28.1317 36.3916C28.0621 36.4342 27.9825 36.4576 27.9009 36.4596ZM28.1317 35.1741C28.0076 35.2643 27.9059 35.3818 27.8345 35.5176C27.7631 35.6533 27.7238 35.8036 27.7197 35.9569C27.713 36.0088 27.7193 36.0616 27.738 36.1105C27.7567 36.1594 27.7872 36.2029 27.8268 36.2371C27.8586 36.2493 27.8929 36.2534 27.9267 36.2491C27.9605 36.2448 27.9927 36.2322 28.0204 36.2124C28.145 36.1227 28.2471 36.0053 28.3186 35.8695C28.3901 35.7337 28.4291 35.5831 28.4324 35.4296C28.4395 35.3779 28.4333 35.3254 28.4146 35.2768C28.3959 35.2281 28.3652 35.185 28.3253 35.1515C28.2934 35.1386 28.2587 35.1339 28.2246 35.1379C28.1904 35.1419 28.1577 35.1543 28.1296 35.1741H28.1317Z" fill="#455A64"/>
<path d="M27.0644 37.3441C27.0348 37.3436 27.0058 37.3358 26.9799 37.3214C26.946 37.2996 26.9188 37.2688 26.9014 37.2324C26.8839 37.196 26.8769 37.1555 26.881 37.1154V35.6364C26.8819 35.5683 26.8993 35.5015 26.9316 35.4416C26.9638 35.3817 27.0101 35.3305 27.0664 35.2923L27.4558 35.0678C27.4803 35.0478 27.5002 35.0227 27.5141 34.9942C27.528 34.9658 27.5355 34.9346 27.5361 34.903C27.537 34.8347 27.5544 34.7676 27.5866 34.7073C27.6189 34.6471 27.6652 34.5955 27.7215 34.5569L28.3127 34.217C28.3414 34.2 28.3741 34.191 28.4075 34.191C28.4409 34.191 28.4736 34.2 28.5023 34.217C28.5344 34.2382 28.5604 34.2674 28.5778 34.3017C28.5951 34.336 28.6032 34.3743 28.6011 34.4127L28.9678 34.2067C28.9965 34.1897 29.0292 34.1807 29.0626 34.1807C29.0959 34.1807 29.1287 34.1897 29.1573 34.2067C29.1912 34.2286 29.2184 34.2594 29.2359 34.2957C29.2533 34.3321 29.2604 34.3726 29.2562 34.4127V35.8939C29.2551 35.9619 29.2377 36.0286 29.2055 36.0885C29.1732 36.1483 29.127 36.1996 29.0708 36.2379L27.1694 37.3359C27.1356 37.3469 27.0996 37.3497 27.0644 37.3441ZM28.3951 34.4148L27.8245 34.7423C27.7997 34.7626 27.7794 34.788 27.7652 34.8168C27.751 34.8456 27.7431 34.8771 27.7421 34.9092C27.7413 34.977 27.7242 35.0436 27.6923 35.1035C27.6604 35.1633 27.6146 35.2147 27.5588 35.2532L27.1694 35.4777C27.1446 35.4976 27.1244 35.5227 27.1102 35.5511C27.096 35.5796 27.0881 35.6107 27.087 35.6425V37.1237L28.9678 36.038C28.9926 36.0182 29.0128 35.9931 29.0271 35.9647C29.0413 35.9362 29.0492 35.905 29.0502 35.8732V34.4004L28.6815 34.6064C28.6528 34.6234 28.6201 34.6324 28.5867 34.6324C28.5534 34.6324 28.5206 34.6234 28.492 34.6064C28.4598 34.5864 28.4337 34.558 28.4166 34.5242C28.3995 34.4904 28.3921 34.4525 28.3951 34.4148Z" fill="#455A64"/>
<path d="M50.5298 35.7981C51.4918 35.8146 52.1448 36.0783 52.9523 37.2586C53.7599 38.439 55.7787 41.1088 55.7787 41.1088C55.7787 41.1088 58.3887 39.3537 58.7286 38.9643C59.0685 38.575 60.1273 37.9446 60.1273 37.9446L60.4899 39.5391C60.4899 39.5391 57.0517 42.9298 56.1639 43.5025C55.5109 43.9269 55.1771 43.9578 54.3882 43.1441C53.5992 42.3304 50.6946 39.0035 50.6946 39.0035L50.5298 35.7981Z" fill="#FFA8A7"/>
<path d="M60.6245 36.179L61.5577 35.6372V40.7872C61.58 40.9138 61.6464 41.0284 61.7452 41.1106L60.8099 41.6503C60.7119 41.5677 60.6463 41.4532 60.6245 41.3269V36.179Z" fill="#37474F"/>
<path d="M61.5568 37.7153C61.5568 37.7153 61.8205 37.7854 61.9132 38.1974C62.0059 38.6094 62.0409 39.3963 61.7978 39.6517C61.5547 39.9072 61.2313 40.0102 61.0191 39.9134C60.6236 39.73 60.7616 38.9204 61.0871 38.7392C61.6062 38.4508 61.5527 38.1212 61.5527 38.1212L61.5568 37.7153Z" fill="#FFA8A7"/>
<path d="M59.4845 36.1682L59.878 36.6709V40.1729L59.4536 40.8506L60.8091 41.6334C60.7073 41.5541 60.6407 41.4379 60.6237 41.31V36.8254L59.4845 36.1682Z" fill="#455A64"/>
<path d="M59.4536 40.8635V41.0798L60.8091 41.8626V41.6463L59.4536 40.8635Z" fill="url(#paint3_linear_3723_40469)"/>
<path d="M60.8057 41.8652L61.7409 41.3254V41.1091L60.8057 41.6489V41.8652Z" fill="url(#paint4_linear_3723_40469)"/>
<path opacity="0.1" d="M60.8057 41.8652L61.7409 41.3254V41.1091L60.8057 41.6489V41.8652Z" fill="black"/>
<path d="M60.5847 33.9079C60.4858 33.8621 60.3765 33.8434 60.268 33.8535C60.1594 33.8636 60.0555 33.9023 59.9667 33.9656C59.7119 34.1316 59.4997 34.3555 59.3476 34.6189C59.1955 34.8824 59.1077 35.178 59.0912 35.4817C59.0786 35.5936 59.0975 35.7067 59.1459 35.8083C59.1944 35.9099 59.2703 35.9959 59.3652 36.0565L60.0718 36.4685L61.2522 34.2746L60.5847 33.9079Z" fill="url(#paint5_linear_3723_40469)"/>
<path opacity="0.8" d="M60.5847 33.9079C60.4858 33.8621 60.3765 33.8434 60.268 33.8535C60.1594 33.8636 60.0555 33.9023 59.9667 33.9656C59.7119 34.1316 59.4997 34.3555 59.3476 34.6189C59.1955 34.8824 59.1077 35.178 59.0912 35.4817C59.0786 35.5936 59.0975 35.7067 59.1459 35.8083C59.1944 35.9099 59.2703 35.9959 59.3652 36.0565L60.0718 36.4685L61.2522 34.2746L60.5847 33.9079Z" fill="#FAFAFA"/>
<path opacity="0.2" d="M59.3459 36.0741L60.0525 36.4861L60.4439 35.759L59.1522 35.0215C59.1012 35.1736 59.0741 35.3328 59.0719 35.4932C59.058 35.606 59.0764 35.7205 59.1249 35.8233C59.1733 35.9261 59.25 36.0131 59.3459 36.0741Z" fill="url(#paint6_linear_3723_40469)"/>
<path d="M62.1026 34.4457C61.9939 34.3936 61.874 34.3692 61.7536 34.3746C61.6332 34.38 61.5161 34.415 61.4125 34.4766L61.328 34.522L61.2271 34.5858C61.1735 34.6229 61.12 34.6641 61.0664 34.7094C60.9695 34.7937 60.8799 34.886 60.7986 34.9855C60.5715 35.2624 60.4033 35.5827 60.3042 35.9269C60.2569 36.0882 60.2319 36.2552 60.23 36.4233C60.2168 36.5566 60.2381 36.691 60.2919 36.8137C60.3456 36.9364 60.43 37.0431 60.537 37.1237L59.8613 36.7344C59.7358 36.6534 59.6331 36.5416 59.5631 36.4096C59.4932 36.2776 59.4582 36.1298 59.4617 35.9804C59.4636 35.8202 59.4864 35.6609 59.5296 35.5066C59.6268 35.1536 59.7974 34.8251 60.0302 34.5426C60.1122 34.4431 60.2025 34.3508 60.3001 34.2665C60.35 34.2223 60.403 34.1817 60.4587 34.145C60.4909 34.1215 60.5246 34.1002 60.5596 34.0811L60.6462 34.0358C60.7661 33.9795 60.8973 33.9513 61.0297 33.9535C61.1622 33.9556 61.2924 33.988 61.4104 34.0482L61.429 34.0585L61.4516 34.0729L62.1026 34.4457Z" fill="url(#paint7_linear_3723_40469)"/>
<path opacity="0.1" d="M59.8613 36.7361C59.7358 36.6551 59.6331 36.5432 59.5631 36.4112C59.4932 36.2792 59.4582 36.1315 59.4617 35.9821C59.4636 35.8219 59.4864 35.6626 59.5296 35.5083L60.3021 35.9203C60.2548 36.0816 60.2298 36.2487 60.228 36.4168C60.2148 36.55 60.2361 36.6845 60.2898 36.8071C60.3436 36.9298 60.428 37.0365 60.5349 37.1172L59.8613 36.7361Z" fill="black"/>
<path d="M62.4199 35.158C62.3998 35.5385 62.29 35.9089 62.0995 36.239C61.9091 36.5691 61.6433 36.8495 61.3239 37.0573C61.213 37.1389 61.082 37.1889 60.9448 37.2019C60.8077 37.215 60.6697 37.1906 60.5453 37.1315H60.5329C60.426 37.0509 60.3416 36.9441 60.2878 36.8214C60.2341 36.6988 60.2128 36.5644 60.226 36.4311C60.2468 36.0502 60.3571 35.6796 60.5478 35.3492C60.7386 35.0189 61.0045 34.7381 61.3239 34.5297C61.4293 34.4383 61.5605 34.382 61.6993 34.3688C61.8382 34.3555 61.9777 34.3859 62.0984 34.4558C62.2191 34.5257 62.3149 34.6315 62.3726 34.7585C62.4302 34.8855 62.4467 35.0273 62.4199 35.1642V35.158Z" fill="url(#paint8_linear_3723_40469)"/>
<path opacity="0.2" d="M62.4199 35.158C62.3998 35.5385 62.29 35.9089 62.0995 36.239C61.9091 36.5691 61.6433 36.8495 61.3239 37.0573C61.213 37.1389 61.082 37.1889 60.9448 37.2019C60.8077 37.215 60.6697 37.1906 60.5453 37.1315H60.5329C60.426 37.0509 60.3416 36.9441 60.2878 36.8214C60.2341 36.6988 60.2128 36.5644 60.226 36.4311C60.2468 36.0502 60.3571 35.6796 60.5478 35.3492C60.7386 35.0189 61.0045 34.7381 61.3239 34.5297C61.4293 34.4383 61.5605 34.382 61.6993 34.3688C61.8382 34.3555 61.9777 34.3859 62.0984 34.4558C62.2191 34.5257 62.3149 34.6315 62.3726 34.7585C62.4302 34.8855 62.4467 35.0273 62.4199 35.1642V35.158Z" fill="black"/>
<path d="M65.7964 34.9778C65.7964 34.9778 64.6902 35.5464 63.7364 37.182C63.567 37.4765 63.4176 37.782 63.2894 38.0966C63.014 38.716 62.8655 39.3842 62.8527 40.0619C62.5231 39.2544 62.1131 38.4139 61.4292 37.7773C61.1607 37.5287 60.8795 37.2943 60.5867 37.0749C60.4861 37.0018 60.4065 36.9036 60.3558 36.7901C60.3052 36.6765 60.2854 36.5517 60.2983 36.428C60.3029 36.2075 60.3454 35.9894 60.4239 35.7833C60.4737 35.6438 60.5364 35.5093 60.6114 35.3816C60.7893 35.0574 61.0475 34.7843 61.3612 34.5885C61.4617 34.5152 61.5797 34.4696 61.7033 34.4563C61.8269 34.4429 61.9519 34.4622 62.0657 34.5122C62.4024 34.6555 62.7461 34.7814 63.0957 34.8892C64.0021 35.1591 64.9333 35.0952 65.7964 34.9778Z" fill="url(#paint9_linear_3723_40469)"/>
<path opacity="0.8" d="M65.7964 34.9778C65.7964 34.9778 64.6902 35.5464 63.7364 37.182C63.567 37.4765 63.4176 37.782 63.2894 38.0966C63.014 38.716 62.8655 39.3842 62.8527 40.0619C62.5231 39.2544 62.1131 38.4139 61.4292 37.7773C61.1607 37.5287 60.8795 37.2943 60.5867 37.0749C60.4861 37.0018 60.4065 36.9036 60.3558 36.7901C60.3052 36.6765 60.2854 36.5517 60.2983 36.428C60.3029 36.2075 60.3454 35.9894 60.4239 35.7833C60.4737 35.6438 60.5364 35.5093 60.6114 35.3816C60.7893 35.0574 61.0475 34.7843 61.3612 34.5885C61.4617 34.5152 61.5797 34.4696 61.7033 34.4563C61.8269 34.4429 61.9519 34.4622 62.0657 34.5122C62.4024 34.6555 62.7461 34.7814 63.0957 34.8892C64.0021 35.1591 64.9333 35.0952 65.7964 34.9778Z" fill="#FAFAFA"/>
<path opacity="0.2" d="M63.2894 38.0954C63.014 38.7147 62.8655 39.3829 62.8527 40.0606C62.5231 39.2531 62.1131 38.4126 61.4292 37.7761C61.1607 37.5275 60.8795 37.293 60.5867 37.0736C60.4861 37.0006 60.4065 36.9023 60.3558 36.7888C60.3052 36.6753 60.2854 36.5504 60.2983 36.4268C60.3029 36.2062 60.3454 35.9881 60.4239 35.782C61.2644 36.2002 62.6219 36.9747 63.2894 38.0954Z" fill="url(#paint10_linear_3723_40469)"/>
<path d="M67.8846 36.5596C67.8622 37.3508 67.6578 38.1262 67.2872 38.8256C66.8396 39.7504 66.1425 40.5317 65.2746 41.0813C63.8326 41.9053 62.6646 41.2379 62.6646 39.5734C62.6678 39.1739 62.726 38.7767 62.8376 38.393C63.1283 37.3806 63.672 36.459 64.4176 35.715C64.5206 35.6148 64.6257 35.52 64.7328 35.4307L64.8688 35.3236C64.9347 35.2742 64.9985 35.2289 65.0748 35.1835C65.151 35.1382 65.2128 35.095 65.2808 35.0538C66.7166 34.2195 67.8846 34.8931 67.8846 36.5596Z" fill="url(#paint11_linear_3723_40469)"/>
<path opacity="0.1" d="M67.2872 38.8259C66.8396 39.7507 66.1425 40.5319 65.2746 41.0816C63.8326 41.9056 62.6646 41.2382 62.6646 39.5737C62.6678 39.1742 62.726 38.777 62.8376 38.3933C62.9344 38.5993 63.2846 38.9166 63.4412 38.7003C63.3455 39.041 63.295 39.3928 63.2908 39.7467C63.2667 40.1436 63.3754 40.5371 63.5998 40.8653C63.6832 40.9706 63.7903 41.0548 63.9124 41.111C64.0344 41.1672 64.168 41.1938 64.3023 41.1887C64.6429 41.1717 64.9735 41.0675 65.2622 40.8859C66.0101 40.4114 66.6208 39.7495 67.0338 38.966C67.0338 38.966 67.1224 39.0422 67.2872 38.8259Z" fill="black"/>
<path d="M67.6958 36.6526C67.6655 37.4675 67.4341 38.2622 67.0222 38.966C66.6092 39.7495 65.9985 40.4114 65.2506 40.8859C64.9618 41.0674 64.6313 41.1717 64.2906 41.1887C64.1564 41.1938 64.0228 41.1672 63.9007 41.111C63.7787 41.0548 63.6716 40.9706 63.5882 40.8653C63.3638 40.5371 63.2551 40.1435 63.2792 39.7467C63.2833 39.3928 63.3339 39.041 63.4295 38.7002C63.4666 38.5663 63.5099 38.4304 63.5593 38.2882C63.6469 38.0489 63.7501 37.8157 63.8683 37.5899C63.891 37.5425 63.9178 37.4951 63.9425 37.4498C63.9837 37.3736 64.0269 37.2974 64.0723 37.2232C64.2263 36.9695 64.3985 36.7272 64.5873 36.4981C64.7092 36.3536 64.8392 36.216 64.9766 36.0861C65.0727 35.9927 65.1716 35.9062 65.2732 35.8265L65.401 35.7277C65.4545 35.6885 65.506 35.6535 65.5596 35.6185L65.7141 35.5217C66.0036 35.3401 66.3348 35.2359 66.6761 35.2188C67.3168 35.2106 67.6958 35.7503 67.6958 36.6526Z" fill="url(#paint12_linear_3723_40469)"/>
<path opacity="0.3" d="M67.6958 36.6526C67.6655 37.4675 67.4341 38.2622 67.0222 38.966C66.6092 39.7495 65.9985 40.4114 65.2506 40.8859C64.9618 41.0674 64.6313 41.1717 64.2906 41.1887C64.1564 41.1938 64.0228 41.1672 63.9007 41.111C63.7787 41.0548 63.6716 40.9706 63.5882 40.8653C63.3638 40.5371 63.2551 40.1435 63.2792 39.7467C63.2833 39.3928 63.3339 39.041 63.4295 38.7002C63.4666 38.5663 63.5099 38.4304 63.5593 38.2882C63.6469 38.0489 63.7501 37.8157 63.8683 37.5899C63.891 37.5425 63.9178 37.4951 63.9425 37.4498C63.9837 37.3736 64.0269 37.2974 64.0723 37.2232C64.2263 36.9695 64.3985 36.7272 64.5873 36.4981C64.7092 36.3536 64.8392 36.216 64.9766 36.0861C65.0727 35.9927 65.1716 35.9062 65.2732 35.8265L65.401 35.7277C65.4545 35.6885 65.506 35.6535 65.5596 35.6185L65.7141 35.5217C66.0036 35.3401 66.3348 35.2359 66.6761 35.2188C67.3168 35.2106 67.6958 35.7503 67.6958 36.6526Z" fill="black"/>
<path d="M65.4764 37.0588L64.5597 38.7706C64.3022 38.6738 63.8675 38.5193 63.5132 38.4287C63.5276 38.3834 63.542 38.338 63.5585 38.2927C63.6461 38.0534 63.7493 37.8201 63.8675 37.5944L63.9417 37.4543C63.9829 37.3781 64.0261 37.3019 64.0735 37.2277C64.2262 36.9736 64.3976 36.7312 64.5864 36.5026L64.6688 36.4058C64.9181 36.6469 65.1884 36.8655 65.4764 37.0588Z" fill="url(#paint13_linear_3723_40469)"/>
<g opacity="0.6">
<path d="M65.4832 37.0544L64.5665 38.7662C64.309 38.6694 63.8743 38.5149 63.52 38.4243C63.5344 38.379 63.5489 38.3336 63.5653 38.2883C63.6529 38.049 63.7561 37.8157 63.8743 37.59L63.9485 37.4499C63.9897 37.3737 64.033 37.2975 64.0803 37.2233C64.233 36.9692 64.4045 36.7268 64.5933 36.4982L64.6757 36.4014C64.925 36.6425 65.1952 36.8611 65.4832 37.0544Z" fill="#FAFAFA"/>
</g>
<path d="M64.6397 38.7638C64.4337 38.7638 64.3101 38.597 64.3101 38.3168C64.3227 38.0771 64.3918 37.8437 64.5117 37.6357C64.6317 37.4277 64.799 37.251 65.0002 37.1199C65.0867 37.065 65.1861 37.0337 65.2886 37.0293C65.4946 37.0293 65.6202 37.1962 65.6202 37.4763C65.607 37.7164 65.5375 37.9501 65.4172 38.1584C65.297 38.3667 65.1294 38.5437 64.9281 38.6752C64.8411 38.729 64.7418 38.7595 64.6397 38.7638Z" fill="url(#paint14_linear_3723_40469)"/>
<g opacity="0.8">
<path d="M64.6499 38.7621C64.4439 38.7621 64.3203 38.5952 64.3203 38.3151C64.333 38.0753 64.4021 37.842 64.522 37.634C64.6419 37.426 64.8093 37.2493 65.0104 37.1182C65.0969 37.0633 65.1964 37.032 65.2988 37.0276C65.5048 37.0276 65.6305 37.1944 65.6305 37.4746C65.6173 37.7147 65.5477 37.9484 65.4275 38.1567C65.3072 38.3649 65.1397 38.542 64.9383 38.6735C64.8514 38.7273 64.7521 38.7578 64.6499 38.7621Z" fill="#FAFAFA"/>
</g>
<path d="M65.6303 33.9453C65.5757 33.9453 65.5233 33.9236 65.4847 33.8849C65.446 33.8463 65.4243 33.7939 65.4243 33.7393V31.7473C65.4243 31.6926 65.446 31.6402 65.4847 31.6016C65.5233 31.563 65.5757 31.5413 65.6303 31.5413C65.685 31.5413 65.7374 31.563 65.776 31.6016C65.8146 31.6402 65.8363 31.6926 65.8363 31.7473V33.7393C65.8363 33.7939 65.8146 33.8463 65.776 33.8849C65.7374 33.9236 65.685 33.9453 65.6303 33.9453Z" fill="#E0E0E0"/>
<path d="M63.8143 34.4313C63.778 34.4315 63.7423 34.422 63.7108 34.4039C63.6793 34.3859 63.6532 34.3598 63.635 34.3283L62.6401 32.6041C62.6252 32.5807 62.6151 32.5544 62.6106 32.527C62.6061 32.4996 62.6072 32.4716 62.6138 32.4446C62.6204 32.4176 62.6324 32.3922 62.6491 32.37C62.6658 32.3478 62.6868 32.3292 62.7108 32.3152C62.7349 32.3013 62.7615 32.2925 62.7891 32.2891C62.8167 32.2858 62.8446 32.288 62.8713 32.2958C62.898 32.3035 62.9228 32.3166 62.9443 32.3341C62.9658 32.3517 62.9836 32.3735 62.9964 32.3981L63.9935 34.1223C64.0116 34.1537 64.0211 34.1893 64.0211 34.2255C64.021 34.2618 64.0115 34.2973 63.9933 34.3287C63.9751 34.36 63.949 34.386 63.9176 34.404C63.8861 34.4221 63.8505 34.4315 63.8143 34.4313Z" fill="#E0E0E0"/>
<path d="M61.9378 44.0323C61.9016 44.0325 61.8659 44.0231 61.8345 44.005C61.8031 43.987 61.7769 43.961 61.7588 43.9297C61.7406 43.8983 61.731 43.8628 61.731 43.8265C61.7309 43.7903 61.7404 43.7547 61.7586 43.7233L62.7556 41.997C62.7831 41.9503 62.828 41.9163 62.8804 41.9024C62.9329 41.8885 62.9887 41.8959 63.0358 41.9229C63.0829 41.9501 63.1173 41.9948 63.1316 42.0473C63.1459 42.0997 63.1388 42.1557 63.112 42.203L62.1149 43.9293C62.097 43.9605 62.0712 43.9863 62.0401 44.0044C62.009 44.0225 61.9737 44.0321 61.9378 44.0323Z" fill="#E0E0E0"/>
<path d="M65.6303 44.2917C65.5757 44.2917 65.5233 44.27 65.4847 44.2314C65.446 44.1927 65.4243 44.1403 65.4243 44.0857V42.0937C65.4243 42.0391 65.446 41.9867 65.4847 41.948C65.5233 41.9094 65.5757 41.8877 65.6303 41.8877C65.685 41.8877 65.7374 41.9094 65.776 41.948C65.8146 41.9867 65.8363 42.0391 65.8363 42.0937V44.0857C65.8363 44.1403 65.8146 44.1927 65.776 44.2314C65.7374 44.27 65.685 44.2917 65.6303 44.2917Z" fill="#E0E0E0"/>
<path d="M68.4334 42.434C68.3975 42.4338 68.3622 42.4242 68.3311 42.4061C68.3 42.388 68.2742 42.3622 68.2562 42.331L67.2592 40.6068C67.2443 40.5834 67.2343 40.5571 67.2298 40.5297C67.2253 40.5023 67.2264 40.4743 67.233 40.4473C67.2396 40.4203 67.2516 40.3949 67.2682 40.3727C67.2849 40.3505 67.3059 40.3318 67.33 40.3179C67.354 40.304 67.3806 40.2951 67.4082 40.2918C67.4358 40.2884 67.4638 40.2907 67.4904 40.2984C67.5171 40.3062 67.542 40.3192 67.5635 40.3368C67.585 40.3544 67.6027 40.3762 67.6156 40.4008L68.6126 42.125C68.6307 42.1564 68.6403 42.192 68.6402 42.2282C68.6402 42.2645 68.6306 42.3 68.6124 42.3314C68.5942 42.3627 68.5681 42.3887 68.5367 42.4067C68.5053 42.4247 68.4696 42.4342 68.4334 42.434Z" fill="#E0E0E0"/>
<path d="M70.5011 40.3787C70.465 40.3789 70.4295 40.3697 70.3981 40.3519L68.6739 39.3548C68.6268 39.3277 68.5923 39.283 68.578 39.2305C68.5637 39.178 68.5708 39.122 68.5977 39.0747C68.6111 39.0511 68.6291 39.0304 68.6506 39.0137C68.6721 38.9971 68.6967 38.9849 68.7229 38.9778C68.7491 38.9707 68.7765 38.9689 68.8035 38.9725C68.8304 38.976 68.8564 38.9848 68.8799 38.9985L70.6041 39.9955C70.6512 40.0227 70.6857 40.0674 70.7 40.1199C70.7142 40.1723 70.7072 40.2284 70.6803 40.2757C70.6622 40.3071 70.636 40.3332 70.6046 40.3513C70.5731 40.3693 70.5374 40.3788 70.5011 40.3787Z" fill="#E0E0E0"/>
<path d="M71.2414 37.5741H69.2514C69.1968 37.5741 69.1444 37.5524 69.1057 37.5138C69.0671 37.4751 69.0454 37.4227 69.0454 37.3681C69.0454 37.3135 69.0671 37.2611 69.1057 37.2224C69.1444 37.1838 69.1968 37.1621 69.2514 37.1621H71.2414C71.296 37.1621 71.3484 37.1838 71.387 37.2224C71.4257 37.2611 71.4474 37.3135 71.4474 37.3681C71.4474 37.4227 71.4257 37.4751 71.387 37.5138C71.3484 37.5524 71.296 37.5741 71.2414 37.5741Z" fill="#E0E0E0"/>
<path d="M68.7699 35.76C68.7243 35.7603 68.6799 35.7455 68.6436 35.7178C68.6073 35.6902 68.5813 35.6513 68.5695 35.6072C68.5577 35.5632 68.5609 35.5164 68.5785 35.4744C68.5962 35.4323 68.6273 35.3973 68.6669 35.3748L70.3912 34.3798C70.4146 34.3649 70.4408 34.3549 70.4682 34.3504C70.4957 34.3459 70.5237 34.347 70.5507 34.3536C70.5777 34.3602 70.603 34.3722 70.6253 34.3888C70.6475 34.4055 70.6661 34.4265 70.68 34.4506C70.6939 34.4746 70.7028 34.5012 70.7062 34.5288C70.7095 34.5564 70.7073 34.5844 70.6995 34.6111C70.6918 34.6377 70.6787 34.6626 70.6611 34.6841C70.6435 34.7056 70.6218 34.7233 70.5972 34.7362L68.8729 35.7332C68.8415 35.751 68.806 35.7603 68.7699 35.76Z" fill="#E0E0E0"/>
<path d="M67.4418 34.432C67.4057 34.4322 67.3702 34.423 67.3388 34.4052C67.3152 34.3917 67.2945 34.3737 67.2779 34.3522C67.2613 34.3307 67.2491 34.3062 67.242 34.2799C67.2349 34.2537 67.2331 34.2263 67.2366 34.1994C67.2402 34.1724 67.249 34.1465 67.2626 34.123L68.2597 32.3987C68.2868 32.3516 68.3315 32.3172 68.384 32.3029C68.4365 32.2886 68.4925 32.2957 68.5398 32.3225C68.5634 32.336 68.5841 32.354 68.6007 32.3755C68.6174 32.397 68.6296 32.4215 68.6367 32.4478C68.6437 32.474 68.6456 32.5014 68.642 32.5283C68.6385 32.5552 68.6296 32.5812 68.616 32.6047L67.619 34.329C67.601 34.3601 67.5752 34.386 67.5441 34.404C67.513 34.4221 67.4778 34.4317 67.4418 34.432Z" fill="#E0E0E0"/>
<path d="M58.7334 38.9628C59.1454 38.4725 59.1578 38.1614 59.4688 37.9328C59.7799 37.7041 60.0868 37.6856 60.5421 37.8277C60.884 37.9328 61.2878 37.8916 61.4258 38.0337C61.4629 38.0605 61.397 38.2789 61.2342 38.3551C60.9939 38.4226 60.7426 38.4422 60.4947 38.4128C59.9673 38.4128 60.3876 38.9298 59.8767 39.4428C59.646 39.795 58.7334 38.9628 58.7334 38.9628Z" fill="#FFA8A7"/>
<path d="M53.1124 35.4708L48.8812 35.339C47.8364 35.3061 46.8471 34.861 46.1296 34.101C45.412 33.3409 45.0244 32.3277 45.0516 31.2828L45.0743 30.4712C45.0897 29.9647 45.2049 29.4662 45.4131 29.0042C45.6213 28.5422 45.9185 28.1258 46.2877 27.7788C46.657 27.4317 47.091 27.1609 47.565 26.9816C48.039 26.8024 48.5436 26.7184 49.0501 26.7343L49.4992 26.7467C50.5221 26.779 51.4903 27.2161 52.1911 27.962C52.8918 28.708 53.2677 29.7016 53.236 30.7246L53.1124 35.4708Z" fill="url(#paint15_linear_3723_40469)"/>
<g opacity="0.7">
<path d="M53.108 35.4701L48.8768 35.3382C47.832 35.3054 46.8428 34.8603 46.1252 34.1002C45.4076 33.3402 45.02 32.327 45.0472 31.2821L45.0699 30.4704C45.0853 29.9639 45.2005 29.4655 45.4087 29.0035C45.6169 28.5415 45.9141 28.1251 46.2833 27.778C46.6526 27.431 47.0866 27.1601 47.5606 26.9809C48.0346 26.8017 48.5392 26.7177 49.0457 26.7336L49.4948 26.746C50.5177 26.7782 51.4859 27.2154 52.1867 27.9613C52.8874 28.7072 53.2633 29.7009 53.2316 30.7238L53.108 35.4701Z" fill="black"/>
</g>
<path d="M51.8855 28.5571C51.9227 28.8981 51.8922 29.243 51.7957 29.5722C51.6992 29.9013 51.5386 30.2081 51.3232 30.475C50.8959 30.9751 50.3426 31.3518 49.7206 31.5658C49.0986 31.7799 48.4307 31.8236 47.7861 31.6924C48.6215 31.1964 49.427 30.6516 50.1984 30.0609C50.8096 29.6173 51.3748 29.1135 51.8855 28.5571Z" fill="url(#paint16_linear_3723_40469)"/>
<path d="M46.9993 26.7503C46.8449 26.7041 46.6787 26.7201 46.5359 26.7947C46.3931 26.8694 46.2852 26.9968 46.235 27.1499C46.2053 27.2474 46.201 27.351 46.2226 27.4507L45.8106 26.8327C45.7048 26.9329 45.6379 27.0673 45.6216 27.2121C45.6052 27.3569 45.6406 27.5028 45.7215 27.6241C45.8023 27.7453 45.9234 27.8341 46.0633 27.8748C46.2033 27.9154 46.3531 27.9053 46.4863 27.8462V27.8359C46.5337 27.869 46.5857 27.8947 46.6408 27.9121L46.9993 26.7503Z" fill="url(#paint17_linear_3723_40469)"/>
<path opacity="0.7" d="M46.9993 26.7503C46.8449 26.7041 46.6787 26.7201 46.5359 26.7947C46.3931 26.8694 46.2852 26.9968 46.235 27.1499C46.2053 27.2474 46.201 27.351 46.2226 27.4507L45.8106 26.8327C45.7048 26.9329 45.6379 27.0673 45.6216 27.2121C45.6052 27.3569 45.6406 27.5028 45.7215 27.6241C45.8023 27.7453 45.9234 27.8341 46.0633 27.8748C46.2033 27.9154 46.3531 27.9053 46.4863 27.8462V27.8359C46.5337 27.869 46.5857 27.8947 46.6408 27.9121L46.9993 26.7503Z" fill="black"/>
<path d="M52.9579 70.6055C52.933 70.6138 52.9113 70.6299 52.8961 70.6514C52.8809 70.6729 52.873 70.6986 52.8735 70.7249C52.8591 70.8774 52.7725 71.1823 52.7396 71.4439C52.6799 71.8144 52.6799 72.192 52.7396 72.5625C52.8158 72.8344 53.4832 73.1908 53.92 73.2258C54.3567 73.2608 55.1292 73.6254 55.4938 73.9138C55.9429 74.2682 56.8678 74.5318 57.4776 74.4989C58.1945 74.47 58.7465 74.2702 58.8825 73.7449C58.9402 73.5224 58.7465 73.267 57.801 72.8941C57.801 72.8941 57.3231 72.6881 57.0491 72.5378C55.6689 71.8003 55.1951 71.3594 54.7419 70.5396L52.9579 70.6055Z" fill="#263238"/>
<path d="M55.2863 71.2071C55.142 71.0518 55.0297 70.8697 54.9558 70.671C54.8819 70.4724 54.8479 70.2611 54.8558 70.0493L54.7672 68.9102L52.6948 68.9205C52.8081 69.7136 52.9482 70.1874 52.9647 70.6097L52.9832 70.8548C53.1357 71.6335 53.8072 71.7056 54.4417 72.1073C54.761 72.3133 56.0114 73.1661 56.8251 73.2732C57.4884 73.3598 57.7212 73.0878 57.7995 72.8983C56.8999 72.4325 56.0566 71.865 55.2863 71.2071Z" fill="#FFA8A7"/>
<path d="M48.772 50.7465L51.0895 58.5745C50.9361 59.6388 50.9243 60.7187 51.0545 61.7861C51.2749 63.3125 52.4202 67.3584 52.8261 69.6141C52.9188 70.125 53.6336 70.2321 54.8304 69.7706C54.8304 69.7706 54.4019 60.2658 54.4431 58.4139C54.5132 55.3012 53.0897 46.1898 52.4244 44.3853" fill="#FFA8A7"/>
<path d="M52.8088 46.2822L44.6676 46.4882C43.9322 48.4143 43.856 49.296 43.5408 51.6053C43.24 53.8033 42.5108 56.6358 42.5108 56.6358C42.5108 56.6358 40.4508 57.9501 39.3672 59.7031C38.4938 61.1204 36.3638 64.9664 36.3638 64.9664L42.3707 61.4994C42.3707 61.4994 44.6779 59.6455 45.778 58.3786C47.3003 56.6317 48.6434 52.3386 48.6434 52.3386" fill="#FFA8A7"/>
<path d="M52.4715 43.2576C52.4983 42.8003 52.5147 42.4089 52.5106 42.1823C53.5612 40.9319 53.7466 39.8216 53.3161 38.9625C52.4571 37.2404 51.1077 35.7407 50.3497 35.7778H47.513C46.9198 35.8004 46.446 35.8684 46.1411 36.027C45.5066 36.3546 45.4324 36.9767 45.4015 37.7162C45.3686 38.5279 45.5519 39.1582 45.7579 40.5034L46.6849 42.2627L46.7179 43.1711C46.7179 43.1711 42.9749 46.2076 40.9746 49.6086C40.9746 49.6086 42.1859 53.4526 48.4771 53.811C55.3802 54.2045 56.781 50.5603 56.781 50.5603C56.781 50.5603 55.6686 46.9183 52.4715 43.2576Z" fill="#37474F"/>
<path d="M47.4821 42.2263C47.1855 41.9297 46.8353 40.8585 46.8353 40.8585C46.8353 40.8585 46.9177 40.5289 47.1505 39.7893C47.3833 39.0498 47.1505 37.616 47.1505 37.579L46.4295 36.4851L45.4675 37.0042C45.4296 37.2352 45.4075 37.4686 45.4015 37.7026C45.3686 38.5142 45.5519 39.1446 45.7579 40.4897L46.6849 42.249L46.7179 43.1574C46.7179 43.1574 42.9749 46.1939 40.9746 49.5949C40.9746 49.5949 42.0046 52.8477 47.0701 53.647C46.8827 53.5687 44.0234 52.3368 43.7886 49.9637C43.5475 47.5102 47.1319 43.9526 47.7829 43.4397C48.4339 42.9267 47.7788 42.523 47.4821 42.2263Z" fill="#263238"/>
<path d="M51.8761 28.5571C52.2881 28.827 52.7989 29.927 52.6753 32.1992C52.5703 34.1233 51.9317 34.5806 51.6124 34.7062C51.2931 34.8319 50.6936 34.733 50.1086 34.6156L50.0736 35.7712C50.0736 35.7712 50.8564 36.2965 50.7884 36.826C50.7204 37.3554 49.5936 37.444 48.8499 36.9022C48.4145 36.5916 48.0372 36.2067 47.7355 35.7651V33.0067C47.7355 33.0067 47.3379 33.4187 46.7055 32.9738C46.5758 32.882 46.4674 32.7635 46.3876 32.6263C46.3077 32.489 46.2583 32.3361 46.2427 32.1781C46.2271 32.0201 46.2456 31.8605 46.297 31.7103C46.3484 31.56 46.4315 31.4226 46.5407 31.3072C46.6395 31.2247 46.7575 31.1683 46.8838 31.1431C47.0101 31.118 47.1406 31.1249 47.2636 31.1632C47.3865 31.2015 47.4979 31.27 47.5875 31.3625C47.6772 31.4549 47.7422 31.5684 47.7767 31.6924C47.7767 31.6924 48.714 31.7563 49.9829 31.1095C50.4774 30.8635 50.9066 30.504 51.2357 30.0604C51.5647 29.6168 51.7841 29.1017 51.8761 28.5571Z" fill="#FFA8A7"/>
<path d="M50.3274 31.6427C50.3288 31.6751 50.3237 31.7074 50.3126 31.7378C50.3014 31.7682 50.2843 31.7961 50.2622 31.8198C50.2402 31.8436 50.2137 31.8627 50.1842 31.8762C50.1547 31.8896 50.1229 31.8971 50.0905 31.8981C50.025 31.8981 49.9621 31.8721 49.9157 31.8257C49.8694 31.7794 49.8433 31.7165 49.8433 31.6509C49.8402 31.6173 49.8442 31.5833 49.8549 31.5513C49.8657 31.5192 49.883 31.4898 49.9058 31.4648C49.9285 31.4398 49.9563 31.4199 49.9872 31.4062C50.0181 31.3926 50.0516 31.3855 50.0854 31.3855C50.1192 31.3855 50.1526 31.3926 50.1835 31.4062C50.2145 31.4199 50.2422 31.4398 50.265 31.4648C50.2878 31.4898 50.3051 31.5192 50.3158 31.5513C50.3266 31.5833 50.3305 31.6173 50.3274 31.6509V31.6427Z" fill="#263238"/>
<path d="M50.5541 33.2847L51.1103 33.4804C51.0991 33.5179 51.0805 33.5528 51.0554 33.5829C51.0304 33.613 50.9996 33.6378 50.9647 33.6557C50.9299 33.6735 50.8918 33.6842 50.8528 33.687C50.8137 33.6898 50.7745 33.6847 50.7375 33.6719C50.6631 33.6432 50.6026 33.587 50.5685 33.5149C50.5344 33.4428 50.5292 33.3604 50.5541 33.2847Z" fill="#F28F8F"/>
<path d="M52.334 30.9611L51.854 30.6047C51.8756 30.572 51.9037 30.5441 51.9365 30.5227C51.9693 30.5014 52.0062 30.4869 52.0448 30.4804C52.0834 30.4738 52.123 30.4752 52.161 30.4846C52.1991 30.4939 52.2348 30.5109 52.266 30.5346C52.3295 30.5837 52.3719 30.6551 52.3845 30.7344C52.3971 30.8136 52.3791 30.8947 52.334 30.9611Z" fill="#263238"/>
<path d="M52.2094 31.5201C52.2111 31.5526 52.2062 31.585 52.1951 31.6155C52.1841 31.6461 52.167 31.6741 52.1449 31.6979C52.1228 31.7217 52.0962 31.7408 52.0666 31.7542C52.037 31.7675 52.005 31.7748 51.9725 31.7756C51.907 31.7756 51.8441 31.7495 51.7977 31.7032C51.7514 31.6568 51.7253 31.5939 51.7253 31.5284C51.7239 31.496 51.729 31.4637 51.7402 31.4333C51.7514 31.4029 51.7685 31.375 51.7905 31.3513C51.8125 31.3275 51.839 31.3084 51.8685 31.2949C51.898 31.2815 51.9298 31.274 51.9622 31.2729C52.0278 31.2729 52.0907 31.299 52.137 31.3454C52.1834 31.3917 52.2094 31.4546 52.2094 31.5201Z" fill="#263238"/>
<path d="M51.0272 31.3513L51.021 32.8098L51.7956 32.5976L51.0272 31.3513Z" fill="#F28F8F"/>
<path d="M50.1079 34.6201C49.4899 34.5191 48.2271 34.1133 48.0479 33.6045C48.1203 33.8621 48.2698 34.0914 48.4763 34.2616C48.8471 34.5995 50.0996 35.0053 50.0996 35.0053L50.1079 34.6201Z" fill="#F28F8F"/>
<path d="M41.9975 43.9854C42.391 42.4487 43.9545 39.0414 44.4283 37.8054C44.9701 36.3984 45.7364 35.867 46.7438 35.8525C47.1146 36.3305 47.5431 38.4069 46.3998 40.193C45.9157 41.223 44.4572 44.0781 44.4572 44.0781C44.4963 44.3542 45.514 48.0992 45.9466 49.0365C46.0252 49.2015 46.1615 49.3319 46.3297 49.4032C46.7788 49.5989 47.1269 49.9903 47.4854 50.2684C47.7655 50.4868 47.9818 50.5197 47.9612 50.6042C47.9262 50.699 47.8575 50.7777 47.7683 50.8252C47.679 50.8727 47.5754 50.8857 47.4771 50.8617C47.2586 50.811 47.047 50.7342 46.8468 50.633C47.0448 50.9843 47.2988 51.3009 47.5987 51.5703C48.2805 52.1883 48.2455 52.7116 47.0816 52.8949C46.3524 53.0103 45.7035 52.6477 44.9124 51.1213C44.6858 50.6825 44.3933 50.0398 44.1647 49.4547C43.6229 48.0745 43.042 47.2526 42.665 46.34C42.0738 44.8918 41.8451 44.5766 41.9975 43.9854Z" fill="#FFA8A7"/>
<path d="M95.2479 36.587L93.2106 35.4087C92.4566 34.9616 91.336 35.0482 90.0855 35.7692C88.3531 36.7703 86.872 39.197 86.2663 41.2323L84.8243 40.4083C84.0807 39.9098 83.061 39.8335 81.9403 40.4845C81.7982 40.5648 81.6602 40.6514 81.5283 40.7441C81.4562 40.7935 81.3841 40.8491 81.3223 40.9006C81.2605 40.9521 81.1967 40.9892 81.1349 41.0366C81.038 41.1128 80.9453 41.1911 80.8526 41.2714L80.7476 41.36C80.6384 41.4568 80.5313 41.566 80.4262 41.6608L80.3768 41.7061C80.2593 41.8235 80.1461 41.943 80.0348 42.0666C80.0348 42.0666 80.0348 42.0666 80.0245 42.0666C79.6804 42.4487 79.3676 42.8579 79.0893 43.2902C78.2941 44.4933 77.8203 45.8034 77.8203 46.9653C77.8203 49.118 79.149 50.492 80.7826 51.3695L82.3894 52.2965C83.3435 52.8653 84.3764 53.2901 85.4547 53.5573L88.1038 54.2577L90.753 50.4961C93.2765 46.9117 96.2841 41.9574 96.2841 38.7108C96.2841 37.6664 95.8906 36.9413 95.2479 36.587Z" fill="url(#paint18_linear_3723_40469)"/>
<path opacity="0.7" d="M95.2479 36.587L93.2106 35.4087C92.4566 34.9616 91.336 35.0482 90.0855 35.7692C88.3531 36.7703 86.872 39.197 86.2663 41.2323L84.8243 40.4083C84.0807 39.9098 83.061 39.8335 81.9403 40.4845C81.7982 40.5648 81.6602 40.6514 81.5283 40.7441C81.4562 40.7935 81.3841 40.8491 81.3223 40.9006C81.2605 40.9521 81.1967 40.9892 81.1349 41.0366C81.038 41.1128 80.9453 41.1911 80.8526 41.2714L80.7476 41.36C80.6384 41.4568 80.5313 41.566 80.4262 41.6608L80.3768 41.7061C80.2593 41.8235 80.1461 41.943 80.0348 42.0666C80.0348 42.0666 80.0348 42.0666 80.0245 42.0666C79.6804 42.4487 79.3676 42.8579 79.0893 43.2902C78.2941 44.4933 77.8203 45.8034 77.8203 46.9653C77.8203 49.118 79.149 50.492 80.7826 51.3695L82.3894 52.2965C83.3435 52.8653 84.3764 53.2901 85.4547 53.5573L88.1038 54.2577L90.753 50.4961C93.2765 46.9117 96.2841 41.9574 96.2841 38.7108C96.2841 37.6664 95.8906 36.9413 95.2479 36.587Z" fill="url(#paint19_linear_3723_40469)"/>
<path d="M82.3589 52.2739L80.7748 51.3634C79.1453 50.4838 77.8125 49.1118 77.8125 46.9571C77.8125 45.8035 78.2925 44.4851 79.0629 43.2903L81.1518 44.4913C80.3813 45.6819 79.9034 47.0045 79.9034 48.1581C79.9034 50.0883 80.9664 51.3923 82.3589 52.2739Z" fill="url(#paint20_linear_3723_40469)"/>
<g opacity="0.1">
<path d="M82.3638 52.271L80.7797 51.3605C79.1502 50.4809 77.8174 49.1089 77.8174 46.9542C77.8174 45.8006 78.2974 44.4822 79.0678 43.2874L81.1566 44.4883C80.3862 45.679 79.9083 47.0015 79.9083 48.1551C79.9083 50.0854 80.9712 51.3893 82.3638 52.271Z" fill="black"/>
</g>
<path d="M95.2329 36.574C94.481 36.162 93.3789 36.2712 92.1676 36.9736C90.0788 38.1787 88.3525 41.4603 88.0909 43.6295C87.8293 41.7631 86.105 40.4736 84.0162 41.6807C82.8572 42.384 81.877 43.3466 81.1528 44.4926L79.064 43.2875C79.0949 43.2381 79.1278 43.1887 79.1628 43.1372C79.1896 43.0945 79.2185 43.0533 79.2494 43.0136C79.3194 42.9106 79.3936 42.8076 79.4554 42.7087C79.6673 42.4295 79.8942 42.162 80.1352 41.9073C80.1928 41.8414 80.2546 41.7796 80.3164 41.7178L80.4483 41.588C80.8912 41.1584 81.3835 40.783 81.915 40.4695C82.3942 40.1768 82.942 40.0155 83.5033 40.0018C83.9667 40.0005 84.4201 40.1375 84.8052 40.3953L86.2472 41.2193C86.8508 39.182 88.3319 36.7573 90.0664 35.7582C91.3189 35.0352 92.4375 34.9466 93.1914 35.3936L95.2329 36.574Z" fill="url(#paint21_linear_3723_40469)"/>
<path opacity="0.4" d="M95.2329 36.574C94.481 36.162 93.3789 36.2712 92.1676 36.9736C90.0788 38.1787 88.3525 41.4603 88.0909 43.6295C87.8293 41.7631 86.105 40.4736 84.0162 41.6807C82.8572 42.384 81.877 43.3466 81.1528 44.4926L79.064 43.2875C79.0949 43.2381 79.1278 43.1887 79.1628 43.1372C79.1896 43.0945 79.2185 43.0533 79.2494 43.0136C79.3194 42.9106 79.3936 42.8076 79.4554 42.7087C79.6673 42.4295 79.8942 42.162 80.1352 41.9073C80.1928 41.8414 80.2546 41.7796 80.3164 41.7178L80.4483 41.588C80.8912 41.1584 81.3835 40.783 81.915 40.4695C82.3942 40.1768 82.942 40.0155 83.5033 40.0018C83.9667 40.0005 84.4201 40.1375 84.8052 40.3953L86.2472 41.2193C86.8508 39.182 88.3319 36.7573 90.0664 35.7582C91.3189 35.0352 92.4375 34.9466 93.1914 35.3936L95.2329 36.574Z" fill="white"/>
<path d="M78.7555 54.2227L77.9624 53.7613C77.6678 53.5882 77.2311 53.6212 76.7429 53.9034C76.0692 54.2928 75.4904 55.2383 75.2555 56.0314L74.6911 55.708C74.521 55.6032 74.3241 55.5501 74.1244 55.5553C73.9247 55.5604 73.7308 55.6235 73.5663 55.7368C73.5107 55.7698 73.4572 55.8027 73.4036 55.8398C73.35 55.8769 73.348 55.879 73.3212 55.8996L73.247 55.9531L73.1379 56.0438L73.0966 56.0788C73.0534 56.1159 73.0122 56.155 72.971 56.1962L72.9525 56.2147C72.9071 56.2601 72.8618 56.3054 72.8186 56.3548C72.6849 56.5038 72.563 56.6629 72.4539 56.8307C72.1629 57.2532 71.9947 57.748 71.9678 58.2603C71.9678 59.0987 72.4848 59.6343 73.1214 59.9763L73.7497 60.3533C74.1208 60.5753 74.5227 60.7412 74.9424 60.8456L75.9724 61.1196L77.0024 59.6529C77.985 58.2562 79.1572 56.326 79.1572 55.0611C79.1755 54.8978 79.1475 54.7326 79.0765 54.5844C79.0055 54.4361 78.8942 54.3108 78.7555 54.2227Z" fill="url(#paint22_linear_3723_40469)"/>
<path opacity="0.5" d="M78.7555 54.2227L77.9624 53.7613C77.6678 53.5882 77.2311 53.6212 76.7429 53.9034C76.0692 54.2928 75.4904 55.2383 75.2555 56.0314L74.6911 55.708C74.521 55.6032 74.3241 55.5501 74.1244 55.5553C73.9247 55.5604 73.7308 55.6235 73.5663 55.7368C73.5107 55.7698 73.4572 55.8027 73.4036 55.8398C73.35 55.8769 73.348 55.879 73.3212 55.8996L73.247 55.9531L73.1379 56.0438L73.0966 56.0788C73.0534 56.1159 73.0122 56.155 72.971 56.1962L72.9525 56.2147C72.9071 56.2601 72.8618 56.3054 72.8186 56.3548C72.6849 56.5038 72.563 56.6629 72.4539 56.8307C72.1629 57.2532 71.9947 57.748 71.9678 58.2603C71.9678 59.0987 72.4848 59.6343 73.1214 59.9763L73.7497 60.3533C74.1208 60.5753 74.5227 60.7412 74.9424 60.8456L75.9724 61.1196L77.0024 59.6529C77.985 58.2562 79.1572 56.326 79.1572 55.0611C79.1755 54.8978 79.1475 54.7326 79.0765 54.5844C79.0055 54.4361 78.8942 54.3108 78.7555 54.2227Z" fill="black"/>
<path d="M73.7316 60.3357L73.1136 59.9794C72.4791 59.6374 71.96 59.1039 71.96 58.2634C71.9859 57.7509 72.1542 57.2558 72.4461 56.8337L73.2598 57.3034C72.9688 57.7259 72.8005 58.2208 72.7737 58.7331C72.7737 59.4829 73.1877 59.9917 73.7316 60.3357Z" fill="url(#paint23_linear_3723_40469)"/>
<g opacity="0.7">
<path d="M73.734 60.3411L73.116 59.9847C72.4815 59.6428 71.9624 59.1092 71.9624 58.2687C71.9883 57.7563 72.1567 57.2612 72.4486 56.8391L73.2623 57.3088C72.9713 57.7313 72.803 58.2261 72.7761 58.7384C72.7761 59.4883 73.1902 59.9971 73.734 60.3411Z" fill="black"/>
</g>
<path d="M78.7566 54.2174C78.4641 54.0609 78.0356 54.1 77.5618 54.374C76.7378 54.8437 76.0766 56.1229 75.9736 56.9675C75.8726 56.2403 75.199 55.7315 74.3853 56.2094C73.9329 56.4828 73.5506 56.8581 73.2688 57.3054L72.4551 56.8357C72.4674 56.8171 72.4798 56.7965 72.4942 56.778C72.504 56.7614 72.515 56.7456 72.5272 56.7306C72.554 56.6894 72.5828 56.6503 72.6116 56.6111C72.694 56.5017 72.7827 56.3971 72.8774 56.298L72.9474 56.2239L72.9989 56.1744C73.1717 56.0065 73.3639 55.8599 73.5716 55.7377C73.758 55.6237 73.9712 55.5612 74.1896 55.5564C74.37 55.5554 74.5465 55.6085 74.6964 55.7089L75.2608 56.0323C75.4956 55.2392 76.0724 54.2936 76.7481 53.9043C77.2363 53.6221 77.6731 53.5871 77.9656 53.7622L78.7566 54.2174Z" fill="url(#paint24_linear_3723_40469)"/>
<path opacity="0.2" d="M78.7566 54.2174C78.4641 54.0609 78.0356 54.1 77.5618 54.374C76.7378 54.8437 76.0766 56.1229 75.9736 56.9675C75.8726 56.2403 75.199 55.7315 74.3853 56.2094C73.9329 56.4828 73.5506 56.8581 73.2688 57.3054L72.4551 56.8357C72.4674 56.8171 72.4798 56.7965 72.4942 56.778C72.504 56.7614 72.515 56.7456 72.5272 56.7306C72.554 56.6894 72.5828 56.6503 72.6116 56.6111C72.694 56.5017 72.7827 56.3971 72.8774 56.298L72.9474 56.2239L72.9989 56.1744C73.1717 56.0065 73.3639 55.8599 73.5716 55.7377C73.758 55.6237 73.9712 55.5612 74.1896 55.5564C74.37 55.5554 74.5465 55.6085 74.6964 55.7089L75.2608 56.0323C75.4956 55.2392 76.0724 54.2936 76.7481 53.9043C77.2363 53.6221 77.6731 53.5871 77.9656 53.7622L78.7566 54.2174Z" fill="black"/>
<path d="M81.3243 17.713C81.5609 17.5104 81.7543 17.2623 81.893 16.9835C82.0318 16.7046 82.1129 16.4006 82.1318 16.0897C82.1318 15.2019 81.4705 15.3996 81.4705 15.3996C81.796 14.9923 81.9816 14.491 81.9999 13.97C82.0096 13.8317 81.9832 13.6933 81.9232 13.5684C81.8633 13.4434 81.7719 13.3362 81.658 13.2572L79.9791 12.3117C79.8205 12.2025 79.5918 12.1901 79.2849 12.3673L77.8161 13.2201C77.7633 12.8255 77.6523 12.4409 77.4865 12.0789C77.4247 11.9258 77.3099 11.8001 77.163 11.7246L75.4986 10.7873C74.9383 10.4206 73.9659 11.121 73.9659 11.3909C73.9659 11.5783 74.0113 12.2149 74.0257 12.8143C74.0257 12.9482 74.0257 13.0821 74.0257 13.2078C74.0329 13.4593 74.0121 13.7107 73.9639 13.9576C73.9494 14.005 73.9247 14.0771 73.8897 14.1636C73.8753 14.2028 73.8568 14.2481 73.8382 14.2934L73.7579 14.4994C73.6878 14.6704 73.6075 14.8702 73.5169 15.0844C73.4963 15.1359 73.4736 15.1916 73.4489 15.2472C73.1955 15.8508 72.8968 16.545 72.6702 17.0682L72.5548 17.336L72.3262 17.8593V25.0363L72.3509 25.0239L74.0607 26.0107L79.5382 22.8424C80.2551 22.4304 80.7578 21.5364 80.7536 20.941C80.7617 20.6712 80.714 20.4026 80.6135 20.152C81.077 19.8822 81.5426 18.916 81.5426 18.504C81.5426 17.8799 81.3243 17.713 81.3243 17.713Z" fill="url(#paint25_linear_3723_40469)"/>
<g opacity="0.4">
<path d="M77.1611 11.7223C76.5946 11.4442 75.6944 12.0952 75.6944 12.365L73.9619 11.3906C73.9619 11.1125 74.9363 10.4163 75.4987 10.785L77.1611 11.7223Z" fill="white"/>
<path d="M81.6528 13.2483C81.5474 13.2057 81.4327 13.1912 81.32 13.2064C81.2073 13.2216 81.1005 13.2658 81.0101 13.3348L77.6997 15.2485C77.8529 14.5801 77.8905 13.8903 77.8109 13.2091L79.2818 12.3583C79.5867 12.1791 79.8153 12.1956 79.9739 12.3027L81.6528 13.2483Z" fill="white"/>
</g>
<g opacity="0.1">
<path d="M74.0536 26.0132L72.3211 25.0121L72.3149 17.8618L74.0474 18.863L74.0536 26.0132Z" fill="black"/>
</g>
<g opacity="0.05">
<path d="M75.6954 14.9301C75.5553 15.4307 74.0474 18.8606 74.0474 18.8606L72.3149 17.8841C72.3149 17.8841 73.8146 14.4542 73.9629 13.9578C74.1113 13.4613 73.9629 11.7247 73.9629 11.3931L75.6975 12.3674C75.6954 12.7012 75.8396 14.4357 75.6954 14.9301Z" fill="black"/>
</g>
<path d="M73.2636 19.4717C73.2574 19.3619 73.2255 19.255 73.1704 19.1598C73.1153 19.0646 73.0385 18.9838 72.9463 18.9238L71.8463 18.2893C71.7484 18.2405 71.6405 18.2151 71.5311 18.2151C71.4217 18.2151 71.3138 18.2405 71.2159 18.2893L69.4608 19.3049C69.3672 19.3628 69.29 19.4436 69.2363 19.5397C69.1802 19.6349 69.1484 19.7424 69.1436 19.8528V27.446C69.1489 27.556 69.1804 27.6632 69.2356 27.7585C69.2908 27.8538 69.368 27.9346 69.4608 27.9939L70.5608 28.6305C70.6576 28.6822 70.7663 28.7078 70.876 28.7046C70.9855 28.7074 71.0938 28.6826 71.1912 28.6325L72.9525 27.6149C73.0444 27.5552 73.1208 27.4747 73.1756 27.3798C73.2304 27.2849 73.2619 27.1784 73.2677 27.069L73.2636 19.4717Z" fill="url(#paint26_linear_3723_40469)"/>
<g opacity="0.1">
<path d="M70.8785 20.4891V28.7064C70.7687 28.7096 70.6601 28.684 70.5633 28.6323L69.4632 27.9957C69.3705 27.9364 69.2933 27.8556 69.2381 27.7603C69.1829 27.665 69.1513 27.5578 69.146 27.4478V19.8546C69.1508 19.7442 69.1827 19.6367 69.2387 19.5415L70.8785 20.4891Z" fill="black"/>
</g>
<g opacity="0.3">
<path d="M73.1716 19.1537L70.8726 20.4866L69.2246 19.539C69.2783 19.4429 69.3556 19.3621 69.4491 19.3041L71.2043 18.2885C71.3022 18.2398 71.4101 18.2144 71.5195 18.2144C71.6288 18.2144 71.7367 18.2398 71.8346 18.2885L72.9347 18.923C73.0316 18.979 73.1131 19.0583 73.1716 19.1537Z" fill="white"/>
</g>
<path d="M84.8335 32.2819C84.9775 32.1581 85.0951 32.0066 85.1794 31.8363C85.2636 31.6661 85.3127 31.4807 85.3238 31.291C85.3238 30.7513 84.9221 30.879 84.9221 30.879C85.1208 30.631 85.2343 30.3254 85.2455 30.0077C85.2518 29.9236 85.2361 29.8393 85.2 29.7631C85.1639 29.6869 85.1086 29.6214 85.0395 29.573L84.0095 28.9962C83.9448 28.9615 83.8714 28.9464 83.7983 28.9526C83.7252 28.9588 83.6554 28.9861 83.5975 29.0312L82.7014 29.5503C82.6674 29.3094 82.598 29.0748 82.4954 28.8541C82.4541 28.7626 82.3808 28.6894 82.2894 28.6481L81.2717 28.0754C80.9298 27.8529 80.3365 28.2814 80.3365 28.4462C80.3365 28.5595 80.3633 28.9447 80.3736 29.3134C80.3736 29.3958 80.3736 29.4762 80.3736 29.5545C80.3789 29.7071 80.3665 29.8599 80.3365 30.0097C80.3365 30.0386 80.3118 30.0818 80.2912 30.1395C80.2912 30.1642 80.2706 30.191 80.2603 30.2198L80.2108 30.3434C80.1696 30.4485 80.1181 30.57 80.0646 30.6998L80.0234 30.7987C79.8689 31.1674 79.6855 31.5897 79.5475 31.909C79.5228 31.9688 79.5001 32.0223 79.4775 32.0718C79.4054 32.2407 79.3539 32.3581 79.3374 32.3931V36.7706H79.3518L80.3942 37.3722L83.7355 35.4399C83.9405 35.3172 84.1141 35.1485 84.2428 34.9473C84.3715 34.746 84.4517 34.5176 84.4771 34.2801C84.4823 34.1158 84.4528 33.9523 84.3906 33.8001C84.6749 33.6353 84.9571 33.0441 84.9571 32.7907C84.9653 32.3828 84.8335 32.2819 84.8335 32.2819Z" fill="url(#paint27_linear_3723_40469)"/>
<path opacity="0.5" d="M84.8335 32.2819C84.9775 32.1581 85.0951 32.0066 85.1794 31.8363C85.2636 31.6661 85.3127 31.4807 85.3238 31.291C85.3238 30.7513 84.9221 30.879 84.9221 30.879C85.1208 30.631 85.2343 30.3254 85.2455 30.0077C85.2518 29.9236 85.2361 29.8393 85.2 29.7631C85.1639 29.6869 85.1086 29.6214 85.0395 29.573L84.0095 28.9962C83.9448 28.9615 83.8714 28.9464 83.7983 28.9526C83.7252 28.9588 83.6554 28.9861 83.5975 29.0312L82.7014 29.5503C82.6674 29.3094 82.598 29.0748 82.4954 28.8541C82.4541 28.7626 82.3808 28.6894 82.2894 28.6481L81.2717 28.0754C80.9298 27.8529 80.3365 28.2814 80.3365 28.4462C80.3365 28.5595 80.3633 28.9447 80.3736 29.3134C80.3736 29.3958 80.3736 29.4762 80.3736 29.5545C80.3789 29.7071 80.3665 29.8599 80.3365 30.0097C80.3365 30.0386 80.3118 30.0818 80.2912 30.1395C80.2912 30.1642 80.2706 30.191 80.2603 30.2198L80.2108 30.3434C80.1696 30.4485 80.1181 30.57 80.0646 30.6998L80.0234 30.7987C79.8689 31.1674 79.6855 31.5897 79.5475 31.909C79.5228 31.9688 79.5001 32.0223 79.4775 32.0718C79.4054 32.2407 79.3539 32.3581 79.3374 32.3931V36.7706H79.3518L80.3942 37.3722L83.7355 35.4399C83.9405 35.3172 84.1141 35.1485 84.2428 34.9473C84.3715 34.746 84.4517 34.5176 84.4771 34.2801C84.4823 34.1158 84.4528 33.9523 84.3906 33.8001C84.6749 33.6353 84.9571 33.0441 84.9571 32.7907C84.9653 32.3828 84.8335 32.2819 84.8335 32.2819Z" fill="black"/>
<path d="M82.3022 28.6354C81.9561 28.4665 81.4061 28.862 81.4061 29.0268L80.3555 28.4294C80.3555 28.2605 80.9487 27.8361 81.2928 28.0607L82.3022 28.6354Z" fill="url(#paint28_linear_3723_40469)"/>
<path d="M85.043 29.5617C84.9789 29.5357 84.9091 29.5267 84.8405 29.5358C84.7719 29.5448 84.7068 29.5715 84.6516 29.6132L82.6328 30.7812C82.7252 30.376 82.7482 29.9581 82.7008 29.5452L83.5969 29.0241C83.6552 28.9798 83.725 28.9531 83.7981 28.9473C83.8711 28.9414 83.9443 28.9566 84.0089 28.9911L85.043 29.5617Z" fill="url(#paint29_linear_3723_40469)"/>
<g opacity="0.2">
<path d="M82.2983 28.6366C81.9522 28.4677 81.4022 28.8632 81.4022 29.028L80.3516 28.4306C80.3516 28.2617 80.9448 27.8374 81.2889 28.0619L82.2983 28.6366Z" fill="black"/>
<path d="M85.0391 29.5629C84.975 29.5369 84.9052 29.528 84.8366 29.537C84.768 29.546 84.7029 29.5727 84.6477 29.6144L82.6289 30.7825C82.7213 30.3773 82.7443 29.9593 82.6969 29.5465L83.593 29.0253C83.6513 28.981 83.7211 28.9543 83.7942 28.9485C83.8672 28.9426 83.9404 28.9579 84.005 28.9923L85.0391 29.5629Z" fill="black"/>
</g>
<path d="M80.4085 37.3409L79.3537 36.7311L79.3496 32.3701L80.4064 32.9799L80.4085 37.3409Z" fill="url(#paint30_linear_3723_40469)"/>
<g opacity="0.7">
<path d="M80.3987 37.3382L79.344 36.7285L79.3398 32.3674L80.3966 32.9772L80.3987 37.3382Z" fill="black"/>
</g>
<g opacity="0.2">
<path d="M81.3978 30.5858C81.3133 30.8907 80.3966 32.9816 80.3966 32.9816L79.3398 32.3862C79.3398 32.3862 80.2545 30.2871 80.3472 29.9925C80.4399 29.6979 80.3472 28.6308 80.3472 28.429L81.404 29.0222C81.3978 29.2262 81.4864 30.2871 81.3978 30.5858Z" fill="#455A64"/>
</g>
<path d="M79.9213 33.3557C79.9187 33.2886 79.8989 33.2233 79.8636 33.1661C79.8311 33.1074 79.7844 33.0578 79.7277 33.0219L79.0561 32.6347C78.997 32.6036 78.9313 32.5874 78.8645 32.5874C78.7978 32.5874 78.732 32.6036 78.6729 32.6347L77.6017 33.2527C77.5458 33.2892 77.4992 33.3386 77.4659 33.3966C77.4327 33.4545 77.4135 33.5196 77.4102 33.5864V38.2173C77.4125 38.2843 77.4312 38.3497 77.4646 38.4079C77.498 38.466 77.5451 38.5151 77.6017 38.551L78.2712 38.9383C78.3307 38.9703 78.3973 38.9866 78.4649 38.9856C78.5315 38.9862 78.5972 38.9707 78.6565 38.9403L79.7297 38.3223C79.7858 38.2861 79.8326 38.2373 79.8662 38.1796C79.8998 38.122 79.9194 38.0573 79.9234 37.9907L79.9213 33.3557Z" fill="url(#paint31_linear_3723_40469)"/>
<path opacity="0.5" d="M79.9213 33.3557C79.9187 33.2886 79.8989 33.2233 79.8636 33.1661C79.8311 33.1074 79.7844 33.0578 79.7277 33.0219L79.0561 32.6347C78.997 32.6036 78.9313 32.5874 78.8645 32.5874C78.7978 32.5874 78.732 32.6036 78.6729 32.6347L77.6017 33.2527C77.5458 33.2892 77.4992 33.3386 77.4659 33.3966C77.4327 33.4545 77.4135 33.5196 77.4102 33.5864V38.2173C77.4125 38.2843 77.4312 38.3497 77.4646 38.4079C77.498 38.466 77.5451 38.5151 77.6017 38.551L78.2712 38.9383C78.3307 38.9703 78.3973 38.9866 78.4649 38.9856C78.5315 38.9862 78.5972 38.9707 78.6565 38.9403L79.7297 38.3223C79.7858 38.2861 79.8326 38.2373 79.8662 38.1796C79.8998 38.122 79.9194 38.0573 79.9234 37.9907L79.9213 33.3557Z" fill="black"/>
<path d="M78.4669 33.973V38.985C78.3994 38.986 78.3327 38.9697 78.2733 38.9376L77.6017 38.5503C77.5451 38.5145 77.498 38.4654 77.4646 38.4072C77.4312 38.3491 77.4125 38.2836 77.4102 38.2166V33.5816C77.4125 33.5148 77.4317 33.4496 77.4658 33.3921L78.4669 33.973Z" fill="url(#paint32_linear_3723_40469)"/>
<g opacity="0.7">
<path d="M78.4718 33.9686V38.9806C78.4043 38.9816 78.3376 38.9653 78.2782 38.9332L77.6066 38.5459C77.5499 38.5101 77.5029 38.461 77.4695 38.4028C77.4361 38.3447 77.4174 38.2792 77.415 38.2122V33.5772C77.4174 33.5104 77.4366 33.4452 77.4707 33.3877L78.4718 33.9686Z" fill="black"/>
</g>
<path d="M79.8704 33.1703L78.4716 33.9778L77.4746 33.3969C77.5071 33.3381 77.5539 33.2885 77.6106 33.2527L78.6818 32.6347C78.7409 32.6036 78.8066 32.5874 78.8734 32.5874C78.9401 32.5874 79.0058 32.6036 79.0649 32.6347L79.7365 33.0219C79.793 33.0592 79.839 33.1103 79.8704 33.1703Z" fill="url(#paint33_linear_3723_40469)"/>
<g opacity="0.2">
<path d="M79.8733 33.1659L78.4746 33.9734L77.4775 33.3925C77.51 33.3337 77.5568 33.2841 77.6135 33.2483L78.6847 32.6303C78.7438 32.5992 78.8095 32.583 78.8763 32.583C78.943 32.583 79.0088 32.5992 79.0679 32.6303L79.7394 33.0175C79.7959 33.0548 79.842 33.1059 79.8733 33.1659Z" fill="black"/>
</g>
<path d="M95.6778 22.5908C95.8271 22.4618 95.949 22.3042 96.0364 22.1273C96.1238 21.9504 96.1749 21.7578 96.1866 21.5608C96.1866 20.9984 95.7746 21.122 95.7746 21.122C95.9809 20.8644 96.0993 20.5475 96.1124 20.2177C96.1164 20.1311 96.0978 20.0449 96.0584 19.9676C96.0191 19.8903 95.9603 19.8246 95.8879 19.7768L94.8229 19.1794C94.7547 19.1406 94.6763 19.1232 94.5981 19.1294C94.5198 19.1357 94.4453 19.1653 94.3841 19.2145L93.453 19.7542C93.4201 19.5044 93.3507 19.2607 93.247 19.0311C93.207 18.9343 93.134 18.8547 93.041 18.8066L91.9863 18.2112C91.6299 17.9805 91.0119 18.4172 91.0119 18.5965C91.0119 18.7139 91.0428 19.1135 91.051 19.4967C91.051 19.5832 91.051 19.6677 91.051 19.748C91.0548 19.9069 91.0417 20.0657 91.0119 20.2218C91.0119 20.2506 90.9872 20.296 90.9645 20.3557C90.9645 20.3804 90.9439 20.4093 90.9315 20.4381C90.9192 20.4669 90.9006 20.5205 90.8821 20.5679L90.7296 20.9366L90.6864 21.0417C90.5257 21.4248 90.3362 21.8657 90.192 22.1953C90.1652 22.255 90.1426 22.3127 90.1199 22.3642L89.9736 22.6979V27.2443H89.9881L91.0716 27.8623L94.5427 25.8538C94.7557 25.7269 94.9363 25.5521 95.07 25.3433C95.2037 25.1345 95.287 24.8974 95.3131 24.6508C95.3186 24.4796 95.2885 24.3091 95.2246 24.1502C95.5192 23.9792 95.8137 23.3633 95.8137 23.1017C95.8158 22.6959 95.6778 22.5908 95.6778 22.5908Z" fill="url(#paint34_linear_3723_40469)"/>
<g opacity="0.4">
<path d="M93.029 18.7989C92.6706 18.6238 92.0999 19.0358 92.0999 19.2109L91.002 18.5929C91.002 18.4178 91.62 17.9749 91.9743 18.2097L93.029 18.7989Z" fill="white"/>
<path d="M95.8689 19.7787C95.8017 19.7503 95.7281 19.7403 95.6557 19.7497C95.5833 19.7592 95.5147 19.7876 95.4569 19.8323L93.3599 21.0456C93.4566 20.6222 93.4803 20.1854 93.4299 19.754L94.361 19.2143C94.4225 19.1658 94.4968 19.1364 94.5748 19.1298C94.6528 19.1232 94.7311 19.1397 94.7998 19.1772L95.8689 19.7787Z" fill="white"/>
</g>
<g opacity="0.1">
<path d="M91.0776 27.8468L89.9796 27.2123L89.9775 22.6824L91.0735 23.3169L91.0776 27.8468Z" fill="black"/>
</g>
<g opacity="0.05">
<path d="M92.1158 20.8255C92.0272 21.1427 91.0735 23.316 91.0735 23.316L89.9775 22.698C89.9775 22.698 90.9272 20.5227 91.0199 20.2096C91.1126 19.8964 91.0199 18.7943 91.0199 18.5842L92.1179 19.2022C92.1158 19.4123 92.2085 20.5124 92.1158 20.8255Z" fill="black"/>
</g>
<path d="M90.5682 23.7076C90.5645 23.6375 90.5439 23.5694 90.508 23.5091C90.4721 23.4488 90.4221 23.3982 90.3622 23.3615L89.666 22.9495C89.6038 22.919 89.5354 22.9031 89.4661 22.9031C89.3969 22.9031 89.3285 22.919 89.2663 22.9495L88.1539 23.5943C88.0943 23.6303 88.0453 23.6815 88.0118 23.7426C87.9754 23.8053 87.9555 23.8762 87.9541 23.9486V28.7608C87.9581 28.8308 87.979 28.8987 88.0148 28.959C88.0507 29.0192 88.1005 29.0699 88.1601 29.1068L88.8564 29.5188C88.92 29.5516 88.9908 29.5679 89.0624 29.5662C89.134 29.5686 89.205 29.5523 89.2684 29.5188L90.3849 28.8741C90.4444 28.837 90.4941 28.7863 90.53 28.7261C90.5658 28.6658 90.5867 28.5979 90.5909 28.528L90.5682 23.7076Z" fill="url(#paint35_linear_3723_40469)"/>
<g opacity="0.1">
<path d="M89.0658 24.3561V29.5617C88.9943 29.5634 88.9234 29.5471 88.8598 29.5143L88.1635 29.1023C88.1039 29.0654 88.0541 29.0147 88.0182 28.9545C87.9824 28.8942 87.9616 28.8262 87.9575 28.7563V23.9523C87.9589 23.8799 87.9788 23.809 88.0152 23.7463L89.0658 24.3561Z" fill="black"/>
</g>
<g opacity="0.3">
<path d="M90.502 23.5092L89.0476 24.3517L88.0073 23.7502C88.0408 23.6891 88.0898 23.6379 88.1495 23.6019L89.2619 22.9571C89.324 22.9265 89.3924 22.9106 89.4617 22.9106C89.531 22.9106 89.5993 22.9265 89.6615 22.9571L90.3578 23.3691C90.4163 23.4037 90.4657 23.4517 90.502 23.5092Z" fill="white"/>
</g>
<defs>
<linearGradient id="paint0_linear_3723_40469" x1="30.5698" y1="16.7444" x2="30.5698" y2="80.4913" gradientUnits="userSpaceOnUse">
<stop stop-color="#5B26CF"/>
<stop offset="1" stop-color="#D72595"/>
</linearGradient>
<linearGradient id="paint1_linear_3723_40469" x1="27.8696" y1="38.7031" x2="27.8696" y2="43.0247" gradientUnits="userSpaceOnUse">
<stop stop-color="#5B26CF"/>
<stop offset="1" stop-color="#D72595"/>
</linearGradient>
<linearGradient id="paint2_linear_3723_40469" x1="28.1748" y1="70.5505" x2="28.1748" y2="73.0422" gradientUnits="userSpaceOnUse">
<stop stop-color="#5B26CF"/>
<stop offset="1" stop-color="#D72595"/>
</linearGradient>
<linearGradient id="paint3_linear_3723_40469" x1="60.1314" y1="40.8635" x2="60.1314" y2="41.8626" gradientUnits="userSpaceOnUse">
<stop stop-color="#5B26CF"/>
<stop offset="1" stop-color="#D72595"/>
</linearGradient>
<linearGradient id="paint4_linear_3723_40469" x1="61.2733" y1="41.1091" x2="61.2733" y2="41.8652" gradientUnits="userSpaceOnUse">
<stop stop-color="#5B26CF"/>
<stop offset="1" stop-color="#D72595"/>
</linearGradient>
<linearGradient id="paint5_linear_3723_40469" x1="60.1698" y1="33.8508" x2="60.1698" y2="36.4685" gradientUnits="userSpaceOnUse">
<stop stop-color="#5B26CF"/>
<stop offset="1" stop-color="#D72595"/>
</linearGradient>
<linearGradient id="paint6_linear_3723_40469" x1="59.7556" y1="35.0215" x2="59.7556" y2="36.4861" gradientUnits="userSpaceOnUse">
<stop stop-color="#5B26CF"/>
<stop offset="1" stop-color="#D72595"/>
</linearGradient>
<linearGradient id="paint7_linear_3723_40469" x1="60.782" y1="33.9534" x2="60.782" y2="37.1237" gradientUnits="userSpaceOnUse">
<stop stop-color="#5B26CF"/>
<stop offset="1" stop-color="#D72595"/>
</linearGradient>
<linearGradient id="paint8_linear_3723_40469" x1="61.3273" y1="34.3657" x2="61.3273" y2="37.2053" gradientUnits="userSpaceOnUse">
<stop stop-color="#5B26CF"/>
<stop offset="1" stop-color="#D72595"/>
</linearGradient>
<linearGradient id="paint9_linear_3723_40469" x1="63.0454" y1="34.4521" x2="63.0454" y2="40.0619" gradientUnits="userSpaceOnUse">
<stop stop-color="#5B26CF"/>
<stop offset="1" stop-color="#D72595"/>
</linearGradient>
<linearGradient id="paint10_linear_3723_40469" x1="61.7919" y1="35.782" x2="61.7919" y2="40.0606" gradientUnits="userSpaceOnUse">
<stop stop-color="#5B26CF"/>
<stop offset="1" stop-color="#D72595"/>
</linearGradient>
<linearGradient id="paint11_linear_3723_40469" x1="65.2746" y1="34.6958" x2="65.2746" y2="41.434" gradientUnits="userSpaceOnUse">
<stop stop-color="#5B26CF"/>
<stop offset="1" stop-color="#D72595"/>
</linearGradient>
<linearGradient id="paint12_linear_3723_40469" x1="65.4858" y1="35.2188" x2="65.4858" y2="41.1893" gradientUnits="userSpaceOnUse">
<stop stop-color="#5B26CF"/>
<stop offset="1" stop-color="#D72595"/>
</linearGradient>
<linearGradient id="paint13_linear_3723_40469" x1="64.4948" y1="36.4058" x2="64.4948" y2="38.7706" gradientUnits="userSpaceOnUse">
<stop stop-color="#5B26CF"/>
<stop offset="1" stop-color="#D72595"/>
</linearGradient>
<linearGradient id="paint14_linear_3723_40469" x1="64.9651" y1="37.0293" x2="64.9651" y2="38.7638" gradientUnits="userSpaceOnUse">
<stop stop-color="#5B26CF"/>
<stop offset="1" stop-color="#D72595"/>
</linearGradient>
<linearGradient id="paint15_linear_3723_40469" x1="49.1441" y1="26.7324" x2="49.1441" y2="35.4708" gradientUnits="userSpaceOnUse">
<stop stop-color="#5B26CF"/>
<stop offset="1" stop-color="#D72595"/>
</linearGradient>
<linearGradient id="paint16_linear_3723_40469" x1="49.8435" y1="28.5571" x2="49.8435" y2="31.7665" gradientUnits="userSpaceOnUse">
<stop stop-color="#5B26CF"/>
<stop offset="1" stop-color="#D72595"/>
</linearGradient>
<linearGradient id="paint17_linear_3723_40469" x1="46.3085" y1="26.7244" x2="46.3085" y2="27.9121" gradientUnits="userSpaceOnUse">
<stop stop-color="#5B26CF"/>
<stop offset="1" stop-color="#D72595"/>
</linearGradient>
<linearGradient id="paint18_linear_3723_40469" x1="87.0522" y1="35.1348" x2="87.0522" y2="54.2577" gradientUnits="userSpaceOnUse">
<stop stop-color="#5B26CF"/>
<stop offset="1" stop-color="#D72595"/>
</linearGradient>
<linearGradient id="paint19_linear_3723_40469" x1="87.0522" y1="35.1348" x2="87.0522" y2="54.2577" gradientUnits="userSpaceOnUse">
<stop stop-color="#5B26CF"/>
<stop offset="1" stop-color="#D72595"/>
</linearGradient>
<linearGradient id="paint20_linear_3723_40469" x1="80.0857" y1="43.2903" x2="80.0857" y2="52.2739" gradientUnits="userSpaceOnUse">
<stop stop-color="#5B26CF"/>
<stop offset="1" stop-color="#D72595"/>
</linearGradient>
<linearGradient id="paint21_linear_3723_40469" x1="87.1484" y1="35.1206" x2="87.1484" y2="44.4926" gradientUnits="userSpaceOnUse">
<stop stop-color="#5B26CF"/>
<stop offset="1" stop-color="#D72595"/>
</linearGradient>
<linearGradient id="paint22_linear_3723_40469" x1="75.5652" y1="53.6553" x2="75.5652" y2="61.1196" gradientUnits="userSpaceOnUse">
<stop stop-color="#5B26CF"/>
<stop offset="1" stop-color="#D72595"/>
</linearGradient>
<linearGradient id="paint23_linear_3723_40469" x1="72.8458" y1="56.8337" x2="72.8458" y2="60.3357" gradientUnits="userSpaceOnUse">
<stop stop-color="#5B26CF"/>
<stop offset="1" stop-color="#D72595"/>
</linearGradient>
<linearGradient id="paint24_linear_3723_40469" x1="75.6058" y1="53.6553" x2="75.6058" y2="57.3054" gradientUnits="userSpaceOnUse">
<stop stop-color="#5B26CF"/>
<stop offset="1" stop-color="#D72595"/>
</linearGradient>
<linearGradient id="paint25_linear_3723_40469" x1="77.229" y1="10.6833" x2="77.229" y2="26.0107" gradientUnits="userSpaceOnUse">
<stop stop-color="#5B26CF"/>
<stop offset="1" stop-color="#D72595"/>
</linearGradient>
<linearGradient id="paint26_linear_3723_40469" x1="71.2056" y1="18.2151" x2="71.2056" y2="28.7049" gradientUnits="userSpaceOnUse">
<stop stop-color="#5B26CF"/>
<stop offset="1" stop-color="#D72595"/>
</linearGradient>
<linearGradient id="paint27_linear_3723_40469" x1="82.3306" y1="28.0127" x2="82.3306" y2="37.3722" gradientUnits="userSpaceOnUse">
<stop stop-color="#5B26CF"/>
<stop offset="1" stop-color="#D72595"/>
</linearGradient>
<linearGradient id="paint28_linear_3723_40469" x1="81.3288" y1="27.9966" x2="81.3288" y2="29.0268" gradientUnits="userSpaceOnUse">
<stop stop-color="#5B26CF"/>
<stop offset="1" stop-color="#D72595"/>
</linearGradient>
<linearGradient id="paint29_linear_3723_40469" x1="83.8379" y1="28.946" x2="83.8379" y2="30.7812" gradientUnits="userSpaceOnUse">
<stop stop-color="#5B26CF"/>
<stop offset="1" stop-color="#D72595"/>
</linearGradient>
<linearGradient id="paint30_linear_3723_40469" x1="79.879" y1="32.3701" x2="79.879" y2="37.3409" gradientUnits="userSpaceOnUse">
<stop stop-color="#5B26CF"/>
<stop offset="1" stop-color="#D72595"/>
</linearGradient>
<linearGradient id="paint31_linear_3723_40469" x1="78.6668" y1="32.5874" x2="78.6668" y2="38.9857" gradientUnits="userSpaceOnUse">
<stop stop-color="#5B26CF"/>
<stop offset="1" stop-color="#D72595"/>
</linearGradient>
<linearGradient id="paint32_linear_3723_40469" x1="77.9385" y1="33.3921" x2="77.9385" y2="38.985" gradientUnits="userSpaceOnUse">
<stop stop-color="#5B26CF"/>
<stop offset="1" stop-color="#D72595"/>
</linearGradient>
<linearGradient id="paint33_linear_3723_40469" x1="78.6725" y1="32.5874" x2="78.6725" y2="33.9778" gradientUnits="userSpaceOnUse">
<stop stop-color="#5B26CF"/>
<stop offset="1" stop-color="#D72595"/>
</linearGradient>
<linearGradient id="paint34_linear_3723_40469" x1="93.0801" y1="18.1455" x2="93.0801" y2="27.8623" gradientUnits="userSpaceOnUse">
<stop stop-color="#5B26CF"/>
<stop offset="1" stop-color="#D72595"/>
</linearGradient>
<linearGradient id="paint35_linear_3723_40469" x1="89.2725" y1="22.9031" x2="89.2725" y2="29.5665" gradientUnits="userSpaceOnUse">
<stop stop-color="#5B26CF"/>
<stop offset="1" stop-color="#D72595"/>
</linearGradient>
</defs>
</svg>
