<svg width="55" height="61" viewBox="0 0 55 61" fill="none" xmlns="http://www.w3.org/2000/svg">
<g clip-path="url(#clip0_3723_40291)">
<path d="M30.3421 33.4322C29.6829 33.0029 28.7675 32.7883 27.5962 32.7883H21.9559L21.8556 33.2898C21.7236 33.9525 21.7402 34.6362 21.9043 35.2916C22.0683 35.9471 22.3757 36.5581 22.8043 37.0805C23.2329 37.6028 23.772 38.0237 24.3828 38.3126C24.9936 38.6016 25.6608 38.7515 26.3365 38.7515C27.869 38.7515 29.0885 38.4326 29.9831 37.7968C30.4074 37.5187 30.7539 37.137 30.9897 36.6878C31.2256 36.2385 31.343 35.7366 31.3309 35.2294C31.3391 34.8692 31.252 34.5133 31.0783 34.1977C30.9046 33.8821 30.6507 33.618 30.3421 33.4322Z" fill="white"/>
<path d="M31.7633 23.4503C31.2578 23.0692 30.5237 22.8687 29.571 22.8687H23.9267L22.8135 28.3665H28.4297C29.6733 28.3665 30.6675 28.067 31.4123 27.4679C31.7734 27.182 32.0623 26.8152 32.2556 26.3971C32.449 25.979 32.5414 25.5213 32.5255 25.061C32.5386 24.7508 32.4761 24.4421 32.3433 24.1615C32.2105 23.8809 32.0115 23.6368 31.7633 23.4503Z" fill="white"/>
<path d="M51.779 13.1067L30.4454 0.789193C29.5536 0.274263 28.5418 0.00317383 27.512 0.00317383C26.4821 0.00317383 25.4704 0.274263 24.5785 0.789193L3.24496 13.1067C2.35359 13.6216 1.61338 14.3619 1.09865 15.2534C0.583919 16.1448 0.312794 17.156 0.3125 18.1854L0.3125 42.8205C0.312442 43.8502 0.5834 44.8618 1.09815 45.7536C1.61289 46.6454 2.3533 47.3861 3.24496 47.9011L24.5825 60.2167C25.4744 60.7316 26.4861 61.0027 27.516 61.0027C28.5458 61.0027 29.5576 60.7316 30.4495 60.2167L51.779 47.9011C52.6707 47.3861 53.4111 46.6454 53.9258 45.7536C54.4406 44.8618 54.7115 43.8502 54.7115 42.8205V18.1854C54.7112 17.156 54.44 16.1448 53.9253 15.2534C53.4106 14.3619 52.6704 13.6216 51.779 13.1067ZM36.0917 31.8348C36.8259 32.7588 37.1922 33.8907 37.1909 35.2306C37.2166 36.7719 36.7329 38.2786 35.8149 39.5169C34.8909 40.7512 33.5905 41.7032 31.9137 42.3732C30.2409 43.0431 28.3033 43.3761 26.131 43.3761H25.0499C23.7301 43.3762 22.4268 43.0834 21.2339 42.5189C20.041 41.9544 18.9882 41.1323 18.1515 40.1117C17.3147 39.0911 16.7149 37.8976 16.3952 36.6172C16.0755 35.3368 16.0439 34.0014 16.3026 32.7073L18.4789 21.8199C18.5015 21.704 18.4949 21.5844 18.4599 21.4717C18.4249 21.359 18.3625 21.2567 18.2783 21.174L16.5473 19.4591C16.4473 19.3592 16.3791 19.2319 16.3514 19.0932C16.3238 18.9545 16.3379 18.8108 16.3921 18.6802C16.4462 18.5496 16.5379 18.438 16.6555 18.3595C16.7731 18.2811 16.9114 18.2393 17.0528 18.2395H30.7603C33.2275 18.2395 35.155 18.7122 36.543 19.6576C37.931 20.603 38.6244 21.9021 38.623 23.5549C38.6386 25.0709 38.0887 26.5384 37.0806 27.6708C36.0154 28.8776 34.5934 29.7136 33.0209 30.0576C34.3393 30.3224 35.363 30.9148 36.0917 31.8348Z" fill="white"/>
</g>
<defs>
<clipPath id="clip0_3723_40291">
<rect width="54.399" height="61" fill="white" transform="translate(0.300781)"/>
</clipPath>
</defs>
</svg>
