<svg width="42" height="42" viewBox="0 0 42 42" fill="none" xmlns="http://www.w3.org/2000/svg">
<path d="M21.1982 0C23.9297 -4.07021e-08 26.6344 0.538003 29.158 1.58329C31.6815 2.62858 33.9745 4.16068 35.9059 6.09212C37.8374 8.02356 39.3695 10.3165 40.4148 12.8401C41.46 15.3636 41.998 18.0683 41.998 20.7998C41.998 23.5313 41.46 26.236 40.4148 28.7595C39.3695 31.2831 37.8374 33.576 35.9059 35.5075C33.9745 37.4389 31.6815 38.971 29.158 40.0163C26.6344 41.0616 23.9297 41.5996 21.1982 41.5996C15.6818 41.5996 10.3913 39.4082 6.49056 35.5075C2.58984 31.6068 0.398438 26.3163 0.398438 20.7998C0.398437 15.2834 2.58984 9.99284 6.49056 6.09212C10.3913 2.1914 15.6818 8.22015e-08 21.1982 0ZM21.1982 3.46663C16.6012 3.46663 12.1924 5.2928 8.94184 8.5434C5.69124 11.794 3.86507 16.2028 3.86507 20.7998C3.86507 25.3968 5.69124 29.8056 8.94184 33.0562C12.1924 36.3068 16.6012 38.133 21.1982 38.133C25.7953 38.133 30.204 36.3068 33.4546 33.0562C36.7052 29.8056 38.5314 25.3968 38.5314 20.7998C38.5314 16.2028 36.7052 11.794 33.4546 8.5434C30.204 5.2928 25.7953 3.46663 21.1982 3.46663ZM21.1982 27.7331C21.8878 27.7331 22.5491 28.007 23.0367 28.4946C23.5243 28.9822 23.7982 29.6435 23.7982 30.333C23.7982 31.0226 23.5243 31.6839 23.0367 32.1715C22.5491 32.6591 21.8878 32.933 21.1982 32.933C20.5087 32.933 19.8474 32.6591 19.3598 32.1715C18.8722 31.6839 18.5983 31.0226 18.5983 30.333C18.5983 29.6435 18.8722 28.9822 19.3598 28.4946C19.8474 28.007 20.5087 27.7331 21.1982 27.7331ZM21.1982 8.66658C21.6039 8.66645 21.9968 8.80862 22.3085 9.06833C22.6201 9.32804 22.8308 9.68885 22.9038 10.0879L22.9316 10.3999V22.5331C22.9324 22.9663 22.771 23.384 22.4791 23.7041C22.1873 24.0242 21.7862 24.2234 21.3549 24.2625C20.9235 24.3017 20.4931 24.1779 20.1484 23.9155C19.8038 23.6532 19.5698 23.2713 19.4927 22.8451L19.4649 22.5331V10.3999C19.4649 9.9402 19.6475 9.49932 19.9726 9.17426C20.2977 8.8492 20.7385 8.66658 21.1982 8.66658Z" fill="#5B26CF"/>
</svg>
