<svg width="17" height="22" viewBox="0 0 17 22" fill="none" xmlns="http://www.w3.org/2000/svg">
<path fill-rule="evenodd" clip-rule="evenodd" d="M13.003 11.0296V8.90847C13.003 6.17508 10.7871 3.95923 8.05375 3.95923C5.32036 3.95923 3.1045 6.17508 3.1045 8.90847V11.0296C3.1045 13.3628 0.983398 13.9284 0.983398 15.2718C0.983398 16.4738 3.74084 17.3929 8.05375 17.3929C12.3667 17.3929 15.1241 16.4738 15.1241 15.2718C15.1241 13.9284 13.003 13.3628 13.003 11.0296Z" stroke="#5B26CF" stroke-width="1.27347" stroke-linecap="round" stroke-linejoin="round"/>
<path d="M8.05374 19.6901C7.33893 19.6901 6.66725 19.666 6.03516 19.6194C6.31172 20.5016 7.12918 21.102 8.05374 21.102C8.9783 21.102 9.79576 20.5016 10.0723 19.6194C9.44024 19.666 8.76855 19.6901 8.05374 19.6901Z" fill="#5B26CF"/>
<circle cx="12.3108" cy="5.48979" r="3.57328" fill="#FF0000" stroke="white" stroke-width="2.03711"/>
</svg>
