<svg width="25" height="25" viewBox="0 0 25 25" fill="none" xmlns="http://www.w3.org/2000/svg">
<path d="M12.5026 22.9141C6.75885 22.9141 2.08594 18.2411 2.08594 12.4974C2.08594 6.75365 6.75885 2.08073 12.5026 2.08073C18.2464 2.08073 22.9193 6.75365 22.9193 12.4974C22.9193 18.2411 18.2464 22.9141 12.5026 22.9141ZM12.5026 4.16407C7.90781 4.16407 4.16927 7.90261 4.16927 12.4974C4.16927 17.0922 7.90781 20.8307 12.5026 20.8307C17.0974 20.8307 20.8359 17.0922 20.8359 12.4974C20.8359 7.90261 17.0974 4.16407 12.5026 4.16407Z" fill="black" fill-opacity="0.45"/>
<path d="M12.5034 10.8484L8.03151 15.3203L6.55859 13.8474L12.5034 7.90261L18.4482 13.8474L16.9753 15.3203L12.5034 10.8484Z" fill="black" fill-opacity="0.45"/>
</svg>
