<svg width="22" height="20" viewBox="0 0 22 20" fill="none" xmlns="http://www.w3.org/2000/svg">
<path d="M10.9506 18.365L19.4853 9.83032C20.4551 8.86031 21 7.54478 21 6.17307C21 4.80137 20.4551 3.48584 19.4853 2.51583V2.51583C19.005 2.03542 18.4347 1.65434 17.8071 1.39434C17.1795 1.13434 16.5068 1.00052 15.8275 1.00052C15.1481 1.00052 14.4754 1.13434 13.8478 1.39434C13.2202 1.65434 12.65 2.03542 12.1696 2.51583L2.00968 12.6758C1.36304 13.3225 0.999764 14.1995 0.999764 15.114C0.999764 16.0286 1.36304 16.9056 2.00968 17.5523V17.5523C2.32989 17.8726 2.71006 18.1266 3.12847 18.3C3.54688 18.4733 3.99534 18.5625 4.44823 18.5625C4.90112 18.5625 5.34957 18.4733 5.76798 18.3C6.18639 18.1266 6.56656 17.8726 6.88678 17.5523L17.0462 7.39235C17.2063 7.23224 17.3333 7.04216 17.42 6.83295C17.5066 6.62375 17.5513 6.39952 17.5513 6.17307C17.5513 5.94663 17.5066 5.7224 17.42 5.5132C17.3333 5.30399 17.2063 5.11391 17.0462 4.9538V4.9538C16.7228 4.63057 16.2844 4.44899 15.8272 4.44899C15.37 4.44899 14.9315 4.63057 14.6082 4.9538L6.07354 13.4884" stroke="#5B26CF" stroke-width="1.72417" stroke-linecap="round" stroke-linejoin="round"/>
</svg>
