<svg width="22" height="22" viewBox="0 0 22 22" fill="none" xmlns="http://www.w3.org/2000/svg">
<path fill-rule="evenodd" clip-rule="evenodd" d="M6.69537 12.3916C6.05037 12.3916 5.52734 11.8676 5.52734 11.2226C5.52734 10.5796 6.05037 10.0566 6.69537 10.0566C7.34037 10.0566 7.86438 10.5796 7.86438 11.2226C7.86438 11.8676 7.34037 12.3916 6.69537 12.3916ZM11.2383 12.3916C10.5933 12.3916 10.0693 11.8676 10.0693 11.2226C10.0693 10.5796 10.5933 10.0566 11.2383 10.0566C11.8833 10.0566 12.4073 10.5796 12.4073 11.2226C12.4073 11.8676 11.8833 12.3916 11.2383 12.3916ZM14.6124 11.2226C14.6124 11.8676 15.1364 12.3916 15.7814 12.3916C16.4264 12.3916 16.9504 11.8676 16.9504 11.2226C16.9504 10.5796 16.4264 10.0566 15.7814 10.0566C15.1364 10.0566 14.6124 10.5796 14.6124 11.2226Z" fill="#C4C4C4"/>
<path fill-rule="evenodd" clip-rule="evenodd" d="M11.02 1C5.21002 1 1 5.746 1 11.015C1 12.698 1.48998 14.429 2.34998 16.012C2.50998 16.273 2.52998 16.602 2.41998 16.914L1.75 19.157C1.6 19.698 2.06001 20.098 2.57001 19.937L4.59003 19.338C5.14003 19.157 5.57002 19.387 6.08002 19.698C7.54002 20.558 9.36 21 11 21C15.96 21 21 17.164 21 10.985C21 5.656 16.7 1 11.02 1Z" stroke="#C4C4C4" stroke-width="1.5" stroke-linecap="round" stroke-linejoin="round"/>
</svg>
