<svg width="23" height="22" viewBox="0 0 23 22" fill="none" xmlns="http://www.w3.org/2000/svg">
<path fill-rule="evenodd" clip-rule="evenodd" d="M0.5 10.9316C0.5 5.22474 5.06083 0.0820312 11.355 0.0820312C17.5083 0.0820312 22.1667 5.1271 22.1667 10.8991C22.1667 17.5933 16.7067 21.7487 11.3333 21.7487C9.55667 21.7487 7.585 21.2713 6.00333 20.3382C5.45083 20.0019 4.985 19.7524 4.38917 19.9477L2.20083 20.5986C1.64833 20.7722 1.15 20.3382 1.3125 19.7524L2.03833 17.3221C2.1575 16.9857 2.13583 16.6277 1.9625 16.3456C1.03083 14.6314 0.5 12.7544 0.5 10.9316ZM9.92188 10.9249C9.92188 11.6952 10.5394 12.3137 11.3085 12.3245C12.0777 12.3245 12.6952 11.6952 12.6952 10.9358C12.6952 10.1654 12.0777 9.54701 11.3085 9.54701C10.5502 9.53616 9.92188 10.1654 9.92188 10.9249ZM14.916 10.9356C14.916 11.6951 15.5335 12.3244 16.3027 12.3244C17.0718 12.3244 17.6893 11.6951 17.6893 10.9356C17.6893 10.1653 17.0718 9.54688 16.3027 9.54688C15.5335 9.54688 14.916 10.1653 14.916 10.9356ZM6.31831 12.3283C5.55997 12.3283 4.93164 11.699 4.93164 10.9395C4.93164 10.1692 5.54914 9.55078 6.31831 9.55078C7.08747 9.55078 7.70497 10.1692 7.70497 10.9395C7.70497 11.699 7.08747 12.3174 6.31831 12.3283Z" fill="#5B26CF"/>
</svg>
