<svg width="30" height="29" viewBox="0 0 30 29" fill="none" xmlns="http://www.w3.org/2000/svg">
<path fill-rule="evenodd" clip-rule="evenodd" d="M18.7159 2.83335L29.619 22.1515C29.859 22.7281 29.964 23.197 29.994 23.6841C30.054 24.8222 29.664 25.9284 28.8992 26.7796C28.1343 27.6279 27.0995 28.1286 25.9747 28.1893H4.01836C3.55343 28.1605 3.08851 28.0527 2.65359 27.8858C0.478952 26.9905 -0.570871 24.4716 0.31398 22.2881L11.2921 2.81969C11.6671 2.13534 12.237 1.54506 12.9419 1.16571C14.9815 0.0109599 17.5761 0.769666 18.7159 2.83335ZM16.3003 15.566C16.3003 16.2944 15.7154 16.9029 14.9956 16.9029C14.2757 16.9029 13.6758 16.2944 13.6758 15.566V11.2733C13.6758 10.5434 14.2757 9.95312 14.9956 9.95312C15.7154 9.95312 16.3003 10.5434 16.3003 11.2733V15.566ZM14.9956 22.094C14.2757 22.094 13.6758 21.4856 13.6758 20.7587C13.6758 20.0288 14.2757 19.4219 14.9956 19.4219C15.7154 19.4219 16.3003 20.0152 16.3003 20.742C16.3003 21.4856 15.7154 22.094 14.9956 22.094Z" fill="#D72595"/>
</svg>
