<svg width="17" height="19" viewBox="0 0 17 19" fill="none" xmlns="http://www.w3.org/2000/svg">
<path d="M6.32568 16.5168V14.064C6.32568 13.44 6.83447 12.9327 7.46488 12.9287H9.77372C10.4073 12.9287 10.9209 13.4368 10.9209 14.064V16.5248C10.9201 17.0544 11.3473 17.4872 11.8825 17.5H13.4218C14.9562 17.5 16.2002 16.2688 16.2002 14.7496V7.77028C16.1922 7.17267 15.9082 6.61106 15.4306 6.24626L10.1665 2.04781C9.24411 1.3174 7.93289 1.3174 7.01048 2.04781L1.76961 6.25426C1.28961 6.61746 1.0056 7.17987 1 7.77748V14.7496C1 16.2688 2.24401 17.5 3.77843 17.5H5.31766C5.86566 17.5 6.31047 17.06 6.31047 16.5168" stroke="rgb(156 163 175)"  stroke-width="1.5"  stroke-linecap="round" stroke-linejoin="round"/>
</svg>
