<svg width="50" height="54" viewBox="0 0 50 54" fill="none" xmlns="http://www.w3.org/2000/svg">
<path d="M34 9H47.5C48.0967 9 48.669 9.23705 49.091 9.65901C49.5129 10.081 49.75 10.6533 49.75 11.25C49.75 11.8467 49.5129 12.419 49.091 12.841C48.669 13.2629 48.0967 13.5 47.5 13.5H45.0115L41.6275 43.992C41.3218 46.7439 40.012 49.2865 37.9488 51.133C35.8856 52.9795 33.2139 54.0003 30.445 54H19.555C16.7861 54.0003 14.1144 52.9795 12.0512 51.133C9.98798 49.2865 8.67818 46.7439 8.3725 43.992L4.984 13.5H2.5C1.90326 13.5 1.33097 13.2629 0.90901 12.841C0.487053 12.419 0.25 11.8467 0.25 11.25C0.25 10.6533 0.487053 10.081 0.90901 9.65901C1.33097 9.23705 1.90326 9 2.5 9H16C16 6.61305 16.9482 4.32387 18.636 2.63604C20.3239 0.948211 22.6131 0 25 0C27.3869 0 29.6761 0.948211 31.364 2.63604C33.0518 4.32387 34 6.61305 34 9ZM25 4.5C23.8065 4.5 22.6619 4.97411 21.818 5.81802C20.9741 6.66193 20.5 7.80653 20.5 9H29.5C29.5 7.80653 29.0259 6.66193 28.182 5.81802C27.3381 4.97411 26.1935 4.5 25 4.5ZM18.25 22.5V40.5C18.25 41.0967 18.4871 41.669 18.909 42.091C19.331 42.5129 19.9033 42.75 20.5 42.75C21.0967 42.75 21.669 42.5129 22.091 42.091C22.5129 41.669 22.75 41.0967 22.75 40.5V22.5C22.75 21.9033 22.5129 21.331 22.091 20.909C21.669 20.4871 21.0967 20.25 20.5 20.25C19.9033 20.25 19.331 20.4871 18.909 20.909C18.4871 21.331 18.25 21.9033 18.25 22.5ZM29.5 20.25C28.9033 20.25 28.331 20.4871 27.909 20.909C27.4871 21.331 27.25 21.9033 27.25 22.5V40.5C27.25 41.0967 27.4871 41.669 27.909 42.091C28.331 42.5129 28.9033 42.75 29.5 42.75C30.0967 42.75 30.669 42.5129 31.091 42.091C31.5129 41.669 31.75 41.0967 31.75 40.5V22.5C31.75 21.9033 31.5129 21.331 31.091 20.909C30.669 20.4871 30.0967 20.25 29.5 20.25Z" fill="#E91735"/>
</svg>
