<svg width="20" height="21" viewBox="0 0 20 21" fill="none" xmlns="http://www.w3.org/2000/svg">
<path d="M15.5752 10.1077C15.1002 9.98268 14.5419 9.91602 13.8752 9.91602C12.9502 9.91602 12.6086 10.141 12.1336 10.4993C12.1086 10.516 12.0836 10.541 12.0586 10.566L11.2669 11.4077C10.6002 12.1077 9.40023 12.116 8.73356 11.3993L7.94189 10.566C7.91689 10.541 7.89189 10.516 7.86689 10.4993C7.39189 10.141 7.05023 9.91602 6.12523 9.91602C5.45856 9.91602 4.90023 9.98268 4.42523 10.1077C2.44189 10.641 2.44189 12.216 2.44189 13.5993V14.3743C2.44189 16.466 2.44189 18.8327 6.90023 18.8327H13.1002C16.0586 18.8327 17.5586 17.3327 17.5586 14.3743V13.5993C17.5586 12.216 17.5586 10.641 15.5752 10.1077ZM11.9419 15.8327H8.05856C7.74189 15.8327 7.48356 15.5743 7.48356 15.2493C7.48356 14.9243 7.74189 14.666 8.05856 14.666H11.9419C12.2586 14.666 12.5169 14.9243 12.5169 15.2493C12.5169 15.5743 12.2586 15.8327 11.9419 15.8327Z" fill="white"/>
<path d="M10.5586 2.72435C10.5586 2.41602 10.3086 2.16602 10.0002 2.16602C9.69189 2.16602 9.44189 2.41602 9.44189 2.72435V3.83268H10.5669V2.72435H10.5586Z" fill="white"/>
<path d="M16.0084 7.51732V8.93398C15.975 8.91732 15.9334 8.90899 15.9 8.90065H15.8917C15.3 8.74232 14.6417 8.66732 13.875 8.66732C12.5917 8.66732 11.9834 9.04232 11.4334 9.45898C11.3167 9.54232 11.2334 9.62565 11.15 9.70899L10.3584 10.5507C10.275 10.634 10.1417 10.684 10 10.684C9.93337 10.684 9.7667 10.6757 9.6417 10.5423L8.82503 9.68399C8.7417 9.59232 8.6417 9.51732 8.6167 9.50065C8.0167 9.04232 7.40837 8.66732 6.12503 8.66732C5.35837 8.66732 4.70003 8.74232 4.10003 8.90065C4.0667 8.90899 4.02503 8.91732 3.9917 8.93398V7.51732C3.9917 5.79232 3.9917 3.83398 7.67503 3.83398H9.4417V6.70898L8.90003 6.16732C8.67503 5.94232 8.32503 5.94232 8.10003 6.16732C7.88337 6.38398 7.88337 6.74232 8.10003 6.95898L9.60003 8.45898C9.60837 8.46732 9.6167 8.46732 9.6167 8.47565C9.6667 8.51732 9.72503 8.55898 9.78337 8.58398C9.85837 8.60898 9.92503 8.62565 10 8.62565C10.075 8.62565 10.1417 8.60898 10.2167 8.58398C10.2834 8.55898 10.3417 8.51732 10.4 8.45898L11.9 6.95898C12.1167 6.74232 12.1167 6.38398 11.9 6.16732C11.675 5.94232 11.325 5.94232 11.1 6.16732L10.5584 6.70898V3.83398H12.325C16.0084 3.83398 16.0084 5.79232 16.0084 7.51732Z" fill="white"/>
</svg>
