<svg width="20" height="21" viewBox="0 0 20 21" fill="none" xmlns="http://www.w3.org/2000/svg">
<path d="M15.575 10.1082C15.1 9.98317 14.5417 9.9165 13.875 9.9165C12.95 9.9165 12.6083 10.1415 12.1333 10.4998C12.1083 10.5165 12.0833 10.5415 12.0583 10.5665L11.2667 11.4082C10.6 12.1082 9.39998 12.1165 8.73332 11.3998L7.94165 10.5665C7.91665 10.5415 7.89165 10.5165 7.86665 10.4998C7.39165 10.1415 7.04998 9.9165 6.12498 9.9165C5.45832 9.9165 4.89998 9.98317 4.42498 10.1082C2.44165 10.6415 2.44165 12.2165 2.44165 13.5998V14.3748C2.44165 16.4665 2.44165 18.8332 6.89998 18.8332H13.1C16.0583 18.8332 17.5583 17.3332 17.5583 14.3748V13.5998C17.5583 12.2165 17.5583 10.6415 15.575 10.1082ZM11.9417 15.8332H8.05832C7.74165 15.8332 7.48332 15.5748 7.48332 15.2498C7.48332 14.9248 7.74165 14.6665 8.05832 14.6665H11.9417C12.2583 14.6665 12.5167 14.9248 12.5167 15.2498C12.5167 15.5748 12.2583 15.8332 11.9417 15.8332Z" fill="#5B26CF"/>
<path d="M10.5583 2.72484C10.5583 2.4165 10.3083 2.1665 9.99998 2.1665C9.69165 2.1665 9.44165 2.4165 9.44165 2.72484V3.83317H10.5667V2.72484H10.5583Z" fill="#5B26CF"/>
<path d="M16.0084 7.51683V8.9335C15.975 8.91683 15.9334 8.9085 15.9 8.90016H15.8917C15.3 8.74183 14.6417 8.66683 13.875 8.66683C12.5917 8.66683 11.9834 9.04183 11.4334 9.4585C11.3167 9.54183 11.2334 9.62516 11.15 9.7085L10.3584 10.5502C10.275 10.6335 10.1417 10.6835 10 10.6835C9.93337 10.6835 9.7667 10.6752 9.6417 10.5418L8.82503 9.6835C8.7417 9.59183 8.6417 9.51683 8.6167 9.50016C8.0167 9.04183 7.40837 8.66683 6.12503 8.66683C5.35837 8.66683 4.70003 8.74183 4.10003 8.90016C4.0667 8.9085 4.02503 8.91683 3.9917 8.9335V7.51683C3.9917 5.79183 3.9917 3.8335 7.67503 3.8335H9.4417V6.7085L8.90003 6.16683C8.67503 5.94183 8.32503 5.94183 8.10003 6.16683C7.88337 6.3835 7.88337 6.74183 8.10003 6.9585L9.60003 8.4585C9.60837 8.46683 9.6167 8.46683 9.6167 8.47516C9.6667 8.51683 9.72503 8.5585 9.78337 8.5835C9.85837 8.6085 9.92503 8.62516 10 8.62516C10.075 8.62516 10.1417 8.6085 10.2167 8.5835C10.2834 8.5585 10.3417 8.51683 10.4 8.4585L11.9 6.9585C12.1167 6.74183 12.1167 6.3835 11.9 6.16683C11.675 5.94183 11.325 5.94183 11.1 6.16683L10.5584 6.7085V3.8335H12.325C16.0084 3.8335 16.0084 5.79183 16.0084 7.51683Z" fill="#5B26CF"/>
</svg>
