<svg width="18" height="17" viewBox="0 0 18 17" fill="none" xmlns="http://www.w3.org/2000/svg">
<path d="M12.493 0.167969H5.50964C2.4763 0.167969 0.667969 1.9763 0.667969 5.00964V11.9846C0.667969 15.0263 2.4763 16.8346 5.50964 16.8346H12.4846C15.518 16.8346 17.3263 15.0263 17.3263 11.993V5.00964C17.3346 1.9763 15.5263 0.167969 12.493 0.167969ZM8.1263 13.093C7.88463 13.3346 7.4263 13.568 7.09297 13.618L5.04297 13.9096C4.96797 13.918 4.89297 13.9263 4.81797 13.9263C4.4763 13.9263 4.15964 13.8096 3.93464 13.5846C3.65964 13.3096 3.54297 12.9096 3.60964 12.468L3.9013 10.418C3.9513 10.0763 4.1763 9.6263 4.4263 9.38464L8.14297 5.66797C8.20964 5.84297 8.2763 6.01797 8.36797 6.21797C8.4513 6.39297 8.54297 6.5763 8.64297 6.74297C8.7263 6.88464 8.81797 7.01797 8.89297 7.11797C8.98464 7.25964 9.09297 7.39297 9.15963 7.46797C9.2013 7.5263 9.23464 7.56797 9.2513 7.58463C9.45964 7.83463 9.7013 8.06797 9.90964 8.24297C9.96797 8.3013 10.0013 8.33464 10.018 8.34297C10.143 8.44297 10.268 8.54297 10.3763 8.61797C10.5096 8.71797 10.643 8.80964 10.7846 8.88463C10.9513 8.98464 11.1346 9.0763 11.318 9.16797C11.5096 9.2513 11.6846 9.3263 11.8596 9.38464L8.1263 13.093ZM13.4763 7.74297L12.7096 8.51797C12.6596 8.56797 12.593 8.59297 12.5263 8.59297C12.5013 8.59297 12.468 8.59297 12.4513 8.58464C10.7596 8.1013 9.40964 6.7513 8.9263 5.05964C8.9013 4.96797 8.9263 4.86797 8.99297 4.80964L9.76797 4.03464C11.0346 2.76797 12.243 2.79297 13.4846 4.03464C14.118 4.66797 14.4263 5.2763 14.4263 5.90964C14.418 6.50964 14.1096 7.10964 13.4763 7.74297Z" fill="#5B26CF"/>
</svg>
