<svg width="24" height="25" viewBox="0 0 24 25" fill="none" xmlns="http://www.w3.org/2000/svg">
<path d="M0 12.5C0 5.87188 5.37188 0.5 12 0.5C18.6281 0.5 24 5.87188 24 12.5C24 19.1281 18.6281 24.5 12 24.5C5.37188 24.5 0 19.1281 0 12.5ZM7.69219 15.7578C7.42031 15.4438 6.94688 15.4109 6.63281 15.6828C6.31875 15.9547 6.28594 16.4281 6.55781 16.7422C7.59844 17.9422 9.41719 19.25 11.9578 19.25C14.5828 19.25 16.3969 17.9422 17.4422 16.7422C17.7141 16.4281 17.6812 15.9547 17.3672 15.6828C17.0531 15.4109 16.5797 15.4438 16.3078 15.7578C15.4641 16.7281 14.0344 17.75 11.9578 17.75C9.96563 17.75 8.53125 16.7281 7.69219 15.7578ZM8.26875 8.75C7.43906 8.75 6.76875 9.42031 6.76875 10.25C6.76875 11.0797 7.43906 11.75 8.26875 11.75C9.09375 11.75 9.76875 11.0797 9.76875 10.25C9.76875 9.42031 9.09375 8.75 8.26875 8.75ZM15.7687 11.75C16.5938 11.75 17.2687 11.0797 17.2687 10.25C17.2687 9.42031 16.5938 8.75 15.7687 8.75C14.9391 8.75 14.2687 9.42031 14.2687 10.25C14.2687 11.0797 14.9391 11.75 15.7687 11.75Z" fill="#5B26CF"/>
</svg>
