<svg width="22" height="22" viewBox="0 0 22 22" fill="none" xmlns="http://www.w3.org/2000/svg">
<circle cx="11" cy="11" r="11" fill="#F5F1FE"/>
<path opacity="0.4" d="M17.0186 9.43353C15.5412 7.11202 13.3796 5.77539 11.1029 5.77539C9.9645 5.77539 8.8581 6.10795 7.84764 6.7283C6.83717 7.35504 5.92903 8.26958 5.18717 9.43353C4.54764 10.4376 4.54764 12.0684 5.18717 13.0725C6.6645 15.4004 8.82612 16.7306 11.1029 16.7306C12.2412 16.7306 13.3476 16.3981 14.3581 15.7777C15.3686 15.151 16.2767 14.2364 17.0186 13.0725C17.6581 12.0748 17.6581 10.4376 17.0186 9.43353ZM11.1029 13.8399C9.67031 13.8399 8.51915 12.6824 8.51915 11.2562C8.51915 9.83004 9.67031 8.67248 11.1029 8.67248C12.5354 8.67248 13.6866 9.83004 13.6866 11.2562C13.6866 12.6824 12.5354 13.8399 11.1029 13.8399Z" fill="#5B26CF"/>
<path d="M11.1025 9.42773C10.0984 9.42773 9.27979 10.2463 9.27979 11.2568C9.27979 12.2609 10.0984 13.0795 11.1025 13.0795C12.1065 13.0795 12.9315 12.2609 12.9315 11.2568C12.9315 10.2527 12.1065 9.42773 11.1025 9.42773Z" fill="#5B26CF"/>
</svg>
