<svg width="11" height="15" viewBox="0 0 11 15" fill="none" xmlns="http://www.w3.org/2000/svg">
<path d="M8.6401 0.0878823C8.73156 0.140902 8.80233 0.223371 8.84086 0.321814C8.87939 0.420258 8.8834 0.528858 8.85223 0.629873L7.16925 6.09837H10.2745C10.3657 6.09833 10.455 6.12502 10.5313 6.17514C10.6075 6.22525 10.6674 6.2966 10.7036 6.38038C10.7398 6.46416 10.7506 6.5567 10.7348 6.64657C10.719 6.73645 10.6772 6.81973 10.6146 6.88612L3.1389 14.8291C3.06657 14.906 2.97031 14.9562 2.86582 14.9714C2.76134 14.9866 2.65478 14.9659 2.56352 14.9128C2.47226 14.8597 2.40168 14.7773 2.36328 14.6789C2.32489 14.5806 2.32094 14.4721 2.35208 14.3712L4.03505 8.90177H0.929822C0.838566 8.9018 0.749298 8.87511 0.673036 8.825C0.596774 8.77488 0.536857 8.70353 0.500682 8.61975C0.464507 8.53597 0.453658 8.44343 0.469473 8.35356C0.485288 8.26368 0.527075 8.18041 0.589676 8.11401L8.06541 0.17105C8.13765 0.0942358 8.23376 0.0441199 8.3381 0.0288507C8.44244 0.0135815 8.54888 0.0340569 8.6401 0.0869478V0.0878823Z" fill="#5B26CF"/>
</svg>
