<svg width="130" height="34" viewBox="0 0 130 34" fill="none" xmlns="http://www.w3.org/2000/svg">
<g clip-path="url(#clip0_6530_6506)">
<path d="M17.7123 18.4555C17.326 18.2186 16.7896 18.1001 16.1032 18.1001H12.7979L12.7391 18.3769C12.6617 18.7427 12.6715 19.1202 12.7676 19.482C12.8637 19.8439 13.0439 20.1812 13.295 20.4695C13.5462 20.7579 13.8621 20.9902 14.22 21.1498C14.578 21.3093 14.969 21.392 15.365 21.3921C16.263 21.3921 16.9777 21.216 17.5019 20.865C17.7506 20.7115 17.9536 20.5008 18.0918 20.2528C18.2301 20.0048 18.2989 19.7277 18.2918 19.4477C18.2966 19.2489 18.2455 19.0524 18.1437 18.8782C18.042 18.7039 17.8931 18.5581 17.7123 18.4555Z" fill="#5B26CF"/>
<path d="M18.5455 12.9454C18.2493 12.735 17.8191 12.6243 17.2608 12.6243H13.9531L13.3008 15.6593H16.592C17.3207 15.6593 17.9034 15.494 18.3398 15.1633C18.5514 15.0054 18.7207 14.8029 18.834 14.5721C18.9474 14.3413 19.0015 14.0887 18.9922 13.8345C18.9999 13.6633 18.9632 13.4929 18.8854 13.338C18.8076 13.1831 18.691 13.0483 18.5455 12.9454Z" fill="#5B26CF"/>
<path d="M30.2735 7.23473L17.7717 0.434895C17.249 0.15063 16.6562 0.000976563 16.0526 0.000976562C15.4491 0.000976562 14.8562 0.15063 14.3336 0.434895L1.83175 7.23473C1.3094 7.51896 0.875618 7.92765 0.573978 8.41977C0.272337 8.91189 0.113454 9.47011 0.113281 10.0384L0.113281 23.638C0.113247 24.2065 0.272033 24.7649 0.573684 25.2573C0.875334 25.7496 1.30922 26.1585 1.83175 26.4428L14.3359 33.2415C14.8586 33.5258 15.4515 33.6754 16.055 33.6754C16.6585 33.6754 17.2514 33.5258 17.774 33.2415L30.2735 26.4428C30.796 26.1585 31.2299 25.7496 31.5316 25.2573C31.8332 24.7649 31.992 24.2065 31.992 23.638V10.0384C31.9918 9.47011 31.8329 8.91189 31.5313 8.41977C31.2297 7.92765 30.7959 7.51896 30.2735 7.23473ZM21.0805 17.5734C21.5107 18.0835 21.7254 18.7084 21.7246 19.4481C21.7397 20.2989 21.4563 21.1307 20.9183 21.8143C20.3768 22.4957 19.6148 23.0213 18.6321 23.3911C17.6518 23.761 16.5163 23.9448 15.2434 23.9448H14.6098C13.8364 23.9448 13.0727 23.7832 12.3736 23.4716C11.6745 23.16 11.0576 22.7061 10.5672 22.1427C10.0769 21.5793 9.72536 20.9204 9.538 20.2136C9.35064 19.5067 9.33212 18.7695 9.48377 18.0551L10.7591 12.0448C10.7723 11.9808 10.7685 11.9148 10.748 11.8526C10.7275 11.7903 10.6909 11.7339 10.6416 11.6882L9.62717 10.7415C9.56852 10.6864 9.52857 10.6161 9.51237 10.5395C9.49617 10.463 9.50446 10.3836 9.53618 10.3115C9.56791 10.2394 9.62164 10.1778 9.69057 10.1345C9.7595 10.0912 9.84053 10.0682 9.92338 10.0683H17.9562C19.402 10.0683 20.5316 10.3292 21.345 10.8511C22.1584 11.373 22.5647 12.0902 22.5639 13.0026C22.573 13.8395 22.2508 14.6496 21.66 15.2747C21.0358 15.9409 20.2025 16.4025 19.2809 16.5924C20.0536 16.7386 20.6534 17.0656 21.0805 17.5734Z" fill="#5B26CF"/>
</g>
<path d="M52.16 16.0842C52.566 16.5675 52.7693 17.1604 52.77 17.863C52.785 18.6723 52.5143 19.4635 52.0005 20.1123C51.4875 20.7586 50.765 21.2575 49.8328 21.6092C48.9007 21.9608 47.8281 22.1353 46.6152 22.1327H39.9609L42.7584 8.95923H49.1926C50.5648 8.95923 51.6373 9.20707 52.4103 9.70276C53.1832 10.1985 53.5697 10.8791 53.5697 11.7448C53.5782 12.5388 53.2718 13.3073 52.7106 13.8998C52.1378 14.5212 51.385 14.9386 50.4522 15.1521C51.1848 15.2876 51.7541 15.5983 52.16 16.0842ZM48.7631 19.2086C48.999 19.0627 49.1917 18.8627 49.3228 18.6272C49.454 18.3918 49.5193 18.1288 49.5127 17.863C49.5177 17.6744 49.4694 17.4879 49.3729 17.3226C49.2763 17.1573 49.135 17.0191 48.9632 16.922C48.5969 16.6961 48.0871 16.5832 47.4337 16.5832H44.2974L43.6373 19.7076H46.7351C47.5873 19.7076 48.2633 19.5413 48.7631 19.2086ZM49.5523 13.7966C49.7535 13.647 49.9143 13.4548 50.0219 13.2357C50.1295 13.0166 50.1808 12.7767 50.1717 12.5355C50.1802 12.3731 50.1466 12.2112 50.074 12.0637C50.0013 11.9162 49.8917 11.7876 49.7546 11.6888C49.4766 11.4884 49.0703 11.3879 48.5358 11.3873H45.3963L44.777 14.2671H47.8945C48.5868 14.2671 49.1395 14.1103 49.5523 13.7966Z" fill="#5B26CF"/>
<path d="M55.6476 21.374C54.9685 20.7781 54.6289 19.9779 54.6289 18.9734C54.6315 18.6377 54.6717 18.3032 54.7488 17.9755L56.0282 12.0086H59.0852L57.9258 17.562C57.8853 17.7409 57.8636 17.9232 57.8611 18.1061C57.8611 18.6084 58.0245 19.0068 58.3512 19.3015C58.6779 19.5962 59.1342 19.7435 59.7202 19.7435C60.395 19.7451 61.0437 19.4984 61.5282 19.0559C62.067 18.5763 62.4278 17.9461 62.5573 17.2585L63.676 12.0066H66.7529L64.6384 22.1332H61.5428L61.842 20.7404C60.9627 21.7567 59.8238 22.2648 58.4252 22.2648C57.2533 22.2668 56.3274 21.9698 55.6476 21.374Z" fill="#5B26CF"/>
<path d="M78.424 12.0267L78.0851 13.8527L71.2307 19.8579H76.9455L76.4658 22.1543L66.9141 22.1318L67.254 20.3058L74.1084 14.3006L68.7908 14.2819L69.2308 12.0042L78.424 12.0267Z" fill="#5B26CF"/>
<path d="M89.3966 12.0267L89.0567 13.8527L82.2023 19.8579H87.9171L87.4374 22.1543L77.8867 22.1318L78.2266 20.3058L85.081 14.3006L79.7635 14.2819L80.2035 12.0042L89.3966 12.0267Z" fill="#5B26CF"/>
<path d="M101.797 16.0842C102.203 16.5675 102.406 17.1604 102.407 17.863C102.422 18.6723 102.151 19.4635 101.637 20.1123C101.124 20.7586 100.402 21.2575 99.4695 21.6092C98.5374 21.9608 97.4648 22.1353 96.2519 22.1327H89.5977L92.3951 8.95923H98.8293C100.201 8.95923 101.274 9.20707 102.047 9.70276C102.82 10.1985 103.206 10.8791 103.206 11.7448C103.215 12.5388 102.909 13.3073 102.347 13.8998C101.774 14.5212 101.022 14.9386 100.089 15.1521C100.822 15.2876 101.391 15.5983 101.797 16.0842ZM98.3998 19.2086C98.6357 19.0627 98.8284 18.8627 98.9595 18.6272C99.0907 18.3918 99.156 18.1288 99.1494 17.863C99.1544 17.6744 99.1061 17.4879 99.0096 17.3226C98.913 17.1573 98.7717 17.0191 98.5999 16.922C98.2336 16.6961 97.7241 16.5832 97.0714 16.5832H93.9372L93.2772 19.7076H96.3749C97.225 19.7076 97.9 19.5413 98.3998 19.2086ZM99.1891 13.7966C99.3902 13.647 99.551 13.4548 99.6586 13.2357C99.7662 13.0166 99.8175 12.7767 99.8084 12.5355C99.8169 12.3731 99.7833 12.2112 99.7107 12.0637C99.638 11.9162 99.5284 11.7876 99.3913 11.6888C99.1133 11.4884 98.707 11.3879 98.1725 11.3873H95.033L94.4137 14.2671H97.5312C98.2235 14.2671 98.7765 14.1103 99.1901 13.7966H99.1891Z" fill="#5B26CF"/>
<path d="M109.019 12.0087L106.881 22.1324H103.824L105.963 12.0048L109.019 12.0087ZM109.418 7.87656C109.546 8.0031 109.645 8.15244 109.71 8.31574C109.775 8.47905 109.805 8.65301 109.798 8.82734C109.803 9.08143 109.753 9.33385 109.65 9.56867C109.546 9.80349 109.393 10.0156 109.198 10.1916C109.01 10.3708 108.786 10.5123 108.539 10.6076C108.292 10.703 108.026 10.7503 107.759 10.7466C107.574 10.7538 107.389 10.7241 107.217 10.6592C107.045 10.5944 106.889 10.4959 106.76 10.3704C106.633 10.2418 106.534 10.0908 106.469 9.92618C106.404 9.76152 106.374 9.58638 106.381 9.41077C106.374 9.15884 106.423 8.90833 106.524 8.67505C106.625 8.44177 106.777 8.23076 106.969 8.05532C107.156 7.87821 107.378 7.73852 107.624 7.64467C107.869 7.55081 108.132 7.50474 108.397 7.50921C108.585 7.50022 108.773 7.52824 108.949 7.59149C109.125 7.65474 109.285 7.75182 109.419 7.87656H109.418Z" fill="#5B26CF"/>
<path d="M114.074 18.7664C114.038 18.9211 114.017 19.0786 114.013 19.2369C114.013 19.4504 114.066 19.601 114.173 19.6887C114.31 19.7859 114.481 19.8326 114.652 19.8203C115.132 19.8203 115.685 19.6822 116.311 19.4058L116.691 21.608C116.247 21.8235 115.777 21.9883 115.292 22.0991C114.821 22.2092 114.338 22.2659 113.853 22.268C112.96 22.268 112.244 22.0483 111.705 21.6089C111.165 21.1696 110.896 20.5609 110.896 19.783C110.894 19.5237 110.921 19.265 110.976 19.011L111.955 14.4741H110.477L110.876 12.4596H112.374L112.974 9.67407H116.011L115.414 12.4596H118.351L117.95 14.4712H114.996L114.074 18.7664Z" fill="#5B26CF"/>
<path d="M127.271 12.469C128 12.8186 128.604 13.3619 129.009 14.0317C129.415 14.7035 129.618 15.4847 129.618 16.3753C129.615 16.9079 129.548 17.4384 129.418 17.9566H121.525C121.594 18.6114 121.854 19.1166 122.304 19.4722C122.753 19.8277 123.366 20.0065 124.142 20.0085C124.615 20.0074 125.085 19.931 125.531 19.7826C125.983 19.6364 126.406 19.4199 126.782 19.1422L128.28 20.7982C127.134 21.7647 125.722 22.2479 124.044 22.2479C122.925 22.2479 121.949 22.0597 121.116 21.6831C120.319 21.3356 119.648 20.7743 119.188 20.0694C118.735 19.3727 118.508 18.5663 118.508 17.6502C118.494 16.623 118.766 15.6104 119.298 14.7134C119.808 13.8496 120.562 13.1356 121.476 12.6507C122.431 12.1479 123.51 11.8914 124.604 11.9072C125.629 11.9137 126.518 12.101 127.271 12.469ZM126.302 14.6623C125.943 14.2733 125.417 14.0788 124.724 14.0788C124.07 14.0737 123.434 14.282 122.925 14.6682C122.384 15.0742 121.981 15.6205 121.766 16.2397H126.761C126.815 15.5771 126.661 15.0512 126.301 14.6623H126.302Z" fill="#5B26CF"/>
<defs>
<clipPath id="clip0_6530_6506">
<rect width="31.8787" height="33.6747" fill="white" transform="translate(0.109375)"/>
</clipPath>
</defs>
</svg>
