<svg width="24" height="23" viewBox="0 0 24 23" fill="none" xmlns="http://www.w3.org/2000/svg">
<path d="M9.12508 21.0827H14.8751C19.6667 21.0827 21.5834 19.166 21.5834 14.3743V8.62435C21.5834 3.83268 19.6667 1.91602 14.8751 1.91602H9.12508C4.33341 1.91602 2.41675 3.83268 2.41675 8.62435V14.3743C2.41675 19.166 4.33341 21.0827 9.12508 21.0827Z" stroke="#5B5863" stroke-width="1.4375" stroke-linecap="round" stroke-linejoin="round"/>
<path d="M9.12492 9.58333C10.1835 9.58333 11.0416 8.72521 11.0416 7.66667C11.0416 6.60812 10.1835 5.75 9.12492 5.75C8.06637 5.75 7.20825 6.60812 7.20825 7.66667C7.20825 8.72521 8.06637 9.58333 9.12492 9.58333Z" stroke="#5B5863" stroke-width="1.4375" stroke-linecap="round" stroke-linejoin="round"/>
<path d="M3.06055 18.1589L7.78513 14.9868C8.54221 14.4789 9.63471 14.5364 10.3151 15.121L10.6314 15.3989C11.3789 16.041 12.5864 16.041 13.3339 15.3989L17.3205 11.9777C18.068 11.3356 19.2755 11.3356 20.023 11.9777L21.5851 13.3193" stroke="#5B5863" stroke-width="1.4375" stroke-linecap="round" stroke-linejoin="round"/>
</svg>
