<svg width="26" height="27" viewBox="0 0 26 27" fill="none" xmlns="http://www.w3.org/2000/svg">
<path d="M23.5042 11.6321H22.6359V11.5873H12.9348V15.899H19.0266C18.1378 18.4089 15.7497 20.2106 12.9348 20.2106C9.36317 20.2106 6.46738 17.3148 6.46738 13.7432C6.46738 10.1715 9.36317 7.27573 12.9348 7.27573C14.5835 7.27573 16.0834 7.89768 17.2254 8.9136L20.2743 5.86475C18.3491 4.07058 15.774 2.96411 12.9348 2.96411C6.98208 2.96411 2.15576 7.79043 2.15576 13.7432C2.15576 19.6959 6.98208 24.5222 12.9348 24.5222C18.8875 24.5222 23.7138 19.6959 23.7138 13.7432C23.7138 13.0204 23.6395 12.3149 23.5042 11.6321Z" fill="#FFC107"/>
<path d="M3.39722 8.72605L6.93867 11.3233C7.89693 8.95079 10.2177 7.27573 12.9334 7.27573C14.5821 7.27573 16.082 7.89768 17.224 8.9136L20.2729 5.86475C18.3477 4.07058 15.7726 2.96411 12.9334 2.96411C8.7932 2.96411 5.20271 5.30155 3.39722 8.72605Z" fill="#FF3D00"/>
<path d="M12.9334 24.5228C15.7177 24.5228 18.2475 23.4573 20.1603 21.7246L16.8241 18.9016C15.7056 19.7522 14.3387 20.2123 12.9334 20.2112C10.1298 20.2112 7.74926 18.4235 6.85245 15.9287L3.3374 18.6369C5.12133 22.1277 8.74417 24.5228 12.9334 24.5228Z" fill="#4CAF50"/>
<path d="M23.5035 11.6316H22.6352V11.5869H12.9341V15.8985H19.0259C18.6007 17.0931 17.835 18.1369 16.8232 18.901L16.8248 18.9L20.1609 21.723C19.9248 21.9375 23.7131 19.1322 23.7131 13.7427C23.7131 13.02 23.6387 12.3145 23.5035 11.6316Z" fill="#1976D2"/>
</svg>
