<svg width="11" height="8" viewBox="0 0 11 8" fill="none" xmlns="http://www.w3.org/2000/svg">
<path d="M10.1374 0.500855L7.82078 0.779972C7.74402 0.789276 7.71145 0.883478 7.76612 0.938138L8.45577 1.62779L5.82742 4.25614L4.6435 3.07338C4.57023 3.00011 4.45277 3.00128 4.38066 3.07338L0.639333 6.81587C0.622018 6.83336 0.612305 6.85697 0.612305 6.88158C0.612305 6.90619 0.622018 6.92981 0.639333 6.94729L1.16268 7.47296C1.19873 7.50901 1.25804 7.50901 1.29409 7.47296L4.51208 4.25614L5.69484 5.4389C5.7681 5.511 5.88557 5.511 5.95767 5.4389L9.11402 2.28488L9.80367 2.97453C9.81603 2.98683 9.83159 2.99541 9.84858 2.9993C9.86558 3.00319 9.88332 3.00224 9.8998 2.99654C9.91628 2.99085 9.93083 2.98064 9.9418 2.96709C9.95276 2.95353 9.95971 2.93717 9.96183 2.91987L10.241 0.603198C10.2491 0.543886 10.1979 0.492714 10.1374 0.500855Z" fill="#0CAE43"/>
</svg>
