<svg width="66" height="73" viewBox="0 0 66 73" fill="none" xmlns="http://www.w3.org/2000/svg">
<path d="M32.9952 0C30.8942 0 28.7826 0.461423 27.1903 1.38558L5.81318 13.7257C2.61454 15.5724 0 20.1005 0 23.7911V48.4751C0 52.1665 2.61454 56.6961 5.81332 58.5419L27.1903 70.8845C28.7826 71.8059 30.8941 72.266 32.9952 72.266C35.1058 72.266 37.216 71.8059 38.8085 70.8845L60.1855 58.5419C63.3795 56.6961 66 52.1665 66 48.4751V23.7909C66 20.1004 63.3795 15.5721 60.1855 13.7256L38.8084 1.38573C37.216 0.461423 35.1058 0 32.9952 0ZM47.4468 21.0348C48.0626 21.0348 48.6779 21.2682 49.1443 21.736L51.7445 24.3333C52.6773 25.2699 52.6773 26.8012 51.7445 27.7368L28.9525 50.5312C28.0104 51.466 26.4847 51.466 25.552 50.5312L15.5073 40.4907C14.5745 39.5561 14.7724 37.8278 15.5073 37.0902L18.1087 34.4927C19.0416 33.5561 20.5768 33.5561 21.5094 34.4927L25.552 38.5323C26.4847 39.4669 28.0104 39.4669 28.9525 38.5323L45.7421 21.736C46.195 21.2858 46.808 21.0337 47.4466 21.0348H47.4468Z" fill="#0CB947"/>
</svg>
