<svg width="21" height="21" viewBox="0 0 21 21" fill="none" xmlns="http://www.w3.org/2000/svg">
<path d="M14.6426 3.60938C14.4141 3.60938 14.1951 3.51863 14.0335 3.3571C13.872 3.19557 13.7812 2.97649 13.7812 2.74805C13.7812 2.51961 13.872 2.30053 14.0335 2.139C14.1951 1.97747 14.4141 1.88672 14.6426 1.88672H18.0879C18.3163 1.88672 18.5354 1.97747 18.6969 2.139C18.8585 2.30053 18.9492 2.51961 18.9492 2.74805V6.19336C18.9492 6.4218 18.8585 6.64088 18.6969 6.80241C18.5354 6.96394 18.3163 7.05469 18.0879 7.05469C17.8595 7.05469 17.6404 6.96394 17.4788 6.80241C17.3173 6.64088 17.2266 6.4218 17.2266 6.19336V4.82729L12.2369 9.81697C12.0754 9.97844 11.8563 10.0692 11.6279 10.0692C11.3995 10.0692 11.1805 9.97844 11.019 9.81697L8.61328 7.41128L4.05427 11.9703C3.89182 12.1272 3.67425 12.214 3.44841 12.212C3.22257 12.2101 3.00654 12.1195 2.84685 11.9598C2.68715 11.8001 2.59656 11.5841 2.5946 11.3582C2.59264 11.1324 2.67946 10.9148 2.83635 10.7524L8.00432 5.5844C8.16585 5.42293 8.38489 5.33222 8.61328 5.33222C8.84167 5.33222 9.06072 5.42293 9.22224 5.5844L11.6279 7.99009L16.0086 3.60938H14.6426ZM4.30664 15.668V18.252C4.30664 18.4804 4.21589 18.6995 4.05436 18.861C3.89283 19.0225 3.67375 19.1133 3.44531 19.1133C3.21687 19.1133 2.99779 19.0225 2.83626 18.861C2.67473 18.6995 2.58398 18.4804 2.58398 18.252V15.668C2.58398 15.4395 2.67473 15.2204 2.83626 15.0589C2.99779 14.8974 3.21687 14.8066 3.44531 14.8066C3.67375 14.8066 3.89283 14.8974 4.05436 15.0589C4.21589 15.2204 4.30664 15.4395 4.30664 15.668ZM8.61328 12.2227C8.61328 11.9942 8.52253 11.7751 8.361 11.6136C8.19947 11.4521 7.98039 11.3613 7.75195 11.3613C7.52351 11.3613 7.30443 11.4521 7.1429 11.6136C6.98137 11.7751 6.89062 11.9942 6.89062 12.2227V18.252C6.89062 18.4804 6.98137 18.6995 7.1429 18.861C7.30443 19.0225 7.52351 19.1133 7.75195 19.1133C7.98039 19.1133 8.19947 19.0225 8.361 18.861C8.52253 18.6995 8.61328 18.4804 8.61328 18.252V12.2227ZM12.0586 13.084C12.287 13.084 12.5061 13.1747 12.6676 13.3363C12.8292 13.4978 12.9199 13.7169 12.9199 13.9453V18.252C12.9199 18.4804 12.8292 18.6995 12.6676 18.861C12.5061 19.0225 12.287 19.1133 12.0586 19.1133C11.8302 19.1133 11.6111 19.0225 11.4495 18.861C11.288 18.6995 11.1973 18.4804 11.1973 18.252V13.9453C11.1973 13.7169 11.288 13.4978 11.4495 13.3363C11.6111 13.1747 11.8302 13.084 12.0586 13.084ZM17.2266 9.63867C17.2266 9.41023 17.1358 9.19115 16.9743 9.02962C16.8128 8.86809 16.5937 8.77734 16.3652 8.77734C16.1368 8.77734 15.9177 8.86809 15.7562 9.02962C15.5947 9.19115 15.5039 9.41023 15.5039 9.63867V18.252C15.5039 18.4804 15.5947 18.6995 15.7562 18.861C15.9177 19.0225 16.1368 19.1133 16.3652 19.1133C16.5937 19.1133 16.8128 19.0225 16.9743 18.861C17.1358 18.6995 17.2266 18.4804 17.2266 18.252V9.63867Z" fill="rgb(156 163 175)"/>
</svg>
