<svg width="16" height="17" viewBox="0 0 16 17" fill="none" xmlns="http://www.w3.org/2000/svg">
<path d="M5.30782 15.5187V13.0725C5.30782 12.4481 5.81774 11.9418 6.44675 11.9418H8.74609C9.04815 11.9418 9.33784 12.061 9.55143 12.273C9.76502 12.485 9.88501 12.7726 9.88501 13.0725V15.5187C9.88311 15.7783 9.98565 16.0279 10.1699 16.2121C10.3541 16.3964 10.6048 16.5 10.8664 16.5H12.4351C13.1677 16.5019 13.871 16.2143 14.3897 15.7006C14.9085 15.187 15.2 14.4896 15.2 13.7623V6.79349C15.2 6.20597 14.9377 5.64867 14.4837 5.27174L9.14722 1.0407C8.21893 0.298849 6.88889 0.322802 5.98831 1.09758L0.77361 5.27174C0.298192 5.63756 0.0140418 6.19651 0 6.79349V13.7551C0 15.2711 1.23791 16.5 2.76494 16.5H4.29783C4.84098 16.5 5.2824 16.065 5.28633 15.5258L5.30782 15.5187Z" fill="white"/>
</svg>
