<svg width="9" height="8" viewBox="0 0 9 8" fill="none" xmlns="http://www.w3.org/2000/svg">
<path d="M6.23859 0.144531H3.0088C1.60589 0.144531 0.769531 0.980885 0.769531 2.3838V5.61359C0.769531 6.0337 0.84276 6.39984 0.985365 6.70818C1.31682 7.44047 2.02599 7.85286 3.0088 7.85286H6.23859C7.64151 7.85286 8.47786 7.01651 8.47786 5.61359V4.73099V2.3838C8.47786 0.980885 7.64151 0.144531 6.23859 0.144531ZM7.84964 4.19141C7.54901 3.93318 7.06339 3.93318 6.76276 4.19141L5.15943 5.56734C4.8588 5.82557 4.37318 5.82557 4.07255 5.56734L3.94151 5.45943C3.66786 5.22047 3.23234 5.19734 2.92401 5.40547L1.48255 6.37286C1.39776 6.15703 1.34766 5.90651 1.34766 5.61359V2.3838C1.34766 1.29693 1.92193 0.722656 3.0088 0.722656H6.23859C7.32547 0.722656 7.89974 1.29693 7.89974 2.3838V4.2338L7.84964 4.19141Z" fill="#84828A"/>
</svg>
