<svg width="33" height="33" viewBox="0 0 33 33" fill="none" xmlns="http://www.w3.org/2000/svg">
<path fill-rule="evenodd" clip-rule="evenodd" d="M9.65049 0.09852C11.4015 0.0179127 11.9597 0 16.42 0C20.8803 0 21.4386 0.0194054 23.188 0.09852C24.9375 0.177635 26.1317 0.456775 27.1766 0.861304C28.2708 1.27479 29.2634 1.92114 30.0844 2.75707C30.9204 3.57658 31.5652 4.56775 31.9772 5.66341C32.3832 6.70832 32.6609 7.9025 32.7415 9.64899C32.8221 11.403 32.84 11.9612 32.84 16.42C32.84 20.8803 32.8206 21.4386 32.7415 23.1895C32.6624 24.936 32.3832 26.1302 31.9772 27.1751C31.5652 28.2709 30.9193 29.2637 30.0844 30.0844C29.2634 30.9204 28.2708 31.5652 27.1766 31.9772C26.1317 32.3832 24.9375 32.6609 23.191 32.7415C21.4386 32.8221 20.8803 32.84 16.42 32.84C11.9597 32.84 11.4015 32.8206 9.65049 32.7415C7.904 32.6624 6.70981 32.3832 5.6649 31.9772C4.56912 31.5652 3.57631 30.9193 2.75558 30.0844C1.92022 29.2644 1.27377 28.2721 0.861304 27.1766C0.456775 26.1317 0.179127 24.9375 0.09852 23.191C0.0179127 21.4371 0 20.8788 0 16.42C0 11.9597 0.0194054 11.4015 0.09852 9.65198C0.177635 7.9025 0.456775 6.70832 0.861304 5.66341C1.27438 4.56787 1.92132 3.57555 2.75707 2.75558C3.57664 1.9204 4.56845 1.27396 5.66341 0.861304C6.70832 0.456775 7.9025 0.179127 9.64899 0.09852H9.65049ZM23.0552 3.05412C21.3236 2.97501 20.8042 2.95859 16.42 2.95859C12.0359 2.95859 11.5164 2.97501 9.78483 3.05412C8.18314 3.12727 7.31437 3.39446 6.73519 3.61987C5.96942 3.91841 5.42159 4.27219 4.84689 4.84689C4.30211 5.37688 3.88285 6.02209 3.61987 6.73519C3.39446 7.31437 3.12727 8.18314 3.05412 9.78483C2.97501 11.5164 2.95859 12.0359 2.95859 16.42C2.95859 20.8042 2.97501 21.3236 3.05412 23.0552C3.12727 24.6569 3.39446 25.5257 3.61987 26.1048C3.88259 26.8169 4.30204 27.4632 4.84689 27.9931C5.37681 28.538 6.02316 28.9574 6.73519 29.2202C7.31437 29.4456 8.18314 29.7128 9.78483 29.7859C11.5164 29.865 12.0344 29.8814 16.42 29.8814C20.8056 29.8814 21.3236 29.865 23.0552 29.7859C24.6569 29.7128 25.5257 29.4456 26.1048 29.2202C26.8706 28.9216 27.4184 28.5678 27.9931 27.9931C28.538 27.4632 28.9574 26.8169 29.2202 26.1048C29.4456 25.5257 29.7128 24.6569 29.7859 23.0552C29.865 21.3236 29.8814 20.8042 29.8814 16.42C29.8814 12.0359 29.865 11.5164 29.7859 9.78483C29.7128 8.18314 29.4456 7.31437 29.2202 6.73519C28.9216 5.96942 28.5678 5.42159 27.9931 4.84689C27.4631 4.30215 26.8179 3.8829 26.1048 3.61987C25.5257 3.39446 24.6569 3.12727 23.0552 3.05412ZM14.3227 21.4818C15.494 21.9694 16.7982 22.0352 18.0126 21.668C19.2271 21.3008 20.2763 20.5234 20.9812 19.4685C21.6861 18.4137 22.0029 17.1468 21.8775 15.8843C21.7521 14.6218 21.1923 13.442 20.2936 12.5464C19.7208 11.9739 19.0281 11.5355 18.2655 11.2629C17.5029 10.9902 16.6893 10.89 15.8834 10.9695C15.0774 11.049 14.2991 11.3062 13.6044 11.7226C12.9098 12.139 12.3161 12.7042 11.8661 13.3776C11.4162 14.051 11.1211 14.8158 11.0022 15.6169C10.8832 16.418 10.9434 17.2355 11.1784 18.0105C11.4133 18.7856 11.8172 19.4989 12.3609 20.0992C12.9046 20.6994 13.5746 21.1716 14.3227 21.4818ZM10.4521 10.4521C11.2358 9.66836 12.1662 9.04668 13.1902 8.62254C14.2142 8.19839 15.3117 7.98009 16.42 7.98009C17.5284 7.98009 18.6258 8.19839 19.6498 8.62254C20.6738 9.04668 21.6042 9.66836 22.3879 10.4521C23.1717 11.2358 23.7933 12.1662 24.2175 13.1902C24.6416 14.2142 24.8599 15.3117 24.8599 16.42C24.8599 17.5284 24.6416 18.6258 24.2175 19.6498C23.7933 20.6738 23.1717 21.6042 22.3879 22.3879C20.8051 23.9707 18.6584 24.8599 16.42 24.8599C14.1816 24.8599 12.0349 23.9707 10.4521 22.3879C8.86929 20.8051 7.98009 18.6584 7.98009 16.42C7.98009 14.1816 8.86929 12.0349 10.4521 10.4521ZM26.7318 9.237C26.926 9.0538 27.0815 8.83349 27.189 8.58912C27.2965 8.34475 27.354 8.08128 27.3579 7.81433C27.3617 7.54737 27.312 7.28235 27.2117 7.03494C27.1113 6.78754 26.9623 6.5628 26.7735 6.37401C26.5847 6.18522 26.36 6.03623 26.1126 5.93586C25.8652 5.83549 25.6001 5.78578 25.3332 5.78967C25.0662 5.79356 24.8028 5.85098 24.5584 5.95852C24.314 6.06606 24.0937 6.22153 23.9105 6.41575C23.5542 6.79345 23.3592 7.29514 23.3667 7.81433C23.3743 8.33351 23.5839 8.82931 23.9511 9.19646C24.3182 9.56362 24.814 9.77323 25.3332 9.7808C25.8524 9.78837 26.3541 9.5933 26.7318 9.237Z" fill="url(#paint0_linear_6318_73089)"/>
<defs>
<linearGradient id="paint0_linear_6318_73089" x1="4.375" y1="2.1875" x2="29.1667" y2="31.3542" gradientUnits="userSpaceOnUse">
<stop stop-color="#002296"/>
<stop offset="0.169749" stop-color="#82008F"/>
<stop offset="0.317968" stop-color="#C0007A"/>
<stop offset="0.44898" stop-color="#EA0C5F"/>
<stop offset="0.606932" stop-color="#FF5341"/>
<stop offset="0.804742" stop-color="#FF8820"/>
<stop offset="1" stop-color="#F6BA00"/>
</linearGradient>
</defs>
</svg>
