<svg width="40" height="40" viewBox="0 0 40 40" fill="none" xmlns="http://www.w3.org/2000/svg">
<circle cx="20" cy="20" r="20" fill="#FFEFF9"/>
<path opacity="0.4" d="M31.686 18.1747C31.2325 17.5235 30.4302 17.1514 29.5115 17.1514H24.7441C24.4302 17.1514 24.1395 17.0235 23.9418 16.791C23.7325 16.5584 23.6511 16.2328 23.6976 15.8956L24.2906 12.0817C24.5464 10.9421 23.7906 9.66305 22.6511 9.27932C21.5929 8.88398 20.3488 9.41886 19.8488 10.1747L14.9418 17.4654L14.8022 17.6979V27.977L14.9767 28.1514L18.6627 31.0003C19.1511 31.4886 20.2557 31.7561 21.0348 31.7561H25.5697C27.1278 31.7561 28.6976 30.5816 29.0464 29.1514L31.9069 20.4421C32.2092 19.6165 32.1278 18.8142 31.686 18.1747Z" fill="#D82594"/>
<path d="M12.57 13.9307H11.3723C9.56996 13.9307 8.8374 14.6283 8.8374 16.3493V28.0469C8.8374 29.7679 9.56996 30.4655 11.3723 30.4655H12.57C14.3723 30.4655 15.1048 29.7679 15.1048 28.0469V16.3493C15.1048 14.6283 14.3723 13.9307 12.57 13.9307Z" fill="#D82594"/>
</svg>
