<svg width="42" height="41" viewBox="0 0 42 41" fill="none" xmlns="http://www.w3.org/2000/svg">
<circle cx="21" cy="20.5" r="20.5" fill="#EDF7FF"/>
<path opacity="0.4" d="M16.9789 17.1769L23.4441 25.1338C23.8392 25.62 23.7646 26.3411 23.2783 26.7362L21.0681 28.5321C19.7243 29.624 18.0677 30.06 16.4724 29.9031C14.9589 29.7385 13.4929 29.0362 12.4127 27.815C10.0509 25.1252 10.62 20.8759 13.4049 18.6131L15.3764 17.0112C15.8627 16.6161 16.5838 16.6906 16.9789 17.1769Z" fill="#4FB6F0"/>
<path opacity="0.4" d="M29.779 13.0586C32.1568 15.7502 31.5805 19.9906 28.7956 22.2534L26.8241 23.8553C26.3379 24.2504 25.6167 24.1759 25.2217 23.6896L18.7564 15.7327C18.3613 15.2465 18.4359 14.5254 18.9222 14.1303L21.1324 12.3344C22.4763 11.2425 24.1328 10.8065 25.7281 10.9634C27.2328 11.1352 28.6987 11.8375 29.779 13.0586Z" fill="#4FB6F0"/>
<path d="M25.1713 18.2261L18.0985 23.9729C17.736 24.2675 17.1912 24.2111 16.8967 23.8486C16.6022 23.4861 16.6585 22.9413 17.021 22.6468L24.0938 16.8999C24.4562 16.6054 25.0011 16.6618 25.2956 17.0242C25.5901 17.3867 25.5338 17.9315 25.1713 18.2261Z" fill="#4FB6F0"/>
</svg>
