<svg width="75" height="72" viewBox="0 0 75 72" fill="none" xmlns="http://www.w3.org/2000/svg">
<path fill-rule="evenodd" clip-rule="evenodd" d="M28.4233 33.228C26.8483 33.228 25.6029 34.452 25.6029 36C25.6029 37.512 26.8483 38.772 28.4233 38.772H50.4V55.98C50.4 64.8 43.111 72 34.1006 72H16.2628C7.28895 72 0 64.836 0 56.016V16.02C0 7.164 7.32558 0 16.2994 0H34.1738C43.111 0 50.4 7.164 50.4 15.984V33.2279H65.3026L59.5426 27.5039C58.4626 26.4239 58.4626 24.6599 59.5426 23.5799C60.6226 22.4639 62.3866 22.4639 63.4666 23.5439L73.9786 34.0199C74.5186 34.5599 74.8066 35.2439 74.8066 35.9999C74.8066 36.7199 74.5186 37.4399 73.9786 37.9439L63.4666 48.4199C62.9266 48.9599 62.2066 49.2479 61.5226 49.2479C60.8026 49.2479 60.0826 48.9599 59.5426 48.4199C58.4626 47.3399 58.4626 45.5759 59.5426 44.4959L65.3026 38.7719H50.3986V33.228H28.4233Z" fill="#5B26CF"/>
</svg>
