<svg width="103" height="28" viewBox="0 0 103 28" fill="none" xmlns="http://www.w3.org/2000/svg">
<g clip-path="url(#clip0_3960_20077)">
<path d="M14.5691 15.3456C14.2665 15.1486 13.8464 15.05 13.3087 15.05H10.7197L10.6737 15.2802C10.6131 15.5844 10.6207 15.8982 10.696 16.1991C10.7713 16.5 10.9124 16.7804 11.1092 17.0202C11.3059 17.26 11.5533 17.4532 11.8337 17.5858C12.1141 17.7184 12.4204 17.7872 12.7305 17.7873C13.4339 17.7873 13.9937 17.6409 14.4043 17.349C14.5991 17.2214 14.7582 17.0462 14.8664 16.84C14.9747 16.6338 15.0286 16.4034 15.023 16.1705C15.0268 16.0052 14.9868 15.8419 14.9071 15.697C14.8274 15.5521 14.7108 15.4309 14.5691 15.3456Z" fill="white"/>
<path d="M15.2214 10.7638C14.9894 10.5889 14.6524 10.4968 14.2151 10.4968H11.6243L11.1133 13.0204H13.6912C14.262 13.0204 14.7184 12.8829 15.0603 12.608C15.226 12.4767 15.3586 12.3083 15.4474 12.1164C15.5361 11.9245 15.5786 11.7144 15.5713 11.5031C15.5773 11.3608 15.5486 11.2191 15.4876 11.0903C15.4267 10.9615 15.3353 10.8494 15.2214 10.7638Z" fill="white"/>
<path d="M24.4091 6.01573L14.6167 0.361772C14.2073 0.125411 13.7429 0.000976563 13.2702 0.000976562C12.7974 0.000976562 12.333 0.125411 11.9237 0.361772L2.1312 6.01573C1.72205 6.25206 1.38228 6.59188 1.14601 7.00107C0.909742 7.41026 0.785291 7.87441 0.785156 8.34691V19.6548C0.78513 20.1275 0.909504 20.5918 1.14578 21.0012C1.38206 21.4105 1.72192 21.7505 2.1312 21.9869L11.9255 27.64C12.3349 27.8763 12.7993 28.0007 13.272 28.0007C13.7447 28.0007 14.2091 27.8763 14.6185 27.64L24.4091 21.9869C24.8184 21.7505 25.1583 21.4105 25.3945 21.0012C25.6308 20.5918 25.7552 20.1275 25.7552 19.6548V8.34691C25.755 7.87441 25.6306 7.41026 25.3943 7.00107C25.158 6.59188 24.8183 6.25206 24.4091 6.01573ZM17.2084 14.6122C17.5454 15.0363 17.7136 15.5559 17.7129 16.1709C17.7247 16.8784 17.5027 17.57 17.0814 18.1384C16.6572 18.705 16.0603 19.142 15.2906 19.4495C14.5228 19.757 13.6334 19.9098 12.6363 19.9098H12.14C11.5342 19.9099 10.936 19.7755 10.3884 19.5164C9.84087 19.2573 9.35763 18.8799 8.97355 18.4115C8.58947 17.943 8.31412 17.3952 8.16737 16.8074C8.02061 16.2197 8.00611 15.6067 8.12489 15.0127L9.12384 10.0152C9.13419 9.96202 9.13119 9.90711 9.11513 9.85538C9.09906 9.80364 9.07042 9.7567 9.03177 9.71874L8.23721 8.93155C8.19128 8.88571 8.15998 8.82726 8.14729 8.76361C8.1346 8.69997 8.14109 8.63399 8.16594 8.57404C8.19079 8.51408 8.23288 8.46286 8.28687 8.42685C8.34086 8.39084 8.40433 8.37167 8.46923 8.37177H14.7612C15.8937 8.37177 16.7784 8.58874 17.4156 9.0227C18.0527 9.45665 18.3709 10.0529 18.3703 10.8116C18.3775 11.5075 18.1251 12.1811 17.6623 12.7009C17.1734 13.2548 16.5206 13.6386 15.7988 13.7965C16.404 13.918 16.8739 14.1899 17.2084 14.6122Z" fill="white"/>
</g>
<path d="M41.548 13.374C41.866 13.7758 42.0252 14.2688 42.0258 14.853C42.0375 15.526 41.8255 16.1838 41.423 16.7233C41.0212 17.2607 40.4553 17.6755 39.7251 17.9679C38.995 18.2603 38.1549 18.4054 37.2048 18.4032H31.9927L34.1839 7.44971H39.2237C40.2985 7.44971 41.1386 7.65579 41.744 8.06794C42.3495 8.4801 42.6522 9.04607 42.6522 9.76585C42.6588 10.4261 42.4188 11.0651 41.9792 11.5577C41.5306 12.0744 40.9409 12.4215 40.2103 12.599C40.7841 12.7117 41.23 12.97 41.548 13.374ZM38.8872 15.9719C39.072 15.8506 39.2229 15.6843 39.3257 15.4885C39.4284 15.2927 39.4796 15.0741 39.4744 14.853C39.4783 14.6962 39.4405 14.5412 39.3649 14.4037C39.2893 14.2663 39.1785 14.1513 39.044 14.0706C38.7571 13.8828 38.3577 13.7889 37.8459 13.7889H35.3893L34.8723 16.3868H37.2987C37.9663 16.3868 38.4957 16.2485 38.8872 15.9719ZM39.5054 11.4719C39.663 11.3475 39.789 11.1877 39.8733 11.0056C39.9575 10.8234 39.9977 10.6239 39.9906 10.4233C39.9972 10.2883 39.9709 10.1536 39.914 10.031C39.8571 9.90839 39.7713 9.80142 39.6639 9.7193C39.4461 9.55269 39.1279 9.46912 38.7092 9.46858H36.2501L35.765 11.8631H38.2069C38.7492 11.8631 39.182 11.7327 39.5054 11.4719Z" fill="white"/>
<path d="M44.2774 17.7722C43.7455 17.2768 43.4795 16.6114 43.4795 15.7762C43.4815 15.4971 43.513 15.219 43.5734 14.9465L44.5755 9.98503H46.97L46.0619 14.6026C46.0301 14.7514 46.0132 14.903 46.0112 15.0551C46.0112 15.4727 46.1392 15.804 46.3951 16.049C46.651 16.294 47.0084 16.4165 47.4674 16.4165C47.9959 16.4178 48.5041 16.2127 48.8836 15.8448C49.3056 15.446 49.5882 14.922 49.6896 14.3503L50.566 9.9834H52.976L51.3198 18.4035H48.895L49.1294 17.2454C48.4406 18.0905 47.5485 18.513 46.4531 18.513C45.5351 18.5146 44.8099 18.2677 44.2774 17.7722Z" fill="white"/>
<path d="M62.1185 10.0002L61.8531 11.5185L56.4841 16.5117H60.9604L60.5848 18.4212L53.103 18.4024L53.3693 16.8841L58.7382 11.8909L54.5731 11.8754L54.9177 9.98145L62.1185 10.0002Z" fill="white"/>
<path d="M70.7142 10.0002L70.448 11.5185L65.079 16.5117H69.5553L69.1796 18.4212L61.6987 18.4024L61.965 16.8841L67.3339 11.8909L63.1688 11.8754L63.5134 9.98145L70.7142 10.0002Z" fill="white"/>
<path d="M80.4259 13.374C80.7439 13.7758 80.9031 14.2688 80.9037 14.853C80.9154 15.526 80.7034 16.1838 80.301 16.7233C79.8992 17.2607 79.3332 17.6755 78.6031 17.9679C77.8729 18.2603 77.0328 18.4054 76.0827 18.4032H70.8706L73.0618 7.44971H78.1016C79.1764 7.44971 80.0165 7.65579 80.6219 8.06794C81.2274 8.4801 81.5301 9.04607 81.5301 9.76585C81.5367 10.4261 81.2968 11.0651 80.8571 11.5577C80.4085 12.0744 79.8188 12.4215 79.0882 12.599C79.662 12.7117 80.108 12.97 80.4259 13.374ZM77.7651 15.9719C77.95 15.8506 78.1009 15.6843 78.2036 15.4885C78.3063 15.2927 78.3575 15.0741 78.3523 14.853C78.3562 14.6962 78.3184 14.5412 78.2428 14.4037C78.1672 14.2663 78.0565 14.1513 77.9219 14.0706C77.635 13.8828 77.2359 13.7889 76.7247 13.7889H74.2697L73.7527 16.3868H76.1791C76.845 16.3868 77.3737 16.2485 77.7651 15.9719ZM78.3834 11.4719C78.5409 11.3475 78.6669 11.1877 78.7512 11.0056C78.8355 10.8234 78.8757 10.6239 78.8685 10.4233C78.8751 10.2883 78.8489 10.1536 78.7919 10.031C78.735 9.90839 78.6492 9.80142 78.5418 9.7193C78.324 9.55269 78.0058 9.46912 77.5871 9.46858H75.128L74.6429 11.8631H77.0848C77.6271 11.8631 78.0602 11.7327 78.3842 11.4719H78.3834Z" fill="white"/>
<path d="M86.0834 9.98532L84.4092 18.403H82.0146L83.6897 9.98205L86.0834 9.98532ZM86.3962 6.54948C86.4961 6.6547 86.5738 6.77888 86.6249 6.91466C86.676 7.05045 86.6993 7.19509 86.6935 7.34004C86.6979 7.55131 86.6584 7.7612 86.5776 7.95645C86.4967 8.1517 86.3763 8.32807 86.2239 8.47443C86.0768 8.62338 85.9012 8.74104 85.7075 8.82033C85.5138 8.89963 85.3061 8.93893 85.0968 8.93586C84.9517 8.94189 84.807 8.91713 84.6722 8.86322C84.5373 8.80931 84.4154 8.72746 84.3145 8.62307C84.2149 8.51614 84.1374 8.39062 84.0864 8.25371C84.0354 8.1168 84.0119 7.97117 84.0172 7.82516C84.012 7.61568 84.0502 7.40739 84.1295 7.21342C84.2088 7.01945 84.3274 6.844 84.4778 6.69812C84.624 6.55086 84.7985 6.43471 84.9908 6.35667C85.1831 6.27863 85.3892 6.24032 85.5967 6.24404C85.744 6.23657 85.8912 6.25987 86.029 6.31245C86.1668 6.36504 86.2921 6.44577 86.397 6.54948H86.3962Z" fill="white"/>
<path d="M90.0437 15.6041C90.0154 15.7327 89.9996 15.8637 89.9963 15.9953C89.9963 16.1728 90.0379 16.298 90.1213 16.371C90.2291 16.4517 90.3626 16.4906 90.4969 16.4804C90.8726 16.4804 91.3057 16.3655 91.7963 16.1358L92.0936 17.9668C91.7458 18.146 91.3778 18.2831 90.9976 18.3751C90.6288 18.4667 90.2505 18.5139 89.8705 18.5156C89.1714 18.5156 88.6106 18.3329 88.1881 17.9676C87.7656 17.6023 87.5544 17.0962 87.5544 16.4494C87.5531 16.2338 87.5741 16.0187 87.6173 15.8074L88.3841 12.0351H87.2261L87.5389 10.3601H88.7125L89.1821 8.04395H91.5611L91.0931 10.3601H93.3937L93.0801 12.0327H90.7664L90.0437 15.6041Z" fill="white"/>
<path d="M100.381 10.3679C100.952 10.6586 101.425 11.1103 101.742 11.6672C102.06 12.2258 102.219 12.8754 102.219 13.6159C102.217 14.0587 102.165 14.4999 102.063 14.9307H95.8802C95.9347 15.4752 96.138 15.8952 96.4903 16.1909C96.8425 16.4865 97.3225 16.6352 97.9301 16.6368C98.3007 16.6359 98.6685 16.5724 99.018 16.449C99.3721 16.3274 99.7033 16.1474 99.998 15.9165L101.172 17.2934C100.274 18.0971 99.1677 18.4989 97.8533 18.4989C96.9768 18.4989 96.2123 18.3423 95.5601 18.0293C94.9356 17.7403 94.4104 17.2736 94.05 16.6874C93.695 16.1081 93.5175 15.4376 93.5175 14.6759C93.5063 13.8219 93.7195 12.9798 94.1358 12.234C94.5352 11.5158 95.1257 10.9222 95.8418 10.519C96.5899 10.1009 97.435 9.88763 98.2919 9.90071C99.095 9.90616 99.7914 10.0619 100.381 10.3679ZM99.6223 12.1915C99.3408 11.8681 98.9287 11.7064 98.3858 11.7064C97.8737 11.7022 97.376 11.8753 96.977 12.1964C96.5533 12.5341 96.2376 12.9883 96.0689 13.5032H99.9816C100.024 12.9522 99.9035 12.515 99.6215 12.1915H99.6223Z" fill="white"/>
<defs>
<clipPath id="clip0_3960_20077">
<rect width="24.97" height="28" fill="white" transform="translate(0.780762)"/>
</clipPath>
</defs>
</svg>
