<svg width="58" height="70" viewBox="0 0 58 70" fill="none" xmlns="http://www.w3.org/2000/svg">
<path d="M32.021 38.3639C31.3182 37.8713 30.3423 37.625 29.0933 37.625H23.0797L22.9728 38.2004C22.832 38.9609 22.8498 39.7455 23.0247 40.4977C23.1996 41.2499 23.5273 41.951 23.9842 42.5504C24.4412 43.1499 25.016 43.6328 25.6672 43.9644C26.3184 44.296 27.0299 44.468 27.7503 44.4681C29.3842 44.4681 30.6844 44.1021 31.6382 43.3724C32.0907 43.0533 32.4601 42.6153 32.7116 42.0998C32.963 41.5843 33.0882 41.0083 33.0753 40.4262C33.084 40.013 32.9911 39.6045 32.806 39.2424C32.6208 38.8802 32.35 38.5771 32.021 38.3639Z" fill="#5B26CF"/>
<path d="M33.5345 26.9077C32.9955 26.4704 32.2128 26.2402 31.197 26.2402H25.1791L23.9922 32.5493H29.9802C31.3061 32.5493 32.3661 32.2056 33.1602 31.5181C33.5452 31.19 33.8532 30.769 34.0594 30.2893C34.2656 29.8095 34.3641 29.2843 34.3471 28.756C34.3611 28.4001 34.2945 28.0459 34.1529 27.7239C34.0113 27.4019 33.7991 27.1218 33.5345 26.9077Z" fill="#5B26CF"/>
<path d="M54.8734 15.037L32.1277 0.901997C31.1767 0.311088 30.098 0 29 0C27.902 0 26.8233 0.311088 25.8724 0.901997L3.12658 15.037C2.17621 15.6278 1.38699 16.4774 0.838189 17.5004C0.289386 18.5234 0.000313558 19.6837 9.88704e-09 20.865L9.88704e-09 49.135C-6.1709e-05 50.3167 0.288833 51.4775 0.837655 52.5009C1.38648 53.5244 2.17589 54.3743 3.12658 54.9653L25.8766 69.098C26.8276 69.6889 27.9062 70 29.0043 70C30.1023 70 31.181 69.6889 32.1319 69.098L54.8734 54.9653C55.8241 54.3743 56.6135 53.5244 57.1623 52.5009C57.7112 51.4775 58.0001 50.3167 58 49.135V20.865C57.9997 19.6837 57.7106 18.5234 57.1618 17.5004C56.613 16.4774 55.8238 15.6278 54.8734 15.037V15.037ZM38.1477 36.5284C38.9304 37.5887 39.3211 38.8876 39.3196 40.4252C39.347 42.1939 38.8313 43.9229 37.8526 45.344C36.8674 46.7604 35.4809 47.8529 33.6931 48.6217C31.9095 49.3905 29.8437 49.7726 27.5276 49.7726H26.3749C24.9678 49.7727 23.5782 49.4367 22.3064 48.789C21.0345 48.1412 19.912 47.1977 19.0199 46.0266C18.1277 44.8554 17.4882 43.4858 17.1473 42.0165C16.8064 40.5471 16.7727 39.0147 17.0486 37.5296L19.369 25.0358C19.393 24.9028 19.3861 24.7655 19.3487 24.6362C19.3114 24.5069 19.2449 24.3895 19.1551 24.2946L17.3095 22.3266C17.2028 22.212 17.1301 22.0659 17.1007 21.9068C17.0712 21.7477 17.0863 21.5827 17.144 21.4328C17.2017 21.2829 17.2995 21.1549 17.4249 21.0649C17.5503 20.9748 17.6977 20.9269 17.8485 20.9272H32.4634C35.0938 20.9272 37.149 21.4696 38.6289 22.5545C40.1088 23.6394 40.848 25.1301 40.8466 27.0268C40.8632 28.7665 40.2769 30.4505 39.202 31.7499C38.0663 33.1348 36.5502 34.0943 34.8736 34.489C36.2793 34.7928 37.3707 35.4726 38.1477 36.5284Z" fill="#5B26CF"/>
</svg>
