<svg width="26" height="28" viewBox="0 0 26 28" fill="none" xmlns="http://www.w3.org/2000/svg">
<g clip-path="url(#clip0_3799_24112)">
<path d="M14.5691 15.3453C14.2665 15.1483 13.8464 15.0498 13.3087 15.0498H10.7197L10.6737 15.28C10.6131 15.5842 10.6207 15.898 10.696 16.1989C10.7713 16.4997 10.9124 16.7802 11.1092 17.02C11.3059 17.2597 11.5533 17.4529 11.8337 17.5856C12.1141 17.7182 12.4204 17.787 12.7305 17.787C13.4339 17.787 13.9937 17.6406 14.4043 17.3488C14.5991 17.2211 14.7582 17.0459 14.8664 16.8397C14.9747 16.6335 15.0286 16.4031 15.023 16.1703C15.0268 16.005 14.9868 15.8416 14.9071 15.6967C14.8274 15.5519 14.7108 15.4307 14.5691 15.3453Z" fill="white"/>
<path d="M15.2214 10.7641C14.9894 10.5891 14.6524 10.4971 14.2151 10.4971H11.6243L11.1133 13.0207H13.6912C14.262 13.0207 14.7184 12.8832 15.0603 12.6082C15.226 12.4769 15.3586 12.3086 15.4474 12.1167C15.5361 11.9248 15.5786 11.7147 15.5713 11.5034C15.5773 11.361 15.5486 11.2193 15.4876 11.0905C15.4267 10.9617 15.3353 10.8497 15.2214 10.7641Z" fill="white"/>
<path d="M24.4091 6.01573L14.6167 0.361772C14.2073 0.125411 13.7429 0.000976563 13.2702 0.000976562C12.7974 0.000976562 12.333 0.125411 11.9237 0.361772L2.1312 6.01573C1.72205 6.25206 1.38228 6.59188 1.14601 7.00107C0.909742 7.41026 0.785291 7.87441 0.785156 8.34691V19.6548C0.78513 20.1275 0.909504 20.5918 1.14578 21.0012C1.38206 21.4105 1.72192 21.7505 2.1312 21.9869L11.9255 27.64C12.3349 27.8763 12.7993 28.0007 13.272 28.0007C13.7447 28.0007 14.2091 27.8763 14.6185 27.64L24.4091 21.9869C24.8184 21.7505 25.1583 21.4105 25.3945 21.0012C25.6308 20.5918 25.7552 20.1275 25.7552 19.6548V8.34691C25.755 7.87441 25.6306 7.41026 25.3943 7.00107C25.158 6.59188 24.8183 6.25206 24.4091 6.01573ZM17.2084 14.6122C17.5454 15.0363 17.7136 15.5559 17.7129 16.1709C17.7247 16.8784 17.5027 17.57 17.0814 18.1384C16.6572 18.705 16.0603 19.142 15.2906 19.4495C14.5228 19.757 13.6334 19.9098 12.6363 19.9098H12.14C11.5342 19.9099 10.936 19.7755 10.3884 19.5164C9.84087 19.2573 9.35763 18.8799 8.97355 18.4115C8.58947 17.943 8.31412 17.3952 8.16737 16.8074C8.02061 16.2197 8.00611 15.6067 8.12489 15.0127L9.12384 10.0152C9.13419 9.96202 9.13119 9.90711 9.11513 9.85538C9.09906 9.80364 9.07042 9.7567 9.03177 9.71874L8.23721 8.93155C8.19128 8.88571 8.15998 8.82726 8.14729 8.76361C8.1346 8.69997 8.14109 8.63399 8.16594 8.57404C8.19079 8.51408 8.23288 8.46286 8.28687 8.42685C8.34086 8.39084 8.40433 8.37167 8.46923 8.37177H14.7612C15.8937 8.37177 16.7784 8.58874 17.4156 9.0227C18.0527 9.45665 18.3709 10.0529 18.3703 10.8116C18.3775 11.5075 18.1251 12.1811 17.6623 12.7009C17.1734 13.2548 16.5206 13.6386 15.7988 13.7965C16.404 13.918 16.8739 14.1899 17.2084 14.6122Z" fill="white"/>
</g>
<defs>
<clipPath id="clip0_3799_24112">
<rect width="24.97" height="28" fill="white" transform="translate(0.780762)"/>
</clipPath>
</defs>
</svg>
