<svg width="19" height="19" viewBox="0 0 19 19" fill="none" xmlns="http://www.w3.org/2000/svg">
<path fill-rule="evenodd" clip-rule="evenodd" d="M14.9403 8.26547C14.9403 11.7706 12.0988 14.6121 8.59359 14.6121C5.08843 14.6121 2.24693 11.7706 2.24693 8.26547C2.24693 4.7603 5.08843 1.9188 8.59359 1.9188C12.0988 1.9188 14.9403 4.7603 14.9403 8.26547ZM13.687 14.6411C12.291 15.7577 10.5203 16.4255 8.59359 16.4255C4.08695 16.4255 0.433594 12.7721 0.433594 8.26547C0.433594 3.75882 4.08695 0.105469 8.59359 0.105469C13.1002 0.105469 16.7536 3.75882 16.7536 8.26547C16.7536 10.1921 16.0859 11.9629 14.9692 13.3588L18.3014 16.691C18.6554 17.0451 18.6554 17.6192 18.3014 17.9732C17.9473 18.3273 17.3732 18.3273 17.0191 17.9732L13.687 14.6411Z" fill="white"/>
<path d="M8.59359 14.6121C12.0988 14.6121 14.9403 11.7706 14.9403 8.26547C14.9403 4.7603 12.0988 1.9188 8.59359 1.9188C5.08843 1.9188 2.24693 4.7603 2.24693 8.26547C2.24693 11.7706 5.08843 14.6121 8.59359 14.6121Z" fill="white"/>
</svg>
