<svg width="27" height="27" viewBox="0 0 27 27" fill="none" xmlns="http://www.w3.org/2000/svg">
<g opacity="0.25">
<path fill-rule="evenodd" clip-rule="evenodd" d="M8.06852 15.3645C7.27571 15.3645 6.63281 14.7204 6.63281 13.9276C6.63281 13.1372 7.27571 12.4944 8.06852 12.4944C8.86134 12.4944 9.50543 13.1372 9.50543 13.9276C9.50543 14.7204 8.86134 15.3645 8.06852 15.3645ZM13.6526 15.3645C12.8598 15.3645 12.2157 14.7204 12.2157 13.9276C12.2157 13.1372 12.8598 12.4944 13.6526 12.4944C14.4454 12.4944 15.0895 13.1372 15.0895 13.9276C15.0895 14.7204 14.4454 15.3645 13.6526 15.3645ZM17.7999 13.9276C17.7999 14.7204 18.444 15.3645 19.2368 15.3645C20.0296 15.3645 20.6737 14.7204 20.6737 13.9276C20.6737 13.1372 20.0296 12.4944 19.2368 12.4944C18.444 12.4944 17.7999 13.1372 17.7999 13.9276Z" fill="#090415"/>
<path fill-rule="evenodd" clip-rule="evenodd" d="M13.3866 1.3623C6.24515 1.3623 1.07031 7.19595 1.07031 13.6725C1.07031 15.7411 1.67258 17.8688 2.72966 19.8146C2.92633 20.1354 2.95092 20.5398 2.81571 20.9233L1.99219 23.6804C1.80782 24.3453 2.37324 24.837 3.00012 24.6391L5.48307 23.9028C6.15911 23.6804 6.68764 23.9631 7.31452 24.3453C9.10911 25.4024 11.3462 25.9457 13.362 25.9457C19.4587 25.9457 25.6537 21.2306 25.6537 13.6356C25.6537 7.08533 20.3683 1.3623 13.3866 1.3623Z" stroke="#090415" stroke-width="1.7" stroke-linecap="round" stroke-linejoin="round"/>
</g>
</svg>
