<svg width="20" height="22" viewBox="0 0 20 22" fill="none" xmlns="http://www.w3.org/2000/svg">
<g opacity="0.65">
<path fill-rule="evenodd" clip-rule="evenodd" d="M5.55649 13.6131C5.04049 13.6131 4.62207 13.1939 4.62207 12.6779C4.62207 12.1635 5.04049 11.7451 5.55649 11.7451C6.07249 11.7451 6.4917 12.1635 6.4917 12.6779C6.4917 13.1939 6.07249 13.6131 5.55649 13.6131ZM9.19087 13.6131C8.67487 13.6131 8.25566 13.1939 8.25566 12.6779C8.25566 12.1635 8.67487 11.7451 9.19087 11.7451C9.70687 11.7451 10.1261 12.1635 10.1261 12.6779C10.1261 13.1939 9.70687 13.6131 9.19087 13.6131ZM11.8901 12.6779C11.8901 13.1939 12.3093 13.6131 12.8253 13.6131C13.3413 13.6131 13.7605 13.1939 13.7605 12.6779C13.7605 12.1635 13.3413 11.7451 12.8253 11.7451C12.3093 11.7451 11.8901 12.1635 11.8901 12.6779Z" fill="white"/>
<path fill-rule="evenodd" clip-rule="evenodd" d="M9.01602 4.5C4.36802 4.5 1 8.2968 1 12.512C1 13.8584 1.39198 15.2432 2.07998 16.5096C2.20798 16.7184 2.22399 16.9816 2.13599 17.2312L1.6 19.0256C1.48 19.4584 1.84801 19.7784 2.25601 19.6496L3.87202 19.1704C4.31202 19.0256 4.65601 19.2096 5.06401 19.4584C6.23201 20.1464 7.688 20.5 9 20.5C12.968 20.5 17 17.4312 17 12.488C17 8.2248 13.56 4.5 9.01602 4.5Z" stroke="white" stroke-width="1.5" stroke-linecap="round" stroke-linejoin="round"/>
</g>
<circle cx="14.5" cy="5.5" r="4.28" fill="#FF0000" stroke="#2E1368" stroke-width="2.44"/>
</svg>
