<svg width="19" height="22" viewBox="0 0 19 22" fill="none" xmlns="http://www.w3.org/2000/svg">
<path fill-rule="evenodd" clip-rule="evenodd" d="M0 13.512C0 9.2977 3.368 5.5 8.016 5.5C12.56 5.5 16 9.22559 16 13.488C16 18.4314 11.968 21.5 8 21.5C6.688 21.5 5.232 21.1475 4.064 20.4584C3.656 20.2101 3.312 20.0258 2.872 20.17L1.256 20.6507C0.848 20.7789 0.48 20.4584 0.6 20.0258L1.136 18.2311C1.224 17.9827 1.208 17.7183 1.08 17.51C0.392 16.2441 0 14.858 0 13.512ZM10.646 13.5178C10.646 14.0787 11.102 14.5434 11.67 14.5434C12.238 14.5434 12.694 14.0787 12.694 13.5178C12.694 12.949 12.238 12.4923 11.67 12.4923C11.102 12.4923 10.646 12.949 10.646 13.5178ZM6.9585 13.5099C6.9585 14.0788 7.4145 14.5355 7.9825 14.5435C8.5505 14.5435 9.0065 14.0788 9.0065 13.518C9.0065 12.9491 8.5505 12.4924 7.9825 12.4924C7.4225 12.4844 6.9585 12.9491 6.9585 13.5099ZM4.29622 14.5453C3.73622 14.5453 3.27222 14.0806 3.27222 13.5198C3.27222 12.9509 3.72822 12.4942 4.29622 12.4942C4.86422 12.4942 5.32022 12.9509 5.32022 13.5198C5.32022 14.0806 4.86422 14.5373 4.29622 14.5453Z" fill="white"/>
<circle cx="13.5" cy="5.5" r="4.28" fill="#FF0000" stroke="#2D1367" stroke-width="2.44"/>
</svg>
