<svg width="16" height="17" viewBox="0 0 16 17" fill="none" xmlns="http://www.w3.org/2000/svg">
<path d="M12.0002 5.27301C11.9602 5.26634 11.9135 5.26634 11.8735 5.27301C10.9535 5.23968 10.2202 4.48634 10.2202 3.55301C10.2202 2.59968 10.9869 1.83301 11.9402 1.83301C12.8935 1.83301 13.6602 2.60634 13.6602 3.55301C13.6535 4.48634 12.9202 5.23968 12.0002 5.27301Z" stroke="rgb(156 163 175)" stroke-width="1.5" stroke-linecap="round" stroke-linejoin="round"/>
<path d="M11.3135 10.1264C12.2268 10.2798 13.2335 10.1198 13.9401 9.64645C14.8801 9.01978 14.8801 7.99312 13.9401 7.36645C13.2268 6.89312 12.2068 6.73311 11.2935 6.89311" stroke="rgb(156 163 175)" stroke-width="1.5" stroke-linecap="round" stroke-linejoin="round"/>
<path d="M3.98031 5.27301C4.02031 5.26634 4.06698 5.26634 4.10698 5.27301C5.02698 5.23968 5.76031 4.48634 5.76031 3.55301C5.76031 2.59968 4.99365 1.83301 4.04031 1.83301C3.08698 1.83301 2.32031 2.60634 2.32031 3.55301C2.32698 4.48634 3.06031 5.23968 3.98031 5.27301Z" stroke="rgb(156 163 175)" stroke-width="1.5" stroke-linecap="round" stroke-linejoin="round"/>
<path d="M4.66663 10.1264C3.75329 10.2798 2.74663 10.1198 2.03996 9.64645C1.09996 9.01978 1.09996 7.99312 2.03996 7.36645C2.75329 6.89312 3.77329 6.73311 4.68663 6.89311" stroke="rgb(156 163 175)" stroke-width="1.5" stroke-linecap="round" stroke-linejoin="round"/>
<path d="M8.00021 10.2535C7.96021 10.2468 7.91355 10.2468 7.87355 10.2535C6.95355 10.2201 6.22021 9.46681 6.22021 8.53348C6.22021 7.58014 6.98688 6.81348 7.94021 6.81348C8.89355 6.81348 9.66021 7.58681 9.66021 8.53348C9.65355 9.46681 8.92021 10.2268 8.00021 10.2535Z" stroke="rgb(156 163 175)" stroke-width="1.5" stroke-linecap="round" stroke-linejoin="round"/>
<path d="M6.05998 12.3532C5.11998 12.9799 5.11998 14.0066 6.05998 14.6332C7.12665 15.3466 8.87331 15.3466 9.93998 14.6332C10.88 14.0066 10.88 12.9799 9.93998 12.3532C8.87998 11.6466 7.12665 11.6466 6.05998 12.3532Z" stroke="rgb(156 163 175)" stroke-width="1.5" stroke-linecap="round" stroke-linejoin="round"/>
</svg>
