<svg width="16" height="17" viewBox="0 0 16 17" fill="none" xmlns="http://www.w3.org/2000/svg">
<path d="M11.6867 5.68065C11.64 5.67398 11.5934 5.67398 11.5467 5.68065C10.5134 5.64732 9.69336 4.80065 9.69336 3.76065C9.69336 2.70065 10.5534 1.83398 11.62 1.83398C12.68 1.83398 13.5467 2.69398 13.5467 3.76065C13.54 4.80065 12.72 5.64732 11.6867 5.68065Z" fill="white"/>
<path d="M13.8597 10.3003C13.1131 10.8003 12.0664 10.9869 11.0997 10.8603C11.3531 10.3136 11.4864 9.70694 11.4931 9.06694C11.4931 8.40027 11.3464 7.76694 11.0664 7.2136C12.0531 7.08027 13.0997 7.26694 13.8531 7.76694C14.9064 8.46027 14.9064 9.60027 13.8597 10.3003Z" fill="white"/>
<path d="M4.29328 5.68065C4.33994 5.67398 4.38661 5.67398 4.43328 5.68065C5.46661 5.64732 6.28661 4.80065 6.28661 3.76065C6.28661 2.69398 5.42661 1.83398 4.35994 1.83398C3.29994 1.83398 2.43994 2.69398 2.43994 3.76065C2.43994 4.80065 3.25994 5.64732 4.29328 5.68065Z" fill="white"/>
<path d="M4.36675 9.06706C4.36675 9.71373 4.50675 10.3271 4.76008 10.8804C3.82008 10.9804 2.84008 10.7804 2.12008 10.3071C1.06674 9.60706 1.06674 8.46706 2.12008 7.76706C2.83341 7.28706 3.84008 7.09373 4.78675 7.20039C4.51341 7.76039 4.36675 8.39373 4.36675 9.06706Z" fill="white"/>
<path d="M8.0802 11.08C8.02686 11.0733 7.96686 11.0733 7.90686 11.08C6.68019 11.04 5.7002 10.0333 5.7002 8.79333C5.70686 7.52667 6.72686 6.5 8.0002 6.5C9.26686 6.5 10.2935 7.52667 10.2935 8.79333C10.2869 10.0333 9.31353 11.04 8.0802 11.08Z" fill="white"/>
<path d="M5.91369 12.4598C4.90702 13.1331 4.90702 14.2398 5.91369 14.9064C7.06036 15.6731 8.94036 15.6731 10.087 14.9064C11.0937 14.2331 11.0937 13.1264 10.087 12.4598C8.94703 11.6931 7.06702 11.6931 5.91369 12.4598Z" fill="white"/>
</svg>
