<svg width="21" height="23" viewBox="0 0 21 23" fill="none" xmlns="http://www.w3.org/2000/svg">
<path d="M20.2795 0.985897C20.3265 0.855273 20.338 0.712177 20.3126 0.574347C20.2872 0.436518 20.2259 0.310017 20.1365 0.210528C20.047 0.111039 19.9332 0.0429357 19.8093 0.0146623C19.6853 -0.0136111 19.5566 -0.000811645 19.4392 0.0514739L0.632721 8.41671C0.467099 8.49043 0.322978 8.61353 0.216219 8.77247C0.109461 8.9314 0.0442041 9.12 0.027631 9.31752C0.0110579 9.51503 0.0438112 9.71381 0.122286 9.89196C0.200761 10.0701 0.321914 10.2207 0.472413 10.3272L6.92998 14.8959L8.90927 18.3547C9.00275 18.5116 9.14787 18.6215 9.31343 18.6607C9.479 18.7 9.65181 18.6654 9.79472 18.5645C9.93762 18.4636 10.0392 18.3044 10.0777 18.121C10.1161 17.9377 10.0884 17.7449 10.0004 17.5841L8.22149 14.4761L17.9098 3.70291L15.4599 10.5141C15.4263 10.6022 15.4087 10.6968 15.4084 10.7924C15.408 10.8881 15.4248 10.9828 15.4578 11.0712C15.4908 11.1595 15.5394 11.2396 15.6006 11.3068C15.6618 11.374 15.7344 11.427 15.8143 11.4626C15.8941 11.4982 15.9795 11.5157 16.0655 11.5141C16.1515 11.5125 16.2364 11.4918 16.3151 11.4533C16.3939 11.4148 16.4649 11.3592 16.524 11.2897C16.5832 11.2203 16.6293 11.1384 16.6596 11.0489L20.2795 0.985897ZM16.9958 2.68655L7.30748 13.4597L1.69799 9.49058L16.9958 2.68655Z" fill="#090415" fill-opacity="0.75"/>
<path d="M20.3231 17.969C20.3231 19.3034 19.8464 20.5832 18.9978 21.5268C18.1492 22.4704 16.9983 23.0005 15.7983 23.0005C14.5982 23.0005 13.4473 22.4704 12.5987 21.5268C11.7502 20.5832 11.2734 19.3034 11.2734 17.969C11.2734 16.6346 11.7502 15.3548 12.5987 14.4112C13.4473 13.4676 14.5982 12.9375 15.7983 12.9375C16.9983 12.9375 18.1492 13.4676 18.9978 14.4112C19.8464 15.3548 20.3231 16.6346 20.3231 17.969ZM17.7465 15.5553C17.6737 15.5068 17.593 15.4747 17.509 15.4608C17.425 15.447 17.3394 15.4517 17.257 15.4747C17.1747 15.4976 17.0972 15.5384 17.029 15.5947C16.9608 15.6509 16.9033 15.7216 16.8597 15.8026L15.3471 18.6059L14.6399 17.8195C14.5185 17.6845 14.3539 17.6087 14.1823 17.6087C14.0106 17.6087 13.846 17.6845 13.7246 17.8195C13.6032 17.9545 13.535 18.1375 13.535 18.3284C13.535 18.5193 13.6032 18.7023 13.7246 18.8373L14.7252 19.9485C14.8294 20.0646 14.956 20.1527 15.0953 20.2061C15.2347 20.2596 15.3832 20.277 15.5296 20.2571C15.6759 20.2371 15.8162 20.1803 15.9398 20.091C16.0635 20.0016 16.1671 19.8821 16.243 19.7415L17.9689 16.5415C18.0125 16.4605 18.0414 16.3708 18.0538 16.2774C18.0663 16.184 18.0621 16.0888 18.0414 15.9972C18.0208 15.9056 17.9841 15.8194 17.9335 15.7436C17.8829 15.6678 17.8194 15.6038 17.7465 15.5553Z" fill="#090415" fill-opacity="0.75"/>
</svg>
