<svg width="16" height="19" viewBox="0 0 16 19" fill="none" xmlns="http://www.w3.org/2000/svg">
<path d="M8.0062 9.62374C10.3288 9.62374 12.2117 7.74092 12.2117 5.41833C12.2117 3.09574 10.3288 1.21289 8.0062 1.21289C5.6836 1.21289 3.80078 3.09574 3.80078 5.41833C3.80078 7.74092 5.6836 9.62374 8.0062 9.62374Z" stroke="#C4C4C4" stroke-width="1.32024" stroke-linecap="round" stroke-linejoin="round"/>
<path fill-rule="evenodd" clip-rule="evenodd" d="M1.33595 15.4729C1.33507 15.1781 1.40105 14.8859 1.52956 14.6192C1.93179 13.8138 3.0681 13.3869 4.01075 13.1933C4.69023 13.0481 5.37941 12.9513 6.07298 12.9038C7.35713 12.7902 8.64833 12.7902 9.93248 12.9038C10.6252 12.9522 11.3143 13.049 11.9947 13.1933C12.9373 13.3869 14.0727 13.7733 14.4759 14.6192C14.7337 15.1622 14.7337 15.7924 14.4759 16.3355C14.0727 17.1813 12.9373 17.5677 11.9947 17.7534C11.3152 17.9039 10.6261 18.0043 9.93248 18.0509C8.88686 18.1398 7.8377 18.1557 6.79031 18.0993C6.54827 18.0993 6.31502 18.0993 6.07298 18.0509C5.38205 18.0043 4.69461 17.9048 4.01865 17.7534C3.06808 17.5677 1.94059 17.1813 1.52956 16.3355C1.40193 16.0662 1.33595 15.7713 1.33595 15.4729Z" stroke="#C4C4C4" stroke-width="1.32024" stroke-linecap="round" stroke-linejoin="round"/>
</svg>
