<svg width="66" height="73" viewBox="0 0 66 73" fill="none" xmlns="http://www.w3.org/2000/svg">
<path d="M32.9952 0.669922C30.8942 0.669922 28.7826 1.13135 27.1903 2.0555L5.81318 14.3956C2.61454 16.2423 0 20.7705 0 24.461V49.145C0 52.8364 2.61454 57.366 5.81332 59.2118L27.1903 71.5544C28.7826 72.4758 30.8941 72.9359 32.9952 72.9359C35.1058 72.9359 37.216 72.4758 38.8085 71.5544L60.1855 59.2118C63.3795 57.366 66 52.8364 66 49.145V24.4608C66 20.7703 63.3795 16.242 60.1855 14.3955L38.8084 2.05565C37.216 1.13135 35.1058 0.669922 32.9952 0.669922ZM47.4468 21.7047C48.0626 21.7047 48.6779 21.9381 49.1443 22.4059L51.7445 25.0033C52.6773 25.9398 52.6773 27.4711 51.7445 28.4068L28.9525 51.2011C28.0104 52.1359 26.4847 52.1359 25.552 51.2011L15.5073 41.1607C14.5745 40.226 14.7724 38.4977 15.5073 37.7601L18.1087 35.1626C19.0416 34.2261 20.5768 34.2261 21.5094 35.1626L25.552 39.2022C26.4847 40.1368 28.0104 40.1368 28.9525 39.2022L45.7421 22.4059C46.195 21.9558 46.808 21.7036 47.4466 21.7047H47.4468Z" fill="#5B26CF"/>
<circle cx="33.037" cy="36.8026" r="26.8417" fill="#5B26CF"/>
<path d="M32.4198 21.353C26.2293 21.7266 22.9739 25.2488 22.707 31.5995H28.951C29.0043 29.4115 30.2852 27.7571 32.5266 27.4902C34.768 27.2768 36.9027 27.8104 37.5431 29.3047C38.2369 30.9591 36.6892 32.8803 35.9421 33.6808C34.5545 35.1751 32.3131 36.2958 31.139 37.8968C30.0183 39.4978 29.8049 41.5792 29.6981 44.1408H35.1949C35.2483 42.4864 35.355 40.9388 36.1022 39.9248C37.3296 38.2704 39.1441 37.5233 40.6384 36.1891C42.0793 34.9616 43.6269 33.4674 43.8404 31.1192C44.7476 24.2349 39.0907 20.9261 32.4198 21.353Z" fill="white"/>
<path d="M32.5782 53.3193C34.494 53.3193 36.0471 51.7901 36.0471 49.9038C36.0471 48.0174 34.494 46.4883 32.5782 46.4883C30.6624 46.4883 29.1094 48.0174 29.1094 49.9038C29.1094 51.7901 30.6624 53.3193 32.5782 53.3193Z" fill="white"/>
</svg>
