<svg width="13" height="13" viewBox="0 0 13 13" fill="none" xmlns="http://www.w3.org/2000/svg">
<path d="M6.27646 0.0918027C5.11985 0.0902174 3.98599 0.413132 3.00376 1.02384C2.02153 1.63455 1.23032 2.50856 0.720061 3.54654C0.209803 4.58451 0.00096494 5.74481 0.117282 6.89556C0.233599 8.04631 0.670407 9.14134 1.37806 10.0562C2.08571 10.9711 3.03581 11.6691 4.12039 12.0709C5.20497 12.4727 6.38051 12.5622 7.51341 12.3291C8.64631 12.0961 9.69112 11.55 10.5291 10.7528C11.3671 9.95555 11.9646 8.93925 12.2537 7.81936H10.6456C10.3623 8.62086 9.86398 9.32903 9.20527 9.86644C8.54656 10.4038 7.75278 10.7498 6.9107 10.8665C6.06863 10.9832 5.21068 10.8661 4.43066 10.5281C3.65063 10.1901 2.97856 9.64409 2.4879 8.94986C1.99725 8.25562 1.70691 7.43985 1.64863 6.59173C1.59035 5.74361 1.76636 4.89579 2.15743 4.14096C2.5485 3.38613 3.13957 2.75335 3.86602 2.3118C4.59248 1.87024 5.42634 1.63691 6.27646 1.63732C6.88453 1.6382 7.48631 1.76031 8.04664 1.99648C8.60696 2.23266 9.11458 2.57817 9.53981 3.01282L7.05308 5.5011H12.4624V0.0918027L10.6456 1.90778C10.0732 1.33183 9.39238 0.874854 8.64251 0.563184C7.89265 0.251513 7.08852 0.0913093 6.27646 0.0918027Z" fill="#090415" fill-opacity="0.85"/>
</svg>
