<svg width="17" height="18" viewBox="0 0 17 18" fill="none" xmlns="http://www.w3.org/2000/svg">
<rect width="17" height="18" rx="4" transform="matrix(-1 0 0 1 17 0)" fill="#090415" fill-opacity="0.08"/>
<path d="M4.27856 7.09104L7.13856 4.4691C7.65977 3.99135 8.50031 4.36104 8.50031 5.06791V6.4711C13.7816 6.4711 12.9691 12.9711 12.9691 12.9711C12.9691 12.9711 11.3441 8.9086 8.50031 8.9086V10.3114C8.50031 11.0183 7.65977 11.3879 7.13896 10.9106L4.27896 8.28866C4.19597 8.21255 4.1297 8.12001 4.08437 8.01693C4.03903 7.91384 4.01562 7.80246 4.01562 7.68985C4.01562 7.57724 4.03903 7.46586 4.08437 7.36277C4.1297 7.25969 4.19597 7.16715 4.27896 7.09104H4.27856Z" stroke="#090415" stroke-opacity="0.7" stroke-width="0.8125" stroke-linecap="round" stroke-linejoin="round"/>
</svg>
