<svg width="40" height="40" viewBox="0 0 40 40" fill="none" xmlns="http://www.w3.org/2000/svg">
<circle cx="20" cy="20" r="20" fill="#FFF5ED"/>
<path opacity="0.4" d="M30.9399 17.1521C28.2538 12.9312 24.3236 10.501 20.1841 10.501C18.1143 10.501 16.1027 11.1056 14.2655 12.2335C12.4282 13.3731 10.7771 15.0359 9.42825 17.1521C8.26545 18.9777 8.26545 21.9428 9.42825 23.7684C12.1143 28.001 16.0445 30.4196 20.1841 30.4196C22.2538 30.4196 24.2655 29.8149 26.1027 28.687C27.9399 27.5475 29.591 25.8847 30.9399 23.7684C32.1027 21.9545 32.1027 18.9777 30.9399 17.1521ZM20.1841 25.1638C17.5794 25.1638 15.4864 23.0591 15.4864 20.4661C15.4864 17.8731 17.5794 15.7684 20.1841 15.7684C22.7887 15.7684 24.8817 17.8731 24.8817 20.4661C24.8817 23.0591 22.7887 25.1638 20.1841 25.1638Z" fill="#DE7C32"/>
<path d="M20.1841 17.1396C18.3585 17.1396 16.8701 18.628 16.8701 20.4652C16.8701 22.2908 18.3585 23.7792 20.1841 23.7792C22.0097 23.7792 23.5097 22.2908 23.5097 20.4652C23.5097 18.6396 22.0097 17.1396 20.1841 17.1396Z" fill="#DE7C32"/>
</svg>
