<svg width="22" height="22" viewBox="0 0 22 22" fill="none" xmlns="http://www.w3.org/2000/svg">
<path d="M1.83084 0.538232L21.1254 9.76611C21.3204 9.85923 21.4851 10.0057 21.6004 10.1885C21.7157 10.3713 21.7768 10.583 21.7768 10.7991C21.7768 11.0152 21.7157 11.2269 21.6004 11.4097C21.4851 11.5925 21.3204 11.7389 21.1254 11.832L1.83084 21.0599C1.63304 21.1546 1.4122 21.1906 1.19457 21.1634C0.976943 21.1362 0.771702 21.0471 0.603267 20.9066C0.434832 20.7662 0.310293 20.5803 0.244468 20.3711C0.178643 20.1619 0.174304 19.9382 0.231965 19.7266L2.16234 12.6498C2.18597 12.563 2.2346 12.4852 2.30218 12.4259C2.36976 12.3666 2.4533 12.3286 2.54237 12.3164L11.892 11.0463C11.9311 11.0408 11.9681 11.0252 11.9994 11.0011C12.0307 10.977 12.0552 10.9453 12.0706 10.9089L12.0871 10.8522C12.0943 10.801 12.084 10.749 12.0579 10.7044C12.0318 10.6599 11.9914 10.6255 11.9433 10.6068L11.893 10.593L2.55244 9.3229C2.46354 9.31061 2.3802 9.27246 2.3128 9.2132C2.24539 9.15393 2.19689 9.07617 2.17333 8.98957L0.231965 1.87246C0.17407 1.6608 0.178233 1.43696 0.243959 1.2276C0.309685 1.01824 0.434203 0.832181 0.602683 0.691588C0.771163 0.550995 0.976503 0.461791 1.19425 0.434603C1.41199 0.407414 1.63296 0.443385 1.83084 0.538232Z" fill="#5B26CF"/>
</svg>
