<svg width="21" height="22" viewBox="0 0 21 22" fill="none" xmlns="http://www.w3.org/2000/svg">
<path fill-rule="evenodd" clip-rule="evenodd" d="M19.2383 6.56236L18.5901 5.43866C18.0428 4.48766 16.8285 4.15886 15.8765 4.70511C15.4229 4.97147 14.8818 5.04742 14.373 4.91528C13.8632 4.78314 13.4283 4.45437 13.1619 3.99969C12.9902 3.71147 12.8987 3.38267 12.8956 3.04764C12.9101 2.50972 12.7072 1.98844 12.3327 1.60346C11.9581 1.21745 11.4431 1 10.9051 1H9.59933C9.07285 1 8.56718 1.21015 8.19573 1.58368C7.82428 1.95721 7.6162 2.46394 7.61932 2.99042C7.60371 4.07876 6.71616 4.95275 5.62887 4.95275C5.29279 4.94858 4.96402 4.85703 4.67581 4.68536C3.72377 4.14015 2.50953 4.46788 1.96224 5.41888L1.26616 6.56236C0.71887 7.51127 1.04247 8.72551 1.99035 9.27592C2.60631 9.63176 2.98608 10.2894 2.98608 11C2.98608 11.7117 2.60631 12.3682 1.99035 12.724C1.04455 13.2713 0.71991 14.4814 1.26616 15.4282L1.92373 16.5624C2.18073 17.0254 2.61151 17.3667 3.1203 17.5113C3.63013 17.657 4.17637 17.5925 4.63834 17.3334C5.09198 17.0681 5.63303 16.9963 6.14078 17.1315C6.64854 17.2678 7.08137 17.6008 7.34253 18.0575C7.51421 18.3457 7.60578 18.6745 7.60891 19.0096C7.60891 20.1094 8.50059 21 9.59933 21H10.9051C11.9997 21 12.8904 20.1146 12.8956 19.0189C12.8924 18.4904 13.1016 17.9826 13.4751 17.6091C13.8486 17.2345 14.3564 17.0264 14.886 17.0285C15.22 17.0379 15.5477 17.1294 15.838 17.2949C16.788 17.8422 18.0012 17.5186 18.5526 16.5717L19.2383 15.4282C19.5036 14.9725 19.5765 14.4305 19.4402 13.9206C19.3049 13.4118 18.9709 12.9769 18.5141 12.7147C18.0573 12.4514 17.7234 12.0176 17.5881 11.5078C17.4518 10.9979 17.5246 10.4558 17.79 10.0001C17.9627 9.69837 18.2124 9.44864 18.5141 9.27592C19.4557 8.72551 19.7783 7.51856 19.2383 6.57172V6.56236Z" stroke="#C4C4C4" stroke-width="1.5" stroke-linecap="round" stroke-linejoin="round"/>
<path d="M10.2585 13.7425C11.7733 13.7425 13.0013 12.5145 13.0013 10.9997C13.0013 9.48487 11.7733 8.25684 10.2585 8.25684C8.74362 8.25684 7.51562 9.48487 7.51562 10.9997C7.51562 12.5145 8.74362 13.7425 10.2585 13.7425Z" stroke="#C4C4C4" stroke-width="1.5" stroke-linecap="round" stroke-linejoin="round"/>
</svg>
