<svg width="18" height="20" viewBox="0 0 18 20" fill="none" xmlns="http://www.w3.org/2000/svg">
<path d="M6 3.0005C5.73478 3.0005 5.48043 3.10585 5.29289 3.29339C5.10536 3.48093 5 3.73528 5 4.0005C5 4.26571 5.10536 4.52007 5.29289 4.7076C5.48043 4.89514 5.73478 5.0005 6 5.0005C6.26522 5.0005 6.51957 4.89514 6.70711 4.7076C6.89464 4.52007 7 4.26571 7 4.0005C7 3.73528 6.89464 3.48093 6.70711 3.29339C6.51957 3.10585 6.26522 3.0005 6 3.0005ZM3.17 3.0005C3.3766 2.41496 3.75974 1.90793 4.2666 1.54929C4.77346 1.19064 5.37909 0.998047 6 0.998047C6.62091 0.998047 7.22654 1.19064 7.7334 1.54929C8.24026 1.90793 8.6234 2.41496 8.83 3.0005H16C16.2652 3.0005 16.5196 3.10585 16.7071 3.29339C16.8946 3.48093 17 3.73528 17 4.0005C17 4.26571 16.8946 4.52007 16.7071 4.7076C16.5196 4.89514 16.2652 5.0005 16 5.0005H8.83C8.6234 5.58603 8.24026 6.09306 7.7334 6.45171C7.22654 6.81035 6.62091 7.00295 6 7.00295C5.37909 7.00295 4.77346 6.81035 4.2666 6.45171C3.75974 6.09306 3.3766 5.58603 3.17 5.0005H2C1.73478 5.0005 1.48043 4.89514 1.29289 4.7076C1.10536 4.52007 1 4.26571 1 4.0005C1 3.73528 1.10536 3.48093 1.29289 3.29339C1.48043 3.10585 1.73478 3.0005 2 3.0005H3.17ZM12 9.0005C11.7348 9.0005 11.4804 9.10585 11.2929 9.29339C11.1054 9.48093 11 9.73528 11 10.0005C11 10.2657 11.1054 10.5201 11.2929 10.7076C11.4804 10.8951 11.7348 11.0005 12 11.0005C12.2652 11.0005 12.5196 10.8951 12.7071 10.7076C12.8946 10.5201 13 10.2657 13 10.0005C13 9.73528 12.8946 9.48093 12.7071 9.29339C12.5196 9.10585 12.2652 9.0005 12 9.0005ZM9.17 9.0005C9.3766 8.41496 9.75974 7.90793 10.2666 7.54929C10.7735 7.19064 11.3791 6.99805 12 6.99805C12.6209 6.99805 13.2265 7.19064 13.7334 7.54929C14.2403 7.90793 14.6234 8.41496 14.83 9.0005H16C16.2652 9.0005 16.5196 9.10585 16.7071 9.29339C16.8946 9.48093 17 9.73528 17 10.0005C17 10.2657 16.8946 10.5201 16.7071 10.7076C16.5196 10.8951 16.2652 11.0005 16 11.0005H14.83C14.6234 11.586 14.2403 12.0931 13.7334 12.4517C13.2265 12.8104 12.6209 13.0029 12 13.0029C11.3791 13.0029 10.7735 12.8104 10.2666 12.4517C9.75974 12.0931 9.3766 11.586 9.17 11.0005H2C1.73478 11.0005 1.48043 10.8951 1.29289 10.7076C1.10536 10.5201 1 10.2657 1 10.0005C1 9.73528 1.10536 9.48093 1.29289 9.29339C1.48043 9.10585 1.73478 9.0005 2 9.0005H9.17ZM6 15.0005C5.73478 15.0005 5.48043 15.1059 5.29289 15.2934C5.10536 15.4809 5 15.7353 5 16.0005C5 16.2657 5.10536 16.5201 5.29289 16.7076C5.48043 16.8951 5.73478 17.0005 6 17.0005C6.26522 17.0005 6.51957 16.8951 6.70711 16.7076C6.89464 16.5201 7 16.2657 7 16.0005C7 15.7353 6.89464 15.4809 6.70711 15.2934C6.51957 15.1059 6.26522 15.0005 6 15.0005ZM3.17 15.0005C3.3766 14.415 3.75974 13.9079 4.2666 13.5493C4.77346 13.1906 5.37909 12.998 6 12.998C6.62091 12.998 7.22654 13.1906 7.7334 13.5493C8.24026 13.9079 8.6234 14.415 8.83 15.0005H16C16.2652 15.0005 16.5196 15.1059 16.7071 15.2934C16.8946 15.4809 17 15.7353 17 16.0005C17 16.2657 16.8946 16.5201 16.7071 16.7076C16.5196 16.8951 16.2652 17.0005 16 17.0005H8.83C8.6234 17.586 8.24026 18.0931 7.7334 18.4517C7.22654 18.8104 6.62091 19.0029 6 19.0029C5.37909 19.0029 4.77346 18.8104 4.2666 18.4517C3.75974 18.0931 3.3766 17.586 3.17 17.0005H2C1.73478 17.0005 1.48043 16.8951 1.29289 16.7076C1.10536 16.5201 1 16.2657 1 16.0005C1 15.7353 1.10536 15.4809 1.29289 15.2934C1.48043 15.1059 1.73478 15.0005 2 15.0005H3.17Z" fill="white" stroke="#5B26CF" stroke-width="0.7"/>
</svg>
