<svg width="18" height="20" viewBox="0 0 18 20" fill="none" xmlns="http://www.w3.org/2000/svg">
<path fill-rule="evenodd" clip-rule="evenodd" d="M16.9021 11.2924C17.2384 11.471 17.4979 11.7532 17.6805 12.0353C18.0361 12.6184 18.0073 13.3331 17.6613 13.9632L16.9886 15.0917C16.633 15.6935 15.9698 16.0697 15.2875 16.0697C14.9511 16.0697 14.5763 15.9756 14.2688 15.7876C14.0189 15.6277 13.7306 15.5713 13.423 15.5713C12.4716 15.5713 11.6739 16.3518 11.645 17.2828C11.645 18.3643 10.7609 19.2107 9.65564 19.2107H8.34859C7.23375 19.2107 6.34957 18.3643 6.34957 17.2828C6.33035 16.3518 5.53266 15.5713 4.58121 15.5713C4.26406 15.5713 3.97574 15.6277 3.73547 15.7876C3.42793 15.9756 3.0435 16.0697 2.71674 16.0697C2.02477 16.0697 1.36164 15.6935 1.00604 15.0917L0.342907 13.9632C-0.012687 13.3519 -0.0319083 12.6184 0.323686 12.0353C0.477457 11.7532 0.765776 11.471 1.09254 11.2924C1.36164 11.1607 1.53463 10.9444 1.69801 10.6905C2.17854 9.88174 1.89022 8.81907 1.07332 8.33946C0.121862 7.80342 -0.185679 6.60909 0.362129 5.67808L1.00604 4.56839C1.56346 3.63738 2.75518 3.30823 3.71625 3.85367C4.55238 4.30507 5.63838 4.00414 6.12852 3.20479C6.28229 2.94147 6.36879 2.65934 6.34957 2.37722C6.33035 2.01046 6.43606 1.6625 6.61867 1.38038C6.97426 0.797319 7.61818 0.421152 8.31975 0.402344H9.67486C10.386 0.402344 11.03 0.797319 11.3856 1.38038C11.5585 1.6625 11.6739 2.01046 11.645 2.37722C11.6258 2.65934 11.7123 2.94147 11.8661 3.20479C12.3562 4.00414 13.4422 4.30507 14.288 3.85367C15.2394 3.30823 16.4408 3.63738 16.9886 4.56839L17.6325 5.67808C18.1899 6.60909 17.8824 7.80342 16.9213 8.33946C16.1044 8.81907 15.8161 9.88174 16.3062 10.6905C16.46 10.9444 16.633 11.1607 16.9021 11.2924ZM6.28125 9.81372C6.28125 11.2902 7.5018 12.4657 9.01068 12.4657C10.5196 12.4657 11.7113 11.2902 11.7113 9.81372C11.7113 8.33727 10.5196 7.15234 9.01068 7.15234C7.5018 7.15234 6.28125 8.33727 6.28125 9.81372Z" fill="white"/>
</svg>
