<svg width="27" height="28" viewBox="0 0 27 28" fill="none" xmlns="http://www.w3.org/2000/svg">
<path fill-rule="evenodd" clip-rule="evenodd" d="M25.2169 16.157C25.705 16.4163 26.0816 16.8257 26.3465 17.2351C26.8626 18.0812 26.8207 19.1184 26.3187 20.0328L25.3424 21.6704C24.8263 22.5439 23.864 23.0898 22.8738 23.0898C22.3856 23.0898 21.8417 22.9533 21.3954 22.6803C21.0328 22.4483 20.6144 22.3665 20.1681 22.3665C18.7873 22.3665 17.6298 23.4992 17.5879 24.8502C17.5879 26.4197 16.3048 27.6479 14.7009 27.6479H12.8041C11.1863 27.6479 9.9032 26.4197 9.9032 24.8502C9.87531 23.4992 8.71772 22.3665 7.33698 22.3665C6.87673 22.3665 6.45832 22.4483 6.10965 22.6803C5.66335 22.9533 5.10548 23.0898 4.63129 23.0898C3.62711 23.0898 2.66478 22.5439 2.14874 21.6704L1.18641 20.0328C0.670377 19.1457 0.642484 18.0812 1.15852 17.2351C1.38167 16.8257 1.80007 16.4163 2.27427 16.157C2.66478 15.9659 2.91582 15.652 3.15292 15.2836C3.85026 14.1099 3.43186 12.5678 2.24637 11.8718C0.865633 11.0939 0.419334 9.36067 1.2143 8.0096L2.14874 6.39923C2.95766 5.04815 4.68707 4.5705 6.08176 5.36204C7.29514 6.01711 8.87113 5.58039 9.58242 4.42038C9.80557 4.03826 9.93109 3.62884 9.9032 3.21943C9.87531 2.68719 10.0287 2.18224 10.2937 1.77282C10.8097 0.926698 11.7442 0.38081 12.7623 0.353516H14.7288C15.7609 0.353516 16.6953 0.926698 17.2114 1.77282C17.4624 2.18224 17.6298 2.68719 17.5879 3.21943C17.56 3.62884 17.6855 4.03826 17.9087 4.42038C18.62 5.58039 20.196 6.01711 21.4233 5.36204C22.804 4.5705 24.5474 5.04815 25.3424 6.39923L26.2768 8.0096C27.0857 9.36067 26.6394 11.0939 25.2447 11.8718C24.0593 12.5678 23.6409 14.1099 24.3521 15.2836C24.5753 15.652 24.8263 15.9659 25.2169 16.157ZM9.80653 14.0142C9.80653 16.1568 11.5778 17.8627 13.7674 17.8627C15.9571 17.8627 17.6865 16.1568 17.6865 14.0142C17.6865 11.8716 15.9571 10.152 13.7674 10.152C11.5778 10.152 9.80653 11.8716 9.80653 14.0142Z" fill="#5B26CF"/>
</svg>
