<svg width="30" height="30" viewBox="0 0 30 30" fill="none" xmlns="http://www.w3.org/2000/svg">
<rect y="0.000976562" width="29.9988" height="29.9988" rx="10.1" fill="#F5F1FF"/>
<path fill-rule="evenodd" clip-rule="evenodd" d="M14.7958 22.4346C14.8789 22.478 14.9717 22.5001 15.0646 22.4994C15.1575 22.4986 15.2496 22.4758 15.3334 22.4317L18.0092 21.0013C18.768 20.5968 19.3622 20.1445 19.8258 19.618C20.8337 18.4707 21.3842 17.0065 21.3743 15.4967L21.3426 10.5164C21.3396 9.94273 20.9629 9.43088 20.4056 9.24482L15.4278 7.57467C15.128 7.47318 14.7996 7.47539 14.5051 7.57982L9.54615 9.30954C8.99196 9.50295 8.622 10.0185 8.62502 10.5928L8.65673 15.5695C8.66654 17.0815 9.23583 18.5391 10.2604 19.6746C10.7285 20.1938 11.328 20.6395 12.0951 21.0373L14.7958 22.4346ZM14.0885 16.5813C14.2002 16.6886 14.3452 16.7416 14.4902 16.7401C14.6351 16.7394 14.7793 16.685 14.8896 16.5761L17.8138 13.6933C18.0335 13.4763 18.0312 13.1277 17.8092 12.9137C17.5865 12.6997 17.2279 12.7012 17.0082 12.9181L14.4819 15.4083L13.4475 14.414C13.2247 14.2 12.8669 14.2022 12.6464 14.4191C12.4267 14.6361 12.429 14.9847 12.6517 15.1987L14.0885 16.5813Z" fill="#5B26CF"/>
<rect width="29.9988" height="29.9988" rx="10.1" fill="#F5F1FF"/>
<path d="M18.4948 6.33984C16.3381 6.33984 14.5877 8.09024 14.5877 10.247C14.5877 12.4037 16.3381 14.1541 18.4948 14.1541C20.6516 14.1541 22.402 12.4037 22.402 10.247C22.402 8.09024 20.6516 6.33984 18.4948 6.33984ZM18.4948 12.5913C17.1977 12.5913 16.1506 11.5441 16.1506 10.247C16.1506 8.94981 17.1977 7.9027 18.4948 7.9027C19.792 7.9027 20.8391 8.94981 20.8391 10.247C20.8391 11.5441 19.792 12.5913 18.4948 12.5913ZM20.8391 17.2798H19.2763C19.2763 16.3421 18.6902 15.4982 17.815 15.17L13.0014 13.3727H6.77344V21.9684H11.462V20.8431L16.932 22.3591L23.1834 20.4055V19.6241C23.1834 18.3269 22.1363 17.2798 20.8391 17.2798ZM9.89915 20.4055H8.33629V14.9355H9.89915V20.4055ZM16.9085 20.7259L11.462 19.2334V14.9355H12.7201L17.268 16.6312C17.5337 16.7328 17.7134 16.9907 17.7134 17.2798C17.7134 17.2798 16.1506 17.2408 15.9161 17.1626L14.0563 16.5453L13.564 18.03L15.4238 18.6473C15.8224 18.7802 16.2365 18.8427 16.6585 18.8427H20.8391C21.1439 18.8427 21.4174 19.0302 21.5424 19.2881L16.9085 20.7259Z" fill="#5B26CF"/>
</svg>
