<svg width="24" height="19" viewBox="0 0 24 19" fill="none" xmlns="http://www.w3.org/2000/svg">
<path d="M19.7 10.6C19.3883 10.6 19.1273 10.4944 18.9168 10.2832C18.7056 10.0728 18.6 9.81169 18.6 9.50003C18.6 9.18836 18.7056 8.92693 18.9168 8.71573C19.1273 8.50526 19.3883 8.40003 19.7 8.40003H21.9C22.2117 8.40003 22.4727 8.50526 22.6832 8.71573C22.8944 8.92693 23 9.18836 23 9.50003C23 9.81169 22.8944 10.0728 22.6832 10.2832C22.4727 10.4944 22.2117 10.6 21.9 10.6H19.7ZM19.04 17.64L17.28 16.32C17.0233 16.1367 16.8767 15.8984 16.84 15.605C16.8033 15.3117 16.8767 15.0367 17.06 14.78C17.2433 14.5234 17.4817 14.3767 17.775 14.34C18.0683 14.3034 18.3433 14.3767 18.6 14.56L20.36 15.88C20.6167 16.0634 20.7633 16.3017 20.8 16.595C20.8367 16.8884 20.7633 17.1634 20.58 17.42C20.3967 17.6767 20.1583 17.8234 19.865 17.86C19.5717 17.8967 19.2967 17.8234 19.04 17.64ZM18.6 4.44003C18.3433 4.62336 18.0683 4.69669 17.775 4.66003C17.4817 4.62336 17.2433 4.47669 17.06 4.22003C16.8767 3.96336 16.8033 3.68836 16.84 3.39503C16.8767 3.10169 17.0233 2.86336 17.28 2.68003L19.04 1.36003C19.2967 1.17669 19.5717 1.10336 19.865 1.14003C20.1583 1.17669 20.3967 1.32336 20.58 1.58003C20.7633 1.83669 20.8367 2.11169 20.8 2.40503C20.7633 2.69836 20.6167 2.93669 20.36 3.12003L18.6 4.44003ZM4.3 17.2V12.8H3.2C2.595 12.8 2.07727 12.5844 1.6468 12.1532C1.2156 11.7228 1 11.205 1 10.6V8.40003C1 7.79503 1.2156 7.27693 1.6468 6.84573C2.07727 6.41526 2.595 6.20003 3.2 6.20003H7.6L11.4225 3.89003C11.7892 3.67003 12.1606 3.67003 12.5368 3.89003C12.9123 4.11003 13.1 4.43086 13.1 4.85253V14.1475C13.1 14.5692 12.9123 14.89 12.5368 15.11C12.1606 15.33 11.7892 15.33 11.4225 15.11L7.6 12.8H6.5V17.2H4.3ZM14.2 13.185V5.81503C14.695 6.25503 15.0939 6.79146 15.3968 7.42433C15.6989 8.05646 15.85 8.74836 15.85 9.50003C15.85 10.2517 15.6989 10.9436 15.3968 11.5757C15.0939 12.2086 14.695 12.745 14.2 13.185ZM10.9 12.195V6.80503L8.205 8.40003H3.2V10.6H8.205L10.9 12.195Z" fill="white" stroke="#2E1368" stroke-width="0.6"/>
</svg>
