<svg width="22" height="17" viewBox="0 0 22 17" fill="none" xmlns="http://www.w3.org/2000/svg">
<path d="M17.8751 9.55148C17.5772 9.55148 17.3277 9.45054 17.1265 9.24865C16.9246 9.04747 16.8237 8.79792 16.8237 8.5C16.8237 8.20208 16.9246 7.95218 17.1265 7.7503C17.3277 7.54911 17.5772 7.44852 17.8751 7.44852H19.9781C20.276 7.44852 20.5256 7.54911 20.7267 7.7503C20.9286 7.95218 21.0296 8.20208 21.0296 8.5C21.0296 8.79792 20.9286 9.04747 20.7267 9.24865C20.5256 9.45054 20.276 9.55148 19.9781 9.55148H17.8751ZM17.2442 16.2809L15.5619 15.0192C15.3165 14.8439 15.1763 14.6161 15.1413 14.3357C15.1062 14.0553 15.1763 13.7924 15.3516 13.5471C15.5268 13.3018 15.7547 13.1616 16.035 13.1265C16.3154 13.0915 16.5783 13.1616 16.8237 13.3368L18.506 14.5986C18.7514 14.7738 18.8916 15.0016 18.9266 15.282C18.9617 15.5624 18.8916 15.8253 18.7163 16.0706C18.5411 16.316 18.3133 16.4562 18.0329 16.4912C17.7525 16.5263 17.4896 16.4562 17.2442 16.2809ZM16.8237 3.6632C16.5783 3.83844 16.3154 3.90854 16.035 3.87349C15.7547 3.83844 15.5268 3.69825 15.3516 3.4529C15.1763 3.20756 15.1062 2.94469 15.1413 2.66429C15.1763 2.3839 15.3165 2.15608 15.5619 1.98083L17.2442 0.719058C17.4896 0.543811 17.7525 0.473713 18.0329 0.508762C18.3133 0.543812 18.5411 0.684009 18.7163 0.929354C18.8916 1.1747 18.9617 1.43757 18.9266 1.71796C18.8916 1.99836 18.7514 2.22618 18.506 2.40142L16.8237 3.6632ZM3.15444 15.8604V11.6544H2.10296C1.52464 11.6544 1.02975 11.4483 0.61827 11.0362C0.20609 10.6247 0 10.1298 0 9.55148V7.44852C0 6.87021 0.20609 6.37496 0.61827 5.96278C1.02975 5.5513 1.52464 5.34556 2.10296 5.34556H6.30887L9.96276 3.13746C10.3133 2.92716 10.6683 2.92716 11.0279 3.13746C11.3868 3.34775 11.5663 3.65444 11.5663 4.0575V12.9425C11.5663 13.3456 11.3868 13.6522 11.0279 13.8625C10.6683 14.0728 10.3133 14.0728 9.96276 13.8625L6.30887 11.6544H5.25739V15.8604H3.15444ZM12.6177 12.0225V4.97755C13.0909 5.39814 13.4722 5.91091 13.7618 6.51586C14.0506 7.12011 14.195 7.78149 14.195 8.5C14.195 9.21851 14.0506 9.87989 13.7618 10.4841C13.4722 11.0891 13.0909 11.6019 12.6177 12.0225Z" fill="white"/>
</svg>
