<svg width="43" height="43" viewBox="0 0 43 43" fill="none" xmlns="http://www.w3.org/2000/svg">
<circle cx="21.5" cy="21.5" r="21.5" fill="#F2ECFF"/>
<path d="M32.5625 34.5H9.4375C8.925 34.5 8.5 34.075 8.5 33.5625C8.5 33.05 8.925 32.625 9.4375 32.625H32.5625C33.075 32.625 33.5 33.05 33.5 33.5625C33.5 34.075 33.075 34.5 32.5625 34.5Z" fill="#5B26CF"/>
<path opacity="0.4" d="M31.7376 24.1249L22.7001 33.1624C20.9251 34.9374 18.0626 34.9374 16.3001 33.1749L10.5376 27.4124L25.9876 11.9624L31.7501 17.7249C33.5126 19.4874 33.5126 22.3499 31.7376 24.1249Z" fill="#5B26CF"/>
<path d="M25.9872 11.9627L10.5247 27.4127L9.38721 26.2752C7.62471 24.5127 7.62471 21.6502 9.39971 19.8752L18.4372 10.8377C20.2122 9.0627 23.0747 9.0627 24.8372 10.8252L25.9872 11.9627Z" fill="#5B26CF"/>
<path d="M22.1124 29.0001L20.4249 30.6876C20.0749 31.0376 19.5124 31.0376 19.1624 30.6876C18.8124 30.3376 18.8124 29.7751 19.1624 29.4251L20.8499 27.7376C21.1999 27.3876 21.7624 27.3876 22.1124 27.7376C22.4624 28.0876 22.4624 28.6501 22.1124 29.0001Z" fill="#5B26CF"/>
<path d="M27.5877 23.525L24.2252 26.8875C23.8752 27.2375 23.3127 27.2375 22.9627 26.8875C22.6127 26.5375 22.6127 25.975 22.9627 25.625L26.3252 22.2625C26.6752 21.9125 27.2377 21.9125 27.5877 22.2625C27.9252 22.6125 27.9252 23.175 27.5877 23.525Z" fill="#5B26CF"/>
</svg>
