<svg width="24" height="21" viewBox="0 0 24 21" fill="none" xmlns="http://www.w3.org/2000/svg">
<path d="M13.9174 0.37502C8.1911 0.21752 3.49985 4.81877 3.49985 10.5H1.4861C0.979851 10.5 0.732351 11.1075 1.09235 11.4563L4.2311 14.6063C4.4561 14.8313 4.80485 14.8313 5.02985 14.6063L8.1686 11.4563C8.24634 11.377 8.29887 11.2764 8.31956 11.1673C8.34025 11.0582 8.32818 10.9454 8.28486 10.8431C8.24155 10.7409 8.16894 10.6537 8.07618 10.5927C7.98342 10.5316 7.87465 10.4994 7.7636 10.5H5.74985C5.74985 6.11252 9.32735 2.56877 13.7374 2.62502C17.9224 2.68127 21.4436 6.20252 21.4999 10.3875C21.5561 14.7863 18.0124 18.375 13.6249 18.375C11.8136 18.375 10.1374 17.7563 8.80985 16.71C8.59437 16.5403 8.32402 16.4557 8.05021 16.4722C7.77641 16.4888 7.51825 16.6055 7.32485 16.8C6.85235 17.2725 6.8861 18.0713 7.41485 18.4763C9.18237 19.874 11.3714 20.6315 13.6249 20.625C19.3061 20.625 23.9074 15.9338 23.7499 10.2075C23.6036 4.93127 19.1936 0.52127 13.9174 0.37502ZM13.3436 6.00002C12.8824 6.00002 12.4999 6.38252 12.4999 6.84377V10.9838C12.4999 11.3775 12.7136 11.7488 13.0511 11.9513L16.5611 14.0325C16.9661 14.2688 17.4836 14.1338 17.7199 13.74C17.9561 13.335 17.8211 12.8175 17.4274 12.5813L14.1874 10.6575V6.83252C14.1874 6.38252 13.8049 6.00002 13.3436 6.00002Z" fill="#090415" fill-opacity="0.75"/>
</svg>
