<svg width="31" height="33" viewBox="0 0 31 33" fill="none" xmlns="http://www.w3.org/2000/svg">
<path d="M22.4486 11.9113C24.5795 13.4338 27.19 14.3296 30.0095 14.3296V8.90704C29.4758 8.90715 28.9437 8.85148 28.4216 8.74093V13.0092C25.6024 13.0092 22.9922 12.1135 20.8609 10.5912V21.6571C20.8609 27.1929 16.3709 31.6801 10.8327 31.6801C8.76625 31.6801 6.8455 31.0557 5.25 29.9848C7.07105 31.8459 9.61061 33.0003 12.4201 33.0003C17.9588 33.0003 22.4488 28.5131 22.4488 22.9771V11.9113H22.4486ZM24.4075 6.44061C23.3184 5.25148 22.6033 3.71474 22.4486 2.01577V1.31836H20.9439C21.3227 3.47767 22.6146 5.32245 24.4074 6.44061H24.4075ZM8.7529 25.7369C8.14447 24.9396 7.81558 23.9641 7.81706 22.9612C7.81706 20.4294 9.87072 18.3765 12.4045 18.3765C12.8766 18.3763 13.3459 18.4488 13.796 18.5914V13.0476C13.27 12.9756 12.7393 12.9449 12.2088 12.9562V17.2712C11.7585 17.1284 11.289 17.056 10.8166 17.0564C8.28298 17.0564 6.22943 19.1091 6.22943 21.6412C6.22943 23.4317 7.25586 24.9818 8.7529 25.7369Z" fill="#FF004F"/>
<path d="M20.8596 10.5911C22.9911 12.1134 25.601 13.0091 28.4203 13.0091V8.74081C26.8466 8.40574 25.4535 7.58386 24.4061 6.44061C22.6132 5.32233 21.3214 3.47756 20.9426 1.31836H16.9904V22.9768C16.9813 25.5018 14.9312 27.5462 12.4029 27.5462C10.9132 27.5462 9.58958 26.8365 8.75139 25.7368C7.25458 24.9818 6.22803 23.4316 6.22803 21.6413C6.22803 19.1094 8.28158 17.0566 10.8152 17.0566C11.3006 17.0566 11.7685 17.1321 12.2074 17.2713V12.9563C6.7664 13.0687 2.39062 17.5121 2.39062 22.977C2.39062 25.705 3.48026 28.178 5.24883 29.985C6.84432 31.0557 8.76497 31.6804 10.8315 31.6804C16.3698 31.6804 20.8597 27.1928 20.8597 21.6571V10.5912H20.8596V10.5911Z" fill="black"/>
<path d="M28.4299 8.74243V7.58856C27.0108 7.59071 25.6197 7.1935 24.4157 6.44234C25.4815 7.60854 26.8849 8.41276 28.4299 8.74266V8.74243ZM20.9522 1.31998C20.916 1.11367 20.8883 0.905971 20.8691 0.697409V0H15.4119V21.6587C15.4032 24.1834 13.3531 26.2279 10.8247 26.2279C10.1079 26.2289 9.40096 26.0614 8.76089 25.7388C9.59908 26.8382 10.9227 27.5478 12.4125 27.5478C14.9406 27.5478 16.991 25.5036 16.9999 22.9787V1.32009H20.9522V1.31998ZM12.2172 12.9579V11.7293C11.7612 11.667 11.3015 11.6358 10.8413 11.636C5.30237 11.636 0.8125 16.1235 0.8125 21.6587C0.8125 25.1291 2.57707 28.1875 5.25856 29.9866C3.48999 28.1797 2.40035 25.7065 2.40035 22.9786C2.40035 17.5138 6.77602 13.0704 12.2172 12.958V12.9579Z" fill="#00F2EA"/>
</svg>
