<svg width="43" height="43" viewBox="0 0 43 43" fill="none" xmlns="http://www.w3.org/2000/svg">
<circle cx="21.5" cy="21.5" r="21.5" fill="#EDF7FF"/>
<path opacity="0.4" d="M26.9375 9.5H16.4625C11.9125 9.5 9.19995 12.2125 9.19995 16.7625V27.225C9.19995 31.7875 11.9125 34.5 16.4625 34.5H26.925C31.475 34.5 34.1875 31.7875 34.1875 27.2375V16.7625C34.2 12.2125 31.4875 9.5 26.9375 9.5Z" fill="#4FB6F0"/>
<path d="M29.0122 23.9127C28.9122 23.6877 28.7372 23.5002 28.4997 23.4002C28.3872 23.3502 28.2622 23.3252 28.1372 23.3252H15.2622C14.7497 23.3252 14.3247 23.7502 14.3247 24.2627C14.3247 24.7752 14.7497 25.2002 15.2622 25.2002H25.8872L23.6872 27.4002C23.3247 27.7627 23.3247 28.3627 23.6872 28.7252C23.8747 28.9127 24.1122 29.0002 24.3497 29.0002C24.5872 29.0002 24.8247 28.9127 25.0122 28.7252L28.8122 24.9252C28.8997 24.8377 28.9622 24.7377 29.0122 24.6252C29.0997 24.4002 29.0997 24.1377 29.0122 23.9127Z" fill="#4FB6F0"/>
<path d="M14.3874 20.0873C14.4874 20.3123 14.6624 20.4998 14.8999 20.5998C15.0124 20.6498 15.1374 20.6748 15.2624 20.6748H28.1499C28.6624 20.6748 29.0874 20.2498 29.0874 19.7373C29.0874 19.2248 28.6624 18.7998 28.1499 18.7998H17.5249L19.7249 16.5998C20.0874 16.2373 20.0874 15.6373 19.7249 15.2748C19.3624 14.9123 18.7624 14.9123 18.3999 15.2748L14.5999 19.0623C14.5124 19.1498 14.4374 19.2623 14.3874 19.3748C14.2999 19.5998 14.2999 19.8623 14.3874 20.0873Z" fill="#4FB6F0"/>
</svg>
