<svg width="40" height="40" viewBox="0 0 40 40" fill="none" xmlns="http://www.w3.org/2000/svg">
<circle cx="20" cy="20" r="20" fill="#F2ECFF"/>
<path opacity="0.4" d="M25.0581 8.83691H15.3139C11.0814 8.83691 8.55811 11.3602 8.55811 15.5927V25.3253C8.55811 29.5695 11.0814 32.0927 15.3139 32.0927H25.0465C29.279 32.0927 31.8023 29.5695 31.8023 25.3369V15.5927C31.8139 11.3602 29.2907 8.83691 25.0581 8.83691Z" fill="#764AD7"/>
<path d="M26.989 22.2448C26.8959 22.0355 26.7331 21.861 26.5122 21.768C26.4076 21.7215 26.2913 21.6982 26.175 21.6982H14.1983C13.7215 21.6982 13.3262 22.0936 13.3262 22.5703C13.3262 23.0471 13.7215 23.4424 14.1983 23.4424H24.082L22.0355 25.4889C21.6983 25.8261 21.6983 26.3843 22.0355 26.7215C22.2099 26.8959 22.4308 26.9773 22.6518 26.9773C22.8727 26.9773 23.0936 26.8959 23.268 26.7215L26.8029 23.1866C26.8843 23.1052 26.9425 23.0122 26.989 22.9075C27.0704 22.6982 27.0704 22.4541 26.989 22.2448Z" fill="#764AD7"/>
<path d="M13.3843 18.6867C13.4773 18.896 13.6401 19.0704 13.861 19.1634C13.9657 19.2099 14.082 19.2332 14.1982 19.2332H26.1866C26.6634 19.2332 27.0587 18.8378 27.0587 18.3611C27.0587 17.8844 26.6634 17.489 26.1866 17.489H16.3029L18.3494 15.4425C18.6866 15.1053 18.6866 14.5471 18.3494 14.2099C18.0122 13.8727 17.4541 13.8727 17.1168 14.2099L13.582 17.7332C13.5006 17.8146 13.4308 17.9192 13.3843 18.0239C13.3029 18.2332 13.3029 18.4774 13.3843 18.6867Z" fill="#764AD7"/>
</svg>
