<svg width="35" height="28" viewBox="0 0 35 28" fill="none" xmlns="http://www.w3.org/2000/svg">
<path d="M34.2857 3.29839C33.0018 3.86716 31.64 4.24049 30.2456 4.40598C31.6981 3.53545 32.8133 2.15692 33.3384 0.51442C31.9577 1.33378 30.4471 1.91106 28.8718 2.22134C27.5886 0.854331 25.7606 0 23.7374 0C19.8526 0 16.703 3.14947 16.703 7.03393C16.703 7.58531 16.7653 8.1221 16.8852 8.63706C11.0392 8.34362 5.85616 5.5433 2.38674 1.28759C1.78138 2.32647 1.43451 3.53491 1.43451 4.82384C1.43451 7.26429 2.67643 9.41719 4.56375 10.6787C3.44672 10.6437 2.35426 10.342 1.37759 9.79875C1.37719 9.82822 1.37719 9.85768 1.37719 9.88728C1.37719 13.2954 3.80183 16.1384 7.0196 16.7846C5.98378 17.0663 4.89727 17.1075 3.84308 16.9051C4.73812 19.6997 7.33594 21.7333 10.4139 21.7902C8.00652 23.6767 4.97344 24.8013 1.67799 24.8013C1.11013 24.8013 0.550312 24.7679 0 24.703C3.1129 26.6988 6.81027 27.8633 10.7826 27.8633C23.721 27.8633 30.7961 17.1449 30.7961 7.84969C30.7961 7.5446 30.7894 7.24125 30.7757 6.93964C32.1528 5.94413 33.3414 4.71109 34.2857 3.29839Z" fill="#2D8ED8"/>
</svg>
