<svg width="20" height="20" viewBox="0 0 20 20" fill="none" xmlns="http://www.w3.org/2000/svg">
<path fill-rule="evenodd" clip-rule="evenodd" d="M14.1878 14.4163C12.8407 15.707 11.0129 16.5 9 16.5C4.85786 16.5 1.5 13.1421 1.5 9C1.5 4.85786 4.85786 1.5 9 1.5C13.1421 1.5 16.5 4.85786 16.5 9C16.5 11.0129 15.707 12.8407 14.4163 14.1878C14.3731 14.219 14.3318 14.254 14.2929 14.2929C14.254 14.3318 14.219 14.3731 14.1878 14.4163ZM14.6177 16.0319C13.078 17.2635 11.125 18 9 18C4.02944 18 0 13.9706 0 9C0 4.02944 4.02944 0 9 0C13.9706 0 18 4.02944 18 9C18 11.125 17.2635 13.078 16.0319 14.6177L19.7071 18.2929C20.0976 18.6834 20.0976 19.3166 19.7071 19.7071C19.3166 20.0976 18.6834 20.0976 18.2929 19.7071L14.6177 16.0319Z" fill="#C4C4C4"/>
</svg>
