<svg width="12" height="12" viewBox="0 0 12 12" fill="none" xmlns="http://www.w3.org/2000/svg">
<path d="M6.98377 7.98438H4.67432" stroke="#5B26CF" stroke-width="0.739024" stroke-miterlimit="10" stroke-linecap="round" stroke-linejoin="round"/>
<path d="M5.8291 6.85742V9.16687" stroke="#5B26CF" stroke-width="0.739024" stroke-miterlimit="10" stroke-linecap="round" stroke-linejoin="round"/>
<path d="M6.24357 2.01667L6.22971 2.049L4.89023 5.15752H3.57384C3.25976 5.15752 2.95953 5.22218 2.68701 5.33766L3.49532 3.40696L3.5138 3.36077L3.54613 3.28686C3.55537 3.25915 3.5646 3.23144 3.57846 3.20834C4.18354 1.80881 4.86713 1.49011 6.24357 2.01667Z" stroke="#5B26CF" stroke-width="0.739024" stroke-linecap="round" stroke-linejoin="round"/>
<path d="M8.73355 5.24983C8.5257 5.18517 8.30399 5.15746 8.08229 5.15746H4.89062L6.23011 2.04893L6.24396 2.0166C6.31325 2.0397 6.37791 2.07203 6.4472 2.09974L7.46797 2.5293C8.0361 2.76486 8.43332 3.00967 8.67351 3.30528C8.71969 3.3607 8.75665 3.41151 8.78898 3.47156C8.83055 3.53622 8.86288 3.60089 8.88136 3.67017C8.89983 3.71174 8.91369 3.75331 8.92293 3.79026C9.04764 4.17825 8.97374 4.654 8.73355 5.24983Z" stroke="#5B26CF" stroke-width="0.739024" stroke-linecap="round" stroke-linejoin="round"/>
<path d="M10.3372 7.41125V8.31194C10.3372 8.40431 10.3325 8.49669 10.3279 8.58907C10.2402 10.2011 9.33948 11.014 7.63049 11.014H4.02774C3.91689 11.014 3.80603 11.0048 3.6998 10.9909C2.23099 10.8939 1.44578 10.1087 1.34878 8.63988C1.33492 8.53364 1.32568 8.42279 1.32568 8.31194V7.41125C1.32568 6.48285 1.88919 5.68378 2.69288 5.33736C2.97001 5.22189 3.26562 5.15723 3.57971 5.15723H8.08776C8.31408 5.15723 8.53579 5.18956 8.73902 5.2496C9.65818 5.53136 10.3372 6.39047 10.3372 7.41125Z" stroke="#5B26CF" stroke-width="0.739024" stroke-linecap="round" stroke-linejoin="round"/>
<path d="M3.49582 3.40723L2.68751 5.33793C1.88382 5.68435 1.32031 6.48342 1.32031 7.41182V6.05848C1.32031 4.74671 2.25333 3.65203 3.49582 3.40723Z" stroke="#5B26CF" stroke-width="0.739024" stroke-linecap="round" stroke-linejoin="round"/>
<path d="M10.3354 6.05789V7.41123C10.3354 6.39507 9.66109 5.53134 8.7373 5.25421C8.97749 4.65375 9.04677 4.18262 8.9313 3.79001C8.92206 3.74844 8.9082 3.70687 8.88973 3.66992C9.74884 4.11334 10.3354 5.02326 10.3354 6.05789Z" stroke="#5B26CF" stroke-width="0.739024" stroke-linecap="round" stroke-linejoin="round"/>
</svg>
