<svg width="20" height="19" viewBox="0 0 20 19" fill="none" xmlns="http://www.w3.org/2000/svg">
<rect x="0.701172" y="0.158936" width="18.4749" height="18.4749" rx="6.22012" fill="#F5F1FF"/>
<path fill-rule="evenodd" clip-rule="evenodd" d="M9.81302 13.9749C9.86417 14.0016 9.92136 14.0152 9.97855 14.0148C10.0357 14.0143 10.0925 14.0003 10.1441 13.9731L11.792 13.0922C12.2593 12.8431 12.6252 12.5645 12.9107 12.2402C13.5315 11.5337 13.8705 10.6319 13.8644 9.70211L13.8449 6.63498C13.843 6.28171 13.611 5.96648 13.2678 5.8519L10.2022 4.82333C10.0176 4.76083 9.81534 4.76219 9.634 4.8265L6.57999 5.89175C6.23869 6.01087 6.01085 6.32836 6.01271 6.68209L6.03224 9.74695C6.03828 10.6781 6.38888 11.5758 7.01986 12.2751C7.30815 12.5949 7.67735 12.8693 8.14977 13.1144L9.81302 13.9749ZM9.37664 10.3701C9.44546 10.4363 9.53473 10.4689 9.62401 10.468C9.71329 10.4675 9.8021 10.434 9.86999 10.367L11.6709 8.59153C11.8062 8.45792 11.8048 8.24324 11.6681 8.11144C11.5309 7.97965 11.31 7.98055 11.1747 8.11416L9.6189 9.64773L8.98187 9.03539C8.8447 8.90359 8.6243 8.90495 8.48852 9.03856C8.35321 9.17217 8.3546 9.38685 8.49177 9.51865L9.37664 10.3701Z" fill="#5B26CF"/>
<rect x="0.701172" y="0.158447" width="18.4749" height="18.4749" rx="6.22012" fill="#F5F1FF"/>
<path d="M10.9835 10.9844H8.67407" stroke="#5B26CF" stroke-width="0.739024" stroke-miterlimit="10" stroke-linecap="round" stroke-linejoin="round"/>
<path d="M9.82861 9.85718V12.1666" stroke="#5B26CF" stroke-width="0.739024" stroke-miterlimit="10" stroke-linecap="round" stroke-linejoin="round"/>
<path d="M10.2436 5.01667L10.2297 5.049L8.89023 8.15752H7.57384C7.25976 8.15752 6.95953 8.22218 6.68701 8.33766L7.49532 6.40696L7.5138 6.36077L7.54613 6.28686C7.55537 6.25915 7.5646 6.23144 7.57846 6.20834C8.18354 4.80881 8.86713 4.49011 10.2436 5.01667Z" stroke="#5B26CF" stroke-width="0.739024" stroke-linecap="round" stroke-linejoin="round"/>
<path d="M12.7336 8.24983C12.5257 8.18517 12.304 8.15746 12.0823 8.15746H8.89062L10.2301 5.04893L10.244 5.0166C10.3132 5.0397 10.3779 5.07203 10.4472 5.09974L11.468 5.5293C12.0361 5.76486 12.4333 6.00967 12.6735 6.30528C12.7197 6.3607 12.7566 6.41151 12.789 6.47156C12.8305 6.53622 12.8629 6.60089 12.8814 6.67017C12.8998 6.71174 12.9137 6.75331 12.9229 6.79026C13.0476 7.17825 12.9737 7.654 12.7336 8.24983Z" stroke="#5B26CF" stroke-width="0.739024" stroke-linecap="round" stroke-linejoin="round"/>
<path d="M14.3367 10.4115V11.3122C14.3367 11.4046 14.3321 11.4969 14.3274 11.5893C14.2397 13.2013 13.339 14.0142 11.63 14.0142H8.02725C7.9164 14.0142 7.80555 14.005 7.69931 13.9911C6.2305 13.8941 5.44529 13.1089 5.34829 11.6401C5.33443 11.5339 5.3252 11.423 5.3252 11.3122V10.4115C5.3252 9.4831 5.8887 8.68403 6.69239 8.33761C6.96952 8.22214 7.26513 8.15747 7.57922 8.15747H12.0873C12.3136 8.15747 12.5353 8.1898 12.7385 8.24985C13.6577 8.5316 14.3367 9.39072 14.3367 10.4115Z" stroke="#5B26CF" stroke-width="0.739024" stroke-linecap="round" stroke-linejoin="round"/>
<path d="M7.49533 6.40698L6.68702 8.33768C5.88333 8.6841 5.31982 9.48317 5.31982 10.4116V9.05823C5.31982 7.74646 6.25284 6.65178 7.49533 6.40698Z" stroke="#5B26CF" stroke-width="0.739024" stroke-linecap="round" stroke-linejoin="round"/>
<path d="M14.3354 9.05789V10.4112C14.3354 9.39507 13.6611 8.53134 12.7373 8.25421C12.9775 7.65375 13.0468 7.18262 12.9313 6.79001C12.9221 6.74844 12.9082 6.70687 12.8897 6.66992C13.7488 7.11334 14.3354 8.02326 14.3354 9.05789Z" stroke="#5B26CF" stroke-width="0.739024" stroke-linecap="round" stroke-linejoin="round"/>
</svg>
