<svg width="33" height="24" viewBox="0 0 33 24" fill="none" xmlns="http://www.w3.org/2000/svg">
<g clip-path="url(#clip0_6320_73120)">
<path d="M32.2712 4.32998C32.0819 3.63048 31.7127 2.99276 31.2003 2.48034C30.6879 1.96792 30.0502 1.59866 29.3507 1.40935C26.7898 0.710938 16.4833 0.710938 16.4833 0.710938C16.4833 0.710938 6.17618 0.732078 3.61533 1.43049C2.91582 1.61982 2.27811 1.98909 1.76571 2.50154C1.25331 3.01398 0.884092 3.65172 0.69483 4.35125C-0.0797682 8.90138 -0.380249 15.8347 0.716099 20.2029C0.905382 20.9024 1.27461 21.5401 1.78701 22.0525C2.29941 22.5649 2.93711 22.9342 3.6366 23.1235C6.19745 23.8219 16.5043 23.8219 16.5043 23.8219C16.5043 23.8219 26.811 23.8219 29.3717 23.1235C30.0712 22.9342 30.7089 22.5649 31.2214 22.0525C31.7338 21.5401 32.103 20.9024 32.2923 20.2029C33.1093 15.6463 33.3611 8.71731 32.2712 4.33011V4.32998Z" fill="#FF0000"/>
<path d="M13.2031 17.221L21.7532 12.2687L13.2031 7.31641V17.221Z" fill="white"/>
</g>
<defs>
<clipPath id="clip0_6320_73120">
<rect width="33" height="23.2031" fill="white" transform="translate(0 0.710938)"/>
</clipPath>
</defs>
</svg>
